<svg xmlns="http://www.w3.org/2000/svg" xmlns:xlink="http://www.w3.org/1999/xlink" id="Layer_1" x="0px" y="0px" width="363px" height="255px" viewBox="0 0 363 255" xml:space="preserve"><polygon fill="#D4A686" points="202.123,36.546 310.958,56.06 310.958,204.709 181.813,254.27 181.813,42.177 "></polygon><path fill="#2A2829" d="M181.813,255.02c-0.149,0-0.298-0.045-0.425-0.131c-0.204-0.141-0.325-0.371-0.325-0.619V42.177 c0-0.337,0.225-0.633,0.55-0.723l20.31-5.631c0.108-0.03,0.222-0.036,0.333-0.016l108.836,19.514 c0.357,0.064,0.617,0.375,0.617,0.738v148.649c0,0.312-0.191,0.589-0.481,0.7L182.082,254.97 C181.995,255.003,181.904,255.02,181.813,255.02z M182.562,42.748V253.18l127.646-48.986V56.688l-108.05-19.373L182.562,42.748z"></path><g>	<polygon fill="#D4A686" points="181.813,42.177 181.813,254.27 181.811,254.271 60.75,216.211 60.75,75.744  "></polygon>	<path fill="#2A2829" d="M181.81,255.021c-0.076,0-0.151-0.013-0.224-0.035l-121.062-38.06c-0.312-0.098-0.525-0.388-0.525-0.715  V75.744c0-0.337,0.225-0.633,0.55-0.723l121.063-33.566c0.225-0.064,0.467-0.016,0.654,0.125c0.188,0.142,0.297,0.363,0.297,0.597  V254.27c0,0.282-0.16,0.541-0.412,0.67C182.045,254.993,181.928,255.021,181.81,255.021z M61.5,215.661l119.563,37.588V43.164  L61.5,76.314V215.661z"></path></g><g>	<polygon fill="#D4A686" points="60.756,75.745 17.937,37.519 159.214,1.827 202.227,36.517  "></polygon>	<path fill="#2A2829" d="M60.756,76.495c-0.182,0-0.36-0.066-0.5-0.19L17.438,38.078c-0.207-0.185-0.295-0.469-0.229-0.738  c0.066-0.27,0.276-0.48,0.545-0.548L159.03,1.1c0.227-0.06,0.471-0.005,0.654,0.143l43.011,34.69  c0.22,0.177,0.322,0.461,0.265,0.736s-0.263,0.496-0.534,0.571L60.956,76.467C60.89,76.486,60.823,76.495,60.756,76.495z   M19.49,37.9l41.46,37.013l139.669-38.728L159.035,2.646L19.49,37.9z"></path></g><polygon fill="#D4A686" points="310.933,56.051 340.308,21.772 236.814,0.75 202.227,36.517 "></polygon><path fill="#2A2829" d="M310.933,56.801c-0.044,0-0.089-0.004-0.133-0.012L202.093,37.255c-0.272-0.049-0.495-0.244-0.581-0.508 c-0.084-0.264-0.018-0.553,0.176-0.752l34.588-35.767c0.179-0.184,0.439-0.265,0.688-0.213l103.492,21.021 c0.261,0.053,0.474,0.24,0.56,0.491c0.088,0.251,0.033,0.53-0.14,0.731l-29.375,34.279 C311.358,56.707,311.149,56.801,310.933,56.801z M203.743,36.028l106.899,19.209l28.267-32.984L237.068,1.567L203.743,36.028z"></path><g>	<g>		<polygon fill="#B58B6A" points="202.154,36.546 202.195,36.553 202.195,93.222 181.853,100.173 60.781,75.752 60.781,75.744   "></polygon>		<path fill="#2A2829" d="M181.853,100.911c-0.049,0-0.098-0.005-0.146-0.015L60.635,76.476c-0.344-0.069-0.592-0.372-0.592-0.723   c0-0.332,0.221-0.631,0.541-0.72l141.374-39.198c0.106-0.03,0.222-0.035,0.33-0.015c0.351,0.064,0.646,0.377,0.646,0.733v56.668   c0,0.315-0.201,0.596-0.5,0.698l-20.342,6.951C182.016,100.897,181.934,100.911,181.853,100.911z M63.934,75.635l117.87,23.775   l19.654-6.716V37.505L63.934,75.635z"></path>	</g>	<g>		<polygon fill="#B58B6A" points="310.958,56.054 202.195,93.222 202.195,36.553   "></polygon>		<path fill="#2A2829" d="M202.195,93.959c-0.152,0-0.303-0.047-0.43-0.138c-0.193-0.138-0.309-0.362-0.309-0.6V36.553   c0-0.218,0.098-0.426,0.264-0.566c0.168-0.14,0.389-0.197,0.604-0.161l108.763,19.5c0.331,0.06,0.58,0.335,0.605,0.67   s-0.18,0.646-0.497,0.754L202.434,93.92C202.355,93.947,202.275,93.959,202.195,93.959z M202.934,37.435v54.754l105.09-35.913   L202.934,37.435z"></path>	</g></g><g>	<g>		<path d="M292.85,46.119c-0.499,0-0.998-0.045-1.48-0.132l-50.759-9.239c-2.12-0.384-3.848-1.566-4.862-3.325   c-1.011-1.761-1.184-3.875-0.486-5.952c0.002-0.006,0.031-0.083,0.033-0.09c2.955-8.641,11.769-14.925,20.949-14.925   c1.173,0,2.342,0.104,3.477,0.311l29.643,5.398c4.856,0.882,8.833,3.558,11.196,7.533c2.428,4.084,2.875,9.037,1.258,13.943   c-0.717,2.129-2.18,3.914-4.146,5.096C296.174,45.641,294.504,46.119,292.85,46.119L292.85,46.119z"></path>		<path fill="#FFFFFF" d="M256.245,12.924c1.132,0,2.268,0.098,3.393,0.303l4.261,0.777l21.12,3.844l4.263,0.776   c9.905,1.8,15.301,11.133,12.094,20.87l-0.025,0.07c-0.678,2.017-2.126,3.694-3.917,4.771c-1.389,0.837-2.982,1.314-4.583,1.314   c-0.466,0-0.933-0.04-1.396-0.125l-50.758-9.238c-2.052-0.372-3.638-1.532-4.542-3.099c-0.9-1.57-1.123-3.553-0.447-5.569   l0.027-0.072C238.678,18.935,247.4,12.924,256.245,12.924 M256.245,11.989c-9.375,0-18.374,6.416-21.397,15.257l-0.017,0.04   c-0.754,2.241-0.566,4.491,0.51,6.369c1.087,1.883,2.928,3.145,5.187,3.554l50.758,9.238c0.511,0.093,1.036,0.14,1.564,0.14   c1.739,0,3.491-0.501,5.064-1.449c2.061-1.24,3.596-3.113,4.321-5.274l0.018-0.049c1.67-5.065,1.208-10.153-1.29-14.356   c-2.434-4.093-6.523-6.847-11.516-7.754l-4.262-0.776l-21.121-3.845l-4.26-0.777C258.645,12.096,257.445,11.989,256.245,11.989   L256.245,11.989z"></path>	</g>	<g>		<path d="M291.453,45.526c2.051,0.372,4.186-0.109,5.979-1.19c1.791-1.077,3.239-2.754,3.917-4.771l0.025-0.07   c3.208-9.738-2.188-19.071-12.094-20.87l-4.263-0.776l0,0l0,0l0,0l0,0l-21.12-3.844l0,0l0,0l0,0l0,0l-4.261-0.777   c-9.907-1.8-20.582,4.604-23.906,14.321l-0.026,0.072c-0.677,2.016-0.452,3.999,0.448,5.569c0.904,1.568,2.49,2.728,4.541,3.099   L291.453,45.526z"></path>		<path fill="#FFFFFF" d="M282.293,21.15L282.293,21.15c0.573,0,1.146,0.051,1.7,0.153c2.337,0.425,4.239,1.703,5.359,3.6   c1.153,1.957,1.35,4.34,0.554,6.712c-1.447,4.312-5.815,7.442-10.387,7.442c-0.573,0-1.146-0.051-1.7-0.152   c-2.335-0.425-4.235-1.703-5.355-3.597c-1.155-1.956-1.353-4.341-0.557-6.715C273.356,24.281,277.724,21.151,282.293,21.15    M282.292,20.272c-4.847,0-9.628,3.31-11.216,8.042c-1.792,5.34,1.155,10.467,6.586,11.455c0.616,0.112,1.237,0.166,1.857,0.166   c4.85,0,9.631-3.308,11.219-8.041c1.796-5.337-1.155-10.467-6.588-11.455C283.534,20.326,282.913,20.272,282.292,20.272   L282.292,20.272z"></path>		<path fill="#FFFFFF" d="M287.529,36.498c-0.065,0-0.134-0.024-0.186-0.073l-1.61-1.491c-0.11-0.103-0.117-0.277-0.015-0.388   s0.276-0.118,0.388-0.015l1.609,1.491c0.111,0.103,0.118,0.277,0.016,0.388C287.678,36.467,287.604,36.498,287.529,36.498z"></path>		<path fill="#FFFFFF" d="M289.23,34.439c-0.041,0-0.083-0.009-0.122-0.028l-2.02-0.988c-0.137-0.066-0.193-0.231-0.127-0.368   c0.066-0.137,0.228-0.192,0.368-0.126l2.021,0.988c0.136,0.066,0.192,0.23,0.126,0.367   C289.43,34.384,289.331,34.439,289.23,34.439z"></path>		<path fill="#FFFFFF" d="M290.364,32.104c-0.017,0-0.032-0.001-0.05-0.005l-2.297-0.418c-0.148-0.027-0.247-0.17-0.22-0.319   c0.027-0.148,0.173-0.247,0.319-0.22l2.297,0.417c0.147,0.028,0.247,0.17,0.221,0.319   C290.609,32.012,290.494,32.104,290.364,32.104z"></path>		<path fill="#FFFFFF" d="M288.445,29.83c-0.142,0-0.262-0.11-0.273-0.253c-0.012-0.151,0.102-0.283,0.253-0.293l2.413-0.181   c0.147-0.009,0.283,0.104,0.294,0.254c0.011,0.151-0.103,0.282-0.254,0.293l-2.413,0.181   C288.459,29.83,288.452,29.83,288.445,29.83z"></path>		<path fill="#FFFFFF" d="M288.308,28.009c-0.115,0-0.223-0.074-0.261-0.189c-0.046-0.145,0.033-0.3,0.177-0.346l2.371-0.766   c0.138-0.048,0.299,0.032,0.346,0.177c0.047,0.144-0.033,0.299-0.178,0.346l-2.37,0.767   C288.365,28.004,288.337,28.009,288.308,28.009z"></path>		<path fill="#FFFFFF" d="M287.674,26.348c-0.095,0-0.185-0.047-0.236-0.133c-0.078-0.13-0.036-0.298,0.094-0.377l2.163-1.301   c0.132-0.079,0.299-0.036,0.376,0.094c0.079,0.13,0.037,0.298-0.093,0.377l-2.163,1.301   C287.77,26.335,287.721,26.348,287.674,26.348z"></path>		<path fill="#FFFFFF" d="M286.585,24.959c-0.073,0-0.145-0.028-0.197-0.083c-0.106-0.109-0.103-0.283,0.005-0.388l1.802-1.743   c0.109-0.105,0.284-0.102,0.389,0.006c0.104,0.11,0.103,0.283-0.007,0.388l-1.802,1.743   C286.722,24.933,286.652,24.959,286.585,24.959z"></path>		<path fill="#FFFFFF" d="M285.105,23.938c-0.053,0-0.103-0.014-0.148-0.043c-0.128-0.081-0.164-0.251-0.084-0.378l1.326-2.072   c0.082-0.127,0.253-0.164,0.38-0.083c0.128,0.081,0.165,0.251,0.082,0.379l-1.326,2.072   C285.283,23.893,285.194,23.938,285.105,23.938z"></path>		<path fill="#FFFFFF" d="M283.348,23.356c-0.029,0-0.059-0.005-0.088-0.014c-0.145-0.049-0.221-0.204-0.174-0.348l0.757-2.261   c0.049-0.144,0.206-0.221,0.347-0.173c0.145,0.049,0.222,0.204,0.174,0.348l-0.756,2.261   C283.568,23.284,283.463,23.356,283.348,23.356z"></path>		<path fill="#FFFFFF" d="M281.419,23.248c-0.006,0-0.012,0-0.017,0c-0.152-0.009-0.268-0.14-0.257-0.291l0.142-2.289   c0.01-0.152,0.116-0.251,0.292-0.258c0.15,0.01,0.266,0.14,0.256,0.291l-0.142,2.289   C281.684,23.136,281.562,23.248,281.419,23.248z"></path>		<path fill="#FFFFFF" d="M279.468,23.627c-0.125,0-0.238-0.086-0.268-0.215l-0.491-2.167c-0.033-0.147,0.06-0.294,0.208-0.328   c0.146-0.033,0.294,0.059,0.328,0.207l0.49,2.167c0.035,0.148-0.058,0.294-0.206,0.328   C279.509,23.625,279.489,23.627,279.468,23.627z"></path>		<path fill="#FFFFFF" d="M277.616,24.46c-0.096,0-0.188-0.049-0.238-0.137l-1.089-1.894c-0.075-0.132-0.03-0.299,0.101-0.375   c0.13-0.075,0.299-0.03,0.374,0.101l1.089,1.893c0.076,0.132,0.03,0.299-0.1,0.375C277.71,24.449,277.662,24.46,277.616,24.46z"></path>		<path fill="#FFFFFF" d="M275.99,25.7c-0.065,0-0.134-0.025-0.185-0.074l-1.609-1.493c-0.111-0.103-0.116-0.276-0.015-0.388   c0.103-0.11,0.278-0.119,0.388-0.014l1.607,1.493c0.111,0.104,0.119,0.277,0.016,0.388C276.139,25.669,276.065,25.7,275.99,25.7z"></path>		<path fill="#FFFFFF" d="M274.703,27.251c-0.041,0-0.081-0.01-0.121-0.028l-2.021-0.988c-0.136-0.066-0.191-0.23-0.126-0.368   c0.066-0.136,0.228-0.193,0.368-0.126l2.02,0.988c0.137,0.066,0.193,0.23,0.127,0.368   C274.901,27.194,274.805,27.251,274.703,27.251z"></path>		<path fill="#FFFFFF" d="M273.844,29.018c-0.017,0-0.032-0.001-0.05-0.004l-2.294-0.419c-0.149-0.027-0.248-0.17-0.221-0.319   s0.175-0.246,0.319-0.221l2.295,0.419c0.147,0.027,0.247,0.17,0.221,0.319C274.089,28.925,273.974,29.018,273.844,29.018z"></path>		<path fill="#FFFFFF" d="M271.054,31.052c-0.143,0-0.264-0.11-0.274-0.254c-0.012-0.151,0.104-0.283,0.253-0.294l2.415-0.177   c0.15-0.012,0.283,0.103,0.295,0.253c0.011,0.152-0.104,0.283-0.254,0.293l-2.416,0.177   C271.067,31.052,271.06,31.052,271.054,31.052z"></path>		<path fill="#FFFFFF" d="M271.233,33.463c-0.115,0-0.223-0.074-0.261-0.19c-0.046-0.144,0.032-0.298,0.177-0.345l2.366-0.769   c0.145-0.047,0.3,0.032,0.347,0.176s-0.032,0.298-0.176,0.345l-2.367,0.768C271.291,33.459,271.263,33.463,271.233,33.463z"></path>		<path fill="#FFFFFF" d="M281.953,30.292c-0.193,0.574-0.823,0.955-1.406,0.847c-0.586-0.106-0.902-0.66-0.711-1.233   c0.194-0.575,0.826-0.954,1.411-0.849C281.831,29.166,282.147,29.717,281.953,30.292z"></path>		<path fill="#FFFFFF" d="M280.896,30.375c-0.096,0-0.188-0.05-0.237-0.138l-2.839-4.935c-0.077-0.132-0.031-0.3,0.1-0.375   s0.3-0.031,0.374,0.101l2.839,4.935c0.076,0.132,0.03,0.299-0.1,0.375C280.989,30.363,280.941,30.375,280.896,30.375z"></path>		<path fill="#FFFFFF" d="M282.667,35.561c-0.069,0.206-0.302,0.343-0.516,0.304l-5.993-1.093c-0.215-0.04-0.332-0.239-0.264-0.445   l0.39-1.151c0.069-0.206,0.301-0.343,0.516-0.304l5.991,1.092c0.215,0.04,0.332,0.239,0.264,0.445L282.667,35.561z"></path>		<g>			<path d="M277.414,34.274c-0.035,0.103-0.151,0.171-0.258,0.152l-0.224-0.041c-0.107-0.02-0.167-0.12-0.133-0.224l0.177-0.529    c0.033-0.103,0.149-0.172,0.256-0.152l0.227,0.041c0.106,0.02,0.167,0.12,0.132,0.223L277.414,34.274z"></path>			<path d="M278.325,34.438c-0.034,0.104-0.151,0.172-0.258,0.153l-0.227-0.041c-0.105-0.02-0.166-0.119-0.131-0.221l0.179-0.531    c0.034-0.103,0.15-0.171,0.257-0.151l0.224,0.04c0.107,0.02,0.167,0.12,0.133,0.223L278.325,34.438z"></path>			<path d="M279.235,34.605c-0.035,0.103-0.151,0.172-0.258,0.153l-0.223-0.04c-0.106-0.02-0.166-0.12-0.132-0.222l0.178-0.533    c0.034-0.103,0.149-0.171,0.257-0.151l0.225,0.041c0.106,0.02,0.167,0.12,0.132,0.223L279.235,34.605z"></path>			<path d="M280.152,34.771c-0.035,0.103-0.149,0.172-0.257,0.153l-0.229-0.042c-0.106-0.02-0.167-0.12-0.132-0.222l0.177-0.531    c0.035-0.103,0.15-0.171,0.258-0.152l0.227,0.042c0.105,0.02,0.166,0.12,0.132,0.222L280.152,34.771z"></path>			<path d="M281.061,34.938c-0.035,0.103-0.151,0.171-0.258,0.152l-0.225-0.041c-0.106-0.02-0.166-0.12-0.132-0.223l0.179-0.53    c0.035-0.103,0.15-0.172,0.257-0.152l0.225,0.04c0.107,0.02,0.167,0.119,0.132,0.222L281.061,34.938z"></path>			<path d="M281.974,35.103c-0.034,0.103-0.15,0.172-0.258,0.153l-0.222-0.041c-0.106-0.02-0.167-0.119-0.133-0.222l0.177-0.533    c0.034-0.103,0.149-0.172,0.257-0.152l0.224,0.041c0.106,0.02,0.167,0.12,0.133,0.222L281.974,35.103z"></path>		</g>		<path fill="#FF0000" d="M264.574,30.725c0.923-0.89,1.65-1.983,2.062-3.214c0.413-1.23,0.463-2.443,0.213-3.54l3.078-0.969   c0.353,1.568,0.274,3.294-0.315,5.047c-0.587,1.754-1.616,3.313-2.92,4.58L264.574,30.725z"></path>		<path fill="#FFFFFF" d="M261.173,17.305L261.173,17.305c0.572,0,1.146,0.051,1.697,0.151c2.336,0.427,4.238,1.706,5.358,3.603   c1.153,1.956,1.349,4.339,0.552,6.71c-1.445,4.313-5.813,7.443-10.386,7.443c-0.574,0-1.146-0.051-1.699-0.152   c-2.337-0.425-4.237-1.701-5.357-3.596c-1.154-1.956-1.352-4.34-0.555-6.714C252.23,20.437,256.6,17.305,261.173,17.305    M261.173,16.426c-4.853,0-9.634,3.31-11.221,8.045c-1.794,5.339,1.153,10.465,6.586,11.453c0.614,0.112,1.235,0.167,1.856,0.167   c4.848,0,9.63-3.309,11.218-8.042c1.796-5.337-1.154-10.465-6.584-11.457C262.412,16.48,261.792,16.426,261.173,16.426   L261.173,16.426z"></path>		<path fill="#FFFFFF" d="M266.405,32.65c-0.066,0-0.134-0.024-0.186-0.073l-1.61-1.488c-0.111-0.103-0.117-0.276-0.016-0.388   c0.104-0.111,0.276-0.119,0.388-0.015l1.609,1.488c0.112,0.103,0.119,0.275,0.017,0.388   C266.553,32.621,266.479,32.65,266.405,32.65z"></path>		<path fill="#FFFFFF" d="M268.107,30.594c-0.04,0-0.082-0.01-0.121-0.028l-2.023-0.989c-0.137-0.067-0.193-0.231-0.127-0.368   c0.064-0.137,0.229-0.194,0.368-0.126l2.024,0.988c0.136,0.067,0.191,0.231,0.126,0.368   C268.307,30.538,268.208,30.594,268.107,30.594z"></path>		<path fill="#FFFFFF" d="M269.244,28.26c-0.017,0-0.033-0.001-0.051-0.004l-2.3-0.418c-0.148-0.027-0.247-0.17-0.22-0.319   c0.026-0.148,0.165-0.25,0.319-0.22l2.3,0.417c0.148,0.028,0.248,0.17,0.222,0.319C269.488,28.167,269.374,28.26,269.244,28.26z"></path>		<path fill="#FFFFFF" d="M267.321,25.986c-0.142,0-0.263-0.11-0.274-0.253c-0.011-0.152,0.103-0.283,0.253-0.294l2.412-0.181   c0.153-0.005,0.284,0.103,0.294,0.253c0.011,0.152-0.103,0.283-0.254,0.294l-2.412,0.18   C267.335,25.986,267.327,25.986,267.321,25.986z"></path>		<path fill="#FFFFFF" d="M267.187,24.164c-0.115,0-0.223-0.074-0.26-0.19c-0.047-0.144,0.032-0.298,0.176-0.345l2.365-0.768   c0.143-0.048,0.299,0.032,0.346,0.176c0.048,0.144-0.03,0.298-0.175,0.345l-2.366,0.768   C267.244,24.16,267.216,24.164,267.187,24.164z"></path>		<path fill="#FFFFFF" d="M266.553,22.504c-0.093,0-0.185-0.047-0.235-0.133c-0.079-0.13-0.037-0.298,0.094-0.377l2.159-1.305   c0.129-0.079,0.299-0.038,0.377,0.093c0.078,0.129,0.036,0.298-0.095,0.376l-2.159,1.305   C266.649,22.491,266.601,22.504,266.553,22.504z"></path>		<path fill="#FFFFFF" d="M265.457,21.111c-0.073,0-0.145-0.028-0.198-0.084c-0.105-0.11-0.102-0.282,0.006-0.388l1.806-1.742   c0.111-0.106,0.284-0.101,0.389,0.006c0.104,0.11,0.103,0.283-0.007,0.389l-1.806,1.741   C265.593,21.086,265.524,21.111,265.457,21.111z"></path>		<path fill="#FFFFFF" d="M263.982,20.091c-0.052,0-0.103-0.014-0.147-0.042c-0.128-0.082-0.165-0.252-0.085-0.379l1.325-2.07   c0.082-0.127,0.254-0.164,0.379-0.083c0.129,0.081,0.165,0.251,0.083,0.378l-1.324,2.07   C264.16,20.047,264.072,20.091,263.982,20.091z"></path>		<path fill="#FFFFFF" d="M262.222,19.506c-0.029,0-0.059-0.004-0.089-0.015c-0.144-0.048-0.22-0.204-0.173-0.348l0.759-2.251   c0.051-0.144,0.206-0.222,0.349-0.172c0.143,0.049,0.221,0.204,0.174,0.348l-0.761,2.251   C262.441,19.434,262.335,19.506,262.222,19.506z"></path>		<path fill="#FFFFFF" d="M260.299,19.402c-0.006,0-0.012,0-0.018,0c-0.151-0.01-0.267-0.139-0.257-0.291l0.136-2.286   c0.012-0.151,0.146-0.251,0.292-0.257c0.151,0.01,0.267,0.139,0.257,0.291l-0.137,2.286   C260.563,19.29,260.442,19.402,260.299,19.402z"></path>		<path fill="#FFFFFF" d="M258.344,19.78c-0.125,0-0.238-0.086-0.268-0.214l-0.491-2.164c-0.033-0.148,0.06-0.294,0.206-0.329   c0.153-0.032,0.295,0.059,0.33,0.207l0.49,2.164c0.035,0.147-0.059,0.294-0.206,0.329C258.384,19.778,258.365,19.78,258.344,19.78   z"></path>		<path fill="#FFFFFF" d="M256.489,20.615c-0.095,0-0.187-0.05-0.238-0.137l-1.083-1.891c-0.075-0.132-0.029-0.299,0.103-0.374   c0.131-0.076,0.297-0.03,0.374,0.101l1.083,1.89c0.074,0.132,0.028,0.299-0.102,0.374   C256.582,20.603,256.536,20.615,256.489,20.615z"></path>		<path fill="#FFFFFF" d="M254.866,21.851c-0.065,0-0.133-0.024-0.186-0.072l-1.612-1.49c-0.111-0.103-0.116-0.276-0.016-0.388   c0.104-0.112,0.276-0.118,0.389-0.015l1.611,1.489c0.111,0.103,0.119,0.276,0.017,0.388   C255.015,21.822,254.941,21.851,254.866,21.851z"></path>		<path fill="#FFFFFF" d="M253.576,23.408c-0.04,0-0.082-0.009-0.12-0.028l-2.019-0.988c-0.137-0.066-0.192-0.231-0.126-0.368   c0.067-0.137,0.235-0.191,0.368-0.126l2.018,0.987c0.137,0.067,0.193,0.231,0.127,0.368   C253.775,23.351,253.679,23.408,253.576,23.408z"></path>		<path fill="#FFFFFF" d="M252.72,25.175c-0.018,0-0.033-0.001-0.05-0.004l-2.292-0.419c-0.15-0.027-0.249-0.17-0.221-0.319   c0.026-0.149,0.173-0.246,0.319-0.221l2.293,0.419c0.147,0.027,0.247,0.17,0.219,0.319   C252.965,25.082,252.85,25.175,252.72,25.175z"></path>		<path fill="#FFFFFF" d="M249.931,27.21c-0.142,0-0.263-0.109-0.273-0.253c-0.012-0.152,0.101-0.282,0.253-0.294l2.411-0.18   c0.154-0.004,0.283,0.102,0.294,0.253c0.012,0.152-0.102,0.283-0.254,0.294l-2.411,0.18   C249.944,27.209,249.938,27.21,249.931,27.21z"></path>		<path fill="#FFFFFF" d="M250.111,29.617c-0.115,0-0.224-0.074-0.261-0.19c-0.047-0.144,0.032-0.298,0.177-0.345l2.366-0.768   c0.145-0.047,0.3,0.032,0.347,0.176c0.046,0.144-0.032,0.298-0.176,0.345l-2.367,0.768   C250.168,29.612,250.141,29.617,250.111,29.617z"></path>		<path fill="#FFFFFF" d="M258.778,26.87c-0.277-0.479-0.058-1.14,0.494-1.469c0.551-0.333,1.22-0.208,1.499,0.272   c0.274,0.48,0.058,1.14-0.494,1.471C259.728,27.477,259.057,27.354,258.778,26.87z"></path>		<path fill="#FFFFFF" d="M265.767,27.637c-0.016,0-0.032-0.001-0.05-0.005l-5.989-1.089c-0.149-0.027-0.248-0.17-0.221-0.319   s0.166-0.25,0.319-0.221l5.99,1.089c0.148,0.027,0.248,0.17,0.221,0.319C266.012,27.544,265.897,27.637,265.767,27.637z"></path>		<path fill="#FFFFFF" d="M244.169,26.293c-0.028,0-0.058-0.005-0.088-0.014c-0.144-0.049-0.221-0.204-0.173-0.348l0.312-0.931   c0.048-0.145,0.201-0.222,0.348-0.173c0.144,0.049,0.221,0.204,0.173,0.348l-0.312,0.931   C244.391,26.222,244.284,26.293,244.169,26.293z"></path>		<path fill="#FFFFFF" d="M242.57,26.395c-0.125,0-0.238-0.086-0.268-0.214l-0.203-0.894c-0.033-0.148,0.059-0.294,0.209-0.328   c0.144-0.034,0.293,0.059,0.327,0.207l0.203,0.894c0.034,0.148-0.06,0.294-0.207,0.329C242.61,26.393,242.59,26.395,242.57,26.395   z"></path>		<path fill="#FFFFFF" d="M241.127,27.243c-0.066,0-0.134-0.024-0.186-0.073l-0.663-0.614c-0.111-0.104-0.118-0.277-0.016-0.388   c0.102-0.111,0.276-0.118,0.388-0.015l0.663,0.615c0.11,0.103,0.118,0.277,0.015,0.388   C241.274,27.213,241.201,27.243,241.127,27.243z"></path>		<path fill="#FFFFFF" d="M246.205,28.233c-0.117,0-0.223-0.074-0.262-0.19c-0.047-0.144,0.031-0.299,0.176-0.346l0.979-0.318   c0.143-0.046,0.298,0.032,0.346,0.176c0.047,0.144-0.032,0.299-0.176,0.346l-0.979,0.318   C246.261,28.229,246.232,28.233,246.205,28.233z"></path>		<path fill="#FFFFFF" d="M245.502,26.967c-0.071,0-0.145-0.028-0.198-0.083c-0.105-0.108-0.102-0.283,0.006-0.388l0.746-0.722   c0.107-0.106,0.282-0.103,0.389,0.006c0.104,0.109,0.102,0.282-0.007,0.388l-0.746,0.722   C245.639,26.942,245.569,26.967,245.502,26.967z"></path>		<path fill="#FFFFFF" d="M243.271,29.404c-0.295,0.086-0.574-0.058-0.634-0.323c-0.054-0.271,0.14-0.561,0.434-0.649   c0.291-0.091,0.57,0.055,0.628,0.323C243.755,29.023,243.562,29.312,243.271,29.404z"></path>		<path fill="#FFFFFF" d="M243.171,29.19c-0.055,0-0.108-0.016-0.155-0.049c-0.126-0.085-0.157-0.256-0.071-0.381l1.102-1.606   c0.088-0.125,0.257-0.156,0.382-0.071c0.125,0.085,0.157,0.256,0.071,0.381l-1.102,1.606   C243.342,29.149,243.257,29.19,243.171,29.19z"></path>		<g>			<path fill="#FFFFFF" d="M243.837,25.046L243.837,25.046c0.251,0,0.499,0.021,0.742,0.067c0.996,0.18,1.806,0.721,2.279,1.521    c0.49,0.831,0.573,1.853,0.23,2.876c-0.639,1.905-2.571,3.289-4.594,3.289c-0.251,0-0.499-0.022-0.742-0.066    c-0.997-0.181-1.809-0.721-2.28-1.521c-0.49-0.832-0.571-1.852-0.227-2.876C239.882,26.43,241.813,25.046,243.837,25.046     M243.837,24.168c-2.346,0-4.66,1.6-5.426,3.889c-0.869,2.583,0.556,5.064,3.185,5.539c0.298,0.055,0.6,0.081,0.898,0.081    c2.346,0,4.659-1.6,5.427-3.888c0.865-2.583-0.56-5.064-3.187-5.541C244.438,24.195,244.137,24.168,243.837,24.168    L243.837,24.168z"></path>		</g>		<path fill="#FFFFFF" d="M294.874,35.521c-0.028,0-0.058-0.004-0.087-0.014c-0.144-0.048-0.222-0.204-0.173-0.348l0.312-0.934   c0.047-0.144,0.206-0.221,0.347-0.173c0.144,0.049,0.221,0.204,0.174,0.348l-0.312,0.934   C295.097,35.448,294.989,35.521,294.874,35.521z"></path>		<path fill="#FFFFFF" d="M296.229,36.158c-0.071,0-0.144-0.028-0.198-0.083c-0.104-0.108-0.102-0.282,0.007-0.389l0.745-0.722   c0.108-0.105,0.281-0.103,0.389,0.007c0.104,0.108,0.102,0.282-0.007,0.388l-0.745,0.722   C296.366,36.131,296.297,36.158,296.229,36.158z"></path>		<path fill="#FFFFFF" d="M296.968,37.403c-0.116,0-0.223-0.074-0.261-0.19c-0.047-0.144,0.031-0.298,0.176-0.346l0.976-0.318   c0.143-0.046,0.298,0.031,0.346,0.177c0.047,0.144-0.031,0.298-0.176,0.346l-0.976,0.318   C297.025,37.398,296.996,37.403,296.968,37.403z"></path>		<path fill="#FFFFFF" d="M291.848,36.538c-0.066,0-0.134-0.024-0.186-0.073l-0.665-0.615c-0.111-0.103-0.119-0.276-0.017-0.388   c0.104-0.111,0.277-0.118,0.388-0.015l0.665,0.616c0.111,0.103,0.118,0.276,0.016,0.388   C291.994,36.508,291.921,36.538,291.848,36.538z"></path>		<path fill="#FFFFFF" d="M293.269,35.658c-0.127,0-0.239-0.087-0.268-0.214L292.8,34.55c-0.033-0.148,0.059-0.294,0.207-0.328   c0.146-0.034,0.296,0.059,0.328,0.208l0.202,0.894c0.032,0.147-0.06,0.294-0.207,0.328   C293.309,35.656,293.289,35.658,293.269,35.658z"></path>		<path fill="#FFFFFF" d="M293.528,38.548c0.204,0.18,0.545,0.148,0.763-0.068c0.217-0.223,0.229-0.544,0.029-0.722   c-0.201-0.181-0.545-0.148-0.763,0.071C293.34,38.045,293.328,38.368,293.528,38.548z"></path>		<path fill="#FFFFFF" d="M293.926,38.426c-0.002,0-0.004,0-0.006,0c-0.151-0.004-0.272-0.13-0.268-0.282l0.044-1.797   c0.003-0.151,0.112-0.28,0.28-0.268c0.151,0.004,0.271,0.13,0.268,0.282l-0.044,1.797   C294.195,38.308,294.075,38.426,293.926,38.426z"></path>		<g>			<path fill="#FFFFFF" d="M294.599,34.282c0.249,0,0.498,0.021,0.738,0.066c0.998,0.182,1.811,0.724,2.284,1.526    c0.489,0.831,0.571,1.85,0.23,2.868c-0.645,1.909-2.578,3.293-4.599,3.293c-0.251,0-0.501-0.022-0.742-0.066    c-0.996-0.183-1.807-0.723-2.279-1.525c-0.491-0.831-0.574-1.852-0.231-2.874C290.641,35.666,292.575,34.282,294.599,34.282     M294.599,33.404c-2.346,0-4.659,1.598-5.431,3.889c-0.866,2.585,0.562,5.063,3.187,5.542c0.298,0.054,0.599,0.081,0.898,0.081    c2.344,0,4.657-1.601,5.431-3.891c0.865-2.583-0.563-5.062-3.19-5.54C295.196,33.43,294.897,33.404,294.599,33.404    L294.599,33.404z"></path>		</g>		<g>			<g>				<g>					<path fill="#FFFFFF" d="M242.602,31.597c0.004,0.011,0.007,0.025,0.002,0.041l-0.037,0.106      c-0.003,0.017-0.014,0.028-0.029,0.037c-0.011,0.011-0.024,0.014-0.042,0.008l-1.098-0.2c-0.016-0.001-0.026-0.011-0.034-0.02      c-0.008-0.016-0.006-0.03-0.004-0.043l0.038-0.109c0.004-0.013,0.009-0.023,0.026-0.033c0.016-0.01,0.027-0.014,0.043-0.008      l1.102,0.2C242.584,31.574,242.595,31.583,242.602,31.597z M243.502,30.689l-0.249,0.752c-0.026,0.073-0.075,0.127-0.14,0.163      c-0.073,0.041-0.142,0.05-0.215,0.032c-0.062-0.021-0.104-0.059-0.132-0.116c-0.023-0.058-0.025-0.118-0.004-0.183l0.031-0.096      c0.013-0.039,0.011-0.074-0.009-0.101c-0.02-0.032-0.046-0.05-0.082-0.057l-0.027-0.005l-0.128,0.377l-0.991-0.178l0.399-1.187      c0.021-0.06,0.059-0.105,0.118-0.142c0.057-0.033,0.119-0.046,0.176-0.036l0.55,0.102c0.059,0.011,0.103,0.041,0.135,0.09      c0.027,0.052,0.033,0.106,0.016,0.167l-0.219,0.645l0.025,0.005c0.084,0.017,0.146,0.058,0.182,0.126      c0.044,0.068,0.05,0.145,0.021,0.224l-0.035,0.111c-0.009,0.021-0.009,0.044,0,0.062c0.013,0.019,0.031,0.03,0.055,0.034      c0.022,0.005,0.042,0,0.064-0.015c0.021-0.012,0.034-0.027,0.044-0.052l0.181-0.542c-0.042-0.02-0.073-0.044-0.096-0.085      c-0.02-0.04-0.019-0.084-0.007-0.131l0.072-0.211l-0.088-0.151c-0.007-0.011-0.007-0.023-0.004-0.041      c0.008-0.016,0.013-0.026,0.028-0.032l0.055-0.037c0.011-0.007,0.026-0.007,0.043-0.005c0.014,0.003,0.025,0.011,0.033,0.02      l0.186,0.325C243.521,30.574,243.523,30.629,243.502,30.689L243.502,30.689z M242.729,30.229l-0.552-0.101l-0.146,0.432      l0.552,0.098L242.729,30.229z"></path>				</g>			</g>		</g>		<g>			<g>				<g>					<path fill="#FFFFFF" d="M292.045,40.332c-0.007-0.01-0.005-0.023,0-0.04l0.035-0.107c0.006-0.017,0.016-0.03,0.027-0.037      c0.015-0.01,0.027-0.01,0.044-0.007l0.057,0.007c0.043,0.009,0.081,0.009,0.117,0.003c0.04-0.003,0.071-0.013,0.096-0.028      c0.047-0.023,0.087-0.035,0.129-0.026l0.053,0.007c0.036,0.009,0.069,0.031,0.093,0.068c0.022,0.034,0.062,0.063,0.123,0.083      c-0.017,0.088-0.004,0.166,0.032,0.235l-0.055-0.006c-0.062-0.011-0.122-0.033-0.173-0.063      c-0.051-0.029-0.091-0.065-0.122-0.105c-0.051,0.027-0.11,0.043-0.176,0.056c-0.062,0.007-0.126,0.004-0.189-0.007      l-0.058-0.009C292.064,40.353,292.054,40.345,292.045,40.332z M294.127,40.972c0.011,0.014,0.01,0.028,0.004,0.043      l-0.037,0.106c-0.003,0.015-0.013,0.027-0.024,0.036c-0.013,0.009-0.031,0.012-0.046,0.009l-0.056-0.011      c-0.063-0.011-0.125-0.03-0.174-0.062c-0.048-0.028-0.088-0.063-0.121-0.104c-0.053,0.025-0.109,0.044-0.175,0.052      c-0.064,0.011-0.128,0.01-0.19-0.004c-0.063-0.011-0.12-0.03-0.172-0.06c-0.054-0.03-0.092-0.065-0.12-0.107      c-0.054,0.026-0.111,0.044-0.177,0.053c-0.062,0.011-0.129,0.008-0.191-0.003c-0.062-0.011-0.121-0.033-0.173-0.062      c-0.051-0.027-0.093-0.067-0.124-0.104c-0.048,0.024-0.108,0.041-0.17,0.05c-0.064,0.011-0.13,0.008-0.193-0.006l-0.056-0.008      c-0.017-0.003-0.025-0.008-0.034-0.022c-0.008-0.011-0.006-0.026,0-0.04l0.036-0.11c0.006-0.017,0.013-0.027,0.027-0.036      c0.014-0.008,0.027-0.011,0.046-0.008l0.053,0.011c0.044,0.008,0.084,0.008,0.119,0.002c0.04-0.005,0.069-0.014,0.095-0.028      c0.044-0.024,0.084-0.036,0.123-0.027l0.058,0.008c0.038,0.009,0.071,0.03,0.098,0.068c0.009,0.02,0.032,0.042,0.061,0.058      c0.031,0.017,0.066,0.029,0.108,0.038c0.042,0.008,0.082,0.008,0.116,0.003c0.041-0.003,0.069-0.014,0.099-0.028      c0.043-0.027,0.084-0.035,0.124-0.027l0.053,0.009c0.04,0.007,0.073,0.03,0.099,0.068c0.009,0.019,0.029,0.038,0.062,0.058      c0.03,0.017,0.065,0.029,0.107,0.039c0.042,0.005,0.078,0.008,0.117,0.001c0.04-0.004,0.068-0.016,0.094-0.029      c0.046-0.022,0.09-0.033,0.126-0.025l0.057,0.009c0.038,0.005,0.069,0.03,0.097,0.068c0.012,0.02,0.033,0.04,0.061,0.058      c0.029,0.017,0.067,0.03,0.109,0.039l0.054,0.008C294.109,40.952,294.122,40.958,294.127,40.972z M292.956,40.43      c-0.036-0.063-0.04-0.128-0.018-0.208c0.02-0.051,0.051-0.098,0.096-0.137c0.044-0.04,0.099-0.064,0.152-0.076l0.244-0.725      c0.004-0.017,0.018-0.027,0.025-0.036c0.017-0.008,0.03-0.011,0.048-0.008l0.33,0.058c0.019,0.006,0.028,0.015,0.033,0.025      c0.009,0.01,0.009,0.024,0.003,0.041l-0.017,0.053c-0.004,0.017-0.018,0.029-0.031,0.038c-0.012,0.008-0.025,0.011-0.04,0.008      l-0.165-0.03l-0.038,0.106l0.162,0.03c0.016,0.005,0.029,0.011,0.037,0.021c0.005,0.014,0.007,0.028,0,0.044l-0.018,0.052      c-0.006,0.017-0.015,0.027-0.028,0.036c-0.01,0.008-0.025,0.013-0.047,0.01l-0.16-0.031l-0.04,0.109l0.167,0.03      c0.018,0.004,0.026,0.009,0.033,0.022c0.004,0.011,0.011,0.024,0,0.041l-0.016,0.056c-0.004,0.016-0.015,0.027-0.029,0.035      c-0.012,0.009-0.027,0.011-0.042,0.009l-0.165-0.031l-0.027,0.08c0.042,0.028,0.071,0.068,0.088,0.117      c0.016,0.05,0.014,0.102-0.008,0.156c-0.022,0.077-0.07,0.134-0.142,0.178c-0.071,0.04-0.147,0.057-0.221,0.044      C293.048,40.532,292.991,40.492,292.956,40.43z M294.269,40.542c0.014,0.008,0.014,0.024,0.009,0.041l-0.037,0.107      c-0.006,0.017-0.014,0.027-0.027,0.036c-0.015,0.007-0.026,0.012-0.044,0.007l-0.058-0.007      c-0.066-0.014-0.126-0.034-0.173-0.062c-0.052-0.031-0.088-0.066-0.121-0.107c-0.051,0.027-0.109,0.043-0.174,0.054      c-0.062,0.009-0.13,0.005-0.191-0.004l-0.054-0.015c0.074-0.049,0.134-0.115,0.176-0.196c0.066,0.002,0.123-0.008,0.166-0.033      c0.044-0.024,0.083-0.033,0.121-0.024l0.059,0.008c0.036,0.006,0.067,0.03,0.093,0.069c0.013,0.019,0.033,0.04,0.062,0.056      c0.031,0.017,0.069,0.031,0.109,0.039l0.053,0.008C294.255,40.52,294.267,40.529,294.269,40.542z"></path>				</g>			</g>		</g>	</g></g><g>	<path d="M239.409,84.522c-0.125,4.52,2.995,8.743,6.973,9.436s7.302-2.409,7.429-6.925c0.125-4.52-2.998-8.743-6.976-9.436  C242.859,76.904,239.536,80.002,239.409,84.522L239.409,84.522z"></path>	<g>		<path d="M247.484,94.555c-0.393,0-0.793-0.035-1.188-0.104c-4.204-0.732-7.519-5.192-7.387-9.942   c0.12-4.281,3.053-7.509,6.821-7.509c0.393,0,0.793,0.035,1.189,0.104c4.205,0.733,7.52,5.193,7.389,9.942   C254.189,91.327,251.255,94.555,247.484,94.555L247.484,94.555z"></path>		<path fill="#FFFFFF" d="M245.73,77.5c0.36,0,0.729,0.032,1.104,0.097c3.978,0.693,7.101,4.916,6.976,9.436   c-0.115,4.091-2.854,7.021-6.326,7.021c-0.359,0-0.729-0.032-1.103-0.097c-3.978-0.692-7.098-4.916-6.973-9.436   C239.523,80.428,242.264,77.5,245.73,77.5 M245.73,76.5c-4.045,0-7.193,3.437-7.321,7.995c-0.138,4.988,3.36,9.676,7.801,10.449   c0.426,0.074,0.854,0.111,1.274,0.111c4.048,0,7.195-3.437,7.324-7.993c0.139-4.988-3.361-9.676-7.803-10.45   C246.581,76.538,246.152,76.5,245.73,76.5L245.73,76.5z"></path>	</g>	<g>		<path d="M253.1,115.53c-1.045,0-1.859-0.292-2.424-0.867c-0.568-0.58-0.847-1.417-0.824-2.486   c0.176-6.194,2.076-11.021,5.652-14.352c3.618-3.378,7.373-5.474,10.303-5.75c0.234-0.021,0.459-0.03,0.68-0.03   c3.48,0,5.453,2.414,5.486,4.083c0.004,5.3-3.924,10.023-6.266,12.367C261.568,112.637,256.385,115.53,253.1,115.53L253.1,115.53z   "></path>		<path fill="#FFFFFF" d="M266.484,92.545c3.191,0,4.959,2.186,4.986,3.593c0.01,9.175-12.65,18.892-18.373,18.892   c-1.699,0-2.787-0.858-2.748-2.843c0.205-7.244,2.732-11.423,5.494-13.996c3.746-3.497,7.381-5.37,10.008-5.618   C266.068,92.554,266.279,92.545,266.484,92.545 M266.484,91.545c-0.232,0-0.473,0.01-0.719,0.032   c-3.043,0.287-6.906,2.431-10.604,5.883c-3.677,3.425-5.632,8.371-5.812,14.699c-0.023,1.217,0.301,2.175,0.967,2.854   c0.662,0.674,1.598,1.017,2.781,1.017c3.117,0,7.944-2.521,12.014-6.271c4.682-4.315,7.363-9.281,7.359-13.623   C272.436,94.25,270.282,91.545,266.484,91.545L266.484,91.545z"></path>	</g>	<g>		<path d="M250.402,121.057c-1.592,0-3.219-0.143-4.836-0.424c-17.25-3.006-30.84-21.374-30.293-40.944   c0.494-17.727,12.093-30.594,27.58-30.594c1.592,0,3.219,0.143,4.834,0.424c17.25,3.008,30.842,21.377,30.299,40.948   C277.492,108.191,265.893,121.057,250.402,121.057z"></path>		<path fill="#FFFFFF" d="M242.854,49.595c1.551,0,3.137,0.136,4.748,0.417c17.078,2.978,30.424,21.037,29.885,40.441   c-0.488,17.568-12.194,30.104-27.082,30.104c-1.553,0-3.139-0.136-4.75-0.417c-17.07-2.975-30.422-21.037-29.879-40.437   C216.264,62.132,227.967,49.595,242.854,49.595 M242.854,48.595L242.854,48.595c-7.533,0-14.522,3.123-19.68,8.792   c-5.175,5.691-8.158,13.606-8.4,22.288c-0.553,19.809,13.223,38.403,30.707,41.45c1.646,0.286,3.302,0.432,4.922,0.432   c7.535,0,14.523-3.122,19.682-8.791c5.176-5.69,8.16-13.604,8.4-22.285c0.551-19.809-13.228-38.405-30.713-41.455   C246.128,48.74,244.475,48.595,242.854,48.595L242.854,48.595z"></path>	</g>	<g>		<path d="M247.201,92.03c-0.277,0-0.561-0.024-0.84-0.073c-3.043-0.529-5.354-3.632-5.26-7.064c0.088-3.061,2.199-5.37,4.916-5.37   c0.275,0,0.558,0.025,0.836,0.073c2.994,0.523,5.354,3.694,5.258,7.067C252.025,89.723,249.914,92.03,247.201,92.03z"></path>		<path fill="#FFFFFF" d="M246.018,80.023c0.246,0,0.496,0.021,0.752,0.066c2.739,0.479,4.932,3.444,4.844,6.56   c-0.08,2.827-2.006,4.881-4.411,4.881c-0.247,0-0.498-0.021-0.753-0.066c-2.74-0.477-4.934-3.365-4.846-6.558   C241.684,82.079,243.609,80.024,246.018,80.023 M246.018,79.023L246.018,79.023c-2.992,0-5.319,2.518-5.414,5.855   c-0.102,3.675,2.392,7,5.674,7.571c0.308,0.053,0.619,0.081,0.925,0.081c2.989,0,5.315-2.516,5.411-5.854   c0.102-3.612-2.442-7.009-5.672-7.573C246.633,79.051,246.322,79.023,246.018,79.023L246.018,79.023z"></path>	</g>	<path fill="#B3B3B3" d="M239.409,84.522c-0.125,4.52,2.995,8.743,6.973,9.436s7.302-2.409,7.429-6.925  c0.125-4.52-2.998-8.743-6.976-9.436C242.859,76.904,239.536,80.002,239.409,84.522L239.409,84.522z"></path>	<path fill="#B3B3B3" d="M221.695,74.938c-0.178,1.381,2.365,1.666,3.947,1.706c4.963-0.151,13.397-3.54,21.69-2.092  c5.83,1.014,11.983,5.218,16.131,7.349c1.425,0.72,3.455,1.935,6.4,2.603c1.092,0.269,2.202,0.149,2.159-0.952  c-0.19-7.788-8.543-24.667-24.592-27.458C235.229,53.966,222.977,63.495,221.695,74.938L221.695,74.938z"></path>	<path fill="#B3B3B3" d="M221.55,87.441c-0.67,11.786,19.789,31.87,20.029,23.22c0.198-7.248-2.074-12.263-4.662-15.766  c-3.521-4.688-6.946-7.864-9.606-8.957C223.773,84.383,221.66,85.976,221.55,87.441L221.55,87.441z"></path></g><g opacity="0.5">	<path fill="#EFDAB9" d="M105.346,243.587v-9.454l3.19,1.023c0.615,0.197,1.128,0.47,1.54,0.816c0.411,0.348,0.719,0.74,0.926,1.18  c0.206,0.438,0.309,0.895,0.309,1.369c0,0.394-0.066,0.709-0.198,0.946c-0.133,0.237-0.312,0.406-0.541,0.505  c-0.228,0.101-0.481,0.144-0.761,0.131v0.072c0.304,0.12,0.6,0.321,0.886,0.605c0.287,0.283,0.522,0.628,0.707,1.031  c0.185,0.404,0.277,0.847,0.277,1.326c0,0.478-0.106,0.869-0.318,1.174c-0.212,0.306-0.538,0.496-0.977,0.568  c-0.438,0.073-0.996,0.001-1.673-0.216L105.346,243.587z M106.209,238.68l2.405,0.772c0.372,0.12,0.699,0.147,0.979,0.083  c0.28-0.064,0.499-0.207,0.655-0.428c0.157-0.221,0.235-0.504,0.235-0.853c0-0.502-0.163-0.962-0.489-1.383  c-0.327-0.42-0.813-0.733-1.459-0.94l-2.327-0.748L106.209,238.68L106.209,238.68z M106.209,243.089l2.502,0.804  c0.729,0.233,1.269,0.246,1.618,0.034c0.349-0.211,0.524-0.561,0.524-1.051c0-0.36-0.087-0.715-0.261-1.065  c-0.174-0.35-0.419-0.66-0.734-0.935c-0.316-0.274-0.686-0.479-1.11-0.615l-2.539-0.813V243.089z"></path>	<path fill="#EFDAB9" d="M115.571,247.031c-0.428-0.137-0.819-0.348-1.173-0.629c-0.354-0.28-0.635-0.614-0.845-1  c-0.209-0.385-0.313-0.805-0.313-1.262c0-0.351,0.066-0.625,0.198-0.822c0.132-0.198,0.32-0.334,0.563-0.41  s0.531-0.105,0.863-0.088c0.333,0.018,0.699,0.065,1.099,0.145c0.397,0.079,0.733,0.143,1.009,0.195  c0.275,0.051,0.485,0.061,0.63,0.025c0.145-0.033,0.217-0.14,0.217-0.317v-0.167c0-0.483-0.144-0.91-0.432-1.281  c-0.288-0.371-0.701-0.643-1.24-0.814c-0.511-0.164-0.927-0.186-1.249-0.063c-0.321,0.122-0.547,0.313-0.676,0.577l-0.78-0.532  c0.16-0.336,0.381-0.575,0.665-0.717c0.283-0.142,0.6-0.208,0.951-0.198s0.707,0.072,1.067,0.188  c0.271,0.087,0.553,0.214,0.847,0.379c0.293,0.164,0.566,0.375,0.819,0.63s0.457,0.562,0.614,0.922  c0.157,0.36,0.235,0.776,0.235,1.25v4.815l-0.822-0.265v-1.122l-0.05-0.017c-0.099,0.178-0.245,0.334-0.439,0.469  c-0.194,0.136-0.437,0.218-0.729,0.25C116.308,247.205,115.964,247.157,115.571,247.031z M115.682,246.314  c0.437,0.14,0.815,0.164,1.135,0.072c0.321-0.091,0.567-0.27,0.741-0.535c0.174-0.265,0.261-0.593,0.261-0.979v-1.024  c-0.062,0.038-0.164,0.059-0.307,0.059c-0.143,0-0.308-0.012-0.494-0.036s-0.372-0.054-0.556-0.088  c-0.185-0.035-0.351-0.066-0.499-0.097c-0.4-0.078-0.741-0.11-1.024-0.098c-0.283,0.014-0.5,0.088-0.651,0.223  s-0.227,0.346-0.227,0.631c0,0.432,0.154,0.813,0.462,1.148C114.831,245.923,115.217,246.165,115.682,246.314z"></path>	<path fill="#EFDAB9" d="M123.594,249.592c-0.634-0.203-1.186-0.539-1.655-1.006c-0.469-0.468-0.833-1.02-1.091-1.652  c-0.259-0.634-0.388-1.303-0.388-2.008c0-0.711,0.131-1.301,0.395-1.771c0.263-0.47,0.628-0.787,1.096-0.952  c0.468-0.165,1.011-0.148,1.63,0.05c0.474,0.152,0.903,0.381,1.288,0.688c0.384,0.307,0.703,0.666,0.953,1.076  c0.251,0.412,0.409,0.848,0.473,1.309l-0.831-0.268c-0.086-0.428-0.293-0.836-0.621-1.227c-0.328-0.391-0.744-0.666-1.249-0.828  c-0.452-0.146-0.853-0.15-1.2-0.02c-0.348,0.134-0.62,0.387-0.815,0.76c-0.195,0.373-0.293,0.846-0.293,1.418  c0,0.574,0.096,1.115,0.286,1.618c0.191,0.502,0.459,0.934,0.806,1.295c0.346,0.36,0.752,0.614,1.216,0.764  c0.314,0.101,0.601,0.134,0.861,0.099c0.26-0.035,0.478-0.133,0.655-0.295c0.177-0.162,0.296-0.384,0.358-0.666l0.831,0.268  c-0.062,0.408-0.213,0.74-0.455,0.996c-0.242,0.257-0.554,0.419-0.938,0.486C124.524,249.795,124.086,249.75,123.594,249.592z"></path>	<path fill="#EFDAB9" d="M128.058,250.877v-9.455l0.822,0.264v9.455L128.058,250.877z M128.806,248.439l-0.009-1.078l0.185,0.059  l3.324-2.271l1.039,0.334l-3.282,2.232l-0.074-0.01L128.806,248.439z M132.476,252.295l-2.88-4.566l0.591-0.379l3.342,5.283  L132.476,252.295z"></path></g><g>	<path fill="#FFFFFF" d="M168.867,239.939c1.722,0.557,2.925-0.319,2.925-2.129l-0.091-4.15v-0.772c0-1.715-1.133-3.278-2.754-3.802  l-20.758-6.705c-1.756-0.568-2.981,0.307-2.981,2.124l-0.038,4.08v0.772c0,1.725,1.104,3.227,2.816,3.835  c0.007,0.003,0.015,0.004,0.024,0.007L168.867,239.939z"></path>	<g>		<path d="M150.202,230.837c0-1.146-0.748-2.321-1.467-3.422c-0.613-1.012-1.04-1.521-1.04-2.375c0-0.345,0.239-0.443,0.494-0.36   c0.253,0.081,0.438,0.328,0.438,0.648v0.879l1.48,0.479v-0.772c0-1.253-0.772-2.329-1.918-2.699   c-1.441-0.465-2.147,0.346-2.147,1.561c0,1.104,0.814,2.435,1.48,3.395c0.6,0.943,1.026,1.628,1.026,2.346   c0,0.377-0.172,0.533-0.518,0.42c-0.36-0.115-0.548-0.417-0.548-0.777v-0.825l-1.479-0.478v0.772c0,1.287,0.748,2.292,2.007,2.739   l2.19-1.484C150.2,230.867,150.202,230.853,150.202,230.837z"></path>		<polygon points="153.294,230.563 153.294,226.581 154.522,226.978 154.522,225.419 150.36,224.075 150.36,225.634 151.587,226.03    151.587,229.941 152.405,229.39   "></polygon>		<polygon points="156.708,235.006 156.708,226.126 154.986,225.569 154.986,232.805 156.634,234.981   "></polygon>		<polygon points="161.839,227.782 160.172,227.245 159.202,230.798 159.202,226.933 157.478,226.375 157.478,235.255    159.202,235.812 159.202,233.571 159.561,232.474 160.214,236.138 161.934,236.693 160.76,231.167   "></polygon>		<polygon points="164.415,231.935 163.693,228.383 161.971,227.826 163.454,233.572 163.454,237.186 165.161,237.736    165.161,234.123 166.746,229.369 165.066,228.826   "></polygon>		<path d="M169.494,234.121c-0.615-1.012-1.04-1.521-1.04-2.375c0-0.346,0.24-0.443,0.493-0.361s0.44,0.328,0.44,0.648v0.879   l1.481,0.479v-0.772c0-1.253-0.777-2.33-1.921-2.699c-1.44-0.465-2.148,0.346-2.148,1.561c0,1.104,0.813,2.434,1.481,3.395   c0.599,0.944,1.027,1.628,1.027,2.346c0,0.377-0.173,0.534-0.521,0.422c-0.361-0.117-0.547-0.418-0.547-0.778v-0.825l-1.48-0.479   v0.772c0,1.32,0.787,2.349,2.108,2.774c1.185,0.385,2.093-0.163,2.093-1.563C170.96,236.396,170.212,235.22,169.494,234.121z"></path>	</g>	<polygon fill="#F6C908" points="154.986,233.422 153.294,231.184 152.405,230.009 151.587,230.562 150.096,231.571   148.812,232.441 149.01,232.505 151.587,233.337 153.294,233.888 154.986,234.435 155.998,234.762  "></polygon></g><path fill="none" stroke="#FFFFFF" stroke-width="2.2" stroke-miterlimit="10" d="M242.988,200.498 c-0.062,0-0.126,0.006-0.186,0.016c0.014-1.686-0.085-3.332-0.295-4.928c0.061-0.017,0.119-0.036,0.179-0.064 c0.798-0.37,1.251-1.487,1.009-2.485l-0.8-3.286c-0.189-0.777-0.75-1.262-1.365-1.262c-0.172,0-0.353,0.039-0.528,0.12 c-0.059,0.028-0.117,0.062-0.173,0.098c-0.54-1.466-1.181-2.861-1.919-4.172c0.053-0.044,0.106-0.092,0.157-0.144 c0.653-0.683,0.726-1.866,0.159-2.63l-1.863-2.514c-0.303-0.41-0.731-0.619-1.163-0.619c-0.373,0-0.749,0.155-1.053,0.472 c-0.05,0.053-0.099,0.109-0.14,0.165c-1.002-1.034-2.086-1.968-3.242-2.79c0.039-0.062,0.074-0.127,0.104-0.193 c0.412-0.892,0.091-1.961-0.713-2.373l-2.642-1.362c-0.219-0.109-0.448-0.163-0.678-0.163c-0.619,0-1.228,0.383-1.526,1.034 c-0.031,0.065-0.055,0.135-0.079,0.202c-1.305-0.45-2.667-0.777-4.077-0.973c0.016-0.071,0.029-0.144,0.038-0.22 c0.104-0.964-0.561-1.754-1.478-1.754h-3.019c-0.919,0-1.753,0.79-1.856,1.754c-0.008,0.074-0.01,0.147-0.01,0.22 c-1.451,0.195-2.887,0.522-4.289,0.972c-0.006-0.066-0.018-0.134-0.033-0.201c-0.158-0.651-0.685-1.034-1.303-1.034 c-0.229,0-0.474,0.052-0.714,0.163l-2.938,1.362c-0.893,0.412-1.443,1.481-1.226,2.372c0.014,0.067,0.039,0.132,0.061,0.194 c-1.334,0.822-2.62,1.756-3.846,2.79c-0.029-0.057-0.064-0.113-0.102-0.165c-0.236-0.316-0.579-0.472-0.951-0.472 c-0.434,0-0.906,0.209-1.299,0.619l-2.406,2.514c-0.73,0.764-0.916,1.948-0.409,2.63c0.039,0.052,0.079,0.1,0.125,0.144 c-1.021,1.311-1.965,2.706-2.821,4.173c-0.047-0.036-0.1-0.07-0.152-0.099c-0.158-0.081-0.328-0.12-0.5-0.12 c-0.616,0-1.281,0.484-1.639,1.263l-1.512,3.285c-0.459,0.998-0.246,2.116,0.471,2.486c0.053,0.028,0.109,0.047,0.164,0.064 c-0.555,1.596-1.01,3.241-1.357,4.926c-0.061-0.008-0.121-0.015-0.184-0.015c-0.82,0-1.587,0.881-1.704,1.962l-0.384,3.555 c-0.117,1.081,0.459,1.964,1.278,1.964c0.063,0,0.124-0.007,0.187-0.016c-0.015,1.685,0.084,3.33,0.293,4.925 c-0.059,0.018-0.119,0.039-0.178,0.066c-0.798,0.368-1.252,1.486-1.01,2.484l0.801,3.287c0.189,0.778,0.749,1.262,1.364,1.262 c0.174,0,0.353-0.038,0.527-0.121c0.06-0.026,0.119-0.062,0.175-0.097c0.539,1.467,1.182,2.861,1.918,4.174 c-0.054,0.043-0.105,0.089-0.156,0.143c-0.654,0.683-0.726,1.865-0.16,2.629l1.863,2.515c0.305,0.41,0.732,0.618,1.164,0.618 c0.373,0,0.75-0.154,1.053-0.47c0.049-0.053,0.097-0.11,0.138-0.168c1.003,1.036,2.087,1.97,3.243,2.791 c-0.036,0.062-0.074,0.126-0.104,0.192c-0.41,0.893-0.09,1.961,0.713,2.373l2.643,1.36c0.218,0.111,0.45,0.166,0.68,0.166 c0.618,0,1.227-0.384,1.525-1.034c0.029-0.066,0.055-0.134,0.077-0.202c1.305,0.45,2.668,0.775,4.078,0.974 c-0.016,0.07-0.029,0.144-0.037,0.218c-0.104,0.965,0.558,1.756,1.477,1.756h3.019c0.917,0,1.753-0.791,1.857-1.756 c0.008-0.074,0.009-0.147,0.009-0.218c1.453-0.199,2.886-0.523,4.288-0.974c0.008,0.068,0.018,0.136,0.035,0.202 c0.158,0.65,0.683,1.034,1.302,1.034c0.229,0,0.472-0.052,0.714-0.166l2.937-1.36c0.894-0.412,1.445-1.48,1.226-2.373 c-0.014-0.066-0.035-0.131-0.061-0.192c1.334-0.821,2.619-1.755,3.845-2.791c0.03,0.058,0.065,0.114,0.104,0.168 c0.234,0.315,0.576,0.47,0.949,0.47c0.434,0,0.906-0.207,1.299-0.618l2.406-2.515c0.732-0.764,0.916-1.948,0.41-2.629 c-0.039-0.052-0.082-0.1-0.127-0.143c1.022-1.312,1.965-2.707,2.822-4.174c0.048,0.035,0.1,0.07,0.151,0.097 c0.159,0.082,0.331,0.121,0.503,0.121c0.615,0,1.281-0.483,1.639-1.262l1.51-3.287c0.459-0.998,0.247-2.115-0.47-2.484 c-0.055-0.027-0.108-0.048-0.166-0.066c0.557-1.595,1.01-3.24,1.36-4.925c0.059,0.009,0.12,0.016,0.183,0.016 c0.82,0,1.587-0.883,1.704-1.964l0.384-3.555C244.384,201.379,243.809,200.498,242.988,200.498z"></path><path fill="none" stroke="#FFFFFF" stroke-width="2.2" stroke-miterlimit="10" d="M305.58,173.812c-0.062,0-0.126,0.006-0.186,0.016 c0.014-1.686-0.085-3.332-0.295-4.928c0.061-0.017,0.119-0.036,0.179-0.064c0.798-0.37,1.251-1.487,1.009-2.485l-0.8-3.286 c-0.189-0.777-0.75-1.262-1.365-1.262c-0.172,0-0.353,0.039-0.528,0.12c-0.059,0.028-0.117,0.062-0.173,0.098 c-0.54-1.466-1.181-2.861-1.919-4.172c0.053-0.044,0.106-0.092,0.157-0.144c0.653-0.683,0.726-1.866,0.159-2.63l-1.863-2.514 c-0.303-0.41-0.731-0.619-1.163-0.619c-0.373,0-0.749,0.155-1.053,0.472c-0.05,0.053-0.099,0.109-0.14,0.165 c-1.002-1.034-2.086-1.968-3.242-2.79c0.039-0.062,0.074-0.127,0.104-0.193c0.412-0.892,0.091-1.961-0.713-2.373l-2.642-1.362 c-0.219-0.109-0.448-0.163-0.678-0.163c-0.619,0-1.228,0.383-1.526,1.034c-0.031,0.065-0.055,0.135-0.079,0.202 c-1.305-0.45-2.667-0.777-4.077-0.973c0.016-0.071,0.029-0.144,0.038-0.22c0.104-0.964-0.561-1.754-1.478-1.754h-3.019 c-0.919,0-1.753,0.79-1.856,1.754c-0.008,0.074-0.01,0.147-0.01,0.22c-1.451,0.195-2.887,0.522-4.289,0.972 c-0.006-0.066-0.018-0.134-0.033-0.201c-0.158-0.651-0.685-1.034-1.303-1.034c-0.229,0-0.474,0.052-0.714,0.163l-2.938,1.362 c-0.893,0.412-1.443,1.481-1.226,2.372c0.014,0.067,0.039,0.132,0.061,0.194c-1.334,0.822-2.62,1.756-3.846,2.79 c-0.029-0.057-0.064-0.113-0.102-0.165c-0.236-0.316-0.579-0.472-0.951-0.472c-0.434,0-0.906,0.209-1.299,0.619l-2.406,2.514 c-0.73,0.764-0.916,1.948-0.409,2.63c0.039,0.052,0.079,0.1,0.125,0.144c-1.021,1.311-1.965,2.706-2.821,4.173 c-0.047-0.036-0.1-0.07-0.152-0.099c-0.158-0.081-0.328-0.12-0.5-0.12c-0.616,0-1.281,0.484-1.639,1.263l-1.512,3.285 c-0.459,0.998-0.246,2.116,0.471,2.486c0.053,0.028,0.109,0.047,0.164,0.064c-0.555,1.596-1.01,3.241-1.357,4.926 c-0.061-0.008-0.121-0.015-0.184-0.015c-0.82,0-1.587,0.881-1.704,1.962l-0.384,3.555c-0.117,1.081,0.459,1.964,1.278,1.964 c0.063,0,0.124-0.007,0.187-0.016c-0.015,1.685,0.084,3.33,0.293,4.925c-0.059,0.018-0.119,0.039-0.178,0.066 c-0.798,0.368-1.252,1.486-1.01,2.484l0.801,3.287c0.189,0.778,0.749,1.262,1.364,1.262c0.174,0,0.353-0.038,0.527-0.121 c0.06-0.026,0.119-0.062,0.175-0.097c0.539,1.467,1.182,2.861,1.918,4.174c-0.054,0.043-0.105,0.089-0.156,0.143 c-0.654,0.683-0.726,1.865-0.16,2.629l1.863,2.515c0.305,0.41,0.732,0.618,1.164,0.618c0.373,0,0.75-0.154,1.053-0.47 c0.049-0.053,0.097-0.11,0.138-0.168c1.003,1.036,2.087,1.97,3.243,2.791c-0.036,0.062-0.074,0.126-0.104,0.192 c-0.41,0.893-0.09,1.961,0.713,2.373l2.643,1.36c0.218,0.111,0.45,0.166,0.68,0.166c0.618,0,1.227-0.384,1.525-1.034 c0.029-0.066,0.055-0.134,0.077-0.202c1.305,0.45,2.668,0.775,4.078,0.974c-0.016,0.07-0.029,0.144-0.037,0.218 c-0.104,0.965,0.558,1.756,1.477,1.756h3.019c0.917,0,1.753-0.791,1.857-1.756c0.008-0.074,0.009-0.147,0.009-0.218 c1.453-0.199,2.886-0.523,4.288-0.974c0.008,0.068,0.018,0.136,0.035,0.202c0.158,0.65,0.683,1.034,1.302,1.034 c0.229,0,0.472-0.052,0.714-0.166l2.937-1.36c0.894-0.412,1.445-1.48,1.226-2.373c-0.014-0.066-0.035-0.131-0.061-0.192 c1.334-0.821,2.619-1.755,3.845-2.791c0.03,0.058,0.065,0.114,0.104,0.168c0.234,0.315,0.576,0.47,0.949,0.47 c0.434,0,0.906-0.207,1.299-0.618l2.406-2.515c0.732-0.764,0.916-1.948,0.41-2.629c-0.039-0.052-0.082-0.1-0.127-0.143 c1.022-1.312,1.965-2.707,2.822-4.174c0.048,0.035,0.1,0.07,0.151,0.097c0.159,0.082,0.331,0.121,0.503,0.121 c0.615,0,1.281-0.483,1.639-1.262l1.51-3.287c0.459-0.998,0.247-2.115-0.47-2.484c-0.055-0.027-0.108-0.048-0.166-0.066 c0.557-1.595,1.01-3.24,1.36-4.925c0.059,0.009,0.12,0.016,0.183,0.016c0.82,0,1.587-0.883,1.704-1.964l0.384-3.555 C306.976,174.692,306.4,173.812,305.58,173.812z"></path><polygon fill="none" stroke="#FFFFFF" stroke-width="2.2" stroke-miterlimit="10" points="255.563,118.161 242.256,123.185  228.848,128.247 215.27,133.373 215.24,150.371 215.229,157.106 223.255,154.076 236.563,149.053 249.97,143.991 263.42,138.914  276.825,133.854 276.853,133.843 276.853,133.809 276.882,117.025 276.894,110.108 268.97,113.1 "></polygon><path fill="none" stroke="#FFFFFF" stroke-width="2.2" stroke-miterlimit="10" d="M195.44,89.812 c-0.188-0.51-0.697-0.844-1.229-0.868c-0.008-0.122-0.015-0.244-0.058-0.363l-1.411-3.843c-0.188-0.509-0.695-0.843-1.227-0.869 c-0.006-0.129-0.014-0.259-0.061-0.385l-1.412-3.842c-0.188-0.511-0.699-0.844-1.232-0.868c-0.009-0.114-0.012-0.229-0.054-0.339 l-1.413-3.844c-0.039-0.11-0.113-0.197-0.18-0.29c0.651-0.405,1.109-1.116,1.104-1.804c-0.008-0.959-0.955-1.579-1.975-1.252 l-0.345,0.11l0.42-13.055c0.881-0.799,1.478-1.967,1.469-3.097l-0.017-2.039c-0.012-1.434-0.959-2.453-2.305-2.477 c-0.311-0.006-0.629,0.042-0.95,0.146l-2.831,0.908c-1.592,0.51-2.877,2.277-2.863,3.938l0.017,2.038 c0.01,1.133,0.608,1.999,1.521,2.328l0.636,12.882l-0.696,0.223c-0.909,0.292-1.615,1.19-1.608,2.048 c0.005,0.648,0.43,1.131,1.034,1.279c-0.013,0.035-0.036,0.068-0.046,0.102l-1.436,5.052c-0.045,0.16-0.055,0.313-0.036,0.457 c-0.512,0.226-0.984,0.726-1.13,1.241l-1.435,5.05c-0.05,0.176-0.054,0.342-0.027,0.497c-0.516,0.224-0.993,0.728-1.142,1.248 l-1.434,5.05c-0.047,0.167-0.058,0.329-0.035,0.478c-0.513,0.226-0.985,0.727-1.131,1.244l-1.435,5.049 c-0.094,0.332-0.049,0.641,0.128,0.872c0.16,0.209,0.404,0.327,0.688,0.333c0.126,0.002,0.259-0.019,0.393-0.062l24.366-7.811 c0.33-0.105,0.594-0.333,0.744-0.64c0.149-0.308,0.165-0.656,0.045-0.982L195.44,89.812z"></path><path fill="none" stroke="#FFFFFF" stroke-width="2.2" stroke-miterlimit="10" d="M212.015,46.703h-2.695 c-1.7,0-3.084,1.383-3.084,3.084v1.761c0,1.444,1.002,2.65,2.344,2.984l0.361,58.189c0.002,0.276,0.226,0.499,0.502,0.499h2.449 c0.276,0,0.5-0.223,0.502-0.499l0.361-58.189c1.342-0.333,2.344-1.54,2.344-2.984v-1.761 C215.099,48.086,213.715,46.703,212.015,46.703z"></path><path fill="none" stroke="#FFFFFF" stroke-width="2.2" stroke-miterlimit="10" d="M282.267,57.498h-2.695 c-1.7,0-3.084,1.383-3.084,3.084v1.761c0,1.444,1.002,2.65,2.344,2.984l0.361,47.453c0.002,0.276,0.226,0.499,0.502,0.499h2.449 c0.276,0,0.5-0.223,0.502-0.499l0.361-47.453c1.342-0.333,2.344-1.54,2.344-2.984v-1.761 C285.351,58.881,283.967,57.498,282.267,57.498z"></path><path fill="none" stroke="#FFFFFF" stroke-width="2.2" stroke-miterlimit="10" d="M141.074,114.102 c-0.084-0.106-0.169-0.207-0.257-0.286l-2.294-2.076c-0.146-0.132-0.281-0.2-0.398-0.237l0.195-9.231 c0.012-0.568-0.263-1.318-0.64-1.744l-5.675-6.41c-0.471-0.533-1.292-0.467-1.673,0.133l-10.018,15.757 c-0.148,0.234-0.269,0.551-0.345,0.877c-0.216-0.024-0.449,0.028-0.667,0.181l-25.11,17.614c-0.318,0.224-0.935,0.468-1.332,0.525 l-8.521,1.491c-0.1-0.041-0.196-0.103-0.298-0.134c-1.028-0.321-2.039-0.069-2.786,0.692c-0.821,0.837-1.273,2.237-1.242,3.841 c0.024,1.264,0.338,2.494,0.836,3.566c0.014,0.074,0.022,0.155,0.042,0.222L94.56,186.06l-8.881-3.137 c-0.7-0.249-1.349,0.226-1.349,0.955l0.001,4.859c0,0.634,0.468,1.297,1.066,1.508l6.339,2.237c0.308,0.109,0.681,0.489,0.784,0.798 l3.181,9.564c0.13,0.393,0.241,1.073,0.241,1.485l0.001,10.033c0,0.175-0.082,0.175-0.113,0.175c-0.03,0-0.066-0.008-0.104-0.021 l-9.831-3.473c-0.39-0.138-0.797-0.06-1.059,0.202c-0.188,0.188-0.291,0.456-0.291,0.753l0.002,3.515 c0,0.636,0.47,1.298,1.067,1.508l10.579,3.739c0.201,0.071,0.442,0.108,0.7,0.108c0.43,0,0.852-0.1,1.157-0.273l6.628-3.77 l2.158,1.396c0.188,0.122,0.396,0.187,0.603,0.187c0.45,0,0.83-0.302,0.967-0.77l2.008-6.866c0.145-0.494,0.208-1.281,0.146-1.792 l-4.291-34.675c-0.056-0.449-0.136-1.187-0.178-1.638c-0.011-0.116-1.084-11.665-1.18-16.657 c-0.181-9.261,13.513-29.044,16.191-32.822l5.853,55.156c0.065,0.618,0.583,1.249,1.177,1.435l3.542,1.106 c-0.069,0.284-0.112,0.589-0.106,0.922c0.022,1.128,0.491,2.213,1.162,2.879c0.003,0.027-0.003,0.056,0.006,0.082 c0.017,0.05,0.959,2.896,1.567,6.714c-2.993-2.688-3.568-3.386-3.59-3.413c-0.258-0.326-0.601-0.929-0.749-1.315l-3.274-8.552 c-0.153-0.401-0.34-1.094-0.407-1.513l-2.345-14.452c-0.067-0.416-0.09-1.121-0.051-1.54l0.511-5.354 c0.019-0.2,0.023-0.488-0.155-0.685c-0.081-0.088-0.253-0.165-0.373-0.165c-0.303,0-0.504,0.251-0.629,0.44l-8.112,12.251 c-0.245,0.369-0.672,0.959-0.953,1.314c-0.069,0.088-1.706,2.269-1.521,11.77c0.106,5.43,3.885,9.763,5.504,11.373 c2.386,2.373,4.457,6.062,4.478,6.099c0.277,0.497,0.897,1.001,1.442,1.172l2.11,0.658c0.097,0.03,0.214,0.051,0.33,0.07 c0.049,0.055,0.105,0.106,0.18,0.13c0.67,0.21,0.95,0.941,1.428,2.324c0.098,0.285,0.203,0.587,0.319,0.902 c0.528,1.429,1.557,2.389,2.56,2.389c0.392,0,0.967-0.145,1.479-0.834c0.294-0.396,0.599-0.599,0.905-0.599 c0.295,0,0.542,0.175,0.528,0.173c0.85,1.197,1.75,1.805,2.677,1.805c0.907,0,1.571-0.586,1.91-0.972 c1.033,0.562,1.822,0.547,2.356,0.006c0.709-0.723,0.74-2.244,0.711-3.744c-0.044-1.471-0.442-3.438-1.011-5.554l-0.045-32.352 c0.083,0.019,0.165,0.043,0.247,0.043c0.259,0,0.498-0.097,0.673-0.272c0.188-0.188,0.292-0.456,0.291-0.754l-0.06-41.304 l0.23-0.292c0.07-0.089,0.127-0.197,0.184-0.307c0.02-0.019,0.042-0.032,0.062-0.052c0.529-0.54,0.81-1.397,0.79-2.415 c-0.026-1.368-0.614-2.777-1.498-3.59C141.319,114.268,141.196,114.185,141.074,114.102z"></path><path fill="none" stroke="#FFFFFF" stroke-width="2.2" stroke-miterlimit="10" d="M218.948,32.601 c1.784,0.356,4.298-0.562,5.587-2.041l10.979-12.602l7.597-6.3c1.017-0.301,2.005-0.87,2.65-1.61 c1.129-1.294,0.783-2.595-0.77-2.904c-1.457-0.292-3.449,0.4-4.622,1.555c-0.147-0.055-0.296-0.109-0.47-0.144 c-1.784-0.356-4.299,0.562-5.587,2.041l-16.267,18.669C216.758,30.743,217.164,32.245,218.948,32.601z"></path><path fill="none" stroke="#FFFFFF" stroke-width="2.2" stroke-miterlimit="10" d="M329.659,23.81 c-1.457-0.292-3.449,0.4-4.622,1.555c-0.147-0.055-0.297-0.109-0.471-0.144c-1.783-0.356-4.297,0.562-5.586,2.041l-16.267,18.669 c-1.288,1.479-0.883,2.98,0.901,3.336s4.298-0.562,5.587-2.041l10.979-12.601l7.597-6.3c1.017-0.301,2.005-0.87,2.65-1.61 C331.558,25.42,331.212,24.12,329.659,23.81z"></path><path fill="none" stroke="#FFFFFF" stroke-width="2.2" stroke-miterlimit="10" d="M90.746,123.333c1.085,0,1.872-0.816,1.872-1.941 v-10.517c0-1.235-0.981-2.454-2.188-2.718l-23.991-5.243c-1.266-0.275-2.346,0.603-2.346,1.889v10.518 c0,1.234,0.981,2.454,2.188,2.717l23.99,5.242C90.431,123.315,90.59,123.333,90.746,123.333z"></path><path fill="none" stroke="#FFFFFF" stroke-width="2.2" stroke-miterlimit="10" d="M174.755,124.719l-25.514-5.051 c-1.346-0.265-2.495,0.692-2.495,2.06v11.186c0,1.313,1.044,2.588,2.327,2.842l25.514,5.049c0.169,0.035,0.338,0.049,0.503,0.045 c1.154-0.023,1.992-0.908,1.992-2.104v-11.185C177.082,126.249,176.038,124.974,174.755,124.719z"></path><g>	<g>		<path d="M309.202,47.226c-1.289,1.479-3.803,2.397-5.587,2.041s-2.19-1.857-0.901-3.336l16.267-18.669   c1.288-1.479,3.803-2.397,5.587-2.041c1.783,0.356,2.189,1.857,0.9,3.336L309.202,47.226z"></path>	</g>			<line fill="none" stroke="#CCCCCC" stroke-width="3.566" stroke-linecap="round" stroke-miterlimit="10" x1="314.122" y1="37.333" x2="327.656" y2="26.11"></line>	<path fill="#FF0000" d="M330.429,26.714c-1.129,1.295-3.303,2.094-4.853,1.783c-1.554-0.311-1.899-1.609-0.771-2.904  c1.127-1.295,3.301-2.094,4.854-1.783C331.212,24.12,331.558,25.42,330.429,26.714z"></path></g><g>	<path d="M224.535,30.56c-1.289,1.479-3.803,2.397-5.587,2.041s-2.19-1.857-0.901-3.336l16.267-18.669  c1.288-1.479,3.803-2.397,5.587-2.041c1.783,0.356,2.189,1.857,0.9,3.336L224.535,30.56z"></path></g><line fill="none" stroke="#CCCCCC" stroke-width="3.566" stroke-linecap="round" stroke-miterlimit="10" x1="229.455" y1="20.667" x2="242.989" y2="9.443"></line><path fill="#FF0000" d="M245.762,10.048c-1.129,1.295-3.303,2.094-4.853,1.783c-1.554-0.311-1.899-1.609-0.771-2.904 c1.127-1.295,3.301-2.094,4.854-1.783C246.545,7.453,246.891,8.754,245.762,10.048z"></path><g>			<polygon fill="#666666" stroke="#000000" stroke-width="1.0041" stroke-linecap="square" stroke-linejoin="round" stroke-miterlimit="3" points="  282.144,112.777 279.694,112.777 279.328,64.559 282.51,64.559  "></polygon>	<g>		<path fill="#666666" d="M284.849,62.343c0,1.42-1.162,2.582-2.582,2.582h-2.695c-1.42,0-2.582-1.162-2.582-2.582v-1.761   c0-1.42,1.162-2.582,2.582-2.582h2.695c1.42,0,2.582,1.162,2.582,2.582V62.343z"></path>					<path fill="none" stroke="#000000" stroke-width="1.0041" stroke-linecap="square" stroke-linejoin="round" stroke-miterlimit="3" d="   M284.849,62.343c0,1.42-1.162,2.582-2.582,2.582h-2.695c-1.42,0-2.582-1.162-2.582-2.582v-1.761c0-1.42,1.162-2.582,2.582-2.582   h2.695c1.42,0,2.582,1.162,2.582,2.582V62.343z"></path>	</g></g><g>			<polygon fill="#666666" stroke="#000000" stroke-width="1.0041" stroke-linecap="square" stroke-linejoin="round" stroke-miterlimit="3" points="  211.892,112.717 209.442,112.717 209.076,53.763 212.258,53.763  "></polygon>	<g>		<path fill="#666666" d="M214.597,51.547c0,1.42-1.162,2.582-2.582,2.582h-2.695c-1.42,0-2.582-1.162-2.582-2.582v-1.761   c0-1.42,1.162-2.582,2.582-2.582h2.695c1.42,0,2.582,1.162,2.582,2.582V51.547z"></path>					<path fill="none" stroke="#000000" stroke-width="1.0041" stroke-linecap="square" stroke-linejoin="round" stroke-miterlimit="3" d="   M214.597,51.547c0,1.42-1.162,2.582-2.582,2.582h-2.695c-1.42,0-2.582-1.162-2.582-2.582v-1.761c0-1.42,1.162-2.582,2.582-2.582   h2.695c1.42,0,2.582,1.162,2.582,2.582V51.547z"></path>	</g></g><g>	<g>		<path fill="#666666" d="M196.363,93.82c0.147,0.402-0.065,0.838-0.473,0.969l-24.365,7.81c-0.408,0.131-0.646-0.099-0.529-0.511   l1.428-5.029c0.117-0.412,0.547-0.856,0.955-0.987l20.559-6.59c0.407-0.131,0.862,0.091,1.01,0.493L196.363,93.82z"></path>					<path fill="none" stroke="#000000" stroke-width="1.0372" stroke-linecap="square" stroke-linejoin="round" stroke-miterlimit="3" d="   M196.363,93.82c0.147,0.402-0.065,0.838-0.473,0.969l-24.365,7.81c-0.408,0.131-0.646-0.099-0.529-0.511l1.428-5.029   c0.117-0.412,0.547-0.856,0.955-0.987l20.559-6.59c0.407-0.131,0.862,0.091,1.01,0.493L196.363,93.82z"></path>	</g>	<g>		<path fill="#666666" d="M193.663,88.747c0.147,0.402-0.065,0.838-0.473,0.969l-19.063,6.111c-0.408,0.131-0.646-0.099-0.529-0.511   l1.427-5.028c0.117-0.412,0.547-0.856,0.955-0.987l15.262-4.892c0.407-0.131,0.862,0.091,1.01,0.493L193.663,88.747z"></path>					<path fill="none" stroke="#000000" stroke-width="1.0372" stroke-linecap="square" stroke-linejoin="round" stroke-miterlimit="3" d="   M193.663,88.747c0.147,0.402-0.065,0.838-0.473,0.969l-19.063,6.111c-0.408,0.131-0.646-0.099-0.529-0.511l1.427-5.028   c0.117-0.412,0.547-0.856,0.955-0.987l15.262-4.892c0.407-0.131,0.862,0.091,1.01,0.493L193.663,88.747z"></path>	</g>	<g>		<path fill="#666666" d="M190.965,83.651c0.147,0.402-0.065,0.838-0.473,0.969l-13.763,4.413c-0.408,0.131-0.646-0.099-0.529-0.511   l1.429-5.029c0.117-0.412,0.546-0.856,0.955-0.987l9.959-3.193c0.407-0.131,0.862,0.091,1.01,0.493L190.965,83.651z"></path>					<path fill="none" stroke="#000000" stroke-width="1.0372" stroke-linecap="square" stroke-linejoin="round" stroke-miterlimit="3" d="   M190.965,83.651c0.147,0.402-0.065,0.838-0.473,0.969l-13.763,4.413c-0.408,0.131-0.646-0.099-0.529-0.511l1.429-5.029   c0.117-0.412,0.546-0.856,0.955-0.987l9.959-3.193c0.407-0.131,0.862,0.091,1.01,0.493L190.965,83.651z"></path>	</g>	<g>		<path fill="#666666" d="M188.269,78.602c0.147,0.402-0.065,0.838-0.473,0.969l-8.466,2.713c-0.408,0.131-0.646-0.099-0.529-0.511   l1.43-5.031c0.117-0.412,0.546-0.856,0.955-0.987l4.659-1.493c0.407-0.131,0.862,0.091,1.01,0.493L188.269,78.602z"></path>					<path fill="none" stroke="#000000" stroke-width="1.0372" stroke-linecap="square" stroke-linejoin="round" stroke-miterlimit="3" d="   M188.269,78.602c0.147,0.402-0.065,0.838-0.473,0.969l-8.466,2.713c-0.408,0.131-0.646-0.099-0.529-0.511l1.43-5.031   c0.117-0.412,0.546-0.856,0.955-0.987l4.659-1.493c0.407-0.131,0.862,0.091,1.01,0.493L188.269,78.602z"></path>	</g>	<g>		<path fill="#666666" d="M187.746,72.49c0.006,0.638-0.562,1.343-1.26,1.567l-5.942,1.904c-0.699,0.224-1.274-0.115-1.28-0.752   c-0.005-0.638,0.562-1.343,1.26-1.567l5.942-1.904C187.165,71.513,187.74,71.852,187.746,72.49z"></path>					<path fill="none" stroke="#000000" stroke-width="1.0372" stroke-linecap="square" stroke-linejoin="round" stroke-miterlimit="3" d="   M187.746,72.49c0.006,0.638-0.562,1.343-1.26,1.567l-5.942,1.904c-0.699,0.224-1.274-0.115-1.28-0.752   c-0.005-0.638,0.562-1.343,1.26-1.567l5.942-1.904C187.165,71.513,187.74,71.852,187.746,72.49z"></path>	</g>			<polygon fill="#666666" stroke="#000000" stroke-width="1.0372" stroke-linecap="square" stroke-linejoin="round" stroke-miterlimit="3" points="  185.401,72.077 181.587,73.3 180.905,59.515 185.857,57.927  "></polygon>	<g>		<path fill="#666666" d="M187.315,55.175c0.012,1.467-1.121,3.033-2.519,3.481l-2.824,0.905c-1.397,0.448-2.55-0.386-2.562-1.853   l-0.017-1.995c-0.012-1.467,1.122-3.033,2.519-3.481l2.824-0.906c1.397-0.448,2.55,0.386,2.562,1.853L187.315,55.175z"></path>					<path fill="none" stroke="#000000" stroke-width="1.0372" stroke-linecap="square" stroke-linejoin="round" stroke-miterlimit="3" d="   M187.315,55.175c0.012,1.467-1.121,3.033-2.519,3.481l-2.824,0.905c-1.397,0.448-2.55-0.386-2.562-1.853l-0.017-1.995   c-0.012-1.467,1.122-3.033,2.519-3.481l2.824-0.906c1.397-0.448,2.55,0.386,2.562,1.853L187.315,55.175z"></path>	</g></g><g>	<path d="M242.988,200.498c-0.062,0-0.126,0.006-0.186,0.016c0.014-1.686-0.085-3.332-0.295-4.928  c0.061-0.017,0.119-0.036,0.179-0.064c0.798-0.37,1.251-1.487,1.009-2.485l-0.8-3.286c-0.189-0.777-0.75-1.262-1.365-1.262  c-0.172,0-0.353,0.039-0.528,0.12c-0.059,0.028-0.117,0.062-0.173,0.098c-0.54-1.466-1.181-2.861-1.919-4.172  c0.053-0.044,0.106-0.092,0.157-0.144c0.653-0.683,0.726-1.866,0.159-2.63l-1.863-2.514c-0.303-0.41-0.731-0.619-1.163-0.619  c-0.373,0-0.749,0.155-1.053,0.472c-0.05,0.053-0.099,0.109-0.14,0.165c-1.002-1.034-2.086-1.968-3.242-2.79  c0.039-0.062,0.074-0.127,0.104-0.193c0.412-0.892,0.091-1.961-0.713-2.373l-2.642-1.362c-0.219-0.109-0.448-0.163-0.678-0.163  c-0.619,0-1.228,0.383-1.526,1.034c-0.031,0.065-0.055,0.135-0.079,0.202c-1.305-0.45-2.667-0.777-4.077-0.973  c0.016-0.071,0.029-0.144,0.038-0.22c0.104-0.964-0.561-1.754-1.478-1.754h-3.019c-0.919,0-1.753,0.79-1.856,1.754  c-0.008,0.074-0.01,0.147-0.01,0.22c-1.451,0.195-2.887,0.522-4.289,0.972c-0.006-0.066-0.018-0.134-0.033-0.201  c-0.158-0.651-0.685-1.034-1.303-1.034c-0.229,0-0.474,0.052-0.714,0.163l-2.938,1.362c-0.893,0.412-1.443,1.481-1.226,2.372  c0.014,0.067,0.039,0.132,0.061,0.194c-1.334,0.822-2.62,1.756-3.846,2.79c-0.029-0.057-0.064-0.113-0.102-0.165  c-0.236-0.316-0.579-0.472-0.951-0.472c-0.434,0-0.906,0.209-1.299,0.619l-2.406,2.514c-0.73,0.764-0.916,1.948-0.409,2.63  c0.039,0.052,0.079,0.1,0.125,0.144c-1.021,1.311-1.965,2.706-2.821,4.173c-0.047-0.036-0.1-0.07-0.152-0.099  c-0.158-0.081-0.328-0.12-0.5-0.12c-0.616,0-1.281,0.484-1.639,1.263l-1.512,3.285c-0.459,0.998-0.246,2.116,0.471,2.486  c0.053,0.028,0.109,0.047,0.164,0.064c-0.555,1.596-1.01,3.241-1.357,4.926c-0.061-0.008-0.121-0.015-0.184-0.015  c-0.82,0-1.587,0.881-1.704,1.962l-0.384,3.555c-0.117,1.081,0.459,1.964,1.278,1.964c0.063,0,0.124-0.007,0.187-0.016  c-0.015,1.685,0.084,3.33,0.293,4.925c-0.059,0.018-0.119,0.039-0.178,0.066c-0.798,0.368-1.252,1.486-1.01,2.484l0.801,3.287  c0.189,0.778,0.749,1.262,1.364,1.262c0.174,0,0.353-0.038,0.527-0.121c0.06-0.026,0.119-0.062,0.175-0.097  c0.539,1.467,1.182,2.861,1.918,4.174c-0.054,0.043-0.105,0.089-0.156,0.143c-0.654,0.683-0.726,1.865-0.16,2.629l1.863,2.515  c0.305,0.41,0.732,0.618,1.164,0.618c0.373,0,0.75-0.154,1.053-0.47c0.049-0.053,0.097-0.11,0.138-0.168  c1.003,1.036,2.087,1.97,3.243,2.791c-0.036,0.062-0.074,0.126-0.104,0.192c-0.41,0.893-0.09,1.961,0.713,2.373l2.643,1.36  c0.218,0.111,0.45,0.166,0.68,0.166c0.618,0,1.227-0.384,1.525-1.034c0.029-0.066,0.055-0.134,0.077-0.202  c1.305,0.45,2.668,0.775,4.078,0.974c-0.016,0.07-0.029,0.144-0.037,0.218c-0.104,0.965,0.558,1.756,1.477,1.756h3.019  c0.917,0,1.753-0.791,1.857-1.756c0.008-0.074,0.009-0.147,0.009-0.218c1.453-0.199,2.886-0.523,4.288-0.974  c0.008,0.068,0.018,0.136,0.035,0.202c0.158,0.65,0.683,1.034,1.302,1.034c0.229,0,0.472-0.052,0.714-0.166l2.937-1.36  c0.894-0.412,1.445-1.48,1.226-2.373c-0.014-0.066-0.035-0.131-0.061-0.192c1.334-0.821,2.619-1.755,3.845-2.791  c0.03,0.058,0.065,0.114,0.104,0.168c0.234,0.315,0.576,0.47,0.949,0.47c0.434,0,0.906-0.207,1.299-0.618l2.406-2.515  c0.732-0.764,0.916-1.948,0.41-2.629c-0.039-0.052-0.082-0.1-0.127-0.143c1.022-1.312,1.965-2.707,2.822-4.174  c0.048,0.035,0.1,0.07,0.151,0.097c0.159,0.082,0.331,0.121,0.503,0.121c0.615,0,1.281-0.483,1.639-1.262l1.51-3.287  c0.459-0.998,0.247-2.115-0.47-2.484c-0.055-0.027-0.108-0.048-0.166-0.066c0.557-1.595,1.01-3.24,1.36-4.925  c0.059,0.009,0.12,0.016,0.183,0.016c0.82,0,1.587-0.883,1.704-1.964l0.384-3.555C244.384,201.379,243.809,200.498,242.988,200.498  z"></path>	<path fill="#F6C908" d="M213.271,225.529c-9.984,0-17.048-9.533-15.776-21.291c1.272-11.759,10.397-21.29,20.382-21.29  c9.982,0,17.048,9.531,15.775,21.29C232.381,215.996,223.254,225.529,213.271,225.529z"></path>	<path d="M217.751,184.118c-9.422,0-18.062,9.024-19.262,20.12c-1.2,11.095,5.487,20.121,14.909,20.121s18.061-9.026,19.261-20.121  C233.859,193.143,227.173,184.118,217.751,184.118z M213.652,222.013c-8.322,0-14.23-7.974-13.171-17.774  c1.061-9.802,8.693-17.775,17.016-17.775s14.229,7.974,13.169,17.775C229.605,214.039,221.975,222.013,213.652,222.013z"></path>	<path d="M214.814,211.266c-0.702,0-1.343,0.669-1.433,1.496c-0.089,0.826,0.407,1.496,1.108,1.496s1.342-0.67,1.432-1.496  C216.012,211.935,215.515,211.266,214.814,211.266z"></path>	<path d="M209.021,209.209c-0.562,0.584-0.664,1.531-0.229,2.113c0.431,0.585,1.235,0.585,1.795,0  c0.56-0.583,0.662-1.529,0.229-2.113C210.383,208.623,209.578,208.623,209.021,209.209z"></path>	<path d="M209.606,204.238c0.09-0.827-0.408-1.496-1.109-1.496s-1.342,0.669-1.432,1.496c-0.089,0.825,0.407,1.495,1.108,1.495  S209.518,205.063,209.606,204.238z"></path>	<path d="M211.893,199.268c0.559-0.583,0.662-1.531,0.229-2.113c-0.434-0.585-1.239-0.585-1.796,0  c-0.562,0.582-0.663,1.53-0.229,2.115C210.527,199.853,211.332,199.853,211.893,199.268z"></path>	<path d="M216.138,199.033c-2.442,0-4.673,2.331-4.984,5.205c-0.311,2.873,1.415,5.206,3.858,5.206c2.439,0,4.672-2.333,4.982-5.206  C220.305,201.363,218.577,199.033,216.138,199.033z"></path>	<path d="M222.974,202.742c-0.701,0-1.344,0.669-1.434,1.496c-0.089,0.825,0.409,1.495,1.11,1.495s1.343-0.67,1.432-1.495  C224.172,203.411,223.675,202.742,222.974,202.742z"></path>	<path d="M219.257,209.207c-0.561,0.586-0.663,1.533-0.229,2.115c0.434,0.585,1.237,0.585,1.795,0  c0.561-0.583,0.663-1.529,0.229-2.115C220.619,208.623,219.816,208.623,219.257,209.207z"></path>	<path d="M217.766,195.713c0.09-0.825-0.407-1.495-1.107-1.495c-0.702,0-1.343,0.67-1.432,1.495  c-0.09,0.826,0.406,1.496,1.108,1.496C217.035,197.212,217.677,196.539,217.766,195.713z"></path>	<path d="M222.127,199.269c0.561-0.585,0.662-1.532,0.229-2.114c-0.432-0.587-1.235-0.587-1.795,0  c-0.561,0.582-0.662,1.529-0.227,2.113C220.765,199.853,221.568,199.853,222.127,199.269z"></path></g><g>	<path d="M305.58,173.812c-0.062,0-0.126,0.006-0.186,0.016c0.014-1.686-0.085-3.332-0.295-4.928  c0.061-0.017,0.119-0.036,0.179-0.064c0.798-0.37,1.251-1.487,1.009-2.485l-0.8-3.286c-0.189-0.777-0.75-1.262-1.365-1.262  c-0.172,0-0.353,0.039-0.528,0.12c-0.059,0.028-0.117,0.062-0.173,0.098c-0.54-1.466-1.181-2.861-1.919-4.172  c0.053-0.044,0.106-0.092,0.157-0.144c0.653-0.683,0.726-1.866,0.159-2.63l-1.863-2.514c-0.303-0.41-0.731-0.619-1.163-0.619  c-0.373,0-0.749,0.155-1.053,0.472c-0.05,0.053-0.099,0.109-0.14,0.165c-1.002-1.034-2.086-1.968-3.242-2.79  c0.039-0.062,0.074-0.127,0.104-0.193c0.412-0.892,0.091-1.961-0.713-2.373l-2.642-1.362c-0.219-0.109-0.448-0.163-0.678-0.163  c-0.619,0-1.228,0.383-1.526,1.034c-0.031,0.065-0.055,0.135-0.079,0.202c-1.305-0.45-2.667-0.777-4.077-0.973  c0.016-0.071,0.029-0.144,0.038-0.22c0.104-0.964-0.561-1.754-1.478-1.754h-3.019c-0.919,0-1.753,0.79-1.856,1.754  c-0.008,0.074-0.01,0.147-0.01,0.22c-1.451,0.195-2.887,0.522-4.289,0.972c-0.006-0.066-0.018-0.134-0.033-0.201  c-0.158-0.651-0.685-1.034-1.303-1.034c-0.229,0-0.474,0.052-0.714,0.163l-2.938,1.362c-0.893,0.412-1.443,1.481-1.226,2.372  c0.014,0.067,0.039,0.132,0.061,0.194c-1.334,0.822-2.62,1.756-3.846,2.79c-0.029-0.057-0.064-0.113-0.102-0.165  c-0.236-0.316-0.579-0.472-0.951-0.472c-0.434,0-0.906,0.209-1.299,0.619l-2.406,2.514c-0.73,0.764-0.916,1.948-0.409,2.63  c0.039,0.052,0.079,0.1,0.125,0.144c-1.021,1.311-1.965,2.706-2.821,4.173c-0.047-0.036-0.1-0.07-0.152-0.099  c-0.158-0.081-0.328-0.12-0.5-0.12c-0.616,0-1.281,0.484-1.639,1.263l-1.512,3.285c-0.459,0.998-0.246,2.116,0.471,2.486  c0.053,0.028,0.109,0.047,0.164,0.064c-0.555,1.596-1.01,3.241-1.357,4.926c-0.061-0.008-0.121-0.015-0.184-0.015  c-0.82,0-1.587,0.881-1.704,1.962l-0.384,3.555c-0.117,1.081,0.459,1.964,1.278,1.964c0.063,0,0.124-0.007,0.187-0.016  c-0.015,1.685,0.084,3.33,0.293,4.925c-0.059,0.018-0.119,0.039-0.178,0.066c-0.798,0.368-1.252,1.486-1.01,2.484l0.801,3.287  c0.189,0.778,0.749,1.262,1.364,1.262c0.174,0,0.353-0.038,0.527-0.121c0.06-0.026,0.119-0.062,0.175-0.097  c0.539,1.467,1.182,2.861,1.918,4.174c-0.054,0.043-0.105,0.089-0.156,0.143c-0.654,0.683-0.726,1.865-0.16,2.629l1.863,2.515  c0.305,0.41,0.732,0.618,1.164,0.618c0.373,0,0.75-0.154,1.053-0.47c0.049-0.053,0.097-0.11,0.138-0.168  c1.003,1.036,2.087,1.97,3.243,2.791c-0.036,0.062-0.074,0.126-0.104,0.192c-0.41,0.893-0.09,1.961,0.713,2.373l2.643,1.36  c0.218,0.111,0.45,0.166,0.68,0.166c0.618,0,1.227-0.384,1.525-1.034c0.029-0.066,0.055-0.134,0.077-0.202  c1.305,0.45,2.668,0.775,4.078,0.974c-0.016,0.07-0.029,0.144-0.037,0.218c-0.104,0.965,0.558,1.756,1.477,1.756h3.019  c0.917,0,1.753-0.791,1.857-1.756c0.008-0.074,0.009-0.147,0.009-0.218c1.453-0.199,2.886-0.523,4.288-0.974  c0.008,0.068,0.018,0.136,0.035,0.202c0.158,0.65,0.683,1.034,1.302,1.034c0.229,0,0.472-0.052,0.714-0.166l2.937-1.36  c0.894-0.412,1.445-1.48,1.226-2.373c-0.014-0.066-0.035-0.131-0.061-0.192c1.334-0.821,2.619-1.755,3.845-2.791  c0.03,0.058,0.065,0.114,0.104,0.168c0.234,0.315,0.576,0.47,0.949,0.47c0.434,0,0.906-0.207,1.299-0.618l2.406-2.515  c0.732-0.764,0.916-1.948,0.41-2.629c-0.039-0.052-0.082-0.1-0.127-0.143c1.022-1.312,1.965-2.707,2.822-4.174  c0.048,0.035,0.1,0.07,0.151,0.097c0.159,0.082,0.331,0.121,0.503,0.121c0.615,0,1.281-0.483,1.639-1.262l1.51-3.287  c0.459-0.998,0.247-2.115-0.47-2.484c-0.055-0.027-0.108-0.048-0.166-0.066c0.557-1.595,1.01-3.24,1.36-4.925  c0.059,0.009,0.12,0.016,0.183,0.016c0.82,0,1.587-0.883,1.704-1.964l0.384-3.555C306.976,174.692,306.4,173.812,305.58,173.812z"></path>	<path fill="#F6C908" d="M275.863,198.843c-9.984,0-17.048-9.533-15.776-21.291c1.272-11.759,10.397-21.29,20.382-21.29  c9.982,0,17.048,9.531,15.775,21.29C294.973,189.31,285.846,198.843,275.863,198.843z"></path>	<path d="M280.343,157.432c-9.422,0-18.062,9.024-19.262,20.12c-1.2,11.095,5.487,20.121,14.909,20.121s18.061-9.026,19.261-20.121  C296.451,166.456,289.765,157.432,280.343,157.432z M276.244,195.326c-8.322,0-14.23-7.974-13.171-17.774  c1.061-9.802,8.693-17.775,17.016-17.775s14.229,7.974,13.169,17.775C292.197,187.353,284.566,195.326,276.244,195.326z"></path>	<path d="M277.406,184.579c-0.702,0-1.343,0.669-1.433,1.496c-0.089,0.826,0.407,1.496,1.108,1.496s1.342-0.67,1.432-1.496  C278.604,185.248,278.106,184.579,277.406,184.579z"></path>	<path d="M271.613,182.522c-0.562,0.584-0.664,1.531-0.229,2.113c0.431,0.585,1.235,0.585,1.795,0  c0.56-0.583,0.662-1.529,0.229-2.113C272.975,181.937,272.17,181.937,271.613,182.522z"></path>	<path d="M272.198,177.552c0.09-0.827-0.408-1.496-1.109-1.496s-1.342,0.669-1.432,1.496c-0.089,0.825,0.407,1.495,1.108,1.495  S272.109,178.377,272.198,177.552z"></path>	<path d="M274.484,172.581c0.559-0.583,0.662-1.531,0.229-2.113c-0.434-0.585-1.239-0.585-1.796,0  c-0.562,0.582-0.663,1.53-0.229,2.115C273.119,173.166,273.924,173.166,274.484,172.581z"></path>	<path d="M278.729,172.347c-2.442,0-4.673,2.331-4.984,5.205c-0.311,2.873,1.415,5.206,3.858,5.206c2.439,0,4.672-2.333,4.982-5.206  C282.896,174.677,281.169,172.347,278.729,172.347z"></path>	<path d="M285.565,176.056c-0.701,0-1.344,0.669-1.434,1.496c-0.089,0.825,0.409,1.495,1.11,1.495s1.343-0.67,1.432-1.495  C286.764,176.725,286.267,176.056,285.565,176.056z"></path>	<path d="M281.849,182.521c-0.561,0.586-0.663,1.533-0.229,2.115c0.434,0.585,1.237,0.585,1.795,0  c0.561-0.583,0.663-1.529,0.229-2.115C283.211,181.937,282.408,181.937,281.849,182.521z"></path>	<path d="M280.357,169.026c0.09-0.825-0.407-1.495-1.107-1.495c-0.702,0-1.343,0.67-1.432,1.495  c-0.09,0.826,0.406,1.496,1.108,1.496C279.627,170.525,280.269,169.853,280.357,169.026z"></path>	<path d="M284.719,172.582c0.561-0.585,0.662-1.532,0.229-2.114c-0.432-0.587-1.235-0.587-1.795,0  c-0.561,0.582-0.662,1.529-0.227,2.113C283.356,173.166,284.16,173.166,284.719,172.582z"></path></g><g>	<g>		<polygon fill="#F6C908" points="215.229,157.106 276.853,133.843 276.894,110.108 215.27,133.373   "></polygon>	</g>	<g>		<defs>			<polygon id="SVGID_1_" points="215.229,157.106 276.853,133.843 276.894,110.108 215.27,133.373    "></polygon>		</defs>		<clipPath id="SVGID_2_">			<use xlink:href="#SVGID_1_"></use>		</clipPath>		<g clip-path="url(#SVGID_2_)">			<polygon points="240.243,159.805 276.073,101.551 269.385,95.689 233.554,153.945    "></polygon>		</g>		<g clip-path="url(#SVGID_2_)">			<polygon points="267.098,149.668 302.929,91.413 296.238,85.552 260.409,143.809    "></polygon>		</g>		<g clip-path="url(#SVGID_2_)">			<polygon points="213.526,169.893 249.358,111.638 242.668,105.776 206.837,164.034    "></polygon>		</g>	</g></g><g>	<g>		<g>			<path fill="#F6C908" d="M95.67,187.567c-0.167-0.425-0.657-0.897-1.088-1.049l-9.045-3.195c-0.431-0.151-0.783,0.098-0.783,0.555    l0.001,4.859c0,0.457,0.353,0.955,0.783,1.107l6.339,2.237c0.431,0.152,0.901,0.631,1.045,1.064l3.181,9.564    c0.144,0.434,0.262,1.162,0.262,1.619l0.001,10.033c0,0.457-0.353,0.707-0.783,0.555l-9.831-3.473    c-0.431-0.152-0.783,0.098-0.783,0.555l0.002,3.515c0,0.457,0.353,0.956,0.784,1.107l10.579,3.739    c0.431,0.151,1.108,0.092,1.505-0.134l8.024-4.563c0.397-0.226,0.585-0.758,0.417-1.183L95.67,187.567z"></path>							<path fill="none" stroke="#000000" stroke-width="0.8498" stroke-linecap="round" stroke-linejoin="round" stroke-miterlimit="3" d="    M95.67,187.567c-0.167-0.425-0.657-0.897-1.088-1.049l-9.045-3.195c-0.431-0.151-0.783,0.098-0.783,0.555l0.001,4.859    c0,0.457,0.353,0.955,0.783,1.107l6.339,2.237c0.431,0.152,0.901,0.631,1.045,1.064l3.181,9.564    c0.144,0.434,0.262,1.162,0.262,1.619l0.001,10.033c0,0.457-0.353,0.707-0.783,0.555l-9.831-3.473    c-0.431-0.152-0.783,0.098-0.783,0.555l0.002,3.515c0,0.457,0.353,0.956,0.784,1.107l10.579,3.739    c0.431,0.151,1.108,0.092,1.505-0.134l8.024-4.563c0.397-0.226,0.585-0.758,0.417-1.183L95.67,187.567z"></path>		</g>		<g>			<path fill="#F6C908" d="M107.066,217.866c0.384,0.248,0.803,0.093,0.931-0.346l2.008-6.866c0.128-0.438,0.188-1.168,0.131-1.621    l-4.291-34.674c-0.056-0.453-0.137-1.196-0.179-1.651c0,0-1.084-11.622-1.182-16.688c-0.205-10.474,16.723-33.71,16.723-33.71    c0.269-0.369,0.438-1.042,0.376-1.495l-1.244-9.055c-0.062-0.453-0.419-0.608-0.793-0.346l-25.11,17.614    c-0.374,0.263-1.05,0.531-1.502,0.597l-8.658,1.516c-0.45-0.081-0.938,0.205-1.086,0.638l-1.851,5.404    c-0.148,0.433-0.165,1.146-0.038,1.584l22.028,76.034c0.127,0.438,0.545,1.001,0.929,1.249L107.066,217.866z"></path>							<path fill="none" stroke="#000000" stroke-width="0.8498" stroke-linecap="round" stroke-linejoin="round" stroke-miterlimit="3" d="    M107.066,217.866c0.384,0.248,0.803,0.093,0.931-0.346l2.008-6.866c0.128-0.438,0.188-1.168,0.131-1.621l-4.291-34.674    c-0.056-0.453-0.137-1.196-0.179-1.651c0,0-1.084-11.622-1.182-16.688c-0.205-10.474,16.723-33.71,16.723-33.71    c0.269-0.369,0.438-1.042,0.376-1.495l-1.244-9.055c-0.062-0.453-0.419-0.608-0.793-0.346l-25.11,17.614    c-0.374,0.263-1.05,0.531-1.502,0.597l-8.658,1.516c-0.45-0.081-0.938,0.205-1.086,0.638l-1.851,5.404    c-0.148,0.433-0.165,1.146-0.038,1.584l22.028,76.034c0.127,0.438,0.545,1.001,0.929,1.249L107.066,217.866z"></path>		</g>		<g>			<path fill="#CCCCCC" d="M140.142,199.306c0,0.457-0.291,0.729-0.648,0.604c-0.357-0.125-0.649-0.602-0.65-1.059l-0.054-37.619    c0-0.457,0.292-0.729,0.649-0.604c0.357,0.126,0.65,0.603,0.651,1.06L140.142,199.306z"></path>							<path fill="none" stroke="#000000" stroke-width="0.8498" stroke-linecap="round" stroke-linejoin="round" stroke-miterlimit="3" d="    M140.142,199.306c0,0.457-0.291,0.729-0.648,0.604c-0.357-0.125-0.649-0.602-0.65-1.059l-0.054-37.619    c0-0.457,0.292-0.729,0.649-0.604c0.357,0.126,0.65,0.603,0.651,1.06L140.142,199.306z"></path>		</g>		<g>			<path fill="#666666" d="M137.578,161.03c0.001,0.457,0.354,0.955,0.786,1.105l2.156,0.756c0.431,0.15,0.784-0.1,0.783-0.557    l-0.06-41.78c0-0.457-0.354-0.954-0.785-1.105l-2.157-0.756c-0.431-0.151-0.784,0.099-0.783,0.556L137.578,161.03z"></path>							<path fill="none" stroke="#000000" stroke-width="0.8498" stroke-linecap="round" stroke-linejoin="round" stroke-miterlimit="3" d="    M137.578,161.03c0.001,0.457,0.354,0.955,0.786,1.105l2.156,0.756c0.431,0.15,0.784-0.1,0.783-0.557l-0.06-41.78    c0-0.457-0.354-0.954-0.785-1.105l-2.157-0.756c-0.431-0.151-0.784,0.099-0.783,0.556L137.578,161.03z"></path>		</g>		<g>			<path fill="#F6C908" d="M137.449,124.878c-0.006,0.457,0.221,0.537,0.503,0.178l3.612-4.581c0.283-0.359,0.448-1.02,0.366-1.47    l-0.635-3.501c-0.082-0.45-0.425-1.068-0.764-1.375l-2.293-2.076c-0.339-0.306-0.621-0.184-0.627,0.273L137.449,124.878z"></path>							<path fill="none" stroke="#000000" stroke-width="0.8498" stroke-linecap="round" stroke-linejoin="round" stroke-miterlimit="3" d="    M137.449,124.878c-0.006,0.457,0.221,0.537,0.503,0.178l3.612-4.581c0.283-0.359,0.448-1.02,0.366-1.47l-0.635-3.501    c-0.082-0.45-0.425-1.068-0.764-1.375l-2.293-2.076c-0.339-0.306-0.621-0.184-0.627,0.273L137.449,124.878z"></path>		</g>		<g>			<path fill="#F6C908" d="M129.982,198.55l5.021,2.363c1.055-7.645-1.867-16.279-1.867-16.279l2.188-2.59    c0,0,5.654,13.515,5.824,19.191c0.045,2.363-0.079,4.844-2.749,3.171c0,0-1.782,2.803-4.142-0.534c0,0-1.052-1.003-2.114,0.429    c-1.063,1.432-2.632,0.353-3.298-1.449c-0.666-1.803-0.923-3.141-2.019-3.484L129.982,198.55z"></path>							<path fill="none" stroke="#000000" stroke-width="0.8498" stroke-linecap="round" stroke-linejoin="round" stroke-miterlimit="3" d="    M129.982,198.55l5.021,2.363c1.055-7.645-1.867-16.279-1.867-16.279l2.188-2.59c0,0,5.654,13.515,5.824,19.191    c0.045,2.363-0.079,4.844-2.749,3.171c0,0-1.782,2.803-4.142-0.534c0,0-1.052-1.003-2.114,0.429    c-1.063,1.432-2.632,0.353-3.298-1.449c-0.666-1.803-0.923-3.141-2.019-3.484L129.982,198.55z"></path>		</g>		<g>			<path fill="#666666" d="M123.974,155.305c0.043-0.455-0.128-0.516-0.38-0.135l-8.112,12.251c-0.252,0.381-0.69,0.985-0.974,1.344    c0,0-1.613,2.04-1.429,11.497c0.089,4.562,2.922,8.637,5.379,11.081s4.549,6.192,4.549,6.192    c0.223,0.399,0.762,0.837,1.198,0.974l2.11,0.658c0.436,0.137,1.151,0.143,1.59,0.013l5.594-1.651    c0.438-0.13,1.076-0.484,1.417-0.788c0,0,2.312-2.06-0.842-4.89c-3.153-2.829-3.696-3.517-3.696-3.517    c-0.283-0.358-0.649-1-0.812-1.427l-3.274-8.553c-0.163-0.427-0.357-1.145-0.43-1.596l-2.345-14.453    c-0.073-0.451-0.097-1.192-0.054-1.647L123.974,155.305z"></path>							<path fill="none" stroke="#000000" stroke-width="0.8498" stroke-linecap="round" stroke-linejoin="round" stroke-miterlimit="3" d="    M123.974,155.305c0.043-0.455-0.128-0.516-0.38-0.135l-8.112,12.251c-0.252,0.381-0.69,0.985-0.974,1.344    c0,0-1.613,2.04-1.429,11.497c0.089,4.562,2.922,8.637,5.379,11.081s4.549,6.192,4.549,6.192    c0.223,0.399,0.762,0.837,1.198,0.974l2.11,0.658c0.436,0.137,1.151,0.143,1.59,0.013l5.594-1.651    c0.438-0.13,1.076-0.484,1.417-0.788c0,0,2.312-2.06-0.842-4.89c-3.153-2.829-3.696-3.517-3.696-3.517    c-0.283-0.358-0.649-1-0.812-1.427l-3.274-8.553c-0.163-0.427-0.357-1.145-0.43-1.596l-2.345-14.453    c-0.073-0.451-0.097-1.192-0.054-1.647L123.974,155.305z"></path>		</g>		<g>			<path fill="#F6C908" d="M87.597,137.32c0.057,2.892-1.5,4.735-3.477,4.119c-1.975-0.617-3.624-3.461-3.68-6.352    c-0.057-2.894,1.5-4.737,3.476-4.12C85.893,131.583,87.541,134.428,87.597,137.32z"></path>							<path fill="none" stroke="#000000" stroke-width="0.8498" stroke-linecap="round" stroke-linejoin="round" stroke-miterlimit="3" d="    M87.597,137.32c0.057,2.892-1.5,4.735-3.477,4.119c-1.975-0.617-3.624-3.461-3.68-6.352c-0.057-2.894,1.5-4.737,3.476-4.12    C85.893,131.583,87.541,134.428,87.597,137.32z"></path>		</g>		<g>			<path d="M86.601,137.007c0.04,2.087-1.084,3.421-2.51,2.975c-1.425-0.447-2.614-2.497-2.655-4.583    c-0.041-2.088,1.083-3.418,2.508-2.972C85.369,132.871,86.56,134.923,86.601,137.007z"></path>							<path fill="none" stroke="#F6C908" stroke-width="0.3749" stroke-linecap="round" stroke-linejoin="round" stroke-miterlimit="3" d="    M86.601,137.007c0.04,2.087-1.084,3.421-2.51,2.975c-1.425-0.447-2.614-2.497-2.655-4.583c-0.041-2.088,1.083-3.418,2.508-2.972    C85.369,132.871,86.56,134.923,86.601,137.007z"></path>		</g>		<g>			<path fill="#F6C908" d="M120.315,111.763c-0.048-0.455,0.113-1.142,0.358-1.527l10.018-15.757    c0.245-0.386,0.693-0.421,0.997-0.079l5.674,6.41c0.303,0.342,0.543,0.996,0.533,1.453l-1.668,78.767    c-0.01,0.456-0.375,0.719-0.811,0.582l-7.159-2.235c-0.436-0.137-0.833-0.62-0.881-1.074L120.315,111.763z"></path>							<path fill="none" stroke="#000000" stroke-width="0.8498" stroke-linecap="round" stroke-linejoin="round" stroke-miterlimit="3" d="    M120.315,111.763c-0.048-0.455,0.113-1.142,0.358-1.527l10.018-15.757c0.245-0.386,0.693-0.421,0.997-0.079l5.674,6.41    c0.303,0.342,0.543,0.996,0.533,1.453l-1.668,78.767c-0.01,0.456-0.375,0.719-0.811,0.582l-7.159-2.235    c-0.436-0.137-0.833-0.62-0.881-1.074L120.315,111.763z"></path>		</g>		<g>			<path fill="#F6C908" d="M137.696,112.443"></path>							<path fill="none" stroke="#000000" stroke-width="0.8498" stroke-linecap="round" stroke-linejoin="round" stroke-miterlimit="3" d="    M137.696,112.443"></path>		</g>		<g>			<path fill="#F6C908" d="M142.508,117.973c0.034,1.727-0.895,2.826-2.075,2.459c-1.18-0.367-2.163-2.065-2.197-3.791    s0.896-2.827,2.075-2.46c0.294,0.093,0.579,0.268,0.836,0.505C141.923,115.401,142.483,116.68,142.508,117.973z"></path>							<path fill="none" stroke="#000000" stroke-width="0.8498" stroke-linecap="round" stroke-linejoin="round" stroke-miterlimit="3" d="    M142.508,117.973c0.034,1.727-0.895,2.826-2.075,2.459c-1.18-0.367-2.163-2.065-2.197-3.791s0.896-2.827,2.075-2.46    c0.294,0.093,0.579,0.268,0.836,0.505C141.923,115.401,142.483,116.68,142.508,117.973z"></path>		</g>		<g>			<path d="M141.425,117.636c0.017,0.852-0.441,1.396-1.023,1.212c-0.582-0.18-1.066-1.017-1.083-1.87    c-0.018-0.851,0.441-1.393,1.022-1.211c0.146,0.045,0.286,0.132,0.412,0.248C141.137,116.367,141.414,116.998,141.425,117.636z"></path>		</g>		<g>			<path fill="#F6C908" d="M135.454,182.882c0.006,0.293-0.023,0.566-0.083,0.811c-0.217,0.911-0.844,1.416-1.6,1.179    c-0.957-0.296-1.753-1.673-1.781-3.071c-0.027-1.398,0.726-2.292,1.682-1.992C134.629,180.106,135.427,181.481,135.454,182.882z"></path>							<path fill="none" stroke="#000000" stroke-width="0.8498" stroke-linecap="round" stroke-linejoin="round" stroke-miterlimit="3" d="    M135.454,182.882c0.006,0.293-0.023,0.566-0.083,0.811c-0.217,0.911-0.844,1.416-1.6,1.179c-0.957-0.296-1.753-1.673-1.781-3.071    c-0.027-1.398,0.726-2.292,1.682-1.992C134.629,180.106,135.427,181.481,135.454,182.882z"></path>		</g>		<g>			<path d="M134.572,182.604c0.002,0.146-0.012,0.279-0.04,0.398c-0.107,0.446-0.415,0.695-0.785,0.58    c-0.469-0.147-0.86-0.821-0.874-1.508c-0.013-0.686,0.355-1.124,0.826-0.978C134.167,181.242,134.558,181.92,134.572,182.604z"></path>		</g>		<g>			<path fill="#F6C908" d="M134.02,194.625c0.003,0.187-0.015,0.364-0.053,0.518c-0.139,0.581-0.54,0.903-1.021,0.755    c-0.61-0.191-1.12-1.069-1.137-1.962c-0.018-0.894,0.464-1.461,1.074-1.273C133.493,192.853,134.003,193.73,134.02,194.625z"></path>							<path fill="none" stroke="#000000" stroke-width="0.8498" stroke-linecap="round" stroke-linejoin="round" stroke-miterlimit="3" d="    M134.02,194.625c0.003,0.187-0.015,0.364-0.053,0.518c-0.139,0.581-0.54,0.903-1.021,0.755c-0.61-0.191-1.12-1.069-1.137-1.962    c-0.018-0.894,0.464-1.461,1.074-1.273C133.493,192.853,134.003,193.73,134.02,194.625z"></path>		</g>		<g>			<path fill="#F6C908" d="M140.275,201.921c0.003,0.188-0.016,0.361-0.053,0.518c-0.139,0.58-0.54,0.905-1.021,0.755    c-0.611-0.189-1.118-1.069-1.136-1.962c-0.017-0.896,0.462-1.462,1.072-1.272C139.748,200.149,140.257,201.026,140.275,201.921z"></path>							<path fill="none" stroke="#000000" stroke-width="0.8498" stroke-linecap="round" stroke-linejoin="round" stroke-miterlimit="3" d="    M140.275,201.921c0.003,0.188-0.016,0.361-0.053,0.518c-0.139,0.58-0.54,0.905-1.021,0.755c-0.611-0.189-1.118-1.069-1.136-1.962    c-0.017-0.896,0.462-1.462,1.072-1.272C139.748,200.149,140.257,201.026,140.275,201.921z"></path>		</g>		<g>			<path fill="#F6C908" d="M137.17,203.195c0.002,0.15-0.014,0.287-0.043,0.415c-0.111,0.466-0.433,0.728-0.82,0.607    c-0.491-0.155-0.901-0.861-0.915-1.578c-0.014-0.718,0.373-1.176,0.864-1.022C136.748,201.771,137.156,202.477,137.17,203.195z"></path>							<path fill="none" stroke="#000000" stroke-width="0.8498" stroke-linecap="round" stroke-linejoin="round" stroke-miterlimit="3" d="    M137.17,203.195c0.002,0.15-0.014,0.287-0.043,0.415c-0.111,0.466-0.433,0.728-0.82,0.607c-0.491-0.155-0.901-0.861-0.915-1.578    c-0.014-0.718,0.373-1.176,0.864-1.022C136.748,201.771,137.156,202.477,137.17,203.195z"></path>		</g>		<g>			<path fill="#F6C908" d="M131.38,202.227c0.002,0.15-0.012,0.291-0.042,0.415c-0.112,0.467-0.436,0.727-0.822,0.605    c-0.49-0.152-0.899-0.857-0.913-1.577c-0.014-0.719,0.373-1.175,0.862-1.022C130.957,200.802,131.366,201.507,131.38,202.227z"></path>							<path fill="none" stroke="#000000" stroke-width="0.8498" stroke-linecap="round" stroke-linejoin="round" stroke-miterlimit="3" d="    M131.38,202.227c0.002,0.15-0.012,0.291-0.042,0.415c-0.112,0.467-0.436,0.727-0.822,0.605c-0.49-0.152-0.899-0.857-0.913-1.577    c-0.014-0.719,0.373-1.175,0.862-1.022C130.957,200.802,131.366,201.507,131.38,202.227z"></path>		</g>		<g>							<path fill="none" stroke="#000000" stroke-width="0.8498" stroke-linecap="round" stroke-linejoin="round" stroke-miterlimit="3" d="    M120.048,160.741c-0.107,0.471,1.216,13.009,1.216,13.009c0.048,0.454,0.22,1.176,0.382,1.603l8.774,23.039"></path>		</g>		<g>			<path fill="#F6C908" d="M124.652,113.892c0.023,1.216-0.63,1.987-1.46,1.73c-0.829-0.26-1.521-1.452-1.544-2.666    c-0.023-1.214,0.629-1.986,1.459-1.729C123.936,111.487,124.628,112.681,124.652,113.892z"></path>							<path fill="none" stroke="#000000" stroke-width="0.8498" stroke-linecap="round" stroke-linejoin="round" stroke-miterlimit="3" d="    M124.652,113.892c0.023,1.216-0.63,1.987-1.46,1.73c-0.829-0.26-1.521-1.452-1.544-2.666c-0.023-1.214,0.629-1.986,1.459-1.729    C123.936,111.487,124.628,112.681,124.652,113.892z"></path>		</g>		<g>			<path d="M123.939,113.671c0.012,0.639-0.331,1.044-0.768,0.908c-0.436-0.136-0.799-0.763-0.812-1.401    c-0.012-0.638,0.332-1.045,0.768-0.908C123.563,112.405,123.927,113.034,123.939,113.671z"></path>		</g>					<line fill="#F6C908" stroke="#000000" stroke-width="0.8498" stroke-linecap="round" stroke-linejoin="round" stroke-miterlimit="3" x1="87.602" y1="138.769" x2="104.618" y2="152.895"></line>	</g>	<g>		<path fill="#F6C908" d="M109.204,212.484c0.038,1.95-1.012,3.193-2.345,2.775c-1.331-0.415-2.441-2.331-2.479-4.278   c-0.038-1.951,1.011-3.194,2.341-2.778C108.054,208.619,109.166,210.537,109.204,212.484z"></path>					<path fill="none" stroke="#000000" stroke-width="0.8498" stroke-linecap="round" stroke-linejoin="round" stroke-miterlimit="3" d="   M109.204,212.484c0.038,1.95-1.012,3.193-2.345,2.775c-1.331-0.415-2.441-2.331-2.479-4.278c-0.038-1.951,1.011-3.194,2.341-2.778   C108.054,208.619,109.166,210.537,109.204,212.484z"></path>	</g>	<g>		<path d="M108.218,212.176c0.023,1.154-0.598,1.888-1.387,1.645c-0.787-0.247-1.444-1.382-1.466-2.534   c-0.024-1.151,0.597-1.887,1.384-1.642C107.538,209.889,108.196,211.024,108.218,212.176z"></path>	</g></g><g>	<g>		<path fill="#CCCCCC" d="M90.352,108.52c1.043,0.228,1.896,1.288,1.896,2.356v10.517c0,1.068-0.854,1.755-1.896,1.527   l-23.991-5.242c-1.043-0.228-1.896-1.288-1.896-2.356v-10.518c0-1.068,0.854-1.755,1.896-1.527L90.352,108.52z"></path>		<path fill="none" stroke="#000000" stroke-width="0.7404" stroke-miterlimit="10" d="M90.352,108.52   c1.043,0.228,1.896,1.288,1.896,2.356v10.517c0,1.068-0.854,1.755-1.896,1.527l-23.991-5.242   c-1.043-0.228-1.896-1.288-1.896-2.356v-10.518c0-1.068,0.854-1.755,1.896-1.527L90.352,108.52z"></path>	</g>	<g>		<path fill="#FF0000" d="M76.4,107.174c0.421,0.092,0.765,0.519,0.765,0.949v9.43c0,0.43-0.344,0.707-0.765,0.615l-9.508-2.079   c-0.42-0.092-0.764-0.519-0.764-0.949v-9.43c0-0.43,0.344-0.707,0.764-0.615L76.4,107.174z"></path>		<path fill="none" stroke="#000000" stroke-width="0.7404" stroke-miterlimit="10" d="M76.4,107.174   c0.421,0.092,0.765,0.519,0.765,0.949v9.43c0,0.43-0.344,0.707-0.765,0.615l-9.508-2.079c-0.42-0.092-0.764-0.519-0.764-0.949   v-9.43c0-0.43,0.344-0.707,0.764-0.615L76.4,107.174z"></path>	</g>	<g>		<path fill="#F7931E" d="M89.71,110.083c0.42,0.092,0.764,0.519,0.764,0.95v9.429c0,0.431-0.344,0.708-0.765,0.616l-9.506-2.078   c-0.421-0.092-0.765-0.519-0.765-0.949v-9.43c0-0.431,0.344-0.708,0.765-0.616L89.71,110.083z"></path>		<path fill="none" stroke="#000000" stroke-width="0.7404" stroke-miterlimit="10" d="M89.71,110.083   c0.42,0.092,0.764,0.519,0.764,0.95v9.429c0,0.431-0.344,0.708-0.765,0.616l-9.506-2.078c-0.421-0.092-0.765-0.519-0.765-0.949   v-9.43c0-0.431,0.344-0.708,0.765-0.616L89.71,110.083z"></path>	</g></g><g>	<g>		<path fill="#CCCCCC" d="M174.663,125.104c1.114,0.221,2.025,1.33,2.025,2.465v11.185c0,1.136-0.911,1.884-2.025,1.664   l-25.497-5.047c-1.114-0.22-2.025-1.329-2.025-2.465V121.72c0-1.135,0.911-1.884,2.025-1.664L174.663,125.104z"></path>		<path fill="none" stroke="#000000" stroke-width="0.7874" stroke-miterlimit="10" d="M174.663,125.104   c1.114,0.221,2.025,1.33,2.025,2.465v11.185c0,1.136-0.911,1.884-2.025,1.664l-25.497-5.047c-1.114-0.22-2.025-1.329-2.025-2.465   V121.72c0-1.135,0.911-1.884,2.025-1.664L174.663,125.104z"></path>	</g>	<g>		<path fill="#FF0000" d="M159.831,123.979c0.449,0.089,0.816,0.536,0.816,0.994v10.028c0,0.458-0.367,0.759-0.816,0.67l-10.104-2   c-0.449-0.089-0.816-0.536-0.816-0.994v-10.029c0-0.458,0.367-0.759,0.816-0.67L159.831,123.979z"></path>		<path fill="none" stroke="#000000" stroke-width="0.7874" stroke-miterlimit="10" d="M159.831,123.979   c0.449,0.089,0.816,0.536,0.816,0.994v10.028c0,0.458-0.367,0.759-0.816,0.67l-10.104-2c-0.449-0.089-0.816-0.536-0.816-0.994   v-10.029c0-0.458,0.367-0.759,0.816-0.67L159.831,123.979z"></path>	</g>	<g>		<path fill="#F7931E" d="M173.984,126.781c0.449,0.089,0.816,0.536,0.816,0.994v10.028c0,0.458-0.367,0.76-0.816,0.671   l-10.104-2.001c-0.449-0.089-0.816-0.535-0.816-0.993v-10.028c0-0.458,0.367-0.759,0.816-0.67L173.984,126.781z"></path>		<path fill="none" stroke="#000000" stroke-width="0.7874" stroke-miterlimit="10" d="M173.984,126.781   c0.449,0.089,0.816,0.536,0.816,0.994v10.028c0,0.458-0.367,0.76-0.816,0.671l-10.104-2.001c-0.449-0.089-0.816-0.535-0.816-0.993   v-10.028c0-0.458,0.367-0.759,0.816-0.67L173.984,126.781z"></path>	</g></g><g>	<polygon fill="#D4A686" points="0.75,86.14 60.754,75.745 181.806,100.173 130.649,114.268  "></polygon>	<path fill="#2A2829" d="M130.649,115.018c-0.053,0-0.106-0.006-0.159-0.017L0.591,86.873c-0.35-0.076-0.598-0.39-0.591-0.748  c0.008-0.359,0.269-0.662,0.622-0.723l60.004-10.396c0.092-0.016,0.185-0.015,0.276,0.003l121.052,24.428  c0.34,0.069,0.589,0.362,0.601,0.709s-0.215,0.657-0.55,0.75l-51.157,14.095C130.783,115.009,130.716,115.018,130.649,115.018z   M4.671,86.222l125.956,27.274l47.946-13.21L60.743,76.508L4.671,86.222z"></path></g><g>	<polygon fill="#D4A686" points="310.933,56.051 181.822,100.173 241.389,134.41 362.417,86.264  "></polygon>	<path fill="#2A2829" d="M241.389,135.16c-0.131,0-0.26-0.034-0.375-0.1l-59.564-34.237c-0.255-0.147-0.401-0.429-0.373-0.723  c0.028-0.293,0.226-0.542,0.504-0.637l129.11-44.121c0.203-0.07,0.434-0.048,0.622,0.062l51.483,30.212  c0.247,0.145,0.39,0.418,0.368,0.704c-0.022,0.286-0.204,0.534-0.471,0.64l-121.029,48.146  C241.575,135.143,241.48,135.16,241.389,135.16z M183.63,100.347l57.817,33.231l119.267-47.445L310.85,56.872L183.63,100.347z"></path></g><g>	<path fill="none" stroke="#FFFFFF" stroke-width="2.2" stroke-miterlimit="10" d="M143.412,99.91  c-0.013-0.068-0.036-0.133-0.053-0.2c-0.035-0.138-0.073-0.275-0.124-0.409c-0.029-0.076-0.066-0.149-0.101-0.224  c-0.056-0.12-0.115-0.239-0.184-0.354c-0.045-0.075-0.093-0.148-0.144-0.222c-0.076-0.111-0.158-0.22-0.246-0.327  c-0.058-0.069-0.116-0.139-0.178-0.206c-0.099-0.107-0.206-0.209-0.316-0.312c-0.067-0.061-0.13-0.123-0.201-0.182  c-0.131-0.109-0.272-0.213-0.417-0.316c-0.064-0.045-0.122-0.092-0.188-0.136c-0.217-0.144-0.446-0.282-0.691-0.411  c-0.013-0.007-0.027-0.013-0.041-0.02c-0.232-0.122-0.476-0.236-0.731-0.344c-0.087-0.037-0.18-0.07-0.27-0.105  c-0.188-0.074-0.377-0.146-0.576-0.213c-0.111-0.037-0.227-0.071-0.341-0.106c-0.188-0.058-0.379-0.113-0.576-0.165  c-0.124-0.032-0.25-0.062-0.377-0.092c-0.199-0.046-0.402-0.089-0.609-0.129c-0.131-0.025-0.262-0.05-0.396-0.072  c-0.217-0.036-0.439-0.067-0.664-0.096c-0.13-0.017-0.259-0.035-0.392-0.049c-0.255-0.027-0.517-0.048-0.781-0.065  c-0.107-0.007-0.212-0.018-0.321-0.024c-0.37-0.02-0.747-0.031-1.13-0.031c-0.005,0-0.011,0-0.017,0  c-0.262,0-0.531,0.013-0.798,0.022c-0.156,0.005-0.308,0.004-0.466,0.013c-0.428,0.024-0.863,0.059-1.303,0.107  c-6.994,0.766-12.652,4.381-12.637,8.076c0.001,0.218,0.025,0.43,0.064,0.638c0.013,0.068,0.036,0.133,0.053,0.201  c0.035,0.138,0.072,0.275,0.124,0.409c0.029,0.076,0.066,0.149,0.1,0.224c0.056,0.12,0.115,0.239,0.184,0.355  c0.045,0.075,0.093,0.148,0.144,0.221c0.076,0.111,0.158,0.22,0.247,0.327c0.057,0.069,0.115,0.139,0.178,0.206  c0.099,0.107,0.207,0.21,0.318,0.312c0.066,0.061,0.129,0.122,0.2,0.181c0.131,0.11,0.274,0.214,0.419,0.317  c0.062,0.045,0.12,0.092,0.186,0.135c0.218,0.144,0.447,0.282,0.692,0.412c0.008,0.004,0.017,0.008,0.025,0.012  c0.237,0.125,0.487,0.242,0.748,0.352c0.084,0.036,0.175,0.067,0.262,0.102c0.19,0.075,0.383,0.148,0.584,0.216  c0.109,0.036,0.222,0.069,0.333,0.104c0.191,0.059,0.384,0.115,0.584,0.167c0.123,0.032,0.247,0.061,0.372,0.09  c0.201,0.047,0.406,0.09,0.615,0.13c0.129,0.025,0.259,0.049,0.391,0.071c0.219,0.037,0.443,0.068,0.67,0.097  c0.128,0.017,0.255,0.035,0.385,0.049c0.26,0.028,0.526,0.048,0.794,0.066c0.103,0.007,0.203,0.017,0.307,0.023  c0.371,0.019,0.748,0.031,1.133,0.031c0.006,0,0.013,0,0.019,0c0.229,0,0.466-0.012,0.7-0.02c0.188-0.006,0.372-0.006,0.562-0.016  c0.428-0.024,0.862-0.06,1.302-0.107c6.995-0.765,12.652-4.381,12.635-8.077C143.475,100.33,143.451,100.118,143.412,99.91z"></path>	<path fill="none" stroke="#FFFFFF" stroke-width="2.2" stroke-miterlimit="10" d="M67.24,84.091  c-0.035-0.138-0.073-0.275-0.124-0.409c-0.029-0.076-0.066-0.149-0.101-0.224c-0.055-0.12-0.115-0.239-0.184-0.354  c-0.044-0.075-0.093-0.148-0.143-0.222c-0.076-0.111-0.158-0.22-0.247-0.327c-0.058-0.069-0.116-0.139-0.178-0.207  c-0.099-0.106-0.206-0.209-0.316-0.311c-0.067-0.061-0.13-0.123-0.201-0.182c-0.131-0.109-0.272-0.213-0.417-0.316  c-0.063-0.045-0.122-0.092-0.188-0.136c-0.217-0.144-0.446-0.282-0.691-0.411c-0.013-0.007-0.027-0.013-0.041-0.02  c-0.232-0.122-0.476-0.236-0.731-0.344c-0.087-0.037-0.18-0.069-0.27-0.105c-0.188-0.074-0.377-0.146-0.576-0.213  c-0.111-0.037-0.227-0.071-0.341-0.106c-0.188-0.058-0.379-0.113-0.576-0.164c-0.124-0.032-0.25-0.062-0.377-0.092  c-0.199-0.046-0.402-0.089-0.609-0.128c-0.131-0.025-0.262-0.05-0.396-0.073c-0.217-0.036-0.439-0.067-0.664-0.096  c-0.13-0.017-0.259-0.035-0.392-0.049c-0.255-0.028-0.517-0.047-0.781-0.065c-0.107-0.007-0.212-0.018-0.321-0.024  c-0.37-0.02-0.747-0.031-1.13-0.031c-0.005,0-0.011,0-0.017,0c-0.262,0-0.531,0.013-0.798,0.022  c-0.156,0.005-0.308,0.004-0.466,0.013c-0.428,0.024-0.863,0.059-1.303,0.107c-6.994,0.766-12.652,4.381-12.637,8.076  c0.001,0.218,0.025,0.43,0.064,0.638c0.013,0.068,0.036,0.133,0.053,0.201c0.035,0.138,0.072,0.275,0.124,0.409  c0.029,0.076,0.066,0.149,0.101,0.224c0.056,0.121,0.115,0.239,0.185,0.355c0.044,0.075,0.093,0.148,0.143,0.221  c0.076,0.111,0.159,0.22,0.247,0.327c0.058,0.069,0.115,0.139,0.178,0.206c0.099,0.107,0.207,0.21,0.318,0.312  c0.066,0.061,0.129,0.122,0.2,0.181c0.131,0.11,0.274,0.214,0.419,0.317c0.063,0.044,0.12,0.091,0.186,0.135  c0.218,0.144,0.447,0.282,0.692,0.412c0.008,0.004,0.017,0.008,0.025,0.012c0.237,0.124,0.487,0.241,0.748,0.352  c0.084,0.036,0.175,0.067,0.262,0.102c0.19,0.075,0.383,0.148,0.584,0.216c0.109,0.037,0.222,0.069,0.333,0.104  c0.191,0.059,0.384,0.115,0.584,0.167c0.122,0.032,0.246,0.061,0.372,0.09c0.201,0.047,0.406,0.09,0.615,0.13  c0.129,0.025,0.259,0.049,0.391,0.071c0.219,0.037,0.443,0.068,0.67,0.097c0.128,0.017,0.255,0.035,0.385,0.049  c0.26,0.028,0.526,0.048,0.794,0.066c0.103,0.007,0.203,0.017,0.306,0.023c0.372,0.02,0.749,0.031,1.133,0.031  c0.006,0,0.013,0,0.019,0c0.229,0,0.466-0.012,0.7-0.02c0.188-0.006,0.372-0.006,0.562-0.016c0.428-0.024,0.862-0.059,1.302-0.107  c6.995-0.765,12.652-4.381,12.635-8.077c-0.001-0.218-0.025-0.43-0.064-0.638C67.279,84.224,67.256,84.158,67.24,84.091z"></path></g><g>	<path fill="#F7931E" d="M52.138,92.69c-5.58,0-9.639-2.099-9.651-4.991c-0.015-3.46,5.471-6.877,12.228-7.617  c0.853-0.093,1.706-0.141,2.533-0.141c5.58,0,9.638,2.098,9.65,4.99c0.015,3.462-5.469,6.879-12.226,7.619  C53.818,92.643,52.966,92.69,52.138,92.69z"></path>	<g>		<path fill="#CCCCCC" d="M57.248,80.4L57.248,80.4c5.229,0,9.18,1.949,9.19,4.533c0.014,3.179-5.397,6.458-11.817,7.16   c-0.836,0.092-1.672,0.138-2.483,0.138c-5.229,0-9.181-1.949-9.192-4.534c-0.014-3.177,5.398-6.456,11.818-7.159   C55.601,80.447,56.437,80.4,57.248,80.4 M57.248,79.482c-0.834,0-1.698,0.047-2.583,0.144c-6.994,0.766-12.652,4.381-12.637,8.076   c0.014,3.229,4.351,5.449,10.11,5.449c0.834,0,1.698-0.047,2.583-0.144c6.995-0.765,12.652-4.381,12.635-8.077   C67.344,81.703,63.007,79.482,57.248,79.482L57.248,79.482z"></path>	</g></g><g>	<path fill="#F7931E" d="M128.258,108.309c-5.58,0-9.639-2.099-9.651-4.991c-0.015-3.46,5.471-6.877,12.228-7.617  c0.853-0.093,1.706-0.141,2.533-0.141c5.58,0,9.638,2.098,9.65,4.99c0.015,3.462-5.469,6.879-12.226,7.619  C129.938,108.262,129.085,108.309,128.258,108.309z"></path>	<g>		<path fill="#CCCCCC" d="M133.368,96.019L133.368,96.019c5.229,0,9.18,1.949,9.19,4.533c0.014,3.179-5.397,6.458-11.817,7.16   c-0.836,0.092-1.672,0.138-2.483,0.138c-5.229,0-9.181-1.949-9.192-4.534c-0.014-3.177,5.398-6.456,11.818-7.159   C131.72,96.065,132.556,96.019,133.368,96.019 M133.367,95.101c-0.834,0-1.698,0.047-2.583,0.144   c-6.994,0.766-12.652,4.381-12.637,8.076c0.014,3.229,4.351,5.449,10.11,5.449c0.834,0,1.698-0.047,2.583-0.144   c6.995-0.765,12.652-4.381,12.635-8.077C143.463,97.322,139.127,95.101,133.367,95.101L133.367,95.101z"></path>	</g></g></svg>