<svg xmlns="http://www.w3.org/2000/svg" xmlns:xlink="http://www.w3.org/1999/xlink" id="Layer_1" x="0px" y="0px" width="363px" height="255px" viewBox="0 0 363 255" xml:space="preserve"><g>	<g>		<polygon fill="#D4A686" points="160.969,36.153 52.184,55.667 52.184,204.305 181.27,253.859 181.27,41.784   "></polygon>		<path fill="#2A2829" d="M181.27,254.609c-0.09,0-0.182-0.018-0.269-0.051L51.916,205.003c-0.29-0.11-0.48-0.39-0.48-0.698V55.667   c0-0.363,0.26-0.674,0.617-0.738l108.785-19.513c0.111-0.019,0.225-0.014,0.333,0.016l20.302,5.631   c0.324,0.09,0.548,0.386,0.548,0.723v212.073c0,0.248-0.123,0.479-0.326,0.619C181.568,254.564,181.419,254.609,181.27,254.609z    M52.934,203.787l127.588,48.98V42.354l-19.588-5.433l-108,19.372V203.787z"></path>	</g>	<g>		<polygon fill="#D4A686" points="181.27,41.784 181.27,253.859 181.271,253.859 302.277,215.805 302.277,75.347   "></polygon>		<path fill="#2A2829" d="M181.271,254.609c-0.117,0-0.235-0.026-0.342-0.082l-0.003-0.002c-0.25-0.129-0.407-0.385-0.407-0.666   V41.784c0-0.234,0.109-0.455,0.295-0.597c0.188-0.141,0.43-0.188,0.654-0.125l121.009,33.563c0.323,0.09,0.549,0.386,0.549,0.723   v140.458c0,0.325-0.213,0.616-0.524,0.715l-121.005,38.057C181.423,254.6,181.348,254.609,181.271,254.609z M182.02,42.771   v210.068l119.51-37.586V75.918L182.02,42.771z"></path>	</g>	<g>		<polygon fill="#D4A686" points="302.271,75.348 345.07,37.126 203.857,1.438 160.866,36.125   "></polygon>		<path fill="#2A2829" d="M302.271,76.098c-0.067,0-0.137-0.009-0.201-0.027L160.666,36.847c-0.271-0.075-0.477-0.295-0.534-0.571   c-0.057-0.275,0.045-0.559,0.265-0.736l42.992-34.688c0.185-0.147,0.426-0.202,0.653-0.143l141.212,35.689   c0.271,0.068,0.479,0.279,0.545,0.548c0.066,0.269-0.021,0.553-0.229,0.738l-42.799,38.223   C302.632,76.032,302.453,76.098,302.271,76.098z M162.473,35.792l139.604,38.725l41.439-37.009L204.038,2.256L162.473,35.792z"></path>	</g>	<g>		<polygon fill="#D4A686" points="52.209,55.657 22.85,21.38 126.292,0.36 160.866,36.125   "></polygon>		<path fill="#2A2829" d="M52.209,56.406c-0.217,0-0.426-0.094-0.568-0.262L22.279,21.868c-0.172-0.202-0.227-0.48-0.139-0.731   c0.086-0.251,0.299-0.438,0.56-0.491l103.442-21.02c0.252-0.052,0.51,0.029,0.688,0.213l34.575,35.764   c0.191,0.199,0.259,0.488,0.174,0.752c-0.084,0.264-0.309,0.458-0.581,0.508L52.342,56.396   C52.297,56.402,52.253,56.406,52.209,56.406z M24.248,21.861l28.25,32.982L159.35,35.635L126.039,1.177L24.248,21.861z"></path>	</g>	<g>		<g>			<polygon fill="#B58B6A" points="160.938,36.153 160.896,36.16 160.896,92.824 181.229,99.775 302.246,75.356 302.246,75.347        "></polygon>			<path fill="#2A2829" d="M181.229,100.512c-0.08,0-0.162-0.013-0.238-0.04l-20.333-6.951c-0.298-0.102-0.499-0.383-0.499-0.698    V36.16c0-0.357,0.255-0.663,0.605-0.726c0.11-0.02,0.262-0.021,0.369,0.008l141.309,39.194c0.32,0.088,0.541,0.379,0.541,0.711    c0,0.351-0.248,0.663-0.592,0.732l-121.017,24.418C181.327,100.507,181.277,100.512,181.229,100.512z M161.634,92.296    l19.646,6.716l117.816-23.773L161.634,37.112V92.296z"></path>		</g>		<g>			<polygon fill="#B58B6A" points="52.184,55.659 160.896,92.824 160.896,36.16    "></polygon>			<path fill="#2A2829" d="M160.896,93.562c-0.08,0-0.16-0.013-0.238-0.04L51.945,56.357c-0.318-0.108-0.522-0.418-0.497-0.754    c0.024-0.335,0.274-0.611,0.604-0.67l108.713-19.499c0.215-0.035,0.437,0.021,0.604,0.161c0.167,0.14,0.264,0.348,0.264,0.566    v56.664c0,0.238-0.114,0.462-0.308,0.6C161.199,93.516,161.049,93.562,160.896,93.562z M55.118,55.882l105.042,35.91v-54.75    L55.118,55.882z"></path>		</g>	</g>	<g>		<polygon fill="#D4A686" points="362.25,85.743 302.273,75.348 181.277,99.775 232.411,113.869   "></polygon>		<path fill="#2A2829" d="M232.411,114.619c-0.067,0-0.134-0.009-0.199-0.027l-51.134-14.094c-0.335-0.092-0.562-0.402-0.551-0.75   c0.013-0.347,0.261-0.64,0.602-0.709l120.997-24.426c0.091-0.018,0.187-0.019,0.276-0.003l59.977,10.395   c0.354,0.061,0.614,0.364,0.622,0.723c0.007,0.359-0.24,0.672-0.591,0.748l-129.84,28.126   C232.518,114.613,232.463,114.619,232.411,114.619z M184.508,99.887l47.924,13.209L358.33,85.825l-56.046-9.713L184.508,99.887z"></path>	</g>	<polygon fill="#D4A686" points="52.209,55.657 181.262,99.775 121.723,134.009 0.75,85.867  "></polygon>	<path fill="#2A2829" d="M121.723,134.759c-0.094,0-0.188-0.019-0.277-0.054L0.473,86.563c-0.266-0.106-0.449-0.354-0.471-0.639  c-0.021-0.286,0.122-0.559,0.369-0.704L51.83,55.01c0.188-0.111,0.414-0.134,0.622-0.062l129.053,44.118  c0.278,0.095,0.476,0.344,0.503,0.637c0.028,0.293-0.117,0.576-0.373,0.723l-59.539,34.234  C121.98,134.727,121.852,134.759,121.723,134.759z M2.452,85.737l119.211,47.441l57.791-33.229L52.292,56.478L2.452,85.737z"></path>	<g opacity="0.5">		<path fill="#EFDAB9" d="M229.325,252.387v-9.453l5.468-1.725v0.775l-4.605,1.451v3.561l4.176-1.316v0.775l-4.176,1.316v4.343   L229.325,252.387z"></path>		<path fill="#EFDAB9" d="M236.699,250.062v-7.09l0.798-0.253v1.091l0.062-0.021c0.142-0.399,0.387-0.769,0.739-1.101   c0.354-0.33,0.751-0.565,1.199-0.707c0.065-0.021,0.144-0.043,0.226-0.065c0.084-0.022,0.151-0.041,0.209-0.058v0.836   c-0.037,0.007-0.103,0.019-0.195,0.033c-0.092,0.019-0.19,0.043-0.299,0.076c-0.369,0.115-0.697,0.297-0.985,0.543   c-0.287,0.246-0.517,0.532-0.681,0.858c-0.168,0.326-0.25,0.665-0.25,1.017v4.58L236.699,250.062z"></path>		<path fill="#EFDAB9" d="M243.865,247.953c-0.613,0.191-1.154,0.207-1.623,0.045c-0.469-0.164-0.835-0.479-1.102-0.943   c-0.265-0.467-0.396-1.06-0.396-1.779c0-0.727,0.132-1.406,0.396-2.043c0.267-0.637,0.633-1.184,1.102-1.64   c0.469-0.457,1.009-0.782,1.623-0.975c0.611-0.193,1.152-0.208,1.619-0.045c0.468,0.163,0.834,0.479,1.1,0.944   c0.266,0.467,0.398,1.063,0.398,1.791c0,0.721-0.131,1.396-0.396,2.028c-0.263,0.633-0.63,1.179-1.1,1.638   C245.018,247.434,244.477,247.76,243.865,247.953z M243.865,247.199c0.492-0.154,0.908-0.418,1.25-0.791   c0.34-0.372,0.6-0.807,0.777-1.303c0.176-0.496,0.266-1.008,0.266-1.537s-0.09-0.988-0.266-1.375   c-0.179-0.387-0.438-0.661-0.777-0.821c-0.342-0.16-0.76-0.163-1.25-0.007c-0.49,0.152-0.906,0.417-1.249,0.793   s-0.603,0.812-0.78,1.312c-0.177,0.499-0.266,1.013-0.266,1.542s0.089,0.986,0.266,1.371c0.178,0.385,0.436,0.655,0.777,0.812   C242.955,247.352,243.373,247.354,243.865,247.199z"></path>		<path fill="#EFDAB9" d="M249.607,241.562v4.432l-0.82,0.259v-7.09l0.798-0.252v1.112l0.073-0.023   c0.167-0.415,0.426-0.788,0.777-1.119c0.353-0.331,0.789-0.579,1.31-0.742c0.478-0.149,0.896-0.184,1.257-0.099   c0.361,0.084,0.643,0.287,0.844,0.606c0.202,0.321,0.303,0.764,0.303,1.321v4.595l-0.82,0.259v-4.542   c0-0.582-0.163-0.991-0.487-1.229c-0.323-0.234-0.759-0.27-1.304-0.098c-0.371,0.117-0.703,0.302-0.992,0.553   s-0.52,0.555-0.688,0.906C249.691,240.768,249.607,241.15,249.607,241.562z"></path>		<path fill="#EFDAB9" d="M259.109,235.909v0.714l-3.381,1.066v-0.715L259.109,235.909z M256.785,234.943l0.824-0.262v6.938   c0,0.294,0.052,0.509,0.152,0.646c0.103,0.135,0.233,0.213,0.396,0.229c0.163,0.019,0.338-0.003,0.521-0.062   c0.107-0.033,0.2-0.069,0.276-0.107c0.077-0.038,0.146-0.073,0.203-0.108l0.176,0.688c-0.08,0.056-0.179,0.115-0.295,0.179   c-0.117,0.062-0.263,0.121-0.435,0.176c-0.304,0.095-0.593,0.12-0.871,0.076c-0.277-0.045-0.506-0.17-0.686-0.375   c-0.179-0.205-0.268-0.502-0.268-0.892v-7.129h0.006V234.943z"></path>	</g></g><g>	<g>		<g>			<path fill-rule="evenodd" clip-rule="evenodd" d="M111.005,184.007c0,17.741-12.34,29.81-27.564,26.967    c-15.225-2.845-27.565-19.533-27.565-37.272c0-17.734,12.34-29.805,27.565-26.96C98.666,149.586,111.005,166.271,111.005,184.007    z"></path>			<path fill="#FFFFFF" d="M79.042,146.326c1.433,0,2.902,0.135,4.4,0.415c15.224,2.845,27.564,19.53,27.564,37.266    c0,15.997-10.033,27.382-23.166,27.382c-1.432,0-2.901-0.136-4.398-0.415c-15.225-2.845-27.565-19.533-27.565-37.272    C55.876,157.712,65.909,146.326,79.042,146.326 M79.042,145.326L79.042,145.326c-6.694,0-12.827,2.855-17.268,8.041    c-4.449,5.193-6.898,12.415-6.898,20.334c0,18.17,12.732,35.331,28.381,38.256c1.535,0.286,3.076,0.432,4.582,0.432    c6.694,0,12.827-2.856,17.268-8.042c4.449-5.194,6.898-12.418,6.898-20.34c0-18.166-12.731-35.324-28.38-38.249    C82.09,145.472,80.548,145.326,79.042,145.326L79.042,145.326z"></path>		</g>		<path fill-rule="evenodd" clip-rule="evenodd" fill="#B3B3B3" d="M83.441,155.115c-11.254-2.104-20.378,6.82-20.378,19.932   s9.124,25.445,20.378,27.551c11.253,2.105,20.378-6.82,20.378-19.932C103.819,169.553,94.695,157.22,83.441,155.115z    M82.875,159.69c1.021,0.175,2.096,0.339,2.938,0.726c0.347,0.159,0.686,0.195,1.017,0.365c0.51,0.264,0.912,0.545,1.28,0.932   c0.609,0.646,1.196,2.212,0.759,3.369c-0.331,0.881-0.866,1.533-1.34,2.23c-0.644,0.947-1.259,1.924-1.899,2.871   c-0.326,0.476-0.64,0.959-0.958,1.434c-0.383,0.562-0.703,1.086-1.279,1.389c-0.215,0.119-0.459,0.174-0.746,0.202   c-0.1-0.016-0.202-0.028-0.304-0.042c-0.032,0-0.096,0.014-0.151-0.008c-0.328-0.146-0.606-0.211-0.869-0.396   c-0.3-0.207-0.553-0.498-0.805-0.752c-0.389-0.393-0.749-0.81-1.127-1.204c-0.927-0.969-1.811-1.991-2.738-2.956   c-0.332-0.347-0.644-0.712-0.974-1.052c-0.518-0.538-1.025-1.085-1.369-1.798c-0.264-0.549-0.495-1.581-0.302-2.342   c0.124-0.504,0.329-0.887,0.577-1.221c0.35-0.477,1.025-0.722,1.566-0.951c0.826-0.346,1.745-0.567,2.695-0.754   c0.499-0.099,1.034-0.088,1.55-0.154c0.564-0.068,1.171,0.068,1.751,0.025C82.293,159.594,82.785,159.739,82.875,159.69z    M67.709,170.656c0.304-1.082,0.604-2.225,1.051-3.002c0.185-0.321,0.269-0.689,0.461-0.988c0.291-0.455,0.585-0.787,0.958-1.024   c0.625-0.394,1.995-0.337,2.87,0.692c0.667,0.783,1.116,1.688,1.612,2.551c0.673,1.17,1.373,2.319,2.044,3.488   c0.339,0.588,0.684,1.166,1.02,1.746c0.401,0.695,0.778,1.302,0.935,2.096c0.063,0.297,0.07,0.601,0.046,0.94   c-0.027,0.108-0.054,0.22-0.08,0.327c-0.004,0.038-0.002,0.117-0.031,0.168c-0.167,0.307-0.267,0.591-0.457,0.804   c-0.217,0.243-0.493,0.398-0.743,0.569c-0.379,0.263-0.776,0.475-1.156,0.723c-0.937,0.608-1.911,1.142-2.843,1.75   c-0.335,0.217-0.681,0.404-1.01,0.623c-0.521,0.337-1.047,0.663-1.681,0.722c-0.492,0.051-1.37-0.167-1.961-0.731   c-0.39-0.378-0.672-0.789-0.907-1.222c-0.333-0.618-0.428-1.496-0.528-2.22c-0.153-1.098-0.191-2.246-0.195-3.408   c-0.002-0.615,0.088-1.217,0.117-1.837c0.032-0.67,0.238-1.302,0.296-1.976C67.542,171.271,67.737,170.779,67.709,170.656z    M74.289,192.954c-0.835-0.843-1.721-1.712-2.286-2.58c-0.233-0.356-0.52-0.624-0.734-0.978c-0.327-0.545-0.551-1.031-0.685-1.562   c-0.225-0.89,0.038-2.42,1.011-2.943c0.746-0.396,1.556-0.487,2.337-0.651c1.06-0.226,2.108-0.491,3.166-0.717   c0.534-0.112,1.06-0.239,1.588-0.351c0.63-0.136,1.185-0.284,1.857-0.099c0.25,0.067,0.499,0.201,0.771,0.384   c0.087,0.08,0.171,0.16,0.257,0.24c0.028,0.022,0.094,0.059,0.133,0.115c0.223,0.334,0.438,0.575,0.584,0.89   c0.164,0.36,0.25,0.745,0.348,1.104c0.153,0.554,0.268,1.104,0.41,1.651c0.351,1.345,0.634,2.698,0.983,4.036   c0.123,0.48,0.224,0.963,0.348,1.436c0.194,0.748,0.378,1.5,0.329,2.248c-0.037,0.577-0.353,1.475-0.906,1.887   c-0.368,0.271-0.746,0.397-1.142,0.466c-0.553,0.097-1.287-0.204-1.891-0.423c-0.922-0.331-1.864-0.82-2.814-1.353   c-0.5-0.28-0.979-0.661-1.478-0.979c-0.545-0.347-1.026-0.869-1.567-1.249C74.767,193.43,74.395,192.982,74.289,192.954z    M93.522,195.771c-0.819,0.557-1.668,1.166-2.466,1.406c-0.328,0.1-0.587,0.303-0.913,0.385c-0.494,0.119-0.925,0.15-1.382,0.055   c-0.762-0.155-1.972-1.156-2.244-2.508c-0.206-1.029-0.156-1.991-0.167-2.952c-0.02-1.311-0.073-2.628-0.09-3.933   c-0.011-0.655-0.03-1.314-0.038-1.968c-0.011-0.774-0.046-1.478,0.211-2.154c0.095-0.253,0.242-0.476,0.434-0.702   c0.078-0.059,0.158-0.121,0.237-0.178c0.023-0.023,0.062-0.082,0.114-0.096c0.306-0.1,0.539-0.235,0.817-0.255   c0.319-0.024,0.646,0.058,0.955,0.114c0.477,0.08,0.943,0.205,1.409,0.293c1.157,0.224,2.305,0.529,3.452,0.748   c0.412,0.082,0.822,0.187,1.227,0.268c0.642,0.123,1.281,0.26,1.887,0.662c0.466,0.311,1.15,1.082,1.396,1.904   c0.166,0.541,0.21,1.033,0.205,1.508c-0.01,0.674-0.368,1.37-0.641,1.957c-0.417,0.891-0.96,1.738-1.544,2.572   c-0.309,0.442-0.694,0.809-1.032,1.229c-0.37,0.46-0.871,0.764-1.265,1.205C93.984,195.447,93.561,195.662,93.522,195.771z    M98.829,175.211c0.328,1.189,0.691,2.433,0.762,3.451c0.029,0.42,0.157,0.809,0.17,1.217c0.023,0.617-0.021,1.121-0.17,1.596   c-0.246,0.794-1.253,1.703-2.397,1.391c-0.875-0.236-1.651-0.74-2.437-1.172c-1.074-0.584-2.156-1.131-3.222-1.711   c-0.541-0.295-1.081-0.573-1.613-0.863c-0.638-0.346-1.212-0.631-1.728-1.237c-0.193-0.226-0.349-0.494-0.505-0.815   c-0.036-0.119-0.072-0.236-0.108-0.354c-0.013-0.037-0.056-0.107-0.062-0.176c-0.033-0.389-0.106-0.717-0.079-1.044   c0.031-0.376,0.15-0.71,0.244-1.034c0.138-0.506,0.314-0.977,0.462-1.467c0.362-1.209,0.788-2.373,1.15-3.576   c0.129-0.432,0.281-0.846,0.405-1.273c0.205-0.672,0.417-1.334,0.838-1.835c0.327-0.388,1.063-0.808,1.771-0.712   c0.469,0.062,0.877,0.238,1.264,0.464c0.55,0.323,1.062,1.05,1.497,1.634c0.664,0.885,1.269,1.894,1.86,2.944   c0.311,0.551,0.549,1.159,0.841,1.737c0.316,0.631,0.487,1.342,0.787,1.991C98.637,174.537,98.747,175.117,98.829,175.211z"></path>		<g>			<path d="M83.439,201.461c-10.697-2-19.4-13.769-19.4-26.23c0-12.465,8.703-20.977,19.4-18.977    c10.699,1.999,19.402,13.766,19.402,26.229S94.139,203.459,83.439,201.461z M83.439,157.594    c-10.06-1.883-18.25,6.125-18.25,17.85c0,11.727,8.189,22.795,18.25,24.674c10.064,1.885,18.252-6.127,18.252-17.851    S93.503,159.474,83.439,157.594z"></path>		</g>		<path fill-rule="evenodd" clip-rule="evenodd" d="M85.533,179.244c0,1.35-0.935,2.264-2.091,2.049   c-1.157-0.217-2.094-1.48-2.094-2.83c0-1.346,0.937-2.264,2.094-2.047C84.598,176.633,85.533,177.9,85.533,179.244z"></path>		<g>			<path fill-rule="evenodd" clip-rule="evenodd" d="M85.856,175.456c0,0.489-0.34,0.824-0.764,0.747    c-0.42-0.08-0.762-0.541-0.762-1.032c0-0.493,0.342-0.825,0.762-0.746C85.516,174.503,85.856,174.966,85.856,175.456z"></path>			<path fill-rule="evenodd" clip-rule="evenodd" d="M80.136,175.424c0.421,0.08,0.764,0.541,0.764,1.033    c0,0.49-0.343,0.822-0.764,0.744c-0.422-0.08-0.764-0.541-0.764-1.031C79.372,175.678,79.714,175.346,80.136,175.424z"></path>			<path fill-rule="evenodd" clip-rule="evenodd" d="M81.024,182.254c0-0.488,0.342-0.822,0.762-0.746    c0.424,0.082,0.764,0.541,0.764,1.033c0,0.488-0.34,0.826-0.764,0.745C81.366,183.209,81.024,182.744,81.024,182.254z"></path>			<path fill-rule="evenodd" clip-rule="evenodd" d="M86.746,182.288c-0.42-0.078-0.763-0.542-0.763-1.033s0.343-0.823,0.763-0.745    c0.42,0.08,0.764,0.541,0.764,1.033C87.51,182.031,87.166,182.367,86.746,182.288z"></path>		</g>	</g>	<g>		<g>			<path fill-rule="evenodd" clip-rule="evenodd" d="M177.807,211.693c0,17.74-12.34,29.811-27.564,26.967    c-15.225-2.846-27.565-19.534-27.565-37.272c0-17.734,12.34-29.805,27.565-26.96    C165.467,177.271,177.807,193.959,177.807,211.693z"></path>			<path fill="#FFFFFF" d="M145.843,174.013c1.433,0,2.902,0.135,4.4,0.415c15.224,2.844,27.564,19.531,27.564,37.266    c0,15.995-10.034,27.382-23.166,27.382c-1.433,0-2.9-0.136-4.398-0.415c-15.225-2.846-27.565-19.534-27.565-37.272    C122.678,185.398,132.711,174.013,145.843,174.013 M145.844,173.013L145.844,173.013c-6.694,0-12.827,2.855-17.268,8.041    c-4.449,5.193-6.898,12.415-6.898,20.334c0,18.169,12.732,35.33,28.381,38.256c1.535,0.286,3.077,0.432,4.582,0.432    c6.693,0,12.826-2.856,17.267-8.042c4.448-5.195,6.898-12.419,6.898-20.34c0-18.167-12.731-35.325-28.38-38.249    C148.892,173.158,147.35,173.013,145.844,173.013L145.844,173.013z"></path>		</g>		<path fill-rule="evenodd" clip-rule="evenodd" fill="#B3B3B3" d="M150.243,182.8c-11.254-2.103-20.378,6.821-20.378,19.933   c0,13.113,9.124,25.445,20.378,27.551c11.253,2.106,20.378-6.82,20.378-19.932C170.621,197.239,161.497,184.904,150.243,182.8z    M149.677,187.375c1.021,0.176,2.096,0.34,2.938,0.728c0.347,0.159,0.686,0.194,1.017,0.364c0.51,0.264,0.912,0.545,1.28,0.932   c0.609,0.646,1.196,2.213,0.759,3.369c-0.331,0.881-0.866,1.533-1.34,2.23c-0.644,0.947-1.259,1.925-1.899,2.871   c-0.326,0.477-0.64,0.959-0.958,1.435c-0.383,0.563-0.703,1.085-1.279,1.389c-0.215,0.118-0.459,0.173-0.746,0.202   c-0.1-0.017-0.202-0.029-0.304-0.042c-0.032,0-0.096,0.013-0.151-0.009c-0.328-0.146-0.606-0.211-0.869-0.396   c-0.3-0.205-0.553-0.498-0.805-0.75c-0.389-0.394-0.749-0.811-1.127-1.205c-0.927-0.969-1.811-1.992-2.738-2.957   c-0.332-0.346-0.644-0.711-0.974-1.051c-0.518-0.539-1.025-1.086-1.369-1.797c-0.264-0.55-0.495-1.582-0.302-2.344   c0.124-0.504,0.329-0.887,0.577-1.221c0.35-0.477,1.025-0.721,1.566-0.95c0.826-0.347,1.745-0.567,2.695-0.753   c0.499-0.1,1.034-0.09,1.55-0.156c0.564-0.068,1.171,0.068,1.751,0.026C149.095,187.279,149.587,187.425,149.677,187.375z    M134.511,198.342c0.304-1.082,0.604-2.225,1.051-3.002c0.185-0.32,0.269-0.689,0.461-0.988c0.291-0.455,0.585-0.785,0.958-1.025   c0.625-0.393,1.995-0.336,2.87,0.694c0.667,0.783,1.116,1.688,1.612,2.55c0.673,1.17,1.373,2.32,2.044,3.489   c0.339,0.587,0.684,1.165,1.02,1.745c0.401,0.697,0.778,1.303,0.935,2.098c0.063,0.295,0.07,0.6,0.046,0.938   c-0.027,0.108-0.054,0.22-0.08,0.329c-0.004,0.037-0.002,0.116-0.031,0.167c-0.167,0.306-0.267,0.589-0.457,0.803   c-0.217,0.245-0.493,0.399-0.743,0.569c-0.379,0.264-0.776,0.475-1.156,0.723c-0.937,0.609-1.91,1.142-2.843,1.75   c-0.335,0.217-0.681,0.405-1.01,0.623c-0.521,0.337-1.047,0.664-1.681,0.723c-0.492,0.051-1.37-0.167-1.961-0.732   c-0.39-0.377-0.672-0.789-0.907-1.222c-0.333-0.618-0.428-1.495-0.528-2.22c-0.153-1.099-0.191-2.244-0.195-3.408   c-0.002-0.613,0.088-1.217,0.117-1.836c0.032-0.67,0.238-1.302,0.296-1.977C134.344,198.958,134.539,198.466,134.511,198.342z    M141.09,220.641c-0.835-0.844-1.721-1.713-2.286-2.581c-0.233-0.356-0.52-0.622-0.734-0.978   c-0.327-0.545-0.551-1.029-0.685-1.561c-0.225-0.892,0.038-2.422,1.011-2.944c0.746-0.396,1.556-0.489,2.337-0.653   c1.06-0.225,2.108-0.49,3.166-0.716c0.534-0.112,1.06-0.238,1.588-0.35c0.63-0.137,1.185-0.284,1.857-0.099   c0.25,0.066,0.5,0.201,0.771,0.383c0.087,0.081,0.171,0.161,0.257,0.24c0.028,0.021,0.094,0.059,0.133,0.115   c0.223,0.334,0.438,0.575,0.584,0.891c0.164,0.359,0.25,0.744,0.348,1.104c0.153,0.554,0.268,1.105,0.41,1.652   c0.351,1.344,0.634,2.697,0.983,4.037c0.123,0.479,0.224,0.961,0.348,1.434c0.194,0.748,0.378,1.5,0.329,2.248   c-0.037,0.578-0.353,1.475-0.906,1.887c-0.368,0.272-0.746,0.398-1.142,0.466c-0.553,0.097-1.287-0.204-1.891-0.422   c-0.922-0.332-1.864-0.82-2.814-1.353c-0.5-0.281-0.979-0.662-1.478-0.98c-0.545-0.346-1.027-0.869-1.567-1.248   C141.569,221.116,141.197,220.668,141.09,220.641z M160.324,223.458c-0.819,0.556-1.668,1.166-2.466,1.405   c-0.328,0.1-0.587,0.303-0.913,0.385c-0.494,0.119-0.925,0.15-1.382,0.055c-0.762-0.154-1.972-1.156-2.244-2.508   c-0.206-1.029-0.156-1.99-0.167-2.953c-0.02-1.309-0.073-2.627-0.09-3.932c-0.011-0.656-0.03-1.312-0.038-1.966   c-0.011-0.776-0.046-1.479,0.211-2.156c0.095-0.253,0.242-0.476,0.434-0.701c0.078-0.059,0.158-0.121,0.237-0.179   c0.023-0.022,0.062-0.082,0.114-0.096c0.306-0.1,0.539-0.234,0.817-0.254c0.319-0.025,0.646,0.059,0.955,0.113   c0.477,0.081,0.944,0.205,1.41,0.294c1.157,0.224,2.305,0.528,3.452,0.748c0.412,0.081,0.822,0.187,1.227,0.267   c0.642,0.123,1.281,0.26,1.887,0.662c0.466,0.312,1.15,1.082,1.396,1.903c0.166,0.541,0.21,1.034,0.205,1.509   c-0.01,0.676-0.369,1.37-0.641,1.957c-0.417,0.892-0.96,1.738-1.544,2.572c-0.309,0.443-0.694,0.809-1.032,1.229   c-0.37,0.461-0.871,0.764-1.265,1.205C160.786,223.133,160.362,223.348,160.324,223.458z M165.63,202.896   c0.328,1.19,0.691,2.434,0.762,3.451c0.029,0.42,0.157,0.81,0.17,1.218c0.023,0.616-0.022,1.122-0.17,1.596   c-0.246,0.794-1.253,1.702-2.397,1.391c-0.875-0.237-1.651-0.741-2.437-1.171c-1.074-0.584-2.156-1.133-3.222-1.713   c-0.541-0.295-1.081-0.572-1.613-0.863c-0.638-0.346-1.212-0.631-1.728-1.236c-0.193-0.227-0.349-0.495-0.505-0.816   c-0.036-0.117-0.072-0.236-0.108-0.353c-0.013-0.038-0.056-0.108-0.062-0.175c-0.033-0.391-0.106-0.72-0.079-1.045   c0.031-0.376,0.15-0.71,0.244-1.033c0.138-0.507,0.314-0.978,0.462-1.469c0.362-1.209,0.788-2.372,1.15-3.574   c0.129-0.434,0.281-0.849,0.405-1.275c0.205-0.67,0.417-1.334,0.838-1.835c0.327-0.387,1.063-0.808,1.771-0.712   c0.469,0.061,0.877,0.238,1.264,0.465c0.55,0.323,1.062,1.051,1.497,1.635c0.664,0.883,1.269,1.893,1.86,2.943   c0.311,0.551,0.549,1.158,0.841,1.738c0.316,0.63,0.487,1.341,0.787,1.99C165.439,202.224,165.548,202.804,165.63,202.896z"></path>		<g>			<path d="M150.241,229.146c-10.697-2-19.4-13.768-19.4-26.23s8.703-20.975,19.4-18.975c10.699,1.997,19.402,13.764,19.402,26.228    C169.644,222.631,160.94,231.146,150.241,229.146z M150.241,185.279c-10.06-1.883-18.25,6.125-18.25,17.85    c0,11.728,8.189,22.795,18.25,24.676c10.064,1.883,18.252-6.129,18.252-17.852C168.494,198.229,160.305,187.158,150.241,185.279z    "></path>		</g>		<path fill-rule="evenodd" clip-rule="evenodd" d="M152.334,206.932c0,1.348-0.935,2.264-2.091,2.047   c-1.157-0.217-2.094-1.48-2.094-2.83c0-1.344,0.937-2.263,2.094-2.045C151.399,204.319,152.334,205.587,152.334,206.932z"></path>		<g>			<path fill-rule="evenodd" clip-rule="evenodd" d="M152.658,203.142c0,0.491-0.34,0.824-0.764,0.747    c-0.42-0.08-0.762-0.541-0.762-1.031c0-0.492,0.342-0.826,0.762-0.746C152.317,202.189,152.658,202.652,152.658,203.142z"></path>			<path fill-rule="evenodd" clip-rule="evenodd" d="M146.938,203.109c0.421,0.082,0.764,0.541,0.764,1.033    s-0.343,0.822-0.764,0.745c-0.422-0.079-0.764-0.542-0.764-1.032C146.174,203.363,146.516,203.033,146.938,203.109z"></path>			<path fill-rule="evenodd" clip-rule="evenodd" d="M147.826,209.94c0-0.489,0.342-0.823,0.762-0.745    c0.424,0.08,0.764,0.541,0.764,1.032c0,0.488-0.34,0.825-0.764,0.745C148.168,210.895,147.826,210.432,147.826,209.94z"></path>			<path fill-rule="evenodd" clip-rule="evenodd" d="M153.547,209.974c-0.42-0.077-0.763-0.542-0.763-1.032    c0-0.492,0.343-0.823,0.763-0.746c0.42,0.081,0.764,0.541,0.764,1.033C154.312,209.717,153.968,210.055,153.547,209.974z"></path>		</g>	</g>	<g>		<g>			<path fill="#FFFFFF" d="M223.966,206.856c0-1.54,1.202-3.181,2.671-3.644l38.726-12.226c1.469-0.463,2.671,0.418,2.671,1.958    v14.496c0,1.54-1.202,3.181-2.671,3.645l-38.726,12.226c-1.469,0.464-2.671-0.417-2.671-1.957V206.856z"></path>		</g>		<path fill="#FFFFFF" d="M266.126,190.864c1.101,0,1.907,0.819,1.907,2.081v14.496c0,1.54-1.202,3.181-2.671,3.645l-38.726,12.226   c-0.266,0.084-0.522,0.124-0.765,0.124c-1.1,0-1.906-0.819-1.906-2.081v-14.498c0-1.54,1.202-3.181,2.671-3.644l38.726-12.226   C265.627,190.903,265.884,190.864,266.126,190.864 M266.127,189.864L266.127,189.864c-0.35,0-0.708,0.057-1.065,0.169   l-38.726,12.227c-1.89,0.595-3.37,2.614-3.37,4.597v14.498c0,1.785,1.222,3.081,2.906,3.081c0.35,0,0.708-0.058,1.065-0.171   l38.726-12.226c1.89-0.597,3.37-2.616,3.37-4.598v-14.496C269.033,191.16,267.811,189.864,266.127,189.864L266.127,189.864z"></path>	</g>	<g>		<g>			<path fill="#FFFFFF" d="M223.966,206.856c0-1.54,1.202-3.181,2.671-3.644l38.726-12.226c1.469-0.463,2.671,0.418,2.671,1.958    v14.496c0,1.54-1.202,3.181-2.671,3.645l-38.726,12.226c-1.469,0.464-2.671-0.417-2.671-1.957V206.856z"></path>		</g>		<path d="M266.127,191.906L266.127,191.906c0.541,0,0.864,0.389,0.864,1.039v14.496c0,1.085-0.908,2.324-1.942,2.65l-38.726,12.226   c-0.159,0.051-0.311,0.076-0.451,0.076c-0.541,0-0.864-0.389-0.864-1.039v-14.498c0-1.085,0.907-2.323,1.942-2.649l38.726-12.226   C265.834,191.932,265.985,191.906,266.127,191.906 M266.126,190.864c-0.242,0-0.499,0.039-0.764,0.123l-38.726,12.226   c-1.469,0.463-2.671,2.104-2.671,3.644v14.498c0,1.262,0.807,2.081,1.906,2.081c0.242,0,0.499-0.04,0.765-0.124l38.726-12.226   c1.469-0.464,2.671-2.104,2.671-3.645v-14.496C268.033,191.684,267.227,190.864,266.126,190.864L266.126,190.864z"></path>	</g>	<g>		<path fill="#FFFFFF" d="M129.186,13.312c1.763,0,3.781,0.715,4.891,1.811l7.257,7.153c1.344,1.327,0.86,2.713-1.082,3.095   l-34.693,6.807c-0.059,0.011-0.124,0.013-0.184,0.021c-0.028,0.009-0.044,0.023-0.075,0.03L89.795,35.27   c-0.03,0.005-0.067,0.002-0.099,0.005c-0.057,0.013-0.102,0.034-0.161,0.045l-34.692,6.807c-0.336,0.066-0.695,0.098-1.065,0.098   c-1.763,0-3.781-0.715-4.893-1.811l-7.256-7.154c-1.345-1.326-0.86-2.713,1.081-3.094l34.693-6.807   c0.059-0.01,0.124-0.012,0.184-0.022c0.027-0.008,0.043-0.022,0.075-0.028l15.506-3.042c0.03-0.005,0.065-0.001,0.098-0.005   c0.057-0.014,0.102-0.034,0.161-0.046l34.693-6.807C128.457,13.343,128.816,13.312,129.186,13.312 M129.186,12.679   c-0.418,0-0.818,0.037-1.188,0.109l-34.693,6.807c-0.054,0.011-0.099,0.024-0.143,0.038c-0.032,0.001-0.069,0.005-0.104,0.011   L77.54,22.688l-0.078,0.016l-0.038,0.016c-0.059,0.006-0.095,0.011-0.13,0.017l-34.707,6.809   c-1.211,0.238-2.018,0.835-2.273,1.683c-0.243,0.809,0.066,1.69,0.87,2.483l7.256,7.154c1.21,1.192,3.355,1.993,5.337,1.993   c0.418,0,0.817-0.037,1.187-0.109l34.692-6.807c0.046-0.008,0.094-0.021,0.142-0.037c0.034-0.001,0.072-0.005,0.106-0.011   l15.518-3.044l0.081-0.016l0.035-0.016c0.058-0.006,0.097-0.011,0.135-0.018l34.702-6.809c1.211-0.238,2.019-0.835,2.274-1.683   c0.243-0.808-0.066-1.69-0.87-2.484l-7.258-7.153C133.313,13.479,131.168,12.679,129.186,12.679L129.186,12.679z"></path>		<g>			<g>				<path fill="#0086FF" d="M140.997,22.342c1.215,1.199,0.776,2.453-0.978,2.797l-34.694,6.807     c-1.754,0.343-4.168-0.35-5.385-1.548l-7.257-7.154c-1.215-1.199-0.776-2.453,0.977-2.797l34.694-6.807     c1.754-0.344,4.171,0.352,5.386,1.549L140.997,22.342z"></path>				<path d="M93.022,23.176c-1.083-1.067-0.689-2.192,0.874-2.499l34.693-6.806c1.563-0.307,3.729,0.315,4.812,1.383l7.257,7.153     c1.083,1.068,0.689,2.193-0.873,2.5l-34.693,6.807c-1.563,0.306-3.729-0.316-4.812-1.383L93.022,23.176 M92.346,23.31     l7.257,7.155c1.344,1.325,4.016,2.093,5.957,1.713l34.693-6.807c1.942-0.381,2.426-1.768,1.082-3.095l-7.257-7.153     c-1.344-1.325-4.016-2.094-5.957-1.713l-34.693,6.807C91.485,20.596,91.001,21.984,92.346,23.31L92.346,23.31z"></path>			</g>			<g>				<path fill="#FF0000" d="M90.279,32.292c1.215,1.198,0.777,2.453-0.978,2.797l-34.693,6.807     c-1.754,0.344-4.169-0.351-5.385-1.549l-7.257-7.154c-1.215-1.198-0.777-2.452,0.977-2.797l34.692-6.807     c1.755-0.344,4.171,0.351,5.385,1.549L90.279,32.292z"></path>				<path d="M42.306,33.127c-1.083-1.067-0.69-2.192,0.873-2.5l34.693-6.807c1.563-0.306,3.729,0.317,4.812,1.385l7.257,7.153     c1.083,1.068,0.69,2.192-0.873,2.499l-34.694,6.807c-1.562,0.306-3.728-0.315-4.811-1.384L42.306,33.127 M41.629,33.26     l7.256,7.154c1.345,1.325,4.018,2.094,5.958,1.713l34.692-6.807c1.941-0.38,2.426-1.768,1.081-3.093l-7.257-7.155     c-1.344-1.324-4.018-2.093-5.957-1.712l-34.693,6.807C40.769,30.547,40.284,31.934,41.629,33.26L41.629,33.26z"></path>			</g>			<g>				<path fill="#FFFFFF" d="M105.17,31.698c0.13,0.129,0.083,0.262-0.104,0.298L89.561,35.04c-0.188,0.036-0.443-0.039-0.572-0.166     L77.793,23.837c-0.13-0.127-0.085-0.261,0.102-0.297l15.507-3.042c0.188-0.036,0.443,0.037,0.572,0.165L105.17,31.698z"></path>				<path d="M78.13,23.771l15.508-3.042l11.195,11.037l-15.506,3.042L78.13,23.771 M77.454,23.903L88.65,34.94     c0.259,0.254,0.772,0.402,1.146,0.33l15.506-3.042c0.374-0.074,0.466-0.34,0.208-0.595L94.312,20.596     c-0.259-0.255-0.771-0.403-1.145-0.329l-15.506,3.042C77.288,23.382,77.195,23.648,77.454,23.903L77.454,23.903z"></path>			</g>		</g>	</g>	<g>		<g>			<path fill="#0086FF" d="M170.94,146.966c-1.523,1.938-3.308,2.099-4.884,2.237c-0.97,0.084-1.9,0.167-2.604,0.675    c-0.703-0.784-1.633-1.231-2.604-1.698c-1.575-0.756-3.36-1.614-4.882-4.15c-2.556-4.256-1.663-7.846-0.449-10.793    c0.946-2.303-0.171-5.362-0.793-6.757l1.322-0.954c3.765,2.199,6.314,0.922,7.407,0.083c1.094,1.267,3.644,3.544,7.407,2.821    l1.324,1.475c-0.623,1.15-1.74,3.771-0.793,6.447C172.603,139.771,173.498,143.711,170.94,146.966z"></path>			<path fill="#FFFFFF" d="M163.453,151.155c-0.352,0-0.701-0.145-0.952-0.425c-0.534-0.596-1.309-0.968-2.206-1.399    c-1.65-0.792-3.704-1.777-5.424-4.645c-2.866-4.771-1.792-8.886-0.535-11.937c0.772-1.881-0.288-4.648-0.779-5.751    c-0.247-0.552-0.071-1.202,0.419-1.556l1.322-0.954c0.409-0.296,0.955-0.322,1.392-0.067c1.19,0.695,2.324,1.047,3.372,1.047    c1.218,0,2.093-0.475,2.613-0.874c0.536-0.411,1.302-0.333,1.744,0.179c0.812,0.94,2.543,2.518,5.013,2.518    c0.388,0,0.787-0.039,1.187-0.116c0.438-0.086,0.892,0.067,1.191,0.401l1.324,1.475c0.361,0.401,0.43,0.987,0.173,1.462    c-0.478,0.882-1.503,3.176-0.712,5.413c1.25,3.53,2.307,8.065-0.65,11.829c-1.867,2.377-4.126,2.575-5.776,2.721    c-0.796,0.069-1.547,0.134-1.968,0.438C163.975,151.076,163.713,151.155,163.453,151.155z M156.364,127.135    c0.66,1.833,1.227,4.415,0.335,6.586c-1.148,2.788-1.898,5.886,0.363,9.649c1.327,2.211,2.858,2.946,4.34,3.657    c0.77,0.37,1.557,0.749,2.267,1.309c0.751-0.274,1.548-0.343,2.278-0.406c1.505-0.133,2.806-0.247,3.99-1.754    c2.169-2.76,1.402-6.148,0.251-9.398c-0.917-2.59-0.241-5.064,0.47-6.662l-0.289-0.322c-0.314,0.034-0.627,0.052-0.937,0.052    c-2.82,0-4.904-1.394-6.179-2.599c-0.811,0.426-1.877,0.777-3.191,0.777C158.861,128.023,157.621,127.726,156.364,127.135z"></path>		</g>		<g>			<g>				<path fill="#0086FF" d="M170.94,146.966c-1.523,1.938-3.308,2.099-4.884,2.237c-0.97,0.084-1.9,0.167-2.604,0.675     c-0.703-0.784-1.633-1.231-2.604-1.698c-1.575-0.756-3.36-1.614-4.882-4.15c-2.556-4.256-1.663-7.846-0.449-10.793     c0.946-2.303-0.171-5.362-0.793-6.757l1.322-0.954c3.765,2.199,6.314,0.922,7.407,0.083c1.094,1.267,3.644,3.544,7.407,2.821     l1.324,1.475c-0.623,1.15-1.74,3.771-0.793,6.447C172.603,139.771,173.498,143.711,170.94,146.966z"></path>				<path d="M163.453,150.533c-0.181,0-0.359-0.074-0.488-0.218c-0.616-0.688-1.482-1.104-2.4-1.545     c-1.575-0.757-3.535-1.697-5.16-4.404c-2.707-4.507-1.769-8.281-0.493-11.379c0.864-2.104-0.262-5.066-0.786-6.242     c-0.126-0.283-0.037-0.616,0.215-0.798l1.322-0.954c0.21-0.151,0.491-0.165,0.713-0.034c1.287,0.751,2.526,1.132,3.686,1.132     c1.393,0,2.396-0.545,2.992-1.002c0.274-0.213,0.667-0.171,0.894,0.091c0.881,1.021,2.766,2.733,5.484,2.733     c0.427,0,0.866-0.043,1.304-0.127c0.226-0.044,0.457,0.035,0.611,0.206l1.324,1.475c0.185,0.206,0.22,0.506,0.088,0.749     c-0.517,0.956-1.626,3.444-0.751,5.917c1.272,3.591,2.201,7.733-0.553,11.237c-1.701,2.165-3.72,2.343-5.341,2.485     c-0.884,0.076-1.718,0.148-2.278,0.554C163.721,150.492,163.586,150.533,163.453,150.533z M155.532,126.704     c0.708,1.732,1.516,4.53,0.591,6.782c-1.152,2.797-2.004,6.196,0.405,10.207c1.423,2.37,3.04,3.146,4.604,3.896     c0.839,0.403,1.702,0.818,2.425,1.469c0.751-0.36,1.609-0.435,2.443-0.507c1.511-0.133,3.075-0.271,4.425-1.989     c2.361-3.005,1.501-6.737,0.349-9.991c-0.919-2.599-0.097-5.096,0.621-6.564l-0.782-0.87c-0.396,0.058-0.792,0.088-1.181,0.088     c-2.87,0-4.93-1.567-6.077-2.752c-0.771,0.479-1.873,0.93-3.293,0.93c-1.277,0-2.612-0.37-3.972-1.101L155.532,126.704z"></path>			</g>			<path fill="#FFFFFF" d="M167.672,136.262l-2.568-0.887l-1.119-2.83c-0.098-0.248-0.305-0.434-0.531-0.479    c-0.228-0.045-0.435,0.06-0.533,0.27l-1.117,2.393l-2.57-0.122c-0.224-0.011-0.412,0.126-0.481,0.353    c-0.07,0.229-0.011,0.504,0.154,0.713l1.878,2.363l-0.47,2.754c-0.042,0.241,0.049,0.513,0.234,0.697    c0.183,0.187,0.428,0.25,0.627,0.17l2.278-0.932l2.278,1.826c0.087,0.07,0.184,0.115,0.28,0.135    c0.122,0.024,0.244,0.006,0.347-0.059c0.183-0.113,0.274-0.348,0.233-0.605l-0.469-2.938l1.877-1.629    c0.165-0.143,0.225-0.395,0.155-0.65C168.084,136.549,167.896,136.338,167.672,136.262z"></path>		</g>	</g>	<g>		<g>			<path fill="#FF0000" d="M182.548,166.769c-0.398,0.12-1.051,0.114-1.448-0.012l-12.402-3.938    c-0.397-0.126-0.722,0.111-0.722,0.528v9.694c0,0.417,0.324,0.865,0.719,0.996l2.774,0.919c0.396,0.131,1.045,0.34,1.443,0.464    l8.186,2.551c0.398,0.124,1.046,0.115,1.441-0.021l5.338-1.829c0.395-0.136,1.045-0.34,1.445-0.453l17.141-4.876    c0.4-0.113,0.729-0.548,0.729-0.965v-9.693c0-0.417-0.327-0.66-0.726-0.54L182.548,166.769z"></path>		</g>		<path fill="#FFFFFF" d="M206.665,159.564c0.303,0,0.526,0.226,0.526,0.57v9.693c0,0.417-0.328,0.852-0.729,0.965l-17.141,4.876   c-0.4,0.113-1.051,0.317-1.445,0.453l-5.338,1.829c-0.208,0.071-0.487,0.108-0.763,0.108c-0.247,0-0.49-0.029-0.678-0.088   l-8.186-2.551c-0.398-0.124-1.047-0.333-1.443-0.464l-2.774-0.919c-0.396-0.131-0.719-0.579-0.719-0.996v-9.694   c0-0.341,0.218-0.562,0.514-0.562c0.066,0,0.136,0.012,0.208,0.034l12.402,3.938c0.206,0.065,0.479,0.099,0.751,0.099   c0.253,0,0.504-0.029,0.696-0.087l23.918-7.174C206.535,159.574,206.602,159.564,206.665,159.564 M206.665,158.696   c-0.149,0-0.301,0.022-0.449,0.067l-23.917,7.174c-0.081,0.024-0.24,0.05-0.447,0.05c-0.227,0-0.401-0.029-0.489-0.058   l-12.401-3.938c-0.156-0.049-0.314-0.074-0.471-0.074c-0.388,0-0.744,0.152-1.002,0.428c-0.245,0.263-0.38,0.618-0.38,1.002v9.694   c0,0.789,0.565,1.572,1.314,1.819l2.773,0.919c0.4,0.133,1.056,0.344,1.458,0.469l8.186,2.551   c0.336,0.104,0.694,0.127,0.936,0.127c0.383,0,0.754-0.056,1.045-0.155l5.337-1.829c0.381-0.131,1.021-0.331,1.4-0.438   l17.142-4.877c0.774-0.219,1.358-0.992,1.358-1.799v-9.693C208.059,159.314,207.46,158.696,206.665,158.696L206.665,158.696z"></path>	</g>	<g>		<g>			<g>				<g>					<path fill="#FFFFFF" d="M165.647,160.383l-0.022,0.131l-2.084,12.146l-96.952-38.938l2.29-12.204L165.647,160.383z"></path>					<path fill="#FFFFFF" d="M163.541,173.02c-0.045,0-0.091-0.009-0.134-0.025l-96.952-38.938c-0.159-0.064-0.251-0.231-0.22-0.4      l2.29-12.204c0.02-0.105,0.086-0.197,0.181-0.249c0.095-0.052,0.208-0.059,0.307-0.019l96.769,38.865      c0.157,0.063,0.249,0.228,0.221,0.395l-2.106,12.277c-0.019,0.107-0.084,0.2-0.179,0.253      C163.662,173.004,163.601,173.02,163.541,173.02z M66.997,133.498l96.265,38.663l1.982-11.553l-96.093-38.594L66.997,133.498z"></path>				</g>			</g>		</g>		<g>			<path fill="#0086FF" d="M68.977,121.671l7.76,3.117l2.498,1.002c4.608,1.851,6.278,3.856,5.714,6.858    c-0.353,1.889-0.704,2.561-1.581,2.981c-1.094,0.548-2.433,0.356-5.175-0.706l-0.748-0.279c-1.01-0.406-0.653-0.263-1.043-0.4    l-0.595-0.239l-3.182-1.277l-0.576,3.075l-5.322-2.138L68.977,121.671z M76.476,131.297c1.582,0.595,1.67,0.631,2.021,0.636    c0.542,0.006,0.799-0.335,0.98-1.307c0.247-1.313-0.176-1.964-1.691-2.573l-0.625-0.252l-3.36-1.35l-0.658,3.508L76.476,131.297z    "></path>			<path fill="#0086FF" d="M102.353,135.48c1.659,1.209,2.552,2.418,2.746,3.771c0.104,0.643,0.028,1.559-0.259,3.087    c-0.348,1.853-0.479,2.38-0.806,2.925c-1.194,2.111-3.698,1.998-9.94-0.51c-3.241-1.303-4.754-2.104-6.017-3.211    c-2.006-1.752-2.385-2.968-1.858-5.773c0.616-3.291,1.124-4.287,2.409-4.66c1.662-0.512,3.914-0.071,8.015,1.576    C99.972,134.022,101.145,134.59,102.353,135.48z M91.962,136.684c-0.119,0.455-0.182,0.797-0.182,0.797    c-0.553,2.949-0.349,3.225,3.427,4.74c3.122,1.254,3.612,1.025,4.175-1.977c0.332-1.762,0.345-2.184,0.066-2.738    c-0.349-0.702-1.005-1.121-3.175-1.992c-2.439-0.979-3.155-1.072-3.74-0.516c-0.199,0.211-0.369,0.606-0.498,1.29L91.962,136.684    z"></path>			<path fill="#0086FF" d="M111.75,148.789l8.324,3.344l-0.516,2.75l-13.646-5.479l2.249-11.995l5.322,2.137L111.75,148.789z"></path>			<path fill="#0086FF" d="M126.723,157.762l-5.322-2.138l2.25-11.995l5.322,2.138L126.723,157.762z"></path>			<path fill="#0086FF" d="M147.551,161.252l-0.067,0.361c-0.424,2.266-1.032,2.776-3.097,2.699    c-1.335-0.033-2.549-0.383-5.521-1.578c-3.479-1.396-4.128-1.678-5.08-2.234c-2.68-1.56-3.833-3.261-3.676-5.459    c0.016-0.594,0.07-0.881,0.275-2.152l0.095-0.678l0.126-0.664c0.353-1.889,1.054-2.729,2.536-2.965    c1.778-0.271,3.338,0.104,7.976,1.967c3.39,1.36,4.41,1.887,5.541,2.842c1.213,1.029,1.709,2.137,1.546,3.523    c-0.038,0.37-0.072,0.551-0.15,1.138l-5.263-2.113c0.021-0.108,0.005-0.192,0.015-0.246c0.19-1.181-0.305-1.61-3.04-2.71    c-1.933-0.776-2.749-0.853-3.198-0.336c-0.285,0.33-0.469,0.971-0.917,3.363c-0.352,1.871,0.196,2.533,2.961,3.645    c2.676,1.074,3.417,1.043,3.64-0.143c0.003-0.02,0.04-0.215,0.037-0.373L147.551,161.252z"></path>			<path fill="#0086FF" d="M155.573,161.611l8.443,3.392l-0.416,2.212l-8.443-3.39l-0.438,2.337l9.216,3.701l-0.495,2.645    l-14.538-5.84l2.249-11.994l14.358,5.767l-0.495,2.644l-9.038-3.63L155.573,161.611z"></path>		</g>	</g>	<g>		<g>			<path fill="#CCCCCC" d="M259.739,137.467c-2.906,0.789-5.6-0.322-6.683-3.088c-1.44-3.671,0.509-8.869,4.351-11.609    c0.464-0.331,0.934-0.611,1.403-0.841l32.883-16.234c0.928-0.473,1.883-0.495,2.6-0.06c0.717,0.434,1.119,1.277,1.094,2.296    l-0.2,8.136c-0.005,0.219-0.017,0.436-0.033,0.646c-0.463,6.159-5.234,12.228-10.864,13.819L259.739,137.467z"></path>			<path fill="#FFFFFF" d="M293.132,105.324c0.422,0,0.818,0.104,1.161,0.312c0.717,0.434,1.119,1.277,1.094,2.296l-0.2,8.136    c-0.005,0.219-0.017,0.436-0.033,0.646c-0.463,6.159-5.234,12.228-10.864,13.819l-24.55,6.935    c-0.611,0.166-1.214,0.248-1.794,0.248c-2.175,0-4.033-1.152-4.889-3.336c-1.44-3.671,0.509-8.869,4.351-11.609    c0.464-0.331,0.934-0.611,1.403-0.841l32.883-16.234C292.178,105.448,292.67,105.324,293.132,105.324 M293.132,103.97    L293.132,103.97c-0.678,0-1.389,0.179-2.054,0.519l-32.867,16.227c-0.536,0.263-1.072,0.583-1.59,0.952    c-4.385,3.127-6.504,8.928-4.825,13.207c1.028,2.626,3.328,4.195,6.149,4.195c0.704,0,1.427-0.1,2.148-0.296l24.563-6.938    c6.141-1.736,11.344-8.334,11.847-15.021c0.018-0.229,0.031-0.472,0.036-0.717l0.2-8.133c0.038-1.5-0.615-2.804-1.746-3.488    C294.448,104.146,293.804,103.97,293.132,103.97L293.132,103.97z"></path>		</g>		<g>			<g>				<path fill="#CCCCCC" d="M259.739,137.467c-2.906,0.789-5.6-0.322-6.683-3.088c-1.44-3.671,0.509-8.869,4.351-11.609     c0.464-0.331,0.934-0.611,1.403-0.841l32.883-16.234c0.928-0.473,1.883-0.495,2.6-0.06c0.717,0.434,1.119,1.277,1.094,2.296     l-0.2,8.136c-0.005,0.219-0.017,0.436-0.033,0.646c-0.463,6.159-5.234,12.228-10.864,13.819L259.739,137.467z"></path>				<path d="M257.945,138.178c-2.44,0-4.43-1.357-5.319-3.63c-1.511-3.851,0.514-9.303,4.513-12.155     c0.478-0.341,0.972-0.637,1.469-0.879l32.881-16.234c1.041-0.531,2.204-0.551,3.045-0.04c0.866,0.524,1.346,1.509,1.316,2.704     l-0.2,8.135c-0.005,0.227-0.018,0.452-0.035,0.671c-0.476,6.336-5.396,12.587-11.199,14.228l-24.55,6.935     C259.215,138.089,258.57,138.178,257.945,138.178z M293.132,105.787c-0.393,0-0.817,0.111-1.229,0.32l-32.888,16.237     c-0.452,0.222-0.903,0.491-1.34,0.803c-3.675,2.621-5.554,7.583-4.188,11.063c0.757,1.934,2.382,3.042,4.458,3.042     c0.544,0,1.106-0.078,1.673-0.231l24.545-6.934c5.455-1.542,10.079-7.432,10.528-13.409c0.017-0.203,0.027-0.411,0.032-0.621     l0.2-8.137c0.021-0.853-0.296-1.542-0.87-1.889C293.786,105.869,293.476,105.787,293.132,105.787z"></path>			</g>			<g>				<path fill="#F7931E" d="M284.779,109.072l6.914-3.377c0.928-0.473,1.883-0.495,2.6-0.06c0.717,0.434,1.119,1.277,1.094,2.296     l-0.2,8.136c-0.005,0.219-0.017,0.436-0.033,0.646c-0.463,6.159-5.234,12.228-10.864,13.819L284.779,109.072z"></path>				<path d="M283.812,131.148l0.511-22.368l7.167-3.501c1.037-0.529,2.202-0.55,3.043-0.039c0.866,0.524,1.346,1.509,1.316,2.704     l-0.2,8.135c-0.005,0.227-0.018,0.452-0.035,0.671c-0.476,6.336-5.396,12.587-11.199,14.228L283.812,131.148z M285.235,109.364     l-0.469,20.533c5.188-1.79,9.492-7.464,9.925-13.219c0.017-0.203,0.027-0.411,0.032-0.621l0.2-8.137     c0.021-0.853-0.296-1.542-0.87-1.889c-0.573-0.348-1.379-0.317-2.15,0.076L285.235,109.364z"></path>			</g>			<g>				<path fill="#FFFFFF" d="M272.467,116.901c3.896-2.778,8.238-2.012,9.697,1.709c1.46,3.721-0.516,8.99-4.411,11.77     c-3.896,2.776-8.236,2.012-9.697-1.71C266.598,124.949,268.572,119.68,272.467,116.901z"></path>				<path d="M277.206,116.157L277.206,116.157c1.907,0,3.4,1.018,4.097,2.792c1.312,3.344-0.522,8.134-4.087,10.678     c-1.375,0.979-2.828,1.498-4.201,1.498c-1.907,0-3.4-1.018-4.097-2.792c-1.311-3.345,0.522-8.135,4.086-10.678     C274.379,116.675,275.832,116.157,277.206,116.157 M277.206,115.231c-1.505,0-3.159,0.544-4.739,1.67     c-3.895,2.778-5.869,8.048-4.411,11.77c0.868,2.212,2.754,3.38,4.959,3.38c1.505,0,3.158-0.544,4.738-1.67     c3.896-2.78,5.871-8.049,4.411-11.77C281.297,116.398,279.411,115.231,277.206,115.231L277.206,115.231z"></path>			</g>			<g>				<path fill="#FFFFFF" d="M258.271,123.978c3.117-2.223,6.589-1.61,7.759,1.367c1.166,2.978-0.413,7.193-3.53,9.417     c-3.117,2.223-6.591,1.61-7.759-1.366C253.574,130.416,255.154,126.2,258.271,123.978z"></path>				<path d="M262.062,123.567L262.062,123.567c1.445,0,2.577,0.771,3.105,2.116c1.02,2.603-0.419,6.338-3.205,8.325     c-1.069,0.762-2.194,1.165-3.255,1.165c-1.445,0-2.577-0.771-3.104-2.115c-1.021-2.604,0.418-6.339,3.205-8.326     C259.877,123.97,261.002,123.567,262.062,123.567 M262.062,122.641c-1.204,0-2.526,0.435-3.791,1.337     c-3.117,2.222-4.697,6.438-3.53,9.417c0.694,1.77,2.202,2.703,3.967,2.703c1.204,0,2.527-0.436,3.792-1.337     c3.117-2.224,4.696-6.438,3.53-9.417C265.335,123.576,263.826,122.641,262.062,122.641L262.062,122.641z"></path>			</g>		</g>	</g>	<g>		<g>			<path d="M232.691,92.71c-2.158,0.441-3.407,1.282-3.681,2.285c-0.277,1.002,0.422,2.165,2.158,3.252l0.059,0.038    c8.447,5.227,23.685,7.737,34.099,5.609l4.484-0.915l0,0l0,0l0,0l0,0l22.212-4.537l0,0l0,0l0,0l0,0l4.481-0.913    c10.415-2.129,12.083-8.091,3.758-13.342l-0.057-0.038c-1.739-1.084-4.199-1.892-6.756-2.316    c-2.557-0.423-5.222-0.463-7.38-0.024L232.691,92.71z"></path>			<path fill="#FFFFFF" d="M289.47,81.497c1.298,0,2.653,0.117,3.979,0.336c2.557,0.424,5.017,1.232,6.756,2.316l0.057,0.038    c8.325,5.251,6.657,11.212-3.758,13.342l-4.481,0.913l-22.212,4.537l-4.484,0.915c-2.516,0.514-5.311,0.757-8.225,0.757    c-9.152,0-19.467-2.401-25.874-6.366l-0.059-0.038c-1.736-1.087-2.436-2.25-2.158-3.252c0.273-1.003,1.522-1.844,3.681-2.285    l53.378-10.901C287.108,81.597,288.265,81.497,289.47,81.497 M289.47,80.497c-1.307,0-2.519,0.112-3.6,0.332L232.491,91.73    c-3.175,0.649-4.17,1.99-4.445,3.001c-0.24,0.87-0.226,2.599,2.593,4.363l0.049,0.032c6.41,3.967,16.773,6.524,26.414,6.524    c3.065,0,5.899-0.262,8.425-0.777l4.484-0.915l22.212-4.537l4.48-0.913c5.733-1.172,9.204-3.538,9.774-6.66    c0.52-2.847-1.499-5.869-5.683-8.507l-0.032-0.022c-1.822-1.137-4.351-2.008-7.149-2.473    C292.212,80.614,290.817,80.497,289.47,80.497L289.47,80.497z"></path>		</g>		<path fill="#FFFFFF" d="M255.402,91.5L255.402,91.5c5.072,0,10.484,1.333,13.788,3.394c1.813,1.133,2.75,2.356,2.57,3.354   c-0.203,1.123-1.823,2.099-4.334,2.611c-1.295,0.265-2.757,0.398-4.345,0.398c-4.999,0-10.539-1.364-13.786-3.395   c-1.814-1.132-2.751-2.354-2.571-3.353c0.202-1.124,1.823-2.1,4.335-2.613C252.354,91.635,253.815,91.5,255.402,91.5    M255.402,90.762c-1.591,0-3.117,0.133-4.49,0.413c-5.712,1.166-6.611,4.443-2.008,7.316c3.492,2.183,9.154,3.507,14.178,3.507   c1.591,0,3.119-0.133,4.492-0.414c5.713-1.166,6.607-4.443,2.008-7.316C266.086,92.086,260.425,90.762,255.402,90.762   L255.402,90.762z"></path>		<path fill="#FFFFFF" d="M249.716,96.054c-0.004,0-0.009,0-0.014,0l-3.065-0.181c-0.127-0.007-0.225-0.117-0.217-0.244   c0.007-0.123,0.109-0.217,0.23-0.217c0.004,0,0.009,0,0.014,0l3.065,0.181c0.127,0.007,0.225,0.117,0.217,0.244   C249.939,95.959,249.837,96.054,249.716,96.054z"></path>		<path fill="#FFFFFF" d="M247.575,97.277c-0.122,0-0.224-0.095-0.23-0.218c-0.007-0.127,0.09-0.236,0.218-0.244l2.833-0.16   c0.124-0.02,0.236,0.091,0.243,0.217c0.007,0.127-0.09,0.236-0.218,0.244l-2.833,0.16   C247.584,97.277,247.579,97.277,247.575,97.277z"></path>		<path fill="#FFFFFF" d="M249.293,98.641c-0.107,0-0.204-0.075-0.227-0.185c-0.025-0.125,0.056-0.247,0.181-0.272l2.416-0.494   c0.129-0.027,0.247,0.055,0.272,0.18c0.025,0.125-0.056,0.247-0.181,0.272l-2.416,0.494   C249.323,98.639,249.308,98.641,249.293,98.641z"></path>		<path fill="#FFFFFF" d="M251.686,99.864c-0.089,0-0.174-0.052-0.212-0.139c-0.051-0.117,0.003-0.253,0.12-0.304l1.827-0.79   c0.119-0.049,0.253,0.003,0.304,0.12s-0.003,0.253-0.12,0.304l-1.827,0.79C251.747,99.858,251.716,99.864,251.686,99.864z"></path>		<path fill="#FFFFFF" d="M254.593,100.87c-0.062,0-0.124-0.025-0.17-0.074c-0.086-0.094-0.08-0.24,0.013-0.326l1.12-1.036   c0.097-0.087,0.24-0.08,0.327,0.013c0.086,0.094,0.08,0.24-0.013,0.326l-1.12,1.036   C254.705,100.849,254.648,100.87,254.593,100.87z"></path>		<path fill="#FFFFFF" d="M257.818,101.586c-0.021,0-0.041-0.003-0.062-0.008c-0.123-0.034-0.195-0.161-0.161-0.284l0.334-1.21   c0.034-0.123,0.161-0.194,0.284-0.161c0.123,0.034,0.195,0.161,0.161,0.284l-0.334,1.21   C258.013,101.519,257.92,101.586,257.818,101.586z"></path>		<path fill="#FFFFFF" d="M261.138,101.964c-0.094,0-0.183-0.058-0.217-0.151l-0.476-1.297c-0.044-0.12,0.018-0.252,0.138-0.296   c0.117-0.043,0.253,0.018,0.296,0.137l0.476,1.297c0.044,0.12-0.018,0.252-0.138,0.296   C261.191,101.959,261.164,101.964,261.138,101.964z"></path>		<path fill="#FFFFFF" d="M264.33,101.981c-0.061,0-0.121-0.024-0.166-0.071l-1.253-1.303c-0.089-0.092-0.086-0.238,0.006-0.327   c0.093-0.088,0.239-0.085,0.326,0.006l1.253,1.303c0.089,0.092,0.086,0.238-0.006,0.327   C264.445,101.959,264.388,101.981,264.33,101.981z"></path>		<path fill="#FFFFFF" d="M267.177,101.632c-0.042,0-0.084-0.011-0.122-0.035l-1.951-1.215c-0.108-0.067-0.142-0.209-0.074-0.318   c0.068-0.108,0.21-0.142,0.318-0.074l1.951,1.214c0.108,0.067,0.142,0.209,0.074,0.318   C267.329,101.593,267.254,101.632,267.177,101.632z"></path>		<path fill="#FFFFFF" d="M269.478,100.943c-0.03,0-0.06-0.006-0.089-0.018l-2.503-1.048c-0.118-0.049-0.174-0.185-0.124-0.302   c0.05-0.118,0.187-0.172,0.302-0.124l2.503,1.048c0.118,0.049,0.174,0.185,0.124,0.302   C269.653,100.89,269.567,100.943,269.478,100.943z"></path>		<path fill="#FFFFFF" d="M271.084,99.961c-0.021,0-0.041-0.003-0.062-0.009l-2.896-0.809c-0.122-0.034-0.194-0.162-0.16-0.284   s0.157-0.194,0.285-0.16l2.896,0.809c0.122,0.034,0.194,0.162,0.16,0.284C271.278,99.895,271.186,99.961,271.084,99.961z"></path>		<path fill="#FFFFFF" d="M271.88,98.753c-0.013,0-0.025-0.001-0.038-0.003l-3.086-0.512c-0.126-0.021-0.211-0.14-0.189-0.266   c0.021-0.126,0.141-0.21,0.266-0.19l3.086,0.512c0.126,0.021,0.211,0.14,0.189,0.266C272.089,98.673,271.991,98.753,271.88,98.753   z"></path>		<path fill="#FFFFFF" d="M271.811,97.401c-0.005,0-0.009,0-0.014,0l-3.065-0.183c-0.127-0.008-0.225-0.117-0.217-0.244   s0.122-0.226,0.244-0.217l3.065,0.183c0.127,0.008,0.225,0.117,0.217,0.244C272.034,97.306,271.932,97.401,271.811,97.401z"></path>		<path fill="#FFFFFF" d="M268.054,96.157c-0.122,0-0.224-0.095-0.23-0.218c-0.008-0.127,0.09-0.236,0.218-0.244l2.835-0.162   c0.131-0.016,0.236,0.09,0.243,0.217c0.008,0.127-0.09,0.236-0.218,0.244l-2.835,0.162   C268.062,96.157,268.058,96.157,268.054,96.157z"></path>		<path fill="#FFFFFF" d="M266.757,95.127c-0.107,0-0.204-0.075-0.227-0.185c-0.025-0.125,0.056-0.247,0.181-0.272l2.414-0.493   c0.132-0.027,0.247,0.055,0.272,0.18c0.025,0.125-0.056,0.247-0.181,0.272l-2.414,0.493   C266.787,95.125,266.771,95.127,266.757,95.127z"></path>		<path fill="#FFFFFF" d="M264.946,94.198c-0.09,0-0.175-0.052-0.212-0.14c-0.051-0.117,0.004-0.253,0.121-0.303l1.832-0.788   c0.117-0.053,0.253,0.004,0.303,0.121c0.051,0.117-0.004,0.253-0.121,0.303l-1.832,0.788   C265.008,94.192,264.977,94.198,264.946,94.198z"></path>		<path fill="#FFFFFF" d="M262.751,93.439c-0.062,0-0.124-0.025-0.169-0.074c-0.087-0.093-0.082-0.24,0.012-0.326l1.114-1.036   c0.094-0.087,0.238-0.083,0.326,0.012c0.087,0.093,0.082,0.24-0.012,0.326l-1.114,1.036   C262.863,93.419,262.808,93.439,262.751,93.439z"></path>		<path fill="#FFFFFF" d="M258.145,96.605c-0.495-0.308-0.4-0.661,0.215-0.786c0.616-0.127,1.516,0.021,2.012,0.332   c0.494,0.312,0.397,0.665-0.218,0.79C259.539,97.065,258.639,96.916,258.145,96.605z"></path>		<path fill="#FFFFFF" d="M267.303,97.941c-0.013,0-0.025-0.001-0.038-0.003l-8.047-1.332c-0.125-0.021-0.211-0.14-0.189-0.266   c0.021-0.126,0.143-0.209,0.266-0.19l8.047,1.332c0.125,0.021,0.211,0.14,0.189,0.266   C267.512,97.861,267.414,97.941,267.303,97.941z"></path>		<g>			<path fill="#FFFFFF" d="M251.47,94.475c-0.155-0.097-0.136-0.206,0.044-0.243l6.47-1.321c0.18-0.037,0.453,0.013,0.608,0.11    l1.074,0.671c0.155,0.097,0.136,0.206-0.044,0.243l-6.471,1.321c-0.18,0.037-0.453-0.013-0.608-0.11L251.47,94.475z"></path>		</g>		<g>			<g>				<path d="M257.393,93.504c-0.077-0.048-0.067-0.103,0.022-0.121l0.319-0.064c0.09-0.019,0.227,0.006,0.305,0.055l0.5,0.311     c0.078,0.048,0.068,0.103-0.021,0.121l-0.321,0.065c-0.09,0.018-0.227-0.006-0.304-0.055L257.393,93.504z"></path>			</g>			<g>				<path d="M256.435,93.701c-0.077-0.048-0.067-0.103,0.022-0.122l0.322-0.067c0.09-0.019,0.227,0.006,0.304,0.055l0.495,0.311     c0.077,0.048,0.067,0.104-0.022,0.122l-0.319,0.065c-0.09,0.019-0.227-0.006-0.304-0.054L256.435,93.701z"></path>			</g>			<g>				<path d="M255.478,93.896c-0.077-0.049-0.067-0.104,0.022-0.123l0.316-0.066c0.09-0.019,0.227,0.005,0.304,0.054l0.502,0.314     c0.077,0.049,0.067,0.104-0.022,0.122l-0.32,0.065c-0.09,0.018-0.227-0.006-0.304-0.055L255.478,93.896z"></path>			</g>			<g>				<path d="M254.514,94.092c-0.077-0.048-0.067-0.103,0.022-0.121l0.322-0.066c0.09-0.018,0.227,0.006,0.304,0.055l0.5,0.312     c0.077,0.048,0.067,0.103-0.022,0.121l-0.321,0.066c-0.09,0.018-0.227-0.006-0.305-0.055L254.514,94.092z"></path>			</g>			<g>				<path d="M253.558,94.288c-0.077-0.049-0.067-0.103,0.022-0.122l0.318-0.064c0.09-0.019,0.227,0.006,0.304,0.055l0.496,0.311     c0.077,0.049,0.067,0.104-0.022,0.122l-0.312,0.065c-0.09,0.019-0.227-0.006-0.304-0.055L253.558,94.288z"></path>			</g>			<g>				<path d="M252.598,94.484c-0.077-0.048-0.067-0.103,0.022-0.121l0.316-0.065c0.09-0.018,0.227,0.006,0.305,0.055l0.504,0.313     c0.078,0.048,0.068,0.103-0.021,0.121l-0.32,0.066c-0.09,0.018-0.227-0.006-0.304-0.055L252.598,94.484z"></path>			</g>		</g>		<path fill="#FF0000" d="M272.304,91.293c0.24,0.662,0.879,1.359,1.942,2.022c1.061,0.662,2.407,1.209,3.874,1.617l-1.487,1.334   c-2.092-0.584-4.002-1.368-5.512-2.312c-1.515-0.944-2.435-1.932-2.782-2.874L272.304,91.293z"></path>		<path fill="#FFFFFF" d="M277.621,86.224v0.739c5.072,0,10.483,1.332,13.785,3.394c1.814,1.134,2.752,2.356,2.572,3.354   c-0.202,1.123-1.823,2.099-4.336,2.613c-1.294,0.264-2.755,0.397-4.342,0.397c-5,0-10.541-1.364-13.789-3.395   c-1.814-1.132-2.752-2.354-2.572-3.352c0.202-1.123,1.823-2.1,4.335-2.613c1.296-0.265,2.758-0.399,4.347-0.399V86.224    M277.621,86.224c-1.592,0-3.12,0.133-4.494,0.414c-5.71,1.166-6.613,4.442-2.006,7.316c3.492,2.184,9.155,3.507,14.18,3.507   c1.59,0,3.116-0.133,4.489-0.413c5.714-1.168,6.611-4.442,2.008-7.318C288.302,87.548,282.644,86.224,277.621,86.224   L277.621,86.224z"></path>		<path fill="#FFFFFF" d="M271.932,91.517c-0.004,0-0.009,0-0.014,0l-3.062-0.179c-0.127-0.007-0.225-0.117-0.217-0.244   c0.007-0.123,0.109-0.217,0.23-0.217c0.004,0,0.009,0,0.014,0l3.062,0.179c0.127,0.007,0.225,0.117,0.217,0.244   C272.155,91.422,272.053,91.517,271.932,91.517z"></path>		<path fill="#FFFFFF" d="M269.791,92.743c-0.122,0-0.224-0.095-0.23-0.218c-0.008-0.127,0.09-0.236,0.217-0.244l2.837-0.163   c0.156-0.019,0.237,0.09,0.244,0.217c0.008,0.127-0.09,0.236-0.217,0.244l-2.837,0.163   C269.8,92.743,269.795,92.743,269.791,92.743z"></path>		<path fill="#FFFFFF" d="M271.504,94.103c-0.107,0-0.204-0.075-0.227-0.185c-0.025-0.125,0.056-0.247,0.181-0.272l2.417-0.493   c0.13-0.028,0.247,0.056,0.272,0.18c0.025,0.125-0.056,0.247-0.181,0.272l-2.417,0.493   C271.534,94.102,271.519,94.103,271.504,94.103z"></path>		<path fill="#FFFFFF" d="M273.901,95.326c-0.089,0-0.174-0.052-0.212-0.139c-0.051-0.117,0.003-0.253,0.12-0.304l1.826-0.789   c0.118-0.051,0.253,0.004,0.304,0.12c0.051,0.117-0.003,0.253-0.12,0.304l-1.826,0.789   C273.963,95.32,273.932,95.326,273.901,95.326z"></path>		<path fill="#FFFFFF" d="M276.811,96.333c-0.062,0-0.124-0.025-0.169-0.074c-0.087-0.093-0.082-0.239,0.012-0.326l1.114-1.036   c0.094-0.087,0.239-0.082,0.326,0.012c0.087,0.093,0.082,0.239-0.012,0.326l-1.114,1.036   C276.923,96.313,276.867,96.333,276.811,96.333z"></path>		<path fill="#FFFFFF" d="M280.036,97.051c-0.02,0-0.04-0.002-0.06-0.008c-0.124-0.033-0.196-0.16-0.163-0.283l0.326-1.211   c0.033-0.123,0.163-0.194,0.282-0.163c0.124,0.033,0.196,0.16,0.163,0.283l-0.326,1.211   C280.231,96.983,280.138,97.051,280.036,97.051z"></path>		<path fill="#FFFFFF" d="M283.354,97.426c-0.095,0-0.183-0.058-0.217-0.152l-0.472-1.296c-0.044-0.12,0.018-0.252,0.138-0.296   c0.12-0.047,0.252,0.018,0.296,0.138l0.472,1.296c0.044,0.12-0.018,0.252-0.138,0.296   C283.407,97.421,283.381,97.426,283.354,97.426z"></path>		<path fill="#FFFFFF" d="M286.549,97.444c-0.061,0-0.121-0.024-0.166-0.071l-1.254-1.301c-0.089-0.092-0.086-0.238,0.006-0.326   c0.093-0.089,0.238-0.085,0.326,0.006l1.254,1.301c0.089,0.092,0.086,0.238-0.006,0.326   C286.664,97.422,286.606,97.444,286.549,97.444z"></path>		<path fill="#FFFFFF" d="M289.387,97.095c-0.042,0-0.084-0.011-0.123-0.035l-1.937-1.213c-0.107-0.068-0.141-0.21-0.072-0.318   c0.066-0.108,0.208-0.141,0.318-0.073l1.937,1.213c0.107,0.068,0.141,0.21,0.072,0.318   C289.539,97.056,289.464,97.095,289.387,97.095z"></path>		<path fill="#FFFFFF" d="M291.691,96.406c-0.029,0-0.06-0.006-0.089-0.018l-2.502-1.046c-0.118-0.049-0.174-0.184-0.124-0.302   c0.049-0.118,0.182-0.173,0.302-0.124l2.502,1.046c0.118,0.049,0.174,0.184,0.124,0.302   C291.867,96.353,291.781,96.406,291.691,96.406z"></path>		<path fill="#FFFFFF" d="M293.297,95.424c-0.021,0-0.041-0.003-0.062-0.008l-2.892-0.805c-0.123-0.034-0.195-0.162-0.161-0.285   c0.034-0.123,0.163-0.191,0.284-0.161l2.892,0.805c0.123,0.034,0.195,0.162,0.161,0.285   C293.491,95.357,293.398,95.424,293.297,95.424z"></path>		<path fill="#FFFFFF" d="M294.093,94.217c-0.013,0-0.025-0.001-0.038-0.003l-3.078-0.512c-0.126-0.021-0.211-0.14-0.189-0.266   c0.021-0.125,0.144-0.215,0.266-0.189l3.078,0.512c0.126,0.021,0.211,0.14,0.189,0.266   C294.302,94.137,294.204,94.217,294.093,94.217z"></path>		<path fill="#FFFFFF" d="M294.028,92.862c-0.004,0-0.009,0-0.014,0l-3.063-0.179c-0.127-0.007-0.225-0.117-0.217-0.244   c0.007-0.126,0.094-0.235,0.244-0.217l3.063,0.179c0.127,0.007,0.225,0.117,0.217,0.244   C294.252,92.767,294.15,92.862,294.028,92.862z"></path>		<path fill="#FFFFFF" d="M290.27,91.619c-0.122,0-0.224-0.095-0.23-0.218c-0.007-0.127,0.09-0.236,0.218-0.244l2.836-0.161   c0.133-0.015,0.236,0.091,0.243,0.217c0.007,0.127-0.09,0.236-0.218,0.244l-2.836,0.161   C290.278,91.619,290.273,91.619,290.27,91.619z"></path>		<path fill="#FFFFFF" d="M288.972,90.589c-0.107,0-0.204-0.075-0.227-0.185c-0.025-0.125,0.056-0.247,0.181-0.272l2.413-0.492   c0.13-0.026,0.247,0.055,0.272,0.18c0.025,0.125-0.056,0.247-0.181,0.272l-2.413,0.492   C289.002,90.587,288.986,90.589,288.972,90.589z"></path>		<path fill="#FFFFFF" d="M287.163,89.664c-0.089,0-0.174-0.052-0.212-0.139c-0.051-0.117,0.003-0.253,0.12-0.304l1.829-0.791   c0.118-0.053,0.252,0.003,0.304,0.12c0.051,0.117-0.003,0.253-0.12,0.304l-1.829,0.791   C287.225,89.658,287.193,89.664,287.163,89.664z"></path>		<path fill="#FFFFFF" d="M284.966,88.905c-0.062,0-0.124-0.025-0.169-0.074c-0.087-0.094-0.082-0.24,0.012-0.327l1.116-1.036   c0.094-0.086,0.239-0.083,0.326,0.012c0.087,0.094,0.082,0.24-0.012,0.327l-1.116,1.036   C285.078,88.884,285.022,88.905,284.966,88.905z"></path>		<path fill="#FFFFFF" d="M281.605,91.279c0.784,0.128,1.354,0.484,1.265,0.793c-0.081,0.307-0.788,0.449-1.574,0.322   c-0.781-0.131-1.352-0.485-1.268-0.794C280.11,91.292,280.816,91.149,281.605,91.279z"></path>		<path fill="#FFFFFF" d="M275.15,93.353c-0.107,0-0.204-0.075-0.227-0.185c-0.025-0.125,0.056-0.247,0.181-0.272l6.297-1.286   c0.131-0.026,0.247,0.055,0.272,0.18c0.025,0.125-0.056,0.247-0.181,0.272l-6.297,1.286   C275.181,93.351,275.165,93.353,275.15,93.353z"></path>		<path fill="#FFFFFF" d="M295.701,88.078c-0.042,0-0.084-0.011-0.122-0.035l-0.802-0.501c-0.108-0.067-0.142-0.21-0.074-0.318   c0.068-0.108,0.21-0.142,0.318-0.073l0.802,0.501c0.108,0.067,0.142,0.21,0.074,0.318   C295.854,88.04,295.778,88.078,295.701,88.078z"></path>		<path fill="#FFFFFF" d="M297.326,87.396c-0.021,0-0.041-0.003-0.062-0.009l-1.194-0.334c-0.122-0.034-0.194-0.162-0.16-0.284   c0.034-0.123,0.157-0.194,0.285-0.16l1.194,0.334c0.122,0.034,0.194,0.162,0.16,0.284   C297.521,87.329,297.428,87.396,297.326,87.396z"></path>		<path fill="#FFFFFF" d="M297.642,86.339c-0.005,0-0.009,0-0.014,0l-1.265-0.075c-0.127-0.007-0.225-0.117-0.217-0.244   c0.007-0.127,0.116-0.232,0.244-0.217l1.265,0.075c0.127,0.007,0.225,0.117,0.217,0.244   C297.865,86.245,297.763,86.339,297.642,86.339z"></path>		<path fill="#FFFFFF" d="M290.499,87.753c-0.062,0-0.124-0.025-0.169-0.074c-0.087-0.094-0.082-0.24,0.012-0.327l0.463-0.429   c0.093-0.086,0.239-0.082,0.326,0.012s0.082,0.24-0.012,0.327l-0.463,0.429C290.611,87.733,290.556,87.753,290.499,87.753z"></path>		<path fill="#FFFFFF" d="M293.206,88.212c-0.094,0-0.182-0.058-0.217-0.15l-0.2-0.538c-0.044-0.12,0.017-0.252,0.137-0.297   c0.121-0.043,0.252,0.018,0.297,0.136l0.2,0.538c0.044,0.12-0.017,0.252-0.137,0.297C293.26,88.207,293.232,88.212,293.206,88.212   z"></path>		<path fill="#FFFFFF" d="M291.782,85.596c0.148-0.127,0.549-0.146,0.901-0.047c0.356,0.105,0.525,0.288,0.379,0.414   c-0.143,0.125-0.545,0.144-0.899,0.043C291.809,85.904,291.641,85.721,291.782,85.596z"></path>		<path fill="#FFFFFF" d="M293.336,87.04c-0.063,0-0.127-0.026-0.173-0.078l-0.91-1.029c-0.085-0.095-0.075-0.241,0.02-0.326   c0.095-0.085,0.241-0.077,0.326,0.02l0.91,1.029c0.085,0.095,0.075,0.241-0.02,0.326C293.445,87.021,293.391,87.04,293.336,87.04z   "></path>		<path fill="#FFFFFF" d="M290.566,83.795L290.566,83.795c2.351,0,4.948,0.637,6.465,1.585c0.856,0.535,1.111,0.996,1.069,1.229   c-0.041,0.228-0.466,0.686-1.8,0.957c-0.602,0.124-1.284,0.186-2.028,0.186c-2.348,0-4.946-0.636-6.465-1.584   c-0.856-0.534-1.11-0.996-1.068-1.229c0.041-0.229,0.467-0.687,1.801-0.959C289.141,83.858,289.823,83.795,290.566,83.795    M290.565,83.057c-0.77,0-1.509,0.064-2.174,0.2c-2.764,0.564-3.201,2.149-0.976,3.539c1.693,1.056,4.429,1.696,6.856,1.696   c0.771,0,1.512-0.065,2.177-0.201c2.764-0.562,3.2-2.148,0.973-3.537C295.732,83.697,292.995,83.057,290.565,83.057   L290.565,83.057z"></path>		<path fill="#FFFFFF" d="M242.381,98.969c-0.042,0-0.084-0.011-0.122-0.035l-0.806-0.502c-0.108-0.067-0.142-0.209-0.074-0.318   s0.211-0.142,0.318-0.074l0.806,0.502c0.108,0.067,0.142,0.209,0.074,0.318C242.533,98.931,242.458,98.969,242.381,98.969z"></path>		<path fill="#FFFFFF" d="M239.904,99.123c-0.094,0-0.182-0.058-0.217-0.15l-0.199-0.536c-0.044-0.12,0.017-0.252,0.137-0.297   c0.121-0.044,0.252,0.017,0.297,0.136l0.199,0.536c0.044,0.12-0.017,0.252-0.137,0.297   C239.958,99.118,239.931,99.123,239.904,99.123z"></path>		<path fill="#FFFFFF" d="M237.197,98.685c-0.062,0-0.123-0.025-0.169-0.073c-0.087-0.093-0.082-0.24,0.012-0.327l0.459-0.428   c0.092-0.087,0.238-0.082,0.326,0.011c0.087,0.093,0.082,0.24-0.012,0.327l-0.459,0.428   C237.311,98.665,237.254,98.685,237.197,98.685z"></path>		<path fill="#FFFFFF" d="M244.229,97.202c-0.005,0-0.009,0-0.014,0l-1.264-0.075c-0.127-0.007-0.225-0.117-0.217-0.244   c0.007-0.127,0.114-0.223,0.244-0.217l1.264,0.075c0.127,0.007,0.225,0.117,0.217,0.244   C244.452,97.107,244.35,97.202,244.229,97.202z"></path>		<path fill="#FFFFFF" d="M243.966,98.267c-0.021,0-0.041-0.003-0.062-0.009l-1.192-0.333c-0.122-0.034-0.194-0.162-0.16-0.284   c0.035-0.123,0.156-0.196,0.285-0.16l1.192,0.333c0.122,0.034,0.194,0.162,0.16,0.284C244.16,98.2,244.067,98.267,243.966,98.267z   "></path>		<path fill="#FFFFFF" d="M238.93,96.39c-0.379-0.02-0.629,0.095-0.564,0.254c0.069,0.162,0.431,0.307,0.802,0.326   c0.376,0.019,0.63-0.096,0.562-0.256C239.666,96.554,239.309,96.408,238.93,96.39z"></path>		<path fill="#FFFFFF" d="M241.069,97.714c-0.028,0-0.058-0.005-0.085-0.016l-2.021-0.803c-0.119-0.047-0.177-0.182-0.13-0.3   c0.048-0.118,0.184-0.175,0.3-0.129l2.021,0.803c0.119,0.047,0.177,0.182,0.13,0.3C241.248,97.659,241.161,97.714,241.069,97.714z   "></path>		<path fill="#FFFFFF" d="M237.187,94.697c2.349,0,4.947,0.637,6.465,1.585c0.856,0.534,1.111,0.996,1.069,1.229   c-0.041,0.228-0.465,0.687-1.796,0.958c-0.602,0.123-1.283,0.185-2.026,0.185c-2.354,0-4.952-0.636-6.466-1.582   c-0.857-0.537-1.112-1-1.07-1.233c0.041-0.228,0.466-0.686,1.797-0.957C235.762,94.76,236.443,94.697,237.187,94.697    M237.187,93.958c-0.771,0-1.51,0.064-2.175,0.2c-2.763,0.563-3.196,2.147-0.972,3.541c1.689,1.055,4.429,1.694,6.858,1.694   c0.771,0,1.509-0.064,2.174-0.2c2.759-0.564,3.198-2.148,0.971-3.539C242.351,94.599,239.615,93.958,237.187,93.958   L237.187,93.958z"></path>		<g>			<g>				<g>					<path fill="#FFFFFF" d="M289.835,84.436c-0.018-0.005-0.035-0.013-0.049-0.02l-0.091-0.059      c-0.017-0.007-0.021-0.016-0.017-0.023c-0.003-0.008,0.008-0.015,0.024-0.017l1.157-0.235c0.015-0.004,0.033-0.003,0.051-0.002      c0.023,0.004,0.038,0.011,0.052,0.018l0.094,0.06c0.013,0.008,0.018,0.013,0.014,0.022c0,0.01-0.007,0.015-0.026,0.016      l-1.156,0.237C289.876,84.437,289.854,84.437,289.835,84.436z M290.114,85.098l-0.652-0.404      c-0.061-0.04-0.083-0.078-0.067-0.113c0.015-0.039,0.062-0.065,0.144-0.077c0.074-0.009,0.155-0.005,0.245,0.013      c0.084,0.018,0.155,0.044,0.211,0.08l0.085,0.051c0.032,0.021,0.074,0.036,0.122,0.042c0.053,0.007,0.097,0.007,0.135,0      l0.031-0.006l-0.324-0.204l1.038-0.212l1.022,0.64c0.051,0.033,0.072,0.064,0.062,0.097c-0.01,0.032-0.045,0.056-0.105,0.067      l-0.581,0.118c-0.062,0.013-0.133,0.012-0.216,0c-0.083-0.015-0.151-0.038-0.205-0.069l-0.555-0.348l-0.027,0.006      c-0.089,0.018-0.188,0.016-0.298-0.002c-0.114-0.018-0.207-0.05-0.272-0.093l-0.098-0.057      c-0.017-0.014-0.043-0.023-0.071-0.028c-0.033-0.004-0.061-0.005-0.084,0.001c-0.025,0.005-0.036,0.012-0.039,0.026      c-0.002,0.012,0.002,0.021,0.022,0.034l0.469,0.292c0.055-0.005,0.11-0.002,0.177,0.009c0.064,0.013,0.113,0.031,0.155,0.056      l0.181,0.113l0.246,0.042c0.021,0.002,0.034,0.007,0.051,0.017c0.013,0.009,0.02,0.016,0.013,0.021l-0.004,0.033      c-0.001,0.008-0.015,0.011-0.03,0.014c-0.016,0.003-0.034,0.004-0.05,0.002l-0.53-0.089      C290.229,85.155,290.163,85.131,290.114,85.098L290.114,85.098z M291.293,85.072l0.581-0.119l-0.373-0.232l-0.577,0.119      L291.293,85.072z"></path>				</g>			</g>		</g>		<g>			<g>				<g>					<path fill="#FFFFFF" d="M238.138,95.167c0.019,0.004,0.033,0.01,0.048,0.021l0.092,0.057c0.015,0.008,0.023,0.018,0.019,0.022      c-0.002,0.011-0.012,0.012-0.029,0.019l-0.055,0.011c-0.047,0.009-0.078,0.021-0.104,0.033      c-0.03,0.012-0.043,0.027-0.049,0.041c-0.009,0.024-0.03,0.04-0.073,0.05l-0.057,0.012c-0.04,0.007-0.094,0.006-0.155-0.002      c-0.059-0.009-0.127-0.009-0.198,0c-0.088-0.044-0.188-0.075-0.297-0.094l0.052-0.015c0.065-0.013,0.14-0.022,0.218-0.023      c0.077-0.001,0.152,0.002,0.224,0.011c0.011-0.026,0.044-0.051,0.084-0.076c0.046-0.021,0.102-0.04,0.168-0.054l0.057-0.013      C238.098,95.164,238.114,95.164,238.138,95.167z M235.651,95.5c-0.026-0.002-0.042-0.008-0.055-0.018l-0.091-0.058      c-0.018-0.009-0.022-0.017-0.019-0.024c0-0.007,0.012-0.014,0.027-0.019l0.06-0.01c0.067-0.015,0.141-0.022,0.219-0.023      c0.071-0.003,0.146,0.001,0.221,0.01c0.017-0.026,0.043-0.053,0.089-0.074c0.04-0.023,0.098-0.042,0.165-0.054      c0.065-0.016,0.136-0.023,0.215-0.023c0.079-0.003,0.151,0,0.223,0.012c0.017-0.029,0.045-0.054,0.089-0.075      c0.042-0.024,0.098-0.042,0.165-0.056c0.066-0.014,0.139-0.021,0.217-0.023c0.075-0.002,0.155,0.002,0.224,0.009      c0.011-0.025,0.043-0.048,0.088-0.072c0.041-0.023,0.1-0.041,0.169-0.054l0.055-0.012c0.019-0.003,0.032-0.004,0.055,0      c0.018,0.003,0.035,0.009,0.047,0.019l0.096,0.058c0.015,0.009,0.02,0.017,0.019,0.024c-0.003,0.007-0.012,0.013-0.03,0.018      l-0.057,0.009c-0.048,0.01-0.081,0.021-0.105,0.035c-0.025,0.013-0.041,0.026-0.048,0.04c-0.009,0.023-0.028,0.04-0.07,0.046      l-0.059,0.014c-0.042,0.006-0.094,0.008-0.16-0.002c-0.029-0.005-0.074-0.008-0.118-0.005c-0.044,0-0.09,0.005-0.132,0.014      c-0.046,0.009-0.081,0.021-0.104,0.034c-0.031,0.015-0.043,0.027-0.052,0.041c-0.005,0.025-0.03,0.041-0.073,0.048l-0.055,0.01      c-0.042,0.01-0.095,0.01-0.161,0.001c-0.028-0.005-0.066-0.009-0.117-0.006c-0.044,0-0.09,0.005-0.136,0.015      c-0.04,0.008-0.075,0.018-0.102,0.032c-0.026,0.015-0.039,0.028-0.043,0.041c-0.014,0.024-0.036,0.041-0.077,0.049      l-0.059,0.011c-0.039,0.01-0.094,0.008-0.158,0c-0.033-0.007-0.072-0.009-0.118-0.009c-0.044,0.002-0.092,0.007-0.136,0.015      l-0.054,0.013C235.687,95.503,235.67,95.504,235.651,95.5z M237.257,95.393c0.104,0.017,0.182,0.044,0.254,0.087      c0.042,0.027,0.07,0.058,0.076,0.088c0.01,0.031-0.007,0.056-0.041,0.078l0.624,0.389c0.016,0.009,0.017,0.018,0.019,0.025      c-0.002,0.008-0.014,0.013-0.029,0.018l-0.344,0.071c-0.022,0.003-0.04,0.003-0.059,0c-0.018-0.004-0.034-0.009-0.047-0.019      l-0.046-0.027c-0.016-0.008-0.021-0.018-0.018-0.025c0-0.007,0.009-0.011,0.024-0.014l0.171-0.036l-0.088-0.061l-0.172,0.036      c-0.019,0.001-0.037,0.003-0.055,0.001c-0.021-0.005-0.04-0.01-0.051-0.02l-0.046-0.027c-0.015-0.01-0.019-0.017-0.016-0.026      c-0.001-0.006,0.005-0.013,0.023-0.018l0.177-0.033l-0.093-0.06l-0.175,0.037c-0.018,0.002-0.032,0.003-0.054-0.001      c-0.018-0.002-0.037-0.007-0.049-0.017l-0.048-0.03c-0.015-0.008-0.02-0.016-0.016-0.022c0-0.007,0.01-0.014,0.025-0.016      l0.173-0.035l-0.067-0.043c-0.066-0.001-0.139-0.009-0.209-0.026c-0.068-0.017-0.127-0.042-0.172-0.071      c-0.067-0.041-0.093-0.08-0.083-0.12c0.013-0.039,0.058-0.069,0.136-0.084C237.064,95.375,237.156,95.375,237.257,95.393z       M236.021,95.731c-0.02-0.001-0.039-0.009-0.053-0.018l-0.092-0.056c-0.013-0.009-0.021-0.018-0.018-0.025      c0.004-0.006,0.011-0.012,0.028-0.015l0.058-0.013c0.071-0.015,0.144-0.023,0.217-0.023c0.08-0.002,0.149,0.002,0.226,0.009      c0.011-0.025,0.04-0.051,0.082-0.073c0.042-0.022,0.103-0.041,0.167-0.054l0.062-0.01c-0.007,0.043,0.02,0.089,0.077,0.138      c-0.058,0.019-0.093,0.039-0.103,0.063c-0.008,0.025-0.031,0.039-0.073,0.047l-0.058,0.012      c-0.038,0.009-0.093,0.007-0.158-0.002c-0.033-0.004-0.073-0.006-0.117-0.006c-0.044,0-0.092,0.008-0.138,0.016l-0.053,0.013      C236.059,95.735,236.04,95.736,236.021,95.731z"></path>				</g>			</g>		</g>	</g>	<g>		<g>			<path d="M231.027,144.193c3.402-0.705,6.612-3.378,7.971-6.994c1.806-4.805-0.339-9.456-4.789-10.387    c-0.536-0.112-1.082-0.165-1.63-0.164l-38.292-0.055c-1.079-0.016-2.205,0.475-3.062,1.338c-0.857,0.863-1.355,2.006-1.355,3.109    l-0.004,8.816c0,0.236,0.006,0.471,0.019,0.692c0.365,6.505,5.812,10.587,12.403,9.292L231.027,144.193z"></path>			<path fill="#FFFFFF" d="M194.235,126.593c0.018,0,0.034,0,0.052,0l38.292,0.055c0.005,0,0.01,0,0.015,0    c0.543,0,1.084,0.052,1.615,0.164c4.45,0.932,6.595,5.583,4.789,10.387c-1.358,3.616-4.568,6.289-7.971,6.994l-28.74,5.648    c-0.822,0.161-1.626,0.239-2.404,0.239c-5.466,0-9.68-3.838-9.999-9.531c-0.013-0.222-0.019-0.456-0.019-0.692l0.004-8.816    c0-1.104,0.498-2.246,1.355-3.109C192.068,127.083,193.172,126.593,194.235,126.593 M194.235,125.063L194.235,125.063    c-1.473,0-2.966,0.652-4.097,1.79c-1.144,1.152-1.8,2.679-1.8,4.188l-0.004,8.815c0,0.268,0.007,0.531,0.021,0.781    c0.357,6.357,5.205,10.974,11.527,10.974c0.886,0,1.794-0.09,2.699-0.268l28.74-5.648c4.037-0.837,7.606-3.959,9.108-7.958    c1.093-2.907,0.961-5.953-0.36-8.358c-1.163-2.116-3.133-3.56-5.548-4.065c-0.621-0.13-1.27-0.196-1.929-0.196l-38.305-0.055    H194.235L194.235,125.063L194.235,125.063z"></path>		</g>		<g>			<g>				<path fill="#CCCCCC" d="M231.027,144.193c3.402-0.705,6.612-3.378,7.971-6.994c1.806-4.805-0.339-9.456-4.789-10.387     c-0.536-0.112-1.082-0.165-1.63-0.164l-38.292-0.055c-1.079-0.016-2.205,0.475-3.062,1.338     c-0.857,0.863-1.355,2.006-1.355,3.109l-0.004,8.816c0,0.236,0.006,0.471,0.019,0.692c0.365,6.505,5.812,10.587,12.403,9.292     L231.027,144.193z"></path>				<path d="M199.883,150.604L199.883,150.604c-5.863,0-10.189-4.123-10.521-10.025c-0.013-0.23-0.02-0.476-0.02-0.722l0.004-8.816     c0-1.246,0.55-2.514,1.508-3.478c0.942-0.949,2.176-1.493,3.382-1.493l38.345,0.055c0.604,0,1.183,0.059,1.736,0.174     c2.122,0.444,3.853,1.71,4.871,3.564c1.18,2.146,1.289,4.888,0.3,7.519c-1.383,3.684-4.662,6.558-8.354,7.323l-28.746,5.649     C201.547,150.521,200.704,150.604,199.883,150.604z M194.285,127.117c-0.98,0-1.942,0.432-2.689,1.184     c-0.765,0.77-1.203,1.769-1.203,2.74l-0.004,8.816c0,0.227,0.005,0.45,0.018,0.662c0.299,5.322,4.195,9.038,9.477,9.038l0,0     c0.753,0,1.528-0.077,2.304-0.229l28.74-5.648c3.343-0.692,6.321-3.309,7.582-6.664c0.881-2.346,0.794-4.769-0.238-6.647     c-0.869-1.582-2.35-2.664-4.169-3.044c-0.482-0.102-0.99-0.153-1.508-0.153L194.285,127.117L194.285,127.117z"></path>			</g>			<g>				<path fill="#F7931E" d="M202.34,126.566l-8.053,0.028c-1.079-0.016-2.205,0.475-3.062,1.338     c-0.857,0.863-1.355,2.006-1.355,3.109l-0.004,8.816c0,0.236,0.006,0.471,0.019,0.692c0.365,6.505,5.812,10.587,12.403,9.292     L202.34,126.566z"></path>				<path d="M199.883,150.604L199.883,150.604c-5.863,0-10.189-4.123-10.521-10.025c-0.013-0.23-0.02-0.476-0.02-0.722l0.004-8.816     c0-1.246,0.55-2.514,1.508-3.478c0.942-0.949,2.176-1.493,3.382-1.493l8.629-0.029l-0.055,24.231l-0.422,0.083     C201.547,150.521,200.704,150.604,199.883,150.604z M194.288,127.117c-0.983,0-1.945,0.432-2.692,1.184     c-0.765,0.77-1.203,1.769-1.203,2.74l-0.004,8.816c0,0.227,0.005,0.45,0.018,0.662c0.299,5.322,4.195,9.038,9.477,9.038l0,0     c0.617,0,1.248-0.052,1.882-0.153l0.051-22.313L194.288,127.117C194.288,127.117,194.288,127.117,194.288,127.117z"></path>			</g>			<g>				<path fill="#FFFFFF" d="M216.626,128.508c-4.512-0.945-9.652,2.238-11.483,7.109c-1.829,4.871,0.344,9.584,4.855,10.529     c4.511,0.943,9.651-2.24,11.481-7.111C223.311,134.166,221.137,129.45,216.626,128.508z"></path>				<path d="M215,129.388c0.48,0,0.955,0.049,1.412,0.145c1.693,0.354,3.07,1.357,3.878,2.826c0.975,1.773,1.051,4.072,0.21,6.309     c-1.437,3.823-5.171,6.599-8.879,6.599c-0.479,0-0.954-0.048-1.408-0.144c-1.694-0.354-3.072-1.359-3.88-2.829     c-0.974-1.771-1.051-4.071-0.211-6.308C207.559,132.162,211.293,129.388,215,129.388 M215,128.342     c-4.059,0-8.243,2.982-9.857,7.275c-1.829,4.871,0.344,9.584,4.855,10.529c0.534,0.111,1.077,0.166,1.623,0.166     c4.059,0,8.245-2.983,9.858-7.277c1.831-4.869-0.343-9.585-4.854-10.527C216.091,128.396,215.547,128.342,215,128.342     L215,128.342z"></path>			</g>			<g>				<path fill="#FFFFFF" d="M233.155,128.604c-3.609-0.757-7.723,1.792-9.187,5.688c-1.464,3.897,0.274,7.668,3.884,8.424     c3.609,0.755,7.723-1.791,9.188-5.688C238.504,133.131,236.765,129.359,233.155,128.604z"></path>				<path d="M231.854,129.518c0.37,0,0.735,0.037,1.087,0.111c1.294,0.271,2.347,1.037,2.963,2.158     c0.75,1.364,0.807,3.141,0.156,4.873c-1.12,2.98-4.025,5.143-6.909,5.143c-0.369,0-0.734-0.037-1.084-0.11     c-1.295-0.271-2.347-1.037-2.963-2.158c-0.75-1.364-0.807-3.141-0.156-4.873C226.067,131.681,228.973,129.518,231.854,129.518      M231.854,128.472c-3.247,0-6.596,2.387-7.886,5.821c-1.464,3.897,0.274,7.668,3.884,8.424c0.428,0.09,0.862,0.133,1.299,0.133     c3.248,0,6.598-2.386,7.889-5.821c1.464-3.897-0.275-7.669-3.885-8.424C232.728,128.515,232.292,128.472,231.854,128.472     L231.854,128.472z"></path>			</g>		</g>	</g>	<g>		<g>			<g>				<path fill="#FF0000" d="M284.538,141.155c-0.395,0.136-0.717,0.587-0.717,1.004v9.694c0,0.417,0.322,0.647,0.717,0.512     l17.054-5.843c0.395-0.136,0.717-0.587,0.717-1.004v-9.694c0-0.417-0.322-0.647-0.717-0.512L284.538,141.155z"></path>			</g>			<path fill="#FFFFFF" d="M301.812,135.273c0.287,0,0.496,0.215,0.496,0.551v9.694c0,0.417-0.322,0.868-0.717,1.004l-17.054,5.843    c-0.077,0.026-0.15,0.039-0.221,0.039c-0.287,0-0.496-0.215-0.496-0.551v-9.694c0-0.417,0.322-0.868,0.717-1.004l17.054-5.843    C301.669,135.286,301.742,135.273,301.812,135.273 M301.812,134.406c-0.168,0-0.337,0.028-0.503,0.086l-17.053,5.843    c-0.743,0.255-1.303,1.04-1.303,1.824v9.694c0,0.809,0.586,1.418,1.363,1.418c0.168,0,0.337-0.028,0.503-0.086l17.053-5.843    c0.743-0.255,1.303-1.04,1.303-1.824v-9.694C303.176,135.016,302.59,134.406,301.812,134.406L301.812,134.406z"></path>		</g>	</g>	<g>		<g>			<g>				<path fill="#FF0000" d="M61.938,119.54c0-0.458-0.351-0.964-0.78-1.125l-8.359-3.124c-0.429-0.16-0.78,0.083-0.78,0.542v11.256     c0,0.458,0.351,0.964,0.78,1.125l8.359,3.123c0.429,0.161,0.78-0.083,0.78-0.541V119.54z"></path>			</g>			<path fill="#FFFFFF" d="M52.542,115.242c0.08,0,0.167,0.016,0.256,0.049l8.359,3.124c0.429,0.16,0.78,0.667,0.78,1.125v11.256    c0,0.362-0.22,0.591-0.524,0.591c-0.08,0-0.167-0.016-0.256-0.05l-8.359-3.123c-0.429-0.16-0.78-0.667-0.78-1.125v-11.256    C52.018,115.471,52.238,115.242,52.542,115.242 M52.542,114.242c-0.869,0-1.524,0.684-1.524,1.591v11.256    c0,0.871,0.615,1.757,1.431,2.061l8.359,3.123c0.199,0.075,0.404,0.113,0.606,0.113c0.869,0,1.524-0.684,1.524-1.591V119.54    c0-0.871-0.615-1.757-1.431-2.062l-8.359-3.124C52.948,114.28,52.745,114.242,52.542,114.242L52.542,114.242z"></path>		</g>	</g>	<g>		<line fill="#D4A686" x1="302.265" y1="161.306" x2="302.265" y2="125.806"></line>		<rect x="301.515" y="125.806" fill="#2A2829" width="1.5" height="35.5"></rect>	</g>	<g>		<line fill="#D4A686" x1="52.193" y1="112.22" x2="52.193" y2="137.72"></line>		<rect x="51.443" y="112.22" fill="#2A2829" width="1.5" height="25.5"></rect>	</g></g></svg>