<svg xmlns="http://www.w3.org/2000/svg" xmlns:xlink="http://www.w3.org/1999/xlink" id="Layer_1" x="0px" y="0px" width="363px" height="255px" viewBox="0 0 363 255" xml:space="preserve"><g>	<polygon fill="#D4A686" points="202.123,36.546 310.958,56.06 310.958,204.709 181.813,254.27 181.813,42.177  "></polygon>	<path fill="#2A2829" d="M181.813,255.02c-0.149,0-0.298-0.045-0.425-0.131c-0.204-0.141-0.325-0.371-0.325-0.619V42.177  c0-0.337,0.225-0.633,0.55-0.723l20.31-5.631c0.108-0.03,0.222-0.036,0.333-0.016l108.836,19.514  c0.357,0.064,0.617,0.375,0.617,0.738v148.649c0,0.312-0.191,0.589-0.481,0.7L182.082,254.97  C181.995,255.003,181.904,255.02,181.813,255.02z M182.562,42.748V253.18l127.646-48.986V56.688l-108.05-19.373L182.562,42.748z"></path></g><g>	<polygon fill="#D4A686" points="181.813,42.177 181.813,254.27 181.811,254.271 60.75,216.211 60.75,75.744  "></polygon>	<path fill="#2A2829" d="M181.81,255.021c-0.076,0-0.151-0.014-0.224-0.035L60.524,216.926c-0.312-0.098-0.525-0.388-0.525-0.715  V75.744c0-0.337,0.225-0.633,0.55-0.723l121.063-33.566c0.225-0.064,0.467-0.016,0.654,0.125c0.188,0.142,0.297,0.363,0.297,0.597  V254.27c0,0.282-0.16,0.541-0.412,0.67C182.045,254.993,181.928,255.021,181.81,255.021z M61.5,215.661l119.563,37.588V43.164  L61.5,76.314V215.661z"></path></g><g>	<polygon fill="#D4A686" points="60.756,75.745 17.937,37.519 159.214,1.827 202.227,36.517  "></polygon>	<path fill="#2A2829" d="M60.756,76.495c-0.182,0-0.36-0.066-0.5-0.19L17.438,38.078c-0.207-0.185-0.295-0.469-0.229-0.738  c0.066-0.27,0.276-0.48,0.545-0.548L159.03,1.1c0.227-0.06,0.471-0.005,0.654,0.143l43.011,34.69  c0.22,0.177,0.322,0.461,0.265,0.736s-0.263,0.496-0.534,0.571L60.956,76.467C60.89,76.486,60.823,76.495,60.756,76.495z   M19.49,37.9l41.46,37.013l139.669-38.728L159.035,2.646L19.49,37.9z"></path></g><g>	<polygon fill="#D4A686" points="310.933,56.051 340.308,21.772 236.814,0.75 202.227,36.517  "></polygon>	<path fill="#2A2829" d="M310.933,56.801c-0.044,0-0.089-0.004-0.133-0.012L202.093,37.255c-0.272-0.049-0.495-0.244-0.581-0.508  c-0.084-0.264-0.018-0.553,0.176-0.752l34.588-35.767c0.18-0.184,0.439-0.265,0.688-0.213l103.492,21.021  c0.261,0.053,0.474,0.24,0.56,0.491c0.088,0.251,0.033,0.53-0.14,0.731l-29.375,34.279  C311.358,56.707,311.149,56.801,310.933,56.801z M203.743,36.028l106.898,19.209l28.268-32.984L237.068,1.567L203.743,36.028z"></path></g><g>	<g>		<polygon fill="#B58B6A" points="202.154,36.546 202.195,36.553 202.195,93.222 181.853,100.173 60.781,75.752 60.781,75.744   "></polygon>		<path fill="#2A2829" d="M181.853,100.911c-0.049,0-0.098-0.005-0.146-0.015L60.635,76.476c-0.344-0.069-0.592-0.372-0.592-0.723   c0-0.332,0.221-0.631,0.541-0.72l141.374-39.198c0.106-0.03,0.222-0.035,0.33-0.015c0.351,0.064,0.646,0.377,0.646,0.733v56.668   c0,0.315-0.201,0.596-0.5,0.698l-20.342,6.951C182.016,100.897,181.934,100.911,181.853,100.911z M63.934,75.635l117.87,23.775   l19.654-6.716V37.505L63.934,75.635z"></path>	</g>	<g>		<polygon fill="#B58B6A" points="310.958,56.054 202.195,93.222 202.195,36.553   "></polygon>		<path fill="#2A2829" d="M202.195,93.959c-0.152,0-0.303-0.047-0.43-0.138c-0.193-0.138-0.31-0.362-0.31-0.6V36.553   c0-0.218,0.099-0.426,0.265-0.566c0.168-0.14,0.389-0.197,0.604-0.161l108.763,19.5c0.331,0.06,0.58,0.335,0.605,0.67   c0.024,0.335-0.181,0.646-0.497,0.754L202.434,93.92C202.355,93.947,202.275,93.959,202.195,93.959z M202.934,37.435v54.754   l105.091-35.913L202.934,37.435z"></path>	</g></g><g opacity="0.5">	<path fill="#EFDAB9" d="M105.346,243.587v-9.454l3.19,1.023c0.615,0.197,1.128,0.47,1.54,0.816c0.411,0.348,0.719,0.739,0.926,1.18  c0.206,0.438,0.309,0.895,0.309,1.369c0,0.394-0.066,0.709-0.198,0.945c-0.133,0.237-0.312,0.406-0.541,0.506  c-0.228,0.101-0.481,0.144-0.761,0.131v0.071c0.304,0.12,0.6,0.321,0.886,0.605c0.287,0.282,0.522,0.628,0.707,1.03  c0.185,0.404,0.277,0.848,0.277,1.326s-0.106,0.869-0.318,1.174c-0.212,0.307-0.538,0.496-0.977,0.568  c-0.438,0.073-0.996,0.001-1.673-0.216L105.346,243.587z M106.209,238.68l2.405,0.772c0.372,0.12,0.699,0.147,0.979,0.083  c0.28-0.064,0.499-0.207,0.655-0.428c0.157-0.222,0.235-0.504,0.235-0.854c0-0.502-0.163-0.962-0.489-1.383  c-0.327-0.42-0.813-0.732-1.459-0.939l-2.327-0.748L106.209,238.68L106.209,238.68z M106.209,243.089l2.502,0.804  c0.729,0.233,1.269,0.246,1.618,0.034c0.349-0.211,0.524-0.561,0.524-1.051c0-0.36-0.087-0.715-0.261-1.065  c-0.174-0.35-0.419-0.66-0.734-0.935c-0.316-0.274-0.686-0.479-1.11-0.615l-2.539-0.812V243.089z"></path>	<path fill="#EFDAB9" d="M115.571,247.031c-0.428-0.137-0.819-0.348-1.173-0.629c-0.354-0.28-0.635-0.614-0.845-1  c-0.209-0.385-0.313-0.805-0.313-1.262c0-0.352,0.066-0.625,0.198-0.822c0.132-0.198,0.32-0.334,0.563-0.41  s0.531-0.105,0.863-0.088c0.333,0.018,0.699,0.064,1.099,0.145c0.397,0.079,0.733,0.143,1.009,0.195  c0.275,0.051,0.485,0.061,0.63,0.025c0.145-0.033,0.217-0.141,0.217-0.317v-0.167c0-0.483-0.144-0.91-0.432-1.281  c-0.288-0.371-0.701-0.643-1.24-0.814c-0.511-0.164-0.927-0.186-1.249-0.062c-0.321,0.122-0.547,0.312-0.676,0.577l-0.78-0.532  c0.16-0.336,0.381-0.574,0.665-0.717c0.283-0.143,0.6-0.208,0.951-0.198c0.351,0.011,0.707,0.072,1.067,0.188  c0.271,0.087,0.553,0.214,0.847,0.379c0.293,0.164,0.566,0.375,0.819,0.63s0.457,0.562,0.614,0.922  c0.157,0.36,0.235,0.776,0.235,1.25v4.815l-0.822-0.266v-1.121l-0.05-0.018c-0.099,0.178-0.245,0.334-0.439,0.469  c-0.194,0.137-0.437,0.219-0.729,0.25C116.308,247.205,115.964,247.157,115.571,247.031z M115.682,246.314  c0.437,0.14,0.815,0.164,1.135,0.071c0.321-0.091,0.567-0.27,0.741-0.534c0.174-0.266,0.261-0.594,0.261-0.979v-1.024  c-0.062,0.038-0.164,0.06-0.307,0.06c-0.143,0-0.308-0.013-0.494-0.036s-0.372-0.055-0.556-0.088  c-0.185-0.035-0.351-0.066-0.499-0.098c-0.4-0.078-0.741-0.109-1.024-0.098c-0.283,0.014-0.5,0.088-0.651,0.223  c-0.151,0.136-0.227,0.347-0.227,0.631c0,0.433,0.154,0.813,0.462,1.148C114.831,245.923,115.217,246.165,115.682,246.314z"></path>	<path fill="#EFDAB9" d="M123.594,249.592c-0.634-0.203-1.186-0.539-1.655-1.006c-0.469-0.468-0.833-1.02-1.091-1.652  c-0.259-0.634-0.388-1.303-0.388-2.008c0-0.711,0.131-1.301,0.395-1.771c0.263-0.47,0.628-0.787,1.096-0.952  c0.468-0.165,1.011-0.148,1.63,0.05c0.474,0.152,0.903,0.381,1.288,0.688c0.384,0.307,0.703,0.666,0.953,1.076  c0.251,0.412,0.409,0.848,0.473,1.309l-0.831-0.268c-0.086-0.429-0.293-0.836-0.621-1.228c-0.328-0.392-0.744-0.666-1.249-0.828  c-0.452-0.146-0.853-0.149-1.2-0.021c-0.348,0.135-0.62,0.388-0.815,0.761c-0.195,0.373-0.293,0.846-0.293,1.418  c0,0.573,0.096,1.114,0.286,1.618c0.191,0.502,0.459,0.934,0.806,1.295c0.346,0.359,0.752,0.613,1.216,0.764  c0.314,0.102,0.601,0.135,0.861,0.1c0.26-0.035,0.478-0.133,0.655-0.295c0.177-0.162,0.296-0.385,0.358-0.666l0.831,0.268  c-0.062,0.408-0.213,0.74-0.455,0.996c-0.242,0.257-0.554,0.419-0.938,0.486C124.524,249.795,124.086,249.75,123.594,249.592z"></path>	<path fill="#EFDAB9" d="M128.058,250.877v-9.455l0.822,0.264v9.455L128.058,250.877z M128.806,248.439l-0.009-1.078l0.185,0.059  l3.324-2.271l1.039,0.334l-3.282,2.232l-0.074-0.01L128.806,248.439z M132.476,252.295l-2.88-4.566l0.591-0.379l3.342,5.283  L132.476,252.295z"></path></g><g>	<g>		<path d="M281.061,145.65c15.225-2.844,27.563,9.227,27.563,26.961c0,17.738-12.34,34.428-27.563,37.271   c-15.226,2.844-27.564-9.226-27.564-26.967C253.495,165.182,265.835,148.496,281.061,145.65z"></path>		<path fill="#FFFFFF" d="M285.46,145.236c13.133-0.002,23.164,11.385,23.164,27.375c0,17.738-12.34,34.428-27.563,37.271   c-1.496,0.279-2.968,0.415-4.397,0.415c-13.136,0-23.167-11.384-23.167-27.382c0-17.734,12.34-34.421,27.564-37.266   C282.557,145.372,284.027,145.236,285.46,145.236 M285.461,144.236v1V144.236h-0.002c-1.506,0-3.049,0.146-4.583,0.432   c-15.649,2.925-28.381,20.083-28.381,38.249c0,7.923,2.45,15.146,6.897,20.341c4.44,5.186,10.573,8.041,17.27,8.041   c1.505,0,3.046-0.146,4.581-0.432c15.649-2.926,28.381-20.086,28.381-38.256c0-7.92-2.449-15.142-6.897-20.334   C298.286,147.092,292.154,144.236,285.461,144.236L285.461,144.236z"></path>	</g>	<path fill="#B3B3B3" d="M260.682,181.576c0,13.111,9.125,22.037,20.379,19.932s20.377-14.439,20.377-27.551  c0-13.112-9.123-22.035-20.377-19.932C269.807,156.13,260.682,168.463,260.682,181.576z M282.354,158.514  c0.58,0.043,1.188-0.094,1.752-0.024c0.516,0.065,1.051,0.056,1.549,0.153c0.949,0.188,1.869,0.408,2.695,0.754  c0.541,0.229,1.217,0.476,1.565,0.951c0.248,0.334,0.453,0.717,0.577,1.221c0.191,0.762-0.039,1.793-0.303,2.343  c-0.344,0.713-0.852,1.26-1.369,1.798c-0.329,0.34-0.641,0.705-0.973,1.052c-0.929,0.966-1.812,1.987-2.738,2.956  c-0.379,0.395-0.738,0.812-1.127,1.204c-0.252,0.254-0.506,0.545-0.807,0.752c-0.263,0.187-0.542,0.25-0.869,0.396  c-0.056,0.021-0.119,0.009-0.15,0.009c-0.102,0.014-0.205,0.026-0.305,0.042c-0.285-0.028-0.529-0.083-0.746-0.202  c-0.574-0.303-0.896-0.826-1.277-1.39c-0.318-0.475-0.633-0.957-0.959-1.434c-0.641-0.947-1.256-1.924-1.898-2.871  c-0.475-0.697-1.01-1.35-1.34-2.229c-0.438-1.157,0.15-2.724,0.76-3.369c0.367-0.388,0.771-0.668,1.279-0.933  c0.33-0.17,0.67-0.205,1.018-0.364c0.842-0.388,1.916-0.552,2.938-0.726C281.716,158.648,282.207,158.504,282.354,158.514z   M296.973,170.357c0.059,0.674,0.264,1.306,0.297,1.976c0.028,0.62,0.119,1.222,0.116,1.837c-0.004,1.162-0.042,2.311-0.194,3.408  c-0.101,0.724-0.194,1.602-0.527,2.22c-0.234,0.433-0.518,0.845-0.908,1.222c-0.59,0.564-1.469,0.782-1.961,0.731  c-0.633-0.06-1.159-0.385-1.682-0.722c-0.328-0.219-0.674-0.406-1.01-0.623c-0.933-0.608-1.906-1.143-2.843-1.75  c-0.381-0.248-0.776-0.461-1.155-0.723c-0.25-0.172-0.525-0.326-0.742-0.569c-0.19-0.214-0.291-0.497-0.457-0.804  c-0.029-0.052-0.027-0.131-0.031-0.168c-0.027-0.107-0.053-0.22-0.08-0.328c-0.023-0.34-0.018-0.644,0.046-0.939  c0.157-0.794,0.534-1.4,0.935-2.096c0.336-0.58,0.682-1.158,1.021-1.746c0.672-1.169,1.372-2.318,2.045-3.488  c0.496-0.861,0.945-1.768,1.612-2.551c0.874-1.029,2.244-1.086,2.869-0.692c0.373,0.237,0.668,0.569,0.957,1.024  c0.193,0.299,0.277,0.667,0.462,0.988c0.446,0.776,0.747,1.92,1.052,3.002C296.764,169.689,296.958,170.182,296.973,170.357z   M289.593,192.438c-0.541,0.381-1.021,0.902-1.565,1.25c-0.5,0.316-0.979,0.697-1.479,0.979c-0.95,0.532-1.894,1.021-2.813,1.354  c-0.604,0.219-1.338,0.52-1.892,0.422c-0.396-0.067-0.772-0.193-1.143-0.465c-0.554-0.412-0.868-1.311-0.905-1.888  c-0.05-0.748,0.137-1.5,0.329-2.248c0.124-0.473,0.226-0.955,0.349-1.436c0.35-1.339,0.633-2.691,0.983-4.036  c0.142-0.549,0.256-1.098,0.409-1.651c0.099-0.358,0.185-0.743,0.349-1.104c0.146-0.314,0.361-0.556,0.584-0.89  c0.038-0.058,0.104-0.094,0.134-0.115c0.086-0.08,0.17-0.16,0.256-0.24c0.271-0.184,0.521-0.316,0.771-0.385  c0.673-0.186,1.229-0.036,1.857,0.1c0.527,0.111,1.055,0.238,1.588,0.352c1.058,0.226,2.104,0.49,3.166,0.717  c0.781,0.164,1.591,0.255,2.337,0.65c0.974,0.523,1.235,2.055,1.011,2.943c-0.133,0.531-0.357,1.018-0.686,1.562  c-0.215,0.354-0.5,0.62-0.733,0.978c-0.565,0.868-1.451,1.737-2.286,2.58C290.105,191.893,289.732,192.34,289.593,192.438z   M270.416,194.242c-0.395-0.441-0.896-0.745-1.266-1.205c-0.338-0.42-0.724-0.786-1.031-1.229  c-0.583-0.834-1.128-1.683-1.544-2.572c-0.273-0.588-0.632-1.283-0.642-1.957c-0.006-0.476,0.039-0.967,0.205-1.508  c0.246-0.822,0.93-1.595,1.396-1.904c0.605-0.402,1.244-0.539,1.887-0.662c0.404-0.081,0.814-0.186,1.227-0.268  c1.146-0.22,2.295-0.524,3.451-0.748c0.467-0.088,0.934-0.213,1.41-0.293c0.309-0.058,0.637-0.14,0.955-0.114  c0.278,0.02,0.512,0.155,0.816,0.255c0.053,0.014,0.092,0.072,0.115,0.096c0.078,0.057,0.157,0.119,0.235,0.178  c0.19,0.228,0.339,0.449,0.435,0.702c0.256,0.677,0.222,1.38,0.211,2.154c-0.008,0.653-0.027,1.312-0.037,1.968  c-0.019,1.305-0.071,2.622-0.092,3.934c-0.011,0.961,0.039,1.923-0.166,2.951c-0.271,1.353-1.481,2.354-2.244,2.508  c-0.457,0.097-0.887,0.064-1.381-0.055c-0.326-0.082-0.586-0.285-0.914-0.385c-0.799-0.24-1.646-0.85-2.467-1.406  C270.939,194.572,270.518,194.357,270.416,194.242z M265.939,173.275c0.302-0.648,0.472-1.359,0.787-1.99  c0.293-0.578,0.53-1.188,0.842-1.737c0.591-1.051,1.195-2.06,1.859-2.944c0.436-0.584,0.947-1.311,1.497-1.634  c0.386-0.226,0.794-0.401,1.265-0.464c0.707-0.096,1.443,0.324,1.771,0.712c0.421,0.501,0.634,1.163,0.839,1.835  c0.123,0.428,0.275,0.842,0.404,1.273c0.363,1.203,0.788,2.367,1.15,3.576c0.146,0.49,0.323,0.961,0.461,1.467  c0.095,0.324,0.213,0.658,0.244,1.033c0.027,0.328-0.045,0.656-0.078,1.045c-0.006,0.068-0.049,0.139-0.062,0.176  c-0.036,0.117-0.072,0.234-0.107,0.354c-0.156,0.321-0.312,0.59-0.506,0.815c-0.515,0.606-1.09,0.892-1.727,1.237  c-0.533,0.289-1.072,0.568-1.613,0.863c-1.066,0.58-2.148,1.127-3.223,1.711c-0.785,0.432-1.561,0.936-2.436,1.172  c-1.146,0.312-2.152-0.598-2.397-1.392c-0.149-0.475-0.193-0.979-0.171-1.596c0.014-0.408,0.142-0.797,0.171-1.217  c0.069-1.02,0.434-2.263,0.762-3.451C265.754,174.027,265.863,173.447,265.939,173.275z"></path>	<g>		<path d="M261.659,181.393c0-12.463,8.702-24.229,19.401-26.229c10.696-2,19.399,6.512,19.399,18.977   c0,12.463-8.703,24.23-19.399,26.23C270.361,202.369,261.659,193.855,261.659,181.393z M262.809,181.177   c0,11.724,8.188,19.735,18.254,17.851c10.06-1.879,18.248-12.946,18.248-24.674c0-11.725-8.188-19.731-18.248-17.85   C270.997,158.384,262.809,169.453,262.809,181.177z"></path>	</g>	<path d="M278.968,178.154c0,1.35,0.937,2.264,2.093,2.049c1.155-0.217,2.094-1.48,2.094-2.83c0-1.346-0.938-2.264-2.094-2.047  C279.904,175.543,278.968,176.811,278.968,178.154z"></path>	<g>		<path d="M278.645,174.366c0,0.489,0.342,0.823,0.766,0.747c0.42-0.08,0.762-0.541,0.762-1.032c0-0.493-0.342-0.825-0.762-0.746   C278.984,173.413,278.645,173.876,278.645,174.366z"></path>		<path d="M284.364,174.334c-0.421,0.08-0.765,0.541-0.765,1.033c0,0.49,0.344,0.822,0.765,0.744   c0.422-0.08,0.764-0.541,0.764-1.031C285.128,174.588,284.786,174.256,284.364,174.334z"></path>		<path d="M283.477,181.164c0-0.488-0.343-0.822-0.763-0.746c-0.424,0.082-0.764,0.541-0.764,1.033c0,0.488,0.34,0.826,0.764,0.744   C283.134,182.119,283.477,181.654,283.477,181.164z"></path>		<path d="M277.755,181.198c0.42-0.078,0.765-0.542,0.765-1.033s-0.345-0.823-0.765-0.745c-0.42,0.08-0.764,0.541-0.764,1.033   C276.991,180.941,277.335,181.277,277.755,181.198z"></path>	</g></g><g>	<g>		<path d="M214.257,173.338c15.226-2.845,27.565,9.227,27.565,26.96c0,17.738-12.342,34.427-27.565,37.272   c-15.224,2.844-27.563-9.228-27.563-26.967C186.693,192.869,199.033,176.182,214.257,173.338z"></path>		<path fill="#FFFFFF" d="M218.657,172.923c13.134-0.001,23.165,11.386,23.165,27.375c0,17.738-12.342,34.427-27.565,37.272   c-1.497,0.279-2.966,0.414-4.397,0.414c-13.133,0-23.166-11.385-23.166-27.381c0-17.734,12.341-34.422,27.563-37.267   C215.754,173.059,217.225,172.923,218.657,172.923 M218.658,171.923v1V171.923L218.658,171.923c-1.508,0-3.051,0.146-4.585,0.433   c-15.648,2.924-28.38,20.082-28.38,38.248c0,7.922,2.449,15.146,6.897,20.34c4.44,5.187,10.572,8.043,17.267,8.043   c1.506,0,3.047-0.146,4.582-0.433c15.649-2.926,28.383-20.087,28.383-38.256c0-7.919-2.449-15.141-6.897-20.334   C231.482,174.777,225.352,171.923,218.658,171.923L218.658,171.923z"></path>	</g>	<path fill="#B3B3B3" d="M193.88,209.262c0,13.111,9.124,22.038,20.377,19.932c11.255-2.104,20.38-14.438,20.38-27.551  c0-13.11-9.125-22.035-20.38-19.933C203.004,183.814,193.88,196.148,193.88,209.262z M215.553,186.2  c0.579,0.042,1.188-0.095,1.752-0.026c0.516,0.066,1.051,0.057,1.549,0.156c0.951,0.186,1.869,0.406,2.694,0.753  c0.541,0.229,1.218,0.474,1.565,0.95c0.248,0.334,0.453,0.717,0.576,1.221c0.193,0.762-0.037,1.794-0.301,2.344  c-0.345,0.711-0.852,1.258-1.369,1.797c-0.33,0.34-0.643,0.705-0.975,1.051c-0.927,0.966-1.811,1.988-2.736,2.957  c-0.379,0.396-0.74,0.812-1.129,1.205c-0.252,0.252-0.505,0.545-0.805,0.75c-0.264,0.187-0.541,0.25-0.869,0.396  c-0.056,0.021-0.119,0.01-0.15,0.01c-0.104,0.012-0.205,0.024-0.305,0.041c-0.287-0.029-0.531-0.084-0.746-0.201  c-0.576-0.305-0.896-0.826-1.279-1.39c-0.316-0.476-0.631-0.958-0.957-1.435c-0.641-0.946-1.256-1.924-1.899-2.871  c-0.474-0.697-1.008-1.35-1.34-2.23c-0.437-1.156,0.149-2.723,0.76-3.369c0.368-0.387,0.771-0.668,1.279-0.932  c0.332-0.17,0.671-0.205,1.019-0.363c0.842-0.389,1.915-0.553,2.938-0.729C214.913,186.335,215.404,186.189,215.553,186.2z   M230.171,198.043c0.058,0.675,0.265,1.307,0.296,1.977c0.028,0.619,0.12,1.224,0.117,1.836c-0.005,1.164-0.042,2.311-0.195,3.408  c-0.1,0.726-0.193,1.603-0.527,2.221c-0.234,0.433-0.518,0.845-0.906,1.222c-0.592,0.565-1.469,0.783-1.961,0.731  c-0.635-0.059-1.16-0.386-1.682-0.723c-0.328-0.218-0.674-0.406-1.011-0.623c-0.933-0.607-1.905-1.141-2.844-1.75  c-0.379-0.248-0.776-0.459-1.155-0.723c-0.248-0.17-0.525-0.324-0.742-0.569c-0.189-0.214-0.289-0.497-0.457-0.803  c-0.028-0.052-0.026-0.13-0.031-0.167c-0.025-0.109-0.053-0.221-0.08-0.329c-0.023-0.339-0.016-0.644,0.047-0.938  c0.156-0.795,0.534-1.399,0.936-2.098c0.336-0.58,0.68-1.158,1.021-1.745c0.672-1.169,1.371-2.319,2.044-3.489  c0.496-0.86,0.943-1.767,1.611-2.549c0.875-1.031,2.244-1.088,2.869-0.695c0.373,0.24,0.668,0.57,0.959,1.025  c0.191,0.299,0.275,0.668,0.461,0.988c0.447,0.777,0.748,1.92,1.052,3.002C229.962,197.376,230.156,197.868,230.171,198.043z   M222.792,220.123c-0.541,0.379-1.022,0.902-1.567,1.248c-0.498,0.318-0.978,0.699-1.479,0.98c-0.95,0.531-1.893,1.021-2.814,1.353  c-0.604,0.218-1.338,0.519-1.892,0.422c-0.396-0.067-0.772-0.192-1.142-0.466c-0.553-0.412-0.869-1.309-0.905-1.887  c-0.05-0.748,0.135-1.5,0.329-2.248c0.123-0.474,0.226-0.955,0.349-1.435c0.351-1.34,0.632-2.692,0.981-4.037  c0.144-0.547,0.258-1.099,0.41-1.651c0.1-0.359,0.185-0.744,0.349-1.104c0.146-0.315,0.36-0.557,0.584-0.891  c0.039-0.058,0.104-0.095,0.133-0.115c0.087-0.079,0.171-0.159,0.259-0.24c0.271-0.182,0.521-0.315,0.771-0.383  c0.673-0.187,1.228-0.038,1.856,0.099c0.528,0.111,1.055,0.237,1.59,0.351c1.057,0.226,2.104,0.491,3.164,0.716  c0.781,0.164,1.592,0.258,2.338,0.652c0.973,0.522,1.234,2.054,1.011,2.945c-0.134,0.53-0.357,1.016-0.685,1.561  c-0.216,0.355-0.502,0.621-0.734,0.978c-0.565,0.868-1.451,1.737-2.286,2.581C223.305,219.578,222.932,220.025,222.792,220.123z   M203.613,221.928c-0.393-0.441-0.895-0.744-1.264-1.205c-0.338-0.42-0.725-0.785-1.033-1.229  c-0.584-0.834-1.127-1.682-1.543-2.572c-0.272-0.587-0.633-1.281-0.643-1.957c-0.005-0.475,0.04-0.968,0.205-1.509  c0.247-0.821,0.932-1.592,1.396-1.903c0.604-0.402,1.244-0.539,1.887-0.662c0.404-0.08,0.814-0.186,1.227-0.267  c1.148-0.22,2.295-0.524,3.453-0.748c0.465-0.089,0.932-0.213,1.408-0.294c0.311-0.055,0.637-0.139,0.955-0.113  c0.279,0.02,0.512,0.154,0.818,0.254c0.051,0.014,0.09,0.073,0.112,0.096c0.079,0.059,0.159,0.121,0.237,0.18  c0.191,0.227,0.339,0.447,0.434,0.701c0.258,0.677,0.223,1.38,0.211,2.156c-0.007,0.652-0.025,1.31-0.037,1.965  c-0.019,1.306-0.07,2.623-0.09,3.933c-0.013,0.963,0.039,1.924-0.168,2.953c-0.271,1.353-1.48,2.354-2.242,2.508  c-0.457,0.097-0.89,0.063-1.383-0.055c-0.326-0.082-0.586-0.285-0.912-0.386c-0.8-0.238-1.647-0.85-2.468-1.404  C204.139,222.258,203.715,222.043,203.613,221.928z M199.141,200.963c0.299-0.648,0.469-1.359,0.785-1.99  c0.292-0.58,0.53-1.188,0.842-1.738c0.592-1.051,1.195-2.061,1.859-2.942c0.436-0.584,0.947-1.312,1.497-1.635  c0.387-0.228,0.795-0.404,1.265-0.466c0.707-0.096,1.444,0.326,1.771,0.713c0.422,0.501,0.633,1.164,0.838,1.835  c0.125,0.427,0.276,0.842,0.405,1.274c0.361,1.202,0.787,2.365,1.149,3.574c0.147,0.491,0.324,0.962,0.462,1.469  c0.094,0.323,0.213,0.657,0.244,1.033c0.027,0.325-0.046,0.654-0.078,1.045c-0.008,0.066-0.05,0.137-0.062,0.176  c-0.037,0.115-0.072,0.234-0.109,0.353c-0.155,0.321-0.311,0.59-0.504,0.815c-0.516,0.605-1.09,0.892-1.729,1.236  c-0.531,0.291-1.071,0.568-1.612,0.863c-1.065,0.58-2.146,1.129-3.222,1.713c-0.785,0.43-1.562,0.934-2.438,1.171  c-1.143,0.312-2.15-0.597-2.396-1.392c-0.147-0.473-0.192-0.979-0.17-1.596c0.014-0.408,0.142-0.798,0.17-1.218  c0.07-1.018,0.435-2.261,0.763-3.45C198.952,201.714,199.062,201.134,199.141,200.963z"></path>	<g>		<path d="M194.855,209.079c0-12.464,8.703-24.229,19.402-26.228c10.697-2,19.4,6.512,19.4,18.975s-8.703,24.23-19.4,26.23   S194.855,221.541,194.855,209.079z M196.007,208.863c0,11.723,8.188,19.734,18.252,17.852c10.062-1.881,18.25-12.947,18.25-24.676   c0-11.725-8.188-19.732-18.25-17.85C204.195,186.068,196.007,197.139,196.007,208.863z"></path>	</g>	<path d="M212.166,205.842c0,1.348,0.936,2.264,2.091,2.047c1.158-0.217,2.095-1.479,2.095-2.83c0-1.344-0.937-2.263-2.095-2.045  C213.102,203.229,212.166,204.497,212.166,205.842z"></path>	<g>		<path d="M211.843,202.052c0,0.491,0.341,0.824,0.765,0.747c0.42-0.08,0.762-0.541,0.762-1.031c0-0.492-0.342-0.826-0.762-0.746   C212.184,201.1,211.843,201.562,211.843,202.052z"></path>		<path d="M217.562,202.02c-0.422,0.082-0.765,0.541-0.765,1.033s0.343,0.822,0.765,0.745c0.422-0.079,0.765-0.542,0.765-1.032   C218.327,202.273,217.984,201.943,217.562,202.02z"></path>		<path d="M216.675,208.852c0-0.49-0.342-0.824-0.763-0.746c-0.424,0.08-0.764,0.541-0.764,1.033c0,0.487,0.34,0.824,0.764,0.744   C216.333,209.805,216.675,209.342,216.675,208.852z"></path>		<path d="M210.953,208.884c0.42-0.077,0.763-0.542,0.763-1.032c0-0.492-0.343-0.822-0.763-0.746   c-0.421,0.082-0.766,0.541-0.766,1.033C210.188,208.627,210.532,208.965,210.953,208.884z"></path>	</g></g><g>	<g>		<path fill="#FFFFFF" d="M142.159,210.855c0-1.541-1.202-3.181-2.671-3.645l-38.726-12.225c-1.469-0.465-2.671,0.418-2.671,1.957   v14.496c0,1.541,1.202,3.182,2.671,3.646l38.726,12.226c1.469,0.463,2.671-0.418,2.671-1.957V210.855z"></path>	</g>	<path fill="#FFFFFF" d="M99.998,194.863c0.243,0,0.5,0.039,0.765,0.123l38.726,12.226c1.469,0.464,2.671,2.104,2.671,3.644v14.498  c0,1.263-0.807,2.082-1.906,2.082c-0.243,0-0.5-0.041-0.765-0.125l-38.726-12.225c-1.469-0.464-2.671-2.104-2.671-3.645v-14.496  C98.092,195.684,98.899,194.863,99.998,194.863 M99.998,193.863c-1.684,0-2.906,1.297-2.906,3.082v14.496c0,1.98,1.48,4,3.37,4.598  l38.726,12.225c0.357,0.113,0.716,0.172,1.066,0.172c1.684,0,2.906-1.297,2.906-3.082v-14.498c0-1.98-1.48-4-3.37-4.597  l-38.726-12.226C100.707,193.921,100.348,193.863,99.998,193.863L99.998,193.863z"></path></g><g>	<g>		<path fill="#FFFFFF" d="M142.159,210.855c0-1.541-1.202-3.181-2.671-3.645l-38.726-12.225c-1.469-0.465-2.671,0.418-2.671,1.957   v14.496c0,1.541,1.202,3.182,2.671,3.646l38.726,12.226c1.469,0.463,2.671-0.418,2.671-1.957V210.855z"></path>	</g>	<path d="M99.998,195.905c0.141,0,0.292,0.024,0.451,0.075l38.725,12.226c1.035,0.326,1.943,1.563,1.943,2.649v14.498  c0,0.649-0.323,1.039-0.864,1.039c-0.141,0-0.293-0.025-0.452-0.076l-38.725-12.226c-1.035-0.325-1.943-1.565-1.943-2.649v-14.496  C99.134,196.294,99.457,195.905,99.998,195.905 M99.998,194.863c-1.099,0-1.906,0.82-1.906,2.082v14.496  c0,1.539,1.202,3.181,2.671,3.645l38.726,12.225c0.266,0.084,0.522,0.125,0.765,0.125c1.099,0,1.906-0.819,1.906-2.082v-14.498  c0-1.539-1.202-3.18-2.671-3.644l-38.726-12.226C100.498,194.902,100.241,194.863,99.998,194.863L99.998,194.863z"></path></g><g>	<g>		<path d="M297.346,46.941c2.194,0.398,4.477-0.115,6.395-1.271c1.914-1.152,3.463-2.945,4.188-5.102l0.027-0.074   c3.43-10.41-2.34-20.389-12.93-22.312l-4.558-0.83l0,0l0,0l0,0l0,0l-22.581-4.109l0,0l0,0l0,0l0,0l-4.554-0.832   c-10.593-1.924-22.005,4.923-25.558,15.312l-0.028,0.076c-0.724,2.155-0.485,4.274,0.479,5.954   c0.967,1.676,2.66,2.915,4.854,3.313L297.346,46.941z"></path>		<path fill="#FFFFFF" d="M259.707,12.086c1.21,0,2.424,0.105,3.626,0.324l4.554,0.832l22.581,4.109l4.558,0.83   c10.59,1.924,16.358,11.902,12.93,22.312l-0.027,0.074c-0.725,2.156-2.273,3.949-4.188,5.102   c-1.484,0.895-3.188,1.405-4.897,1.405c-0.5,0-1-0.043-1.495-0.133l-54.267-9.876c-2.192-0.398-3.888-1.638-4.854-3.313   c-0.963-1.68-1.201-3.799-0.479-5.954l0.027-0.076C240.925,18.512,250.25,12.086,259.707,12.086 M259.707,11.086   c-10.023,0-19.646,6.86-22.878,16.312l-0.021,0.051c-0.802,2.39-0.603,4.794,0.549,6.8c1.162,2.013,3.129,3.361,5.543,3.8   l54.267,9.876c0.547,0.099,1.11,0.149,1.675,0.149c1.861,0,3.733-0.535,5.414-1.548c2.201-1.326,3.842-3.329,4.619-5.64   l0.018-0.047c1.786-5.419,1.292-10.86-1.379-15.354c-2.602-4.375-6.974-7.319-12.311-8.289l-4.557-0.83l-22.582-4.109   l-4.553-0.832C262.27,11.201,260.99,11.086,259.707,11.086L259.707,11.086z"></path>	</g>	<g>		<path d="M297.346,46.941c2.194,0.398,4.477-0.115,6.395-1.271c1.914-1.152,3.463-2.945,4.188-5.102l0.027-0.074   c3.43-10.41-2.34-20.389-12.93-22.312l-4.558-0.83l0,0l0,0l0,0l0,0l-22.581-4.109l0,0l0,0l0,0l0,0l-4.554-0.832   c-10.593-1.924-22.005,4.923-25.558,15.312l-0.028,0.076c-0.724,2.155-0.485,4.274,0.479,5.954   c0.967,1.676,2.66,2.915,4.854,3.313L297.346,46.941z"></path>		<path fill="#FFFFFF" d="M287.553,20.881L287.553,20.881c0.614,0,1.227,0.055,1.819,0.164c2.497,0.454,4.53,1.82,5.729,3.847   c1.233,2.092,1.444,4.64,0.592,7.176c-1.547,4.611-6.217,7.958-11.104,7.958c-0.612,0-1.226-0.055-1.817-0.163   c-2.494-0.454-4.527-1.819-5.725-3.844c-1.234-2.091-1.445-4.642-0.595-7.18C277.999,24.228,282.668,20.881,287.553,20.881    M287.552,19.942c-5.181,0-10.293,3.54-11.989,8.598c-1.916,5.709,1.235,11.19,7.041,12.246c0.657,0.12,1.321,0.178,1.984,0.178   c5.186,0,10.297-3.537,11.995-8.598c1.919-5.706-1.237-11.19-7.043-12.245C288.881,20,288.216,19.942,287.552,19.942   L287.552,19.942z"></path>		<path fill="#FFFFFF" d="M293.152,37.29c-0.07,0-0.143-0.026-0.198-0.078l-1.722-1.594c-0.118-0.11-0.125-0.296-0.016-0.415   s0.295-0.126,0.414-0.016l1.721,1.594c0.119,0.11,0.127,0.296,0.017,0.415C293.311,37.258,293.232,37.29,293.152,37.29z"></path>		<path fill="#FFFFFF" d="M294.969,35.089c-0.044,0-0.087-0.01-0.129-0.03l-2.158-1.056c-0.146-0.071-0.207-0.247-0.136-0.393   c0.072-0.146,0.248-0.204,0.394-0.135l2.158,1.056c0.146,0.071,0.207,0.247,0.135,0.393   C295.182,35.029,295.077,35.089,294.969,35.089z"></path>		<path fill="#FFFFFF" d="M296.184,32.592c-0.019,0-0.035-0.001-0.054-0.005l-2.456-0.447c-0.158-0.029-0.265-0.182-0.236-0.341   c0.03-0.159,0.188-0.264,0.343-0.236l2.456,0.447c0.158,0.029,0.265,0.182,0.236,0.341   C296.445,32.493,296.322,32.592,296.184,32.592z"></path>		<path fill="#FFFFFF" d="M294.132,30.162c-0.151,0-0.28-0.118-0.293-0.271c-0.012-0.162,0.109-0.302,0.271-0.314l2.58-0.192   c0.158-0.006,0.303,0.11,0.314,0.271c0.012,0.162-0.109,0.302-0.271,0.313l-2.58,0.192   C294.146,30.161,294.139,30.162,294.132,30.162z"></path>		<path fill="#FFFFFF" d="M293.984,28.213c-0.123,0-0.238-0.079-0.278-0.203c-0.05-0.154,0.035-0.32,0.188-0.37l2.535-0.818   c0.149-0.052,0.318,0.034,0.369,0.188c0.051,0.154-0.035,0.32-0.189,0.37l-2.534,0.818   C294.046,28.209,294.016,28.213,293.984,28.213z"></path>		<path fill="#FFFFFF" d="M293.307,26.438c-0.101,0-0.197-0.051-0.252-0.142c-0.084-0.139-0.039-0.319,0.1-0.403l2.312-1.391   c0.141-0.084,0.319-0.039,0.402,0.1c0.084,0.139,0.039,0.319-0.1,0.403l-2.312,1.391   C293.409,26.424,293.357,26.438,293.307,26.438z"></path>		<path fill="#FFFFFF" d="M292.141,24.954c-0.076,0-0.152-0.03-0.211-0.089c-0.111-0.117-0.109-0.302,0.008-0.415l1.926-1.863   c0.117-0.113,0.305-0.109,0.416,0.007c0.111,0.117,0.109,0.302-0.008,0.415l-1.926,1.863   C292.288,24.926,292.214,24.954,292.141,24.954z"></path>		<path fill="#FFFFFF" d="M290.561,23.862c-0.056,0-0.109-0.015-0.158-0.046c-0.137-0.087-0.176-0.269-0.09-0.405l1.418-2.214   c0.088-0.136,0.271-0.175,0.406-0.089c0.137,0.087,0.176,0.269,0.088,0.405l-1.418,2.214   C290.751,23.814,290.656,23.862,290.561,23.862z"></path>		<path fill="#FFFFFF" d="M288.682,23.24c-0.031,0-0.062-0.005-0.094-0.015c-0.154-0.051-0.236-0.218-0.186-0.371l0.808-2.417   c0.052-0.155,0.222-0.238,0.371-0.186c0.153,0.051,0.235,0.218,0.187,0.371l-0.809,2.417   C288.918,23.162,288.805,23.24,288.682,23.24z"></path>		<path fill="#FFFFFF" d="M286.62,23.125c-0.007,0-0.013,0-0.019,0c-0.162-0.01-0.285-0.149-0.274-0.311l0.151-2.447   c0.01-0.162,0.135-0.265,0.312-0.275c0.161,0.01,0.284,0.149,0.274,0.311l-0.151,2.447   C286.902,23.005,286.773,23.125,286.62,23.125z"></path>		<path fill="#FFFFFF" d="M284.533,23.53c-0.135,0-0.256-0.092-0.286-0.229l-0.524-2.318c-0.035-0.158,0.063-0.315,0.223-0.351   c0.156-0.037,0.312,0.063,0.351,0.221l0.524,2.318c0.035,0.158-0.063,0.315-0.223,0.351   C284.576,23.527,284.555,23.53,284.533,23.53z"></path>		<path fill="#FFFFFF" d="M282.555,24.42c-0.103,0-0.201-0.053-0.255-0.147l-1.164-2.023c-0.081-0.141-0.032-0.32,0.107-0.401   s0.319-0.033,0.399,0.108l1.164,2.023c0.082,0.141,0.033,0.32-0.106,0.401C282.654,24.408,282.604,24.42,282.555,24.42z"></path>		<path fill="#FFFFFF" d="M280.816,25.746c-0.071,0-0.145-0.026-0.2-0.079l-1.718-1.597c-0.119-0.11-0.125-0.296-0.016-0.415   c0.11-0.119,0.297-0.125,0.415-0.015l1.718,1.597c0.118,0.11,0.125,0.296,0.016,0.415   C280.975,25.714,280.895,25.746,280.816,25.746z"></path>		<path fill="#FFFFFF" d="M279.439,27.404c-0.043,0-0.086-0.01-0.129-0.03l-2.16-1.056c-0.146-0.071-0.207-0.247-0.135-0.393   c0.069-0.146,0.242-0.206,0.393-0.135l2.16,1.056c0.146,0.071,0.207,0.247,0.136,0.393   C279.652,27.343,279.549,27.404,279.439,27.404z"></path>		<path fill="#FFFFFF" d="M278.521,29.293c-0.019,0-0.035-0.001-0.054-0.005l-2.452-0.448c-0.16-0.029-0.266-0.182-0.236-0.341   s0.188-0.266,0.342-0.236l2.453,0.448c0.158,0.029,0.265,0.182,0.236,0.341C278.783,29.194,278.66,29.293,278.521,29.293z"></path>		<path fill="#FFFFFF" d="M275.538,31.469c-0.152,0-0.281-0.118-0.293-0.271c-0.013-0.162,0.108-0.302,0.271-0.314l2.582-0.19   c0.16-0.008,0.303,0.109,0.314,0.271s-0.109,0.302-0.271,0.314l-2.582,0.19C275.553,31.469,275.545,31.469,275.538,31.469z"></path>		<path fill="#FFFFFF" d="M275.73,34.045c-0.123,0-0.238-0.079-0.278-0.203c-0.05-0.154,0.034-0.319,0.188-0.369l2.53-0.821   c0.153-0.05,0.32,0.034,0.37,0.188c0.05,0.154-0.034,0.319-0.188,0.369l-2.531,0.821C275.792,34.041,275.762,34.045,275.73,34.045   z"></path>		<path fill="#FFFFFF" d="M287.191,30.654c-0.207,0.613-0.881,1.021-1.504,0.906c-0.627-0.113-0.965-0.705-0.761-1.318   c0.208-0.614,0.884-1.02,1.509-0.907C287.061,29.45,287.398,30.04,287.191,30.654z"></path>		<path fill="#FFFFFF" d="M286.061,30.744c-0.103,0-0.201-0.053-0.254-0.147l-3.035-5.276c-0.082-0.141-0.033-0.32,0.106-0.401   s0.32-0.033,0.399,0.108l3.035,5.276c0.082,0.141,0.033,0.32-0.106,0.401C286.16,30.731,286.109,30.744,286.061,30.744z"></path>		<g>			<path fill="#FFFFFF" d="M287.954,36.287c-0.074,0.22-0.321,0.366-0.552,0.325l-6.407-1.167c-0.229-0.042-0.354-0.256-0.281-0.476    l0.415-1.232c0.074-0.22,0.322-0.366,0.551-0.325l6.407,1.169c0.229,0.042,0.354,0.256,0.281,0.476L287.954,36.287z"></path>		</g>		<g>			<g>				<path d="M282.338,34.912c-0.037,0.11-0.161,0.183-0.275,0.162l-0.239-0.044c-0.114-0.021-0.179-0.128-0.142-0.239l0.188-0.566     c0.036-0.11,0.16-0.184,0.274-0.163l0.24,0.044c0.114,0.021,0.178,0.128,0.141,0.238L282.338,34.912z"></path>			</g>			<g>				<path d="M283.312,35.088c-0.037,0.11-0.162,0.184-0.275,0.163l-0.243-0.044c-0.114-0.021-0.178-0.127-0.142-0.237l0.193-0.566     c0.036-0.11,0.16-0.183,0.274-0.163l0.239,0.044c0.113,0.021,0.178,0.128,0.141,0.238L283.312,35.088z"></path>			</g>			<g>				<path d="M284.285,35.266c-0.037,0.11-0.161,0.184-0.275,0.163l-0.238-0.043c-0.114-0.021-0.179-0.127-0.142-0.237l0.19-0.57     c0.037-0.11,0.16-0.183,0.275-0.162l0.239,0.044c0.114,0.021,0.179,0.128,0.142,0.238L284.285,35.266z"></path>			</g>			<g>				<path d="M285.264,35.444c-0.035,0.11-0.16,0.184-0.273,0.163l-0.243-0.045c-0.114-0.021-0.179-0.128-0.142-0.238l0.189-0.566     c0.037-0.11,0.161-0.183,0.275-0.163l0.24,0.044c0.114,0.021,0.179,0.128,0.143,0.238L285.264,35.444z"></path>			</g>			<g>				<path d="M286.236,35.622c-0.037,0.11-0.161,0.183-0.275,0.162l-0.24-0.044c-0.113-0.021-0.178-0.128-0.141-0.238l0.191-0.567     c0.037-0.11,0.16-0.184,0.274-0.163l0.239,0.043c0.113,0.021,0.178,0.127,0.141,0.237L286.236,35.622z"></path>			</g>			<g>				<path d="M287.213,35.798c-0.037,0.11-0.161,0.184-0.275,0.163l-0.238-0.043c-0.114-0.021-0.178-0.127-0.143-0.238l0.19-0.569     c0.036-0.11,0.16-0.184,0.274-0.163l0.238,0.044c0.114,0.021,0.178,0.128,0.141,0.238L287.213,35.798z"></path>			</g>		</g>		<path fill="#FF0000" d="M268.611,31.117c0.986-0.951,1.765-2.12,2.205-3.437c0.441-1.316,0.494-2.612,0.228-3.784l3.291-1.036   c0.377,1.677,0.293,3.522-0.339,5.396c-0.627,1.875-1.727,3.543-3.12,4.896L268.611,31.117z"></path>		<path fill="#FFFFFF" d="M264.977,16.77L264.977,16.77c0.612,0,1.224,0.055,1.812,0.162c2.498,0.457,4.531,1.825,5.729,3.853   c1.232,2.091,1.441,4.639,0.59,7.173c-1.547,4.611-6.215,7.958-11.103,7.958c-0.614,0-1.226-0.055-1.817-0.163   c-2.498-0.454-4.53-1.819-5.728-3.844c-1.235-2.091-1.446-4.641-0.594-7.179C255.414,20.118,260.086,16.77,264.977,16.77    M264.977,15.831c-5.188,0-10.302,3.538-12,8.601c-1.916,5.709,1.234,11.189,7.043,12.245c0.657,0.12,1.322,0.178,1.985,0.178   c5.183,0,10.295-3.538,11.991-8.599c1.92-5.705-1.234-11.188-7.038-12.248C266.301,15.889,265.639,15.831,264.977,15.831   L264.977,15.831z"></path>		<path fill="#FFFFFF" d="M270.568,33.176c-0.07,0-0.143-0.026-0.198-0.078l-1.722-1.591c-0.119-0.11-0.127-0.295-0.018-0.415   c0.112-0.119,0.296-0.126,0.415-0.016l1.722,1.591c0.119,0.11,0.127,0.295,0.018,0.415   C270.727,33.145,270.648,33.176,270.568,33.176z"></path>		<path fill="#FFFFFF" d="M272.389,30.978c-0.043,0-0.088-0.01-0.13-0.03l-2.163-1.057c-0.146-0.071-0.207-0.247-0.136-0.393   c0.069-0.146,0.243-0.207,0.394-0.135l2.164,1.057c0.146,0.071,0.205,0.247,0.135,0.393   C272.602,30.917,272.496,30.978,272.389,30.978z"></path>		<path fill="#FFFFFF" d="M273.602,28.483c-0.018,0-0.035-0.001-0.053-0.005l-2.458-0.447c-0.159-0.029-0.265-0.182-0.235-0.341   c0.029-0.16,0.186-0.264,0.342-0.236l2.457,0.447c0.16,0.029,0.266,0.182,0.236,0.341   C273.864,28.384,273.741,28.483,273.602,28.483z"></path>		<path fill="#FFFFFF" d="M271.547,26.053c-0.152,0-0.281-0.117-0.293-0.271c-0.012-0.162,0.109-0.302,0.271-0.314l2.578-0.193   c0.164-0.012,0.304,0.109,0.314,0.271c0.012,0.162-0.109,0.302-0.271,0.314l-2.578,0.193   C271.562,26.053,271.555,26.053,271.547,26.053z"></path>		<path fill="#FFFFFF" d="M271.404,24.104c-0.123,0-0.238-0.079-0.278-0.203c-0.05-0.154,0.035-0.319,0.188-0.369l2.528-0.82   c0.154-0.049,0.32,0.034,0.37,0.188c0.051,0.154-0.035,0.319-0.188,0.369l-2.529,0.82   C271.466,24.099,271.436,24.104,271.404,24.104z"></path>		<path fill="#FFFFFF" d="M270.727,22.33c-0.1,0-0.197-0.05-0.252-0.142c-0.084-0.139-0.039-0.319,0.101-0.403l2.309-1.396   c0.136-0.083,0.318-0.041,0.402,0.099c0.084,0.139,0.039,0.319-0.101,0.403l-2.309,1.396   C270.83,22.316,270.777,22.33,270.727,22.33z"></path>		<path fill="#FFFFFF" d="M269.555,20.84c-0.078,0-0.154-0.03-0.212-0.09c-0.112-0.117-0.108-0.302,0.007-0.415l1.93-1.861   c0.119-0.113,0.303-0.109,0.416,0.007c0.111,0.117,0.109,0.302-0.008,0.415l-1.93,1.861C269.7,20.813,269.627,20.84,269.555,20.84   z"></path>		<path fill="#FFFFFF" d="M267.979,19.75c-0.056,0-0.109-0.015-0.158-0.046c-0.137-0.087-0.176-0.269-0.09-0.405l1.416-2.214   c0.088-0.137,0.271-0.175,0.405-0.089c0.138,0.087,0.177,0.269,0.089,0.405l-1.416,2.214   C268.169,19.702,268.074,19.75,267.979,19.75z"></path>		<path fill="#FFFFFF" d="M266.096,19.125c-0.031,0-0.062-0.005-0.095-0.016c-0.153-0.052-0.235-0.218-0.185-0.372l0.812-2.407   c0.054-0.154,0.22-0.238,0.372-0.184c0.152,0.052,0.236,0.218,0.186,0.372l-0.812,2.407   C266.331,19.047,266.217,19.125,266.096,19.125z"></path>		<path fill="#FFFFFF" d="M264.039,19.012c-0.006,0-0.012,0-0.018,0c-0.162-0.01-0.285-0.149-0.275-0.311l0.146-2.444   c0.01-0.162,0.152-0.267,0.312-0.275c0.162,0.01,0.285,0.149,0.274,0.311l-0.146,2.444   C264.322,18.892,264.193,19.012,264.039,19.012z"></path>		<path fill="#FFFFFF" d="M261.949,19.417c-0.135,0-0.256-0.092-0.286-0.229l-0.524-2.312c-0.035-0.158,0.063-0.315,0.223-0.351   c0.154-0.035,0.313,0.063,0.351,0.221l0.524,2.312c0.035,0.158-0.063,0.315-0.223,0.351   C261.992,19.414,261.971,19.417,261.949,19.417z"></path>		<path fill="#FFFFFF" d="M259.967,20.309c-0.102,0-0.199-0.053-0.255-0.147l-1.157-2.021c-0.08-0.141-0.031-0.32,0.108-0.4   c0.14-0.081,0.317-0.032,0.399,0.108l1.158,2.021c0.08,0.141,0.031,0.32-0.109,0.4C260.066,20.296,260.018,20.309,259.967,20.309z   "></path>		<path fill="#FFFFFF" d="M258.232,21.631c-0.071,0-0.144-0.026-0.199-0.078l-1.723-1.592c-0.119-0.11-0.125-0.295-0.017-0.415   c0.11-0.119,0.296-0.126,0.415-0.016l1.723,1.592c0.118,0.11,0.125,0.295,0.017,0.415C258.391,21.6,258.312,21.631,258.232,21.631   z"></path>		<path fill="#FFFFFF" d="M256.854,23.294c-0.043,0-0.086-0.01-0.129-0.03l-2.158-1.056c-0.146-0.071-0.207-0.247-0.135-0.393   c0.07-0.146,0.246-0.204,0.393-0.135l2.158,1.056c0.146,0.071,0.207,0.247,0.136,0.393   C257.066,23.234,256.963,23.294,256.854,23.294z"></path>		<path fill="#FFFFFF" d="M255.938,25.184c-0.019,0-0.035-0.001-0.054-0.005l-2.452-0.448c-0.158-0.029-0.265-0.182-0.236-0.341   c0.031-0.159,0.188-0.266,0.343-0.236l2.452,0.448c0.158,0.029,0.265,0.182,0.234,0.341   C256.199,25.085,256.076,25.184,255.938,25.184z"></path>		<path fill="#FFFFFF" d="M252.956,27.36c-0.151,0-0.281-0.117-0.293-0.271c-0.013-0.162,0.108-0.302,0.271-0.314l2.578-0.193   c0.165-0.011,0.303,0.109,0.314,0.271s-0.109,0.302-0.271,0.314l-2.578,0.193C252.971,27.359,252.963,27.36,252.956,27.36z"></path>		<path fill="#FFFFFF" d="M253.148,29.934c-0.123,0-0.237-0.079-0.278-0.203c-0.05-0.154,0.034-0.32,0.188-0.37l2.529-0.822   c0.154-0.049,0.318,0.034,0.37,0.188c0.05,0.154-0.034,0.32-0.188,0.37l-2.529,0.822C253.21,29.929,253.18,29.934,253.148,29.934z   "></path>		<path fill="#FFFFFF" d="M262.415,26.996c-0.298-0.512-0.062-1.219,0.528-1.57c0.589-0.357,1.304-0.223,1.603,0.29   c0.293,0.514,0.06,1.22-0.528,1.573C263.43,27.645,262.712,27.514,262.415,26.996z"></path>		<path fill="#FFFFFF" d="M269.886,27.815c-0.017,0-0.034-0.001-0.053-0.005l-6.403-1.163c-0.16-0.029-0.266-0.182-0.236-0.341   c0.029-0.159,0.177-0.269,0.342-0.236l6.404,1.163c0.158,0.029,0.265,0.182,0.235,0.341   C270.148,27.716,270.025,27.815,269.886,27.815z"></path>		<path fill="#FFFFFF" d="M246.796,26.381c-0.03,0-0.062-0.005-0.093-0.015c-0.154-0.051-0.236-0.218-0.186-0.371l0.332-0.996   c0.053-0.154,0.221-0.237,0.371-0.186c0.154,0.051,0.237,0.218,0.187,0.371l-0.333,0.996   C247.033,26.304,246.919,26.381,246.796,26.381z"></path>		<path fill="#FFFFFF" d="M245.087,26.489c-0.134,0-0.255-0.092-0.286-0.229l-0.217-0.957c-0.036-0.158,0.062-0.315,0.223-0.351   c0.154-0.035,0.313,0.063,0.351,0.221l0.217,0.957c0.036,0.158-0.063,0.315-0.222,0.351   C245.13,26.486,245.107,26.489,245.087,26.489z"></path>		<path fill="#FFFFFF" d="M243.544,27.395c-0.071,0-0.144-0.026-0.198-0.078l-0.711-0.658c-0.119-0.11-0.126-0.296-0.016-0.415   c0.109-0.119,0.294-0.126,0.414-0.016l0.71,0.658c0.118,0.11,0.126,0.296,0.016,0.415   C243.701,27.363,243.623,27.395,243.544,27.395z"></path>		<path fill="#FFFFFF" d="M248.973,28.454c-0.125,0-0.238-0.079-0.279-0.203c-0.051-0.154,0.033-0.32,0.188-0.37l1.047-0.34   c0.154-0.052,0.319,0.034,0.37,0.188c0.05,0.154-0.034,0.32-0.188,0.37l-1.047,0.34C249.032,28.449,249.002,28.454,248.973,28.454   z"></path>		<path fill="#FFFFFF" d="M248.219,27.1c-0.076,0-0.152-0.03-0.211-0.089c-0.111-0.116-0.109-0.302,0.008-0.415l0.797-0.771   c0.114-0.113,0.301-0.11,0.414,0.007c0.112,0.116,0.109,0.302-0.006,0.415l-0.798,0.771C248.366,27.073,248.292,27.1,248.219,27.1   z"></path>		<path fill="#FFFFFF" d="M245.837,29.705c-0.315,0.093-0.614-0.062-0.678-0.346c-0.058-0.289,0.149-0.6,0.463-0.693   c0.312-0.097,0.61,0.059,0.672,0.346C246.354,29.298,246.146,29.607,245.837,29.705z"></path>		<path fill="#FFFFFF" d="M245.727,29.477c-0.058,0-0.115-0.017-0.166-0.052c-0.134-0.091-0.168-0.274-0.076-0.408l1.179-1.717   c0.094-0.135,0.276-0.167,0.407-0.076c0.135,0.091,0.168,0.274,0.076,0.408l-1.178,1.717   C245.911,29.433,245.818,29.477,245.727,29.477z"></path>		<path fill="#FFFFFF" d="M246.441,25.047L246.441,25.047c0.268,0,0.533,0.024,0.793,0.071c1.064,0.193,1.931,0.771,2.437,1.626   c0.524,0.889,0.613,1.981,0.247,3.075c-0.684,2.038-2.749,3.516-4.911,3.516c-0.269,0-0.534-0.024-0.795-0.071   c-1.065-0.192-1.933-0.77-2.438-1.625c-0.524-0.889-0.61-1.98-0.242-3.075C242.212,26.526,244.277,25.047,246.441,25.047    M246.441,24.108c-2.51,0-4.982,1.71-5.801,4.157c-0.93,2.761,0.594,5.414,3.403,5.922c0.319,0.058,0.642,0.086,0.962,0.086   c2.508,0,4.98-1.71,5.801-4.157c0.926-2.762-0.598-5.414-3.406-5.923C247.083,24.136,246.762,24.108,246.441,24.108   L246.441,24.108z"></path>		<path fill="#FFFFFF" d="M301.005,36.246c-0.03,0-0.062-0.005-0.093-0.015c-0.154-0.051-0.236-0.218-0.186-0.371l0.332-0.997   c0.051-0.155,0.222-0.237,0.371-0.186c0.154,0.051,0.236,0.218,0.187,0.371l-0.333,0.997   C301.242,36.168,301.128,36.246,301.005,36.246z"></path>		<path fill="#FFFFFF" d="M302.452,36.926c-0.076,0-0.153-0.03-0.211-0.089c-0.112-0.116-0.109-0.302,0.007-0.415l0.796-0.772   c0.115-0.113,0.302-0.111,0.415,0.006c0.111,0.116,0.109,0.302-0.007,0.415l-0.796,0.772   C302.6,36.898,302.525,36.926,302.452,36.926z"></path>		<path fill="#FFFFFF" d="M303.242,38.257c-0.124,0-0.238-0.079-0.279-0.203c-0.05-0.154,0.034-0.32,0.188-0.37l1.045-0.34   c0.154-0.05,0.318,0.033,0.369,0.188c0.051,0.154-0.033,0.32-0.188,0.37l-1.044,0.34   C303.303,38.252,303.271,38.257,303.242,38.257z"></path>		<path fill="#FFFFFF" d="M297.77,37.333c-0.071,0-0.144-0.026-0.199-0.078l-0.711-0.658c-0.119-0.11-0.127-0.296-0.017-0.415   c0.109-0.119,0.296-0.126,0.414-0.016l0.711,0.658c0.119,0.11,0.126,0.296,0.017,0.415   C297.926,37.301,297.848,37.333,297.77,37.333z"></path>		<path fill="#FFFFFF" d="M299.288,36.391c-0.136,0-0.256-0.093-0.286-0.229l-0.215-0.955c-0.035-0.158,0.062-0.315,0.222-0.351   c0.156-0.036,0.315,0.063,0.351,0.222l0.216,0.955c0.034,0.158-0.063,0.315-0.222,0.351   C299.331,36.389,299.311,36.391,299.288,36.391z"></path>		<path fill="#FFFFFF" d="M299.566,39.48c0.218,0.193,0.582,0.158,0.814-0.072c0.232-0.236,0.245-0.582,0.031-0.771   c-0.215-0.193-0.582-0.158-0.814,0.075C299.364,38.943,299.35,39.289,299.566,39.48z"></path>		<path fill="#FFFFFF" d="M299.991,39.35c-0.003,0-0.005,0-0.007,0c-0.162-0.004-0.291-0.139-0.286-0.301l0.047-1.921   c0.005-0.161,0.124-0.289,0.3-0.286c0.162,0.004,0.29,0.139,0.286,0.301l-0.047,1.921C300.279,39.223,300.15,39.35,299.991,39.35z   "></path>		<path fill="#FFFFFF" d="M300.708,34.921c0.269,0,0.534,0.024,0.791,0.07c1.067,0.195,1.935,0.774,2.44,1.631   c0.524,0.888,0.611,1.978,0.246,3.067c-0.688,2.041-2.754,3.521-4.916,3.521c-0.267,0-0.533-0.024-0.791-0.071   c-1.065-0.194-1.932-0.773-2.438-1.629c-0.525-0.889-0.613-1.981-0.248-3.074C296.479,36.4,298.546,34.921,300.708,34.921    M300.708,33.983c-2.507,0-4.979,1.708-5.804,4.156c-0.926,2.765,0.6,5.414,3.406,5.926c0.318,0.058,0.641,0.086,0.959,0.086   c2.508,0,4.98-1.712,5.807-4.16c0.926-2.761-0.602-5.41-3.409-5.922C301.35,34.011,301.027,33.983,300.708,33.983L300.708,33.983z   "></path>		<g>			<g>				<g>					<path fill="#FFFFFF" d="M245.12,32.051c0.004,0.01,0.008,0.025,0.001,0.043l-0.038,0.113c-0.004,0.018-0.015,0.031-0.031,0.039      c-0.013,0.012-0.028,0.014-0.045,0.01l-1.175-0.215c-0.016-0.002-0.027-0.012-0.037-0.021      c-0.007-0.017-0.006-0.031-0.004-0.046l0.041-0.118c0.004-0.014,0.011-0.024,0.029-0.033c0.017-0.012,0.029-0.016,0.046-0.01      l1.178,0.213C245.102,32.025,245.113,32.035,245.12,32.051z M246.083,31.079l-0.267,0.805c-0.028,0.078-0.08,0.136-0.149,0.175      c-0.079,0.044-0.153,0.053-0.229,0.033c-0.065-0.021-0.111-0.062-0.142-0.123c-0.024-0.062-0.026-0.127-0.003-0.197      l0.032-0.102c0.015-0.041,0.012-0.08-0.009-0.109c-0.021-0.033-0.051-0.053-0.088-0.061l-0.031-0.006l-0.137,0.404      l-1.058-0.191l0.427-1.269c0.021-0.063,0.063-0.114,0.125-0.152c0.062-0.035,0.129-0.05,0.188-0.038l0.589,0.109      c0.062,0.012,0.109,0.043,0.145,0.096c0.028,0.056,0.035,0.114,0.017,0.179l-0.234,0.69l0.027,0.005      c0.09,0.018,0.155,0.062,0.194,0.135c0.047,0.073,0.054,0.155,0.021,0.239l-0.037,0.119c-0.01,0.021-0.01,0.046,0,0.066      c0.014,0.021,0.032,0.031,0.059,0.035c0.022,0.005,0.045,0,0.068-0.016c0.021-0.014,0.037-0.029,0.047-0.055l0.193-0.58      c-0.045-0.021-0.078-0.047-0.102-0.091c-0.021-0.043-0.021-0.091-0.008-0.14l0.076-0.226l-0.093-0.161      c-0.009-0.012-0.009-0.025-0.005-0.044c0.009-0.017,0.015-0.028,0.031-0.034l0.058-0.039c0.012-0.008,0.028-0.008,0.046-0.006      c0.016,0.004,0.027,0.012,0.035,0.021l0.199,0.348C246.104,30.956,246.105,31.016,246.083,31.079L246.083,31.079z       M245.256,30.588l-0.589-0.108l-0.156,0.462l0.591,0.105L245.256,30.588z"></path>				</g>			</g>		</g>		<g>			<g>				<g>					<path fill="#FFFFFF" d="M297.98,41.389c-0.008-0.012-0.006-0.026,0-0.045l0.037-0.113c0.006-0.018,0.017-0.032,0.029-0.039      c0.016-0.011,0.029-0.011,0.047-0.008l0.061,0.008c0.046,0.01,0.087,0.01,0.125,0.004c0.043-0.004,0.076-0.015,0.103-0.03      c0.05-0.024,0.091-0.037,0.136-0.028l0.059,0.008c0.039,0.01,0.074,0.033,0.099,0.074c0.022,0.035,0.067,0.066,0.132,0.088      c-0.018,0.094-0.004,0.178,0.035,0.251l-0.059-0.006c-0.067-0.012-0.131-0.034-0.186-0.067c-0.055-0.031-0.098-0.07-0.13-0.113      c-0.055,0.029-0.118,0.046-0.188,0.059c-0.065,0.009-0.135,0.006-0.203-0.006l-0.061-0.01      C298.001,41.411,297.989,41.403,297.98,41.389z M300.206,42.072c0.012,0.016,0.01,0.03,0.003,0.048l-0.038,0.114      c-0.004,0.016-0.014,0.028-0.028,0.037c-0.014,0.009-0.031,0.012-0.048,0.009l-0.059-0.012      c-0.069-0.012-0.134-0.032-0.187-0.067c-0.052-0.029-0.094-0.066-0.13-0.111c-0.056,0.026-0.116,0.047-0.187,0.055      c-0.068,0.014-0.137,0.01-0.203-0.004c-0.069-0.012-0.13-0.033-0.184-0.065c-0.058-0.032-0.099-0.069-0.129-0.114      c-0.059,0.027-0.121,0.048-0.188,0.057c-0.068,0.012-0.138,0.008-0.205-0.004c-0.065-0.012-0.129-0.034-0.185-0.066      c-0.055-0.03-0.1-0.071-0.133-0.111c-0.051,0.026-0.115,0.044-0.182,0.053c-0.068,0.012-0.139,0.008-0.207-0.006l-0.059-0.008      c-0.019-0.004-0.027-0.01-0.037-0.025c-0.008-0.01-0.006-0.027,0-0.043l0.039-0.117c0.005-0.018,0.014-0.029,0.029-0.037      c0.015-0.01,0.027-0.012,0.047-0.01l0.059,0.012c0.047,0.009,0.089,0.009,0.127,0.002c0.042-0.004,0.074-0.014,0.102-0.028      c0.047-0.026,0.09-0.038,0.131-0.029l0.062,0.009c0.041,0.01,0.075,0.033,0.104,0.073c0.01,0.021,0.035,0.044,0.065,0.062      c0.032,0.018,0.07,0.031,0.115,0.04c0.044,0.009,0.087,0.009,0.125,0.004c0.042-0.004,0.073-0.015,0.104-0.03      c0.047-0.029,0.09-0.037,0.131-0.029l0.059,0.01c0.043,0.008,0.077,0.031,0.104,0.073c0.012,0.021,0.032,0.04,0.067,0.062      c0.033,0.018,0.07,0.031,0.114,0.041c0.046,0.005,0.085,0.008,0.126,0.002c0.042-0.006,0.073-0.018,0.1-0.031      c0.05-0.023,0.095-0.035,0.136-0.027l0.06,0.01c0.042,0.006,0.073,0.031,0.104,0.072c0.01,0.021,0.033,0.042,0.062,0.062      c0.031,0.018,0.072,0.031,0.117,0.04l0.057,0.009C300.188,42.053,300.2,42.058,300.206,42.072z M298.954,41.493      c-0.039-0.067-0.044-0.138-0.019-0.223c0.021-0.055,0.054-0.105,0.102-0.146c0.048-0.043,0.104-0.069,0.162-0.081l0.262-0.774      c0.005-0.019,0.02-0.03,0.028-0.038c0.018-0.01,0.032-0.012,0.051-0.01l0.351,0.062c0.021,0.007,0.032,0.015,0.039,0.026      c0.006,0.012,0.008,0.026,0.002,0.045l-0.019,0.055c-0.005,0.018-0.019,0.031-0.034,0.041c-0.012,0.01-0.025,0.012-0.042,0.01      l-0.176-0.033l-0.042,0.114l0.175,0.032c0.017,0.006,0.031,0.012,0.038,0.023c0.007,0.015,0.009,0.029,0.001,0.047      l-0.019,0.056c-0.006,0.018-0.016,0.028-0.03,0.038c-0.011,0.009-0.027,0.014-0.05,0.011l-0.172-0.034l-0.043,0.117      l0.179,0.031c0.019,0.004,0.028,0.01,0.036,0.024c0.005,0.011,0.011,0.026,0,0.043l-0.018,0.06      c-0.005,0.018-0.016,0.029-0.031,0.037c-0.012,0.01-0.029,0.012-0.045,0.01l-0.176-0.033l-0.029,0.086      c0.045,0.029,0.076,0.072,0.095,0.125c0.016,0.053,0.014,0.107-0.009,0.167c-0.025,0.081-0.075,0.144-0.152,0.19      c-0.075,0.043-0.157,0.061-0.236,0.047C299.051,41.602,298.991,41.561,298.954,41.493z M300.357,41.613      c0.014,0.01,0.014,0.027,0.009,0.043l-0.039,0.115c-0.007,0.018-0.015,0.029-0.029,0.038c-0.015,0.009-0.028,0.013-0.048,0.009      l-0.061-0.009c-0.071-0.015-0.135-0.036-0.186-0.067c-0.055-0.033-0.094-0.07-0.129-0.114      c-0.055,0.028-0.117,0.048-0.186,0.059c-0.067,0.009-0.141,0.006-0.205-0.006l-0.058-0.015c0.08-0.053,0.142-0.123,0.188-0.211      c0.068,0.004,0.13-0.008,0.178-0.035c0.047-0.025,0.088-0.034,0.129-0.025l0.062,0.009c0.039,0.005,0.072,0.032,0.1,0.073      c0.014,0.021,0.035,0.043,0.066,0.061s0.072,0.033,0.117,0.041l0.057,0.01C300.343,41.59,300.355,41.599,300.357,41.613z"></path>				</g>			</g>		</g>	</g></g><g>	<g>		<path d="M292.447,62.353c0,3.521-2.854,6.052-6.374,5.65c-3.521-0.4-6.375-3.581-6.375-7.102c-0.001-3.521,2.854-6.05,6.375-5.649   C289.593,55.654,292.447,58.833,292.447,62.353z"></path>		<path fill="#FFFFFF" d="M285.346,55.21c0.238,0,0.481,0.014,0.729,0.042c3.52,0.402,6.374,3.581,6.374,7.101   c0,3.274-2.47,5.692-5.646,5.692c-0.238,0-0.482-0.014-0.729-0.042c-3.521-0.4-6.375-3.581-6.375-7.102   C279.697,57.627,282.167,55.21,285.346,55.21 M285.346,54.06L285.346,54.06c-1.853,0-3.566,0.694-4.828,1.954   c-1.271,1.269-1.971,3.004-1.97,4.888c0,4.082,3.317,7.78,7.396,8.244c0.287,0.033,0.576,0.049,0.859,0.049   c3.874,0,6.795-2.942,6.795-6.843c0-4.08-3.315-7.777-7.394-8.244C285.917,54.076,285.628,54.06,285.346,54.06L285.346,54.06z"></path>	</g>	<g>		<g>			<path d="M292.447,62.353c0,3.521-2.854,6.052-6.374,5.65c-3.521-0.4-6.375-3.581-6.375-7.102    c-0.001-3.521,2.854-6.05,6.375-5.649C289.593,55.654,292.447,58.833,292.447,62.353z"></path>			<path fill="#CCCCCC" d="M285.346,56.361L285.346,56.361c0.196,0,0.397,0.011,0.598,0.034c2.951,0.337,5.354,3.01,5.354,5.958    c0,2.589-1.934,4.542-4.494,4.542c-0.197,0-0.398-0.012-0.6-0.035c-2.952-0.335-5.354-3.009-5.354-5.959    c0-1.268,0.459-2.425,1.293-3.259C282.971,56.816,284.107,56.361,285.346,56.361 M285.346,55.21    c-3.179,0-5.647,2.417-5.646,5.691c0,3.521,2.854,6.701,6.375,7.102c0.246,0.028,0.49,0.042,0.729,0.042    c3.176,0,5.646-2.418,5.646-5.692c0-3.52-2.854-6.698-6.374-7.101C285.827,55.224,285.584,55.21,285.346,55.21L285.346,55.21z"></path>		</g>		<g>			<g>				<path fill="#0086FF" d="M284.284,63.179v-2.104c0-0.988,0.803-1.698,1.79-1.586c0.988,0.113,1.79,1.006,1.79,1.994v2.104     L284.284,63.179z"></path>				<path d="M287.995,63.732l-3.843-0.437v-2.221c0-1.058,0.861-1.834,1.937-1.716c1.052,0.121,1.906,1.073,1.906,2.124V63.732z      M284.415,63.062l3.317,0.378v-1.958c0-0.922-0.75-1.759-1.674-1.865c-0.92-0.097-1.645,0.557-1.645,1.457L284.415,63.062     L284.415,63.062z"></path>			</g>			<path fill="#0086FF" d="M283.562,61.352c-0.008,0-0.016,0-0.021-0.001l-0.658-0.074c-0.107-0.012-0.186-0.109-0.173-0.216    s0.108-0.193,0.216-0.172l0.658,0.074c0.107,0.012,0.186,0.109,0.173,0.216C283.745,61.278,283.66,61.352,283.562,61.352z"></path>			<path fill="#0086FF" d="M284.297,59.661c-0.054,0-0.105-0.022-0.146-0.065l-0.465-0.518c-0.072-0.08-0.065-0.204,0.015-0.276    c0.079-0.072,0.202-0.066,0.276,0.015l0.465,0.518c0.072,0.08,0.065,0.204-0.015,0.276    C284.391,59.644,284.344,59.661,284.297,59.661z"></path>			<path fill="#0086FF" d="M286.072,59.127c-0.108,0-0.195-0.088-0.195-0.196v-0.658c0-0.108,0.087-0.196,0.195-0.196    c0.107,0,0.195,0.088,0.195,0.196v0.658C286.268,59.04,286.182,59.127,286.072,59.127z"></path>			<path fill="#0086FF" d="M287.848,60.065c-0.054,0-0.106-0.022-0.146-0.066c-0.071-0.081-0.063-0.205,0.017-0.276l0.467-0.412    c0.08-0.072,0.203-0.064,0.275,0.017c0.071,0.081,0.064,0.205-0.018,0.276l-0.465,0.412    C287.939,60.049,287.895,60.065,287.848,60.065z"></path>			<path fill="#0086FF" d="M289.241,62c-0.007,0-0.015,0-0.022-0.001l-0.658-0.076c-0.106-0.012-0.185-0.109-0.172-0.217    c0.014-0.106,0.096-0.191,0.217-0.172l0.658,0.076c0.107,0.012,0.186,0.109,0.172,0.217C289.424,61.927,289.34,62,289.241,62z"></path>			<g>				<g>					<path fill="#0086FF" d="M288.396,64.204c0,0.204-0.166,0.352-0.367,0.329l-3.909-0.445c-0.202-0.023-0.368-0.209-0.368-0.413      v-0.187c0-0.204,0.166-0.353,0.368-0.329l3.909,0.444c0.201,0.023,0.367,0.209,0.367,0.413V64.204z"></path>				</g>				<path d="M288.07,64.665c-0.02,0-0.037-0.001-0.057-0.003l-3.908-0.445c-0.268-0.031-0.484-0.274-0.484-0.542v-0.187     c0-0.277,0.24-0.492,0.514-0.458l3.909,0.444c0.267,0.031,0.483,0.274,0.483,0.542v0.188     C288.527,64.462,288.327,64.665,288.07,64.665z M284.102,63.289c-0.138,0-0.219,0.084-0.219,0.199v0.187     c0,0.138,0.115,0.268,0.252,0.283l3.936,0.447c0.115,0,0.197-0.084,0.197-0.201v-0.188c0-0.138-0.115-0.268-0.252-0.283     l-3.91-0.444C284.104,63.289,284.104,63.289,284.102,63.289z"></path>			</g>		</g>	</g></g><g>	<g>		<path d="M222.645,49.335c0.002,3.522-2.854,6.005-6.375,5.548c-3.52-0.457-6.375-3.682-6.375-7.203   c0-3.52,2.854-6.004,6.375-5.547S222.645,45.814,222.645,49.335z"></path>		<path fill="#FFFFFF" d="M215.439,42.079c0.271,0,0.549,0.018,0.828,0.054c3.521,0.457,6.375,3.682,6.375,7.202   c0.002,3.241-2.416,5.602-5.545,5.602c-0.271,0-0.548-0.018-0.828-0.054c-3.521-0.457-6.377-3.682-6.377-7.203   C209.895,44.441,212.312,42.079,215.439,42.079 M215.439,40.928L215.439,40.928c-3.817,0-6.696,2.903-6.696,6.751   c0,4.073,3.31,7.816,7.378,8.344c0.326,0.042,0.654,0.064,0.979,0.064c1.83,0,3.521-0.683,4.76-1.922   c1.248-1.249,1.937-2.965,1.936-4.831c0-4.072-3.311-7.814-7.377-8.342C216.091,40.95,215.764,40.928,215.439,40.928   L215.439,40.928z"></path>	</g>	<g>		<g>			<path d="M222.645,49.335c0.002,3.522-2.854,6.005-6.375,5.548c-3.52-0.457-6.375-3.682-6.375-7.203    c0-3.52,2.854-6.004,6.375-5.547S222.645,45.814,222.645,49.335z"></path>			<path fill="#CCCCCC" d="M215.439,43.229L215.439,43.229c0.225,0,0.453,0.015,0.681,0.044c2.963,0.385,5.373,3.104,5.373,6.062    c0.001,1.251-0.447,2.388-1.263,3.203c-0.805,0.805-1.918,1.249-3.133,1.249c-0.224,0-0.453-0.015-0.681-0.044    c-2.963-0.385-5.374-3.104-5.374-6.062C211.044,45.101,212.893,43.229,215.439,43.229 M215.439,42.079    c-3.129,0-5.547,2.362-5.547,5.601c0,3.521,2.855,6.746,6.377,7.203c0.28,0.037,0.558,0.054,0.828,0.054    c3.129,0,5.547-2.361,5.545-5.602c0-3.521-2.854-6.745-6.375-7.202C215.988,42.096,215.712,42.079,215.439,42.079L215.439,42.079    z"></path>		</g>		<g>			<g>				<path fill="#FF0000" d="M213.381,48.826c-0.293-0.038-0.529-0.379-0.529-0.76c0-0.383,0.236-0.662,0.529-0.623h0.016     c0.477,0.062,0.931,0.044,1.344-0.043c0.412-0.086,0.785-0.242,1.098-0.451c0.311-0.209,0.564-0.475,0.739-0.783v4.764     c-0.175-0.354-0.429-0.686-0.739-0.975c-0.312-0.292-0.686-0.542-1.098-0.736c-0.413-0.193-0.867-0.33-1.344-0.391     L213.381,48.826z"></path>				<path fill="#FF0000" d="M216.576,51.173c-0.092,0-0.178-0.051-0.219-0.136c-0.158-0.321-0.396-0.634-0.688-0.904     c-0.295-0.276-0.645-0.509-1.035-0.694c-0.404-0.189-0.832-0.313-1.271-0.369c-0.433-0.056-0.759-0.496-0.759-1.003     c0-0.496,0.31-0.87,0.72-0.87c0.011,0,0.075,0.004,0.087,0.006c0.48,0.058,0.883,0.043,1.275-0.04     c0.373-0.078,0.723-0.221,1.013-0.416c0.284-0.191,0.509-0.427,0.663-0.701c0.055-0.096,0.162-0.142,0.273-0.115     c0.106,0.028,0.182,0.125,0.182,0.235v4.764c0,0.113-0.077,0.211-0.188,0.237C216.613,51.171,216.596,51.173,216.576,51.173z      M213.361,47.685c-0.164,0-0.269,0.171-0.269,0.381c0,0.281,0.168,0.499,0.318,0.518c0.503,0.064,0.979,0.203,1.431,0.414     c0.438,0.207,0.828,0.469,1.16,0.779c0.119,0.11,0.229,0.226,0.33,0.345v-3.257c-0.109,0.103-0.229,0.199-0.359,0.287     c-0.348,0.232-0.746,0.396-1.185,0.487c-0.446,0.094-0.925,0.111-1.425,0.046H213.361z"></path>			</g>			<g>				<path fill="#FF0000" d="M216.43,48.176l0.664,0.086c0.166,0.022,0.301,0.173,0.301,0.339c0,0.167-0.135,0.283-0.301,0.261     l-0.664-0.086V48.176z"></path>				<g>					<path fill="#FF0000" d="M217.668,49.357c0.084,0.073,0.204,0.072,0.268-0.002c0.129-0.15,0.203-0.342,0.217-0.553      c0.016-0.279-0.078-0.564-0.267-0.802c-0.069-0.086-0.19-0.108-0.268-0.048c-0.043,0.031-0.063,0.081-0.063,0.133      c0,0.045,0.016,0.092,0.047,0.133c0.121,0.15,0.182,0.334,0.17,0.514c-0.008,0.135-0.056,0.256-0.138,0.352      C217.568,49.16,217.585,49.283,217.668,49.357z"></path>					<path fill="#FF0000" d="M218.17,49.95c0.079,0.081,0.198,0.089,0.27,0.021c0.297-0.293,0.459-0.699,0.459-1.141      c0-0.459-0.17-0.914-0.48-1.289c-0.07-0.088-0.191-0.106-0.27-0.045c-0.039,0.031-0.062,0.08-0.062,0.13      c0,0.046,0.019,0.097,0.052,0.136c0.244,0.295,0.379,0.658,0.379,1.018c0,0.352-0.127,0.671-0.361,0.9      C218.085,49.748,218.092,49.869,218.17,49.95z"></path>					<path fill="#FF0000" d="M219.688,48.932c0-0.666-0.252-1.331-0.709-1.874c-0.071-0.085-0.192-0.104-0.27-0.042      c-0.039,0.033-0.061,0.078-0.061,0.129c0,0.047,0.018,0.098,0.053,0.14c0.391,0.462,0.605,1.03,0.605,1.599      c0,0.556-0.209,1.062-0.586,1.422c-0.07,0.068-0.066,0.189,0.012,0.27c0.076,0.082,0.197,0.092,0.269,0.023      C219.443,50.176,219.688,49.584,219.688,48.932z"></path>				</g>			</g>		</g>	</g></g><g>	<path d="M240.159,82.045c-0.126,4.52,2.995,8.744,6.973,9.436c3.978,0.693,7.302-2.408,7.429-6.924  c0.125-4.521-2.998-8.744-6.976-9.437C243.609,74.427,240.286,77.525,240.159,82.045L240.159,82.045z"></path>	<g>		<path d="M240.159,82.045c-0.126,4.52,2.995,8.744,6.973,9.436c3.978,0.693,7.302-2.408,7.429-6.924   c0.125-4.521-2.998-8.744-6.976-9.437C243.609,74.427,240.286,77.525,240.159,82.045L240.159,82.045z"></path>		<path fill="#FFFFFF" d="M246.48,75.023c0.36,0,0.729,0.032,1.104,0.097c3.978,0.692,7.101,4.916,6.976,9.437   c-0.115,4.091-2.854,7.021-6.324,7.021c-0.36,0-0.729-0.031-1.104-0.097c-3.978-0.691-7.099-4.916-6.973-9.436   C240.273,77.951,243.014,75.023,246.48,75.023 M246.48,74.023c-4.045,0-7.193,3.437-7.321,7.994   c-0.14,4.99,3.36,9.677,7.802,10.449c0.426,0.074,0.854,0.111,1.273,0.111c4.048,0,7.195-3.436,7.324-7.992   c0.139-4.989-3.361-9.677-7.803-10.45C247.331,74.061,246.902,74.023,246.48,74.023L246.48,74.023z"></path>	</g>	<g>		<path d="M272.223,93.661c-0.029-1.497-2.029-3.877-5.619-3.565c-2.627,0.248-6.264,2.121-10.008,5.618   c-2.763,2.572-5.289,6.752-5.494,13.996C250.93,118.375,272.232,105.562,272.223,93.661L272.223,93.661z"></path>		<path fill="#FFFFFF" d="M267.234,90.068c3.19,0,4.959,2.187,4.986,3.593c0.01,9.175-12.65,18.892-18.373,18.892   c-1.699,0-2.787-0.858-2.748-2.843c0.205-7.244,2.732-11.424,5.494-13.996c3.745-3.497,7.381-5.37,10.008-5.618   C266.818,90.077,267.029,90.068,267.234,90.068 M267.234,89.068c-0.232,0-0.473,0.01-0.719,0.032   c-3.045,0.287-6.906,2.432-10.604,5.883c-3.677,3.424-5.632,8.37-5.812,14.699c-0.023,1.218,0.301,2.175,0.967,2.854   c0.662,0.675,1.598,1.017,2.781,1.017c3.117,0,7.944-2.52,12.014-6.27c4.682-4.315,7.363-9.281,7.359-13.623   C273.186,91.772,271.032,89.068,267.234,89.068L267.234,89.068z"></path>	</g>	<g>		<path d="M216.523,77.226c0.539-19.401,14.752-32.665,31.826-29.691c17.078,2.978,30.424,21.037,29.885,40.441   c-0.539,19.4-14.756,32.662-31.832,29.687C229.333,114.688,215.98,96.626,216.523,77.226L216.523,77.226z"></path>		<path fill="#FFFFFF" d="M243.604,47.118c1.553,0,3.137,0.136,4.748,0.417c17.078,2.978,30.424,21.037,29.885,40.441   c-0.488,17.568-12.194,30.104-27.082,30.104c-1.553,0-3.139-0.136-4.75-0.417c-17.07-2.975-30.422-21.036-29.881-40.437   C217.014,59.655,228.717,47.118,243.604,47.118 M243.605,46.118h-0.002c-7.533,0-14.522,3.123-19.68,8.792   c-5.176,5.69-8.158,13.606-8.4,22.288c-0.553,19.808,13.223,38.402,30.707,41.45c1.646,0.287,3.302,0.432,4.922,0.432   c7.535,0,14.524-3.122,19.682-8.791c5.176-5.69,8.16-13.604,8.4-22.285c0.551-19.81-13.228-38.406-30.713-41.455   C246.879,46.263,245.225,46.118,243.605,46.118L243.605,46.118z"></path>	</g>	<g>		<path d="M242.354,82.43c0.088-3.117,2.42-5.295,5.166-4.817c2.738,0.479,4.932,3.444,4.844,6.56   c-0.088,3.117-2.42,5.294-5.164,4.815C244.457,88.511,242.264,85.623,242.354,82.43L242.354,82.43z"></path>		<path fill="#FFFFFF" d="M246.768,77.546c0.246,0,0.496,0.021,0.752,0.066c2.738,0.479,4.932,3.444,4.844,6.56   c-0.08,2.828-2.006,4.881-4.411,4.881c-0.247,0-0.498-0.021-0.753-0.066c-2.741-0.477-4.936-3.364-4.846-6.558   C242.434,79.602,244.359,77.547,246.768,77.546 M246.768,76.546L246.768,76.546c-2.992,0-5.319,2.517-5.414,5.855   c-0.103,3.675,2.391,7,5.674,7.571c0.308,0.053,0.619,0.081,0.925,0.081c2.989,0,5.315-2.516,5.411-5.853   c0.102-3.61-2.442-7.008-5.672-7.573C247.383,76.574,247.072,76.546,246.768,76.546L246.768,76.546z"></path>	</g>	<path fill="#B3B3B3" d="M240.159,82.045c-0.126,4.52,2.995,8.744,6.973,9.436c3.978,0.693,7.302-2.408,7.429-6.924  c0.125-4.521-2.998-8.744-6.976-9.437C243.609,74.427,240.286,77.525,240.159,82.045L240.159,82.045z"></path>	<g>		<path fill="#B3B3B3" d="M222.443,72.461c-0.176,1.382,2.365,1.666,3.947,1.706c4.965-0.151,13.397-3.54,21.691-2.093   c5.83,1.014,11.984,5.219,16.13,7.35c1.425,0.72,3.456,1.935,6.401,2.603c1.091,0.269,2.203,0.149,2.158-0.952   c-0.189-7.788-8.543-24.666-24.59-27.458C235.979,51.488,223.727,61.018,222.443,72.461L222.443,72.461z"></path>	</g>	<g>		<path fill="#B3B3B3" d="M222.3,84.965c-0.67,11.785,19.789,31.869,20.029,23.219c0.198-7.248-2.074-12.262-4.663-15.766   c-3.52-4.688-6.945-7.864-9.607-8.957C224.521,81.906,222.409,83.498,222.3,84.965L222.3,84.965z"></path>	</g></g><g>	<g>		<path fill="#FF0000" d="M182.859,164.102c-0.395,0.137-1.044,0.154-1.446,0.043l-25.237-7.033c-0.401-0.111-0.73,0.138-0.73,0.555   v9.693c0,0.418,0.329,0.851,0.73,0.961l7.198,2.008c0.401,0.111,1.059,0.295,1.46,0.406l16.579,4.621   c0.401,0.111,1.052,0.094,1.446-0.043l5.339-1.828c0.395-0.135,1.038-0.355,1.434-0.491l5.778-1.979   c0.395-0.136,0.717-0.587,0.717-1.004v-9.693c0-0.418-0.322-0.647-0.717-0.512L182.859,164.102z"></path>	</g>	<path fill="#FFFFFF" d="M155.989,157.084c0.06,0,0.123,0.009,0.188,0.025l25.237,7.035c0.176,0.049,0.399,0.071,0.628,0.071  c0.294,0,0.597-0.039,0.817-0.114l12.551-4.3c0.076-0.026,0.15-0.038,0.221-0.038c0.287,0,0.496,0.215,0.496,0.551v9.693  c0,0.417-0.322,0.868-0.717,1.004l-5.778,1.979c-0.396,0.136-1.039,0.356-1.434,0.491l-5.339,1.828  c-0.221,0.076-0.523,0.115-0.817,0.115c-0.229,0-0.453-0.023-0.628-0.072l-16.579-4.621c-0.401-0.111-1.059-0.295-1.46-0.406  l-7.198-2.008c-0.401-0.11-0.73-0.543-0.73-0.961v-9.693C155.446,157.314,155.677,157.084,155.989,157.084 M155.989,156.216  L155.989,156.216L155.989,156.216c-0.392,0-0.753,0.152-1.017,0.431c-0.253,0.267-0.394,0.629-0.394,1.02v9.693  c0,0.81,0.587,1.582,1.366,1.798l7.197,2.007l0.73,0.203l0.731,0.203l16.578,4.621c0.312,0.086,0.64,0.104,0.861,0.104  c0.234,0,0.689-0.021,1.102-0.163l5.336-1.828l0.717-0.246l0.719-0.246l5.777-1.979c0.742-0.255,1.303-1.04,1.303-1.824v-9.693  c0-0.81-0.586-1.418-1.363-1.418c-0.168,0-0.337,0.027-0.503,0.086l-12.549,4.299c-0.093,0.031-0.288,0.068-0.537,0.068  c-0.23,0-0.362-0.031-0.396-0.041l-25.236-7.035C156.269,156.236,156.128,156.216,155.989,156.216L155.989,156.216L155.989,156.216  z"></path></g><g>	<g>		<g>			<g>				<path fill="#FFFFFF" d="M301.766,115.667l-0.031,0.161l-2.965,15.156l-100.82,39.76l3.188-15.393L301.766,115.667z"></path>				<path fill="#FFFFFF" d="M197.948,171.125c-0.089,0-0.175-0.031-0.245-0.09c-0.105-0.09-0.156-0.23-0.128-0.368l3.188-15.394     c0.025-0.125,0.113-0.229,0.232-0.275l100.629-39.685c0.13-0.05,0.275-0.027,0.383,0.062c0.105,0.088,0.157,0.229,0.131,0.365     l-2.996,15.318c-0.024,0.127-0.113,0.233-0.233,0.28l-100.82,39.759C198.043,171.116,197.995,171.125,197.948,171.125z      M201.467,155.63l-3.003,14.502l99.972-39.424l2.822-14.432L201.467,155.63z"></path>			</g>		</g>	</g>	<g>		<path fill="#0086FF" d="M201.23,155.436l8.069-3.184l2.597-1.023c4.793-1.889,6.447-1.104,5.662,2.683   c-0.492,2.382-0.904,3.42-1.865,4.633c-1.198,1.534-2.612,2.467-5.467,3.636l-0.776,0.326c-1.054,0.414-0.681,0.27-1.086,0.45   l-0.619,0.243l-3.31,1.304l-0.802,3.879l-5.534,2.185L201.23,155.436z M208.623,159.645c1.646-0.691,1.74-0.729,2.113-1.021   c0.578-0.456,0.871-1.051,1.123-2.276c0.344-1.656-0.063-2.016-1.642-1.394l-0.649,0.256l-3.493,1.379l-0.915,4.422   L208.623,159.645z"></path>		<path fill="#0086FF" d="M235.914,142.193c1.691-0.084,2.566,0.488,2.691,1.813c0.07,0.618-0.067,1.693-0.467,3.62   c-0.484,2.336-0.654,3.03-1.037,3.909c-1.4,3.344-4.06,5.353-10.553,7.911c-3.369,1.328-4.93,1.736-6.207,1.595   c-2.025-0.222-2.354-1.238-1.624-4.776c0.859-4.15,1.46-5.679,2.851-7.187c1.803-1.981,4.173-3.416,8.438-5.101   C233.471,142.616,234.684,142.243,235.914,142.193z M224.777,152.378c-0.153,0.603-0.241,1.032-0.241,1.032   c-0.771,3.721-0.57,3.85,3.356,2.301c3.246-1.279,3.781-1.95,4.564-5.736c0.459-2.224,0.502-2.699,0.238-3.074   c-0.326-0.476-1-0.377-3.258,0.515c-2.535,1-3.293,1.508-3.949,2.62c-0.225,0.4-0.432,0.982-0.609,1.845L224.777,152.378z"></path>		<path fill="#0086FF" d="M245.1,148.842l8.657-3.412l-0.719,3.469l-14.19,5.598l3.131-15.13l5.535-2.183L245.1,148.842z"></path>		<path fill="#0086FF" d="M260.489,145.961l-5.534,2.182l3.131-15.129l5.534-2.184L260.489,145.961z"></path>		<path fill="#0086FF" d="M282.447,132.051l-0.094,0.454c-0.593,2.858-1.271,3.938-3.463,5.616c-1.42,1.102-2.69,1.748-5.781,2.967   c-3.616,1.428-4.293,1.672-5.271,1.871c-2.758,0.564-3.879-0.326-3.577-2.882c0.053-0.667,0.129-1.029,0.426-2.604l0.143-0.828   l0.176-0.838c0.49-2.383,1.291-3.904,2.883-5.43c1.909-1.814,3.547-2.731,8.37-4.635c3.524-1.389,4.577-1.68,5.724-1.59   c1.229,0.099,1.688,0.897,1.43,2.561c-0.062,0.441-0.11,0.669-0.229,1.383l-5.474,2.158c0.028-0.137,0.017-0.215,0.03-0.284   c0.273-1.462-0.227-1.515-3.07-0.393c-2.01,0.791-2.875,1.403-3.383,2.354c-0.325,0.606-0.561,1.473-1.186,4.489   c-0.488,2.356,0.053,2.623,2.928,1.488c2.783-1.097,3.574-1.765,3.885-3.261c0.004-0.021,0.057-0.271,0.062-0.44L282.447,132.051z   "></path>		<path fill="#0086FF" d="M290.964,125.609l8.78-3.463l-0.577,2.791l-8.781,3.463l-0.608,2.947l9.584-3.779l-0.689,3.335   l-15.119,5.961l3.131-15.129l14.935-5.89l-0.69,3.335l-9.396,3.707L290.964,125.609z"></path>	</g></g><g>	<g>		<g>			<path fill="#FF0000" d="M170.886,148.818l-27.316-6.767l13.871-23.545c7.175,1.777,13.037,8.848,13.43,16.021    c0.014,0.254,0.02,0.508,0.02,0.763L170.886,148.818z"></path>			<path fill="#FFFFFF" d="M157.44,118.508c7.175,1.777,13.037,8.848,13.43,16.021c0.014,0.253,0.02,0.507,0.02,0.762l-0.004,13.527    l-27.316-6.767L157.44,118.508 M157.44,115.508c-1.044,0-2.036,0.547-2.584,1.477l-13.871,23.545    c-0.48,0.814-0.548,1.812-0.181,2.685c0.367,0.873,1.125,1.521,2.044,1.75l27.316,6.768c0.238,0.059,0.48,0.088,0.721,0.088    c0.663,0,1.315-0.221,1.849-0.637c0.727-0.568,1.151-1.439,1.151-2.363l0.004-13.527c0-0.311-0.007-0.618-0.024-0.925    c-0.471-8.601-7.222-16.67-15.704-18.771C157.922,115.536,157.68,115.508,157.44,115.508L157.44,115.508z"></path>		</g>	</g>	<g>		<g>			<path fill="#FF0000" d="M70.837,112.276c0-0.255,0.006-0.505,0.02-0.75c0.393-6.979,6.254-11.146,13.43-9.368l13.871,30.417    l-27.316-6.767L70.837,112.276z"></path>			<path fill="#FFFFFF" d="M81.041,101.749c1.04,0,2.126,0.132,3.245,0.41l13.871,30.417l-27.316-6.767l-0.004-13.532    c0-0.255,0.006-0.505,0.02-0.75C71.188,105.635,75.416,101.749,81.041,101.749 M81.042,98.749L81.042,98.749    c-7.343,0-12.763,5.186-13.18,12.609c-0.017,0.301-0.024,0.607-0.024,0.918l0.004,13.533c0,1.378,0.94,2.58,2.279,2.911    l27.316,6.767c0.239,0.061,0.481,0.089,0.721,0.089c0.88,0,1.73-0.388,2.308-1.084c0.735-0.886,0.899-2.113,0.421-3.161    l-13.871-30.417c-0.38-0.833-1.12-1.447-2.008-1.667C83.674,98.916,82.339,98.749,81.042,98.749L81.042,98.749z"></path>		</g>	</g>	<g>		<g>			<path fill="#FF0000" d="M170.886,148.818l-27.316-6.767l13.871-23.545c7.175,1.777,13.037,8.848,13.43,16.021    c0.014,0.254,0.02,0.508,0.02,0.763L170.886,148.818z"></path>			<path d="M157.44,118.508c7.175,1.777,13.037,8.848,13.43,16.021c0.014,0.253,0.02,0.507,0.02,0.762l-0.004,13.527l-27.316-6.767    L157.44,118.508 M157.44,117.013c-0.521,0-1.015,0.273-1.288,0.736l-13.871,23.545c-0.24,0.407-0.273,0.901-0.09,1.338    c0.183,0.435,0.561,0.759,1.019,0.871l27.316,6.767c0.119,0.029,0.239,0.045,0.359,0.045c0.33,0,0.655-0.109,0.921-0.317    c0.362-0.283,0.573-0.717,0.574-1.177l0.004-13.528c0-0.282-0.007-0.562-0.022-0.843c-0.429-7.835-6.825-15.474-14.562-17.391    C157.68,117.028,157.56,117.013,157.44,117.013L157.44,117.013z"></path>		</g>	</g>	<g>		<g>			<path fill="#FF0000" d="M70.837,112.276c0-0.255,0.006-0.505,0.02-0.75c0.393-6.979,6.254-11.146,13.43-9.368l13.871,30.417    l-27.316-6.767L70.837,112.276z"></path>			<path d="M81.041,101.749c1.04,0,2.126,0.132,3.245,0.41l13.871,30.417l-27.316-6.767l-0.004-13.532    c0-0.255,0.006-0.505,0.02-0.75C71.188,105.635,75.416,101.749,81.041,101.749 M81.042,100.254L81.042,100.254    c-6.505,0-11.307,4.601-11.677,11.188c-0.015,0.273-0.022,0.551-0.022,0.834l0.004,13.533c0,0.687,0.469,1.285,1.135,1.45    l27.316,6.767c0.119,0.029,0.24,0.043,0.359,0.043c0.438,0,0.862-0.192,1.15-0.539c0.366-0.44,0.448-1.053,0.21-1.574    l-13.871-30.417c-0.189-0.415-0.558-0.721-1-0.831C83.43,100.407,82.218,100.254,81.042,100.254L81.042,100.254z"></path>		</g>	</g></g><g>	<path fill="none" d="M61.517,147.273l9.552,2.607L61.517,147.273z"></path>	<polygon fill="none" points="87.806,141.527 71.069,136.96 87.807,141.529  "></polygon>	<g>		<path fill="#FF0000" d="M61.517,146.439c0,0.459,0.362,0.933,0.804,1.054l7.944,2.168c0.442,0.121,1.166,0.317,1.607,0.438   l15.129,4.131c0.442,0.121,0.866,0.231,0.942,0.248c0,0,0,0,0.065,0c0.344,0,0.344,0,0.344,0c0.141-0.354,0.256-1.018,0.256-1.476   v-9.59c0-0.458-0.081-1.042-0.181-1.299c-0.099-0.257-0.983-0.685-1.425-0.806l-15.131-4.131   c-0.442-0.121-1.166-0.318-1.607-0.438l-7.944-2.169c-0.442-0.12-0.804,0.156-0.804,0.613L61.517,146.439L61.517,146.439z"></path>	</g>	<path fill="#FFFFFF" d="M88.07,140.562l-26.553-7.246v1.035l9.552,2.607l16.737,4.568h0.001l0.802,0.22v0.833v11.256v0.833  l-17.541-4.789l-9.552-2.606v1.037l26.025,7.104c0.154,0.042,0.312,0.062,0.467,0.062c0.912,0,1.6-0.705,1.6-1.642v-11.256  C89.609,141.672,88.948,140.805,88.07,140.562z"></path>	<path fill="#FFFFFF" d="M88.009,154.479c-0.065,0-0.133-0.009-0.204-0.027l-16.737-4.569l17.541,4.789v-0.833  C88.609,154.223,88.354,154.479,88.009,154.479z"></path>	<path fill="#FFFFFF" d="M88.609,142.581v-0.833l-0.802-0.219C88.249,141.65,88.609,142.124,88.609,142.581z"></path>	<polygon fill="#FFFFFF" points="71.069,136.96 61.517,134.354 61.517,134.354  "></polygon>	<line fill="none" x1="61.517" y1="151.079" x2="61.517" y2="148.311"></line>	<line fill="none" x1="61.517" y1="133.316" x2="61.517" y2="123.197"></line>	<line fill="none" x1="61.517" y1="147.273" x2="61.517" y2="147.273"></line>	<line fill="none" x1="61.517" y1="147.273" x2="61.517" y2="134.354"></line>	<line fill="none" x1="61.517" y1="148.311" x2="61.517" y2="147.273"></line>	<line fill="none" x1="61.517" y1="134.354" x2="61.517" y2="133.316"></line>	<line fill="none" x1="61.517" y1="134.354" x2="61.517" y2="134.354"></line></g><g>	<path fill="none" d="M304.555,127.227l2.872-0.985L304.555,127.227z"></path>	<polygon fill="none" points="310.205,114.08 310.205,114.08 307.427,115.032  "></polygon>	<g>		<path fill="#FF0000" d="M310.205,114.838c0-0.417-0.322-0.647-0.717-0.512l-1.346,0.461c-0.395,0.135-1.039,0.356-1.434,0.491   l-1.439,0.494c-0.395,0.135-0.877,0.377-1.074,0.539c-0.197,0.161-0.358,1.051-0.358,1.468v8.179c0,0.417,0.095,1.006,0.209,1.309   c0,0,0,0,0.288,0c0.068,0,0.068,0,0.068,0c0.084-0.021,0.474-0.149,0.867-0.284l1.439-0.494c0.395-0.135,1.039-0.356,1.434-0.491   l1.346-0.461c0.395-0.135,0.717-0.586,0.717-1.003V114.838z"></path>	</g>	<path fill="#FFFFFF" d="M307.427,126.242l-2.872,0.985l0,0l-0.718,0.246v-0.758v-9.694v-0.758l3.59-1.23l2.778-0.952v-0.885  c-0.062,0.013-0.125,0.011-0.188,0.032l-5.746,1.969c-0.742,0.255-1.303,1.039-1.303,1.824v9.694c0,0.809,0.586,1.419,1.364,1.419  c0.167,0,0.335-0.028,0.501-0.086l5.37-1.84v-0.917L307.427,126.242z"></path>	<path fill="#FFFFFF" d="M304.555,116.017l2.872-0.985l-3.59,1.23v0.758C303.837,116.604,304.159,116.152,304.555,116.017z"></path>	<polygon fill="#FFFFFF" points="307.427,126.242 310.205,125.29 310.205,125.29  "></polygon>	<path fill="#FFFFFF" d="M303.837,126.715v0.758l0.718-0.246c-0.076,0.026-0.15,0.039-0.221,0.039  C304.046,127.266,303.837,127.051,303.837,126.715z"></path>	<rect x="310.252" y="114.014" fill="#2A2829" width="0" height="0.1"></rect>	<path fill="#2A2829" d="M310.205,125.29l0.095-0.032c0.396-0.135,0.717-0.587,0.717-1.003v-9.694c0-0.336-0.209-0.551-0.497-0.551  c-0.068,0-0.144,0.012-0.22,0.039l-0.095,0.032V125.29z"></path>	<path fill="#2A2829" d="M311.017,114.56v-0.758l-0.717,0.246c0.076-0.026,0.15-0.039,0.22-0.039  C310.808,114.009,311.017,114.224,311.017,114.56z"></path>	<path fill="#2A2829" d="M310.3,125.258l-0.095,0.032l0,0l0.812-0.278v-0.758C311.017,124.671,310.694,125.123,310.3,125.258z"></path></g><g>	<polygon fill="#D4A686" points="310.933,56.051 181.822,100.173 241.389,134.41 362.417,86.264  "></polygon>	<path fill="#2A2829" d="M241.389,135.16c-0.131,0-0.26-0.034-0.375-0.1l-59.563-34.237c-0.255-0.147-0.401-0.429-0.373-0.723  c0.028-0.293,0.226-0.542,0.504-0.637l129.11-44.121c0.202-0.07,0.434-0.048,0.622,0.062l51.482,30.212  c0.247,0.145,0.39,0.418,0.368,0.704c-0.022,0.286-0.204,0.534-0.471,0.64l-121.029,48.146  C241.575,135.143,241.48,135.16,241.389,135.16z M183.63,100.347l57.817,33.231l119.267-47.445L310.85,56.872L183.63,100.347z"></path></g><g>	<polygon fill="#D4A686" points="0.75,86.14 60.754,75.745 181.806,100.173 130.649,114.268  "></polygon>	<path fill="#2A2829" d="M130.649,115.018c-0.053,0-0.106-0.006-0.159-0.017L0.591,86.873c-0.35-0.076-0.598-0.39-0.591-0.748  c0.008-0.359,0.269-0.662,0.622-0.723l60.004-10.396c0.092-0.016,0.185-0.015,0.276,0.003l121.052,24.428  c0.34,0.069,0.589,0.362,0.601,0.709s-0.215,0.657-0.55,0.75l-51.157,14.095C130.783,115.009,130.716,115.018,130.649,115.018z   M4.671,86.222l125.956,27.274l47.946-13.21L60.743,76.508L4.671,86.222z"></path></g><g>	<path fill="#FFFFFF" d="M58.206,80.084c1.056,0,2.02,0.077,2.755,0.239l36.444,8.023c0.063,0.014,0.101,0.031,0.158,0.046  c0.037,0.004,0.082,0.007,0.113,0.014l16.289,3.586c0.033,0.006,0.043,0.018,0.068,0.025c0.064,0.014,0.143,0.021,0.204,0.034  l36.445,8.022c2.039,0.449,1.551,1.381-1.09,2.078l-14.243,3.763c-1.689,0.446-3.854,0.689-5.729,0.689  c-1.056,0-2.021-0.077-2.755-0.239l-36.444-8.022c-0.062-0.014-0.1-0.031-0.158-0.046c-0.035-0.005-0.083-0.006-0.114-0.015  L73.86,94.696c-0.031-0.007-0.04-0.019-0.067-0.025c-0.064-0.013-0.142-0.021-0.204-0.033l-36.444-8.024  c-2.04-0.448-1.551-1.381,1.088-2.077l14.245-3.763C54.166,80.328,56.331,80.084,58.206,80.084 M58.206,79.503  c-2.002,0-4.199,0.265-5.876,0.709l-14.245,3.763c-1.888,0.498-2.797,1.119-2.781,1.899c0.02,0.936,1.297,1.217,1.717,1.309  l36.444,8.024c0.051,0.01,0.098,0.018,0.145,0.024l0.026,0.004c0.029,0.011,0.062,0.021,0.102,0.03l16.289,3.585  c0.015,0.005,0.069,0.014,0.126,0.02c0.059,0.019,0.098,0.03,0.147,0.041l36.444,8.022c0.75,0.165,1.746,0.252,2.88,0.252  c2,0,4.197-0.265,5.877-0.708l14.243-3.763c1.889-0.499,2.799-1.12,2.783-1.899c-0.02-0.936-1.296-1.217-1.716-1.31l-36.445-8.022  c-0.047-0.01-0.091-0.017-0.137-0.023l-0.028-0.004c-0.036-0.014-0.08-0.027-0.131-0.036l-16.265-3.582  c-0.036-0.008-0.08-0.014-0.125-0.019c-0.058-0.019-0.099-0.03-0.149-0.042l-36.442-8.023  C60.335,79.59,59.339,79.503,58.206,79.503L58.206,79.503z"></path>	<g>		<g>			<path fill="#0086FF" d="M38.588,84.615c-2.385,0.63-2.825,1.473-0.983,1.877l36.445,8.024c1.844,0.405,5.28,0.223,7.667-0.408    l14.246-3.763c2.386-0.63,2.825-1.473,0.984-1.878l-36.446-8.023c-1.842-0.405-5.283-0.223-7.668,0.408L38.588,84.615z"></path>			<path d="M95.606,90.267L81.361,94.03c-2.126,0.562-5.21,0.726-6.853,0.364l-36.444-8.023c-1.642-0.361-1.245-1.115,0.88-1.678    l14.244-3.763c2.126-0.562,5.211-0.726,6.853-0.364l36.444,8.023C98.128,88.951,97.731,89.707,95.606,90.267 M96.317,90.424    c2.639-0.697,3.127-1.629,1.088-2.077l-36.444-8.023c-2.039-0.448-5.845-0.247-8.482,0.451l-14.245,3.763    c-2.639,0.696-3.128,1.629-1.088,2.077l36.444,8.024c2.039,0.447,5.843,0.245,8.481-0.452L96.317,90.424L96.317,90.424z"></path>		</g>		<g>			<path fill="#FF0000" d="M91.867,96.343c-2.384,0.63-2.827,1.473-0.984,1.879l36.444,8.022c1.844,0.405,5.281,0.223,7.668-0.406    l14.244-3.764c2.385-0.63,2.828-1.473,0.985-1.878l-36.443-8.022c-1.845-0.406-5.284-0.224-7.67,0.406L91.867,96.343z"></path>			<path d="M148.884,101.995l-14.244,3.763c-2.127,0.562-5.21,0.726-6.853,0.365L91.343,98.1c-1.641-0.361-1.246-1.117,0.881-1.678    l14.244-3.763c2.125-0.562,5.21-0.727,6.852-0.364l36.445,8.022C151.405,100.679,151.008,101.435,148.884,101.995     M149.594,102.152c2.641-0.697,3.129-1.629,1.09-2.078l-36.445-8.022c-2.037-0.448-5.843-0.247-8.481,0.45l-14.244,3.763    c-2.641,0.697-3.128,1.629-1.09,2.078l36.444,8.022c2.038,0.449,5.843,0.247,8.483-0.45L149.594,102.152L149.594,102.152z"></path>		</g>		<g>			<path fill="#FFFFFF" d="M74.427,94.375c-0.256,0.068-0.302,0.157-0.104,0.2l16.288,3.586c0.197,0.044,0.562,0.024,0.814-0.043    l21.976-5.806c0.255-0.067,0.304-0.154,0.108-0.199l-16.29-3.586c-0.198-0.043-0.562-0.023-0.815,0.045L74.427,94.375z"></path>			<path d="M113.048,92.234L91.071,98.04l-16.29-3.585l21.976-5.806L113.048,92.234 M113.758,92.393    c0.507-0.135,0.601-0.314,0.208-0.4l-16.289-3.586c-0.392-0.087-1.122-0.048-1.629,0.086L74.07,94.298    c-0.507,0.134-0.603,0.312-0.209,0.399l16.289,3.585c0.392,0.089,1.122,0.048,1.63-0.086L113.758,92.393L113.758,92.393z"></path>		</g>	</g></g></svg>