<svg xmlns="http://www.w3.org/2000/svg" xmlns:xlink="http://www.w3.org/1999/xlink" id="Layer_1" x="0px" y="0px" width="363px" height="255px" viewBox="0 0 363 255" xml:space="preserve"><g>	<polygon fill="#D4A686" points="202.123,36.546 310.958,56.06 310.958,204.709 181.813,254.27 181.813,42.177  "></polygon>	<path fill="#2A2829" d="M181.813,255.02c-0.149,0-0.298-0.045-0.425-0.132c-0.204-0.14-0.325-0.371-0.325-0.618V42.177  c0-0.337,0.225-0.633,0.55-0.723l20.31-5.631c0.108-0.03,0.221-0.036,0.333-0.016l108.836,19.514  c0.357,0.064,0.617,0.375,0.617,0.738v148.649c0,0.311-0.191,0.589-0.481,0.7L182.082,254.97  C181.995,255.003,181.904,255.02,181.813,255.02z M182.563,42.748v210.431l127.645-48.985V56.688l-108.05-19.373L182.563,42.748z"></path></g><g>	<polygon fill="#D4A686" points="181.813,42.177 181.813,254.27 181.811,254.271 60.75,216.211 60.75,75.744  "></polygon>	<path fill="#2A2829" d="M181.81,255.021c-0.076,0-0.151-0.012-0.224-0.034l-121.062-38.06c-0.312-0.098-0.525-0.388-0.525-0.715  V75.744c0-0.337,0.225-0.633,0.55-0.723l121.063-33.566c0.225-0.064,0.467-0.016,0.654,0.125c0.187,0.142,0.296,0.363,0.296,0.597  V254.27c0,0.282-0.159,0.541-0.411,0.669C182.045,254.993,181.928,255.021,181.81,255.021z M61.5,215.661l119.563,37.588V43.164  L61.5,76.314V215.661z"></path></g><g>	<polygon fill="#D4A686" points="60.756,75.745 17.937,37.519 159.214,1.827 202.226,36.517  "></polygon>	<path fill="#2A2829" d="M60.756,76.495c-0.182,0-0.36-0.066-0.5-0.19L17.438,38.078c-0.207-0.185-0.295-0.469-0.229-0.738  c0.066-0.27,0.276-0.48,0.545-0.548L159.03,1.1c0.227-0.06,0.471-0.005,0.654,0.143l43.012,34.69  c0.219,0.177,0.321,0.461,0.264,0.736c-0.057,0.275-0.263,0.496-0.534,0.571L60.956,76.467  C60.89,76.486,60.823,76.495,60.756,76.495z M19.49,37.9l41.46,37.013l139.669-38.728L159.035,2.646L19.49,37.9z"></path></g><g>	<polygon fill="#D4A686" points="310.933,56.051 340.308,21.772 236.815,0.75 202.226,36.517  "></polygon>	<path fill="#2A2829" d="M310.933,56.801c-0.044,0-0.089-0.004-0.133-0.012L202.093,37.255c-0.272-0.049-0.496-0.244-0.581-0.508  s-0.018-0.553,0.175-0.752l34.589-35.767c0.178-0.184,0.439-0.265,0.688-0.213l103.492,21.021c0.261,0.053,0.474,0.24,0.56,0.491  c0.087,0.251,0.033,0.53-0.14,0.731l-29.375,34.279C311.358,56.707,311.149,56.801,310.933,56.801z M203.743,36.028l106.9,19.209  l28.266-32.984L237.068,1.567L203.743,36.028z"></path></g><g>	<g>		<polygon fill="#B58B6A" points="202.155,36.546 202.195,36.553 202.195,93.222 181.853,100.173 60.781,75.752 60.781,75.744   "></polygon>		<path fill="#2A2829" d="M181.853,100.911c-0.049,0-0.098-0.005-0.146-0.015L60.635,76.476c-0.344-0.069-0.592-0.372-0.592-0.723   c0-0.332,0.221-0.631,0.541-0.72l141.374-39.198c0.107-0.03,0.221-0.035,0.33-0.015c0.351,0.064,0.645,0.377,0.645,0.733v56.668   c0,0.315-0.201,0.596-0.499,0.698l-20.342,6.951C182.015,100.897,181.934,100.911,181.853,100.911z M63.934,75.635l117.87,23.775   l19.654-6.716V37.505L63.934,75.635z"></path>	</g>	<g>		<polygon fill="#B58B6A" points="310.958,56.054 202.195,93.222 202.195,36.553   "></polygon>		<path fill="#2A2829" d="M202.195,93.959c-0.152,0-0.302-0.047-0.429-0.138c-0.194-0.138-0.309-0.362-0.309-0.6V36.553   c0-0.218,0.097-0.426,0.264-0.566c0.168-0.14,0.389-0.197,0.604-0.161l108.763,19.5c0.331,0.06,0.58,0.335,0.605,0.67   c0.026,0.335-0.179,0.646-0.497,0.754L202.434,93.92C202.355,93.947,202.275,93.959,202.195,93.959z M202.933,37.435v54.754   l105.09-35.913L202.933,37.435z"></path>	</g></g><g>	<g>		<path fill-rule="evenodd" clip-rule="evenodd" d="M275.912,211.55c-13.714,0-23.667-11.727-23.667-27.882   c0-17.938,12.549-34.875,27.973-37.758c1.505-0.281,3.016-0.423,4.49-0.423c13.713,0,23.666,11.724,23.666,27.876   c0,17.941-12.549,34.882-27.973,37.764C278.897,211.408,277.387,211.55,275.912,211.55z"></path>		<path fill="#FFFFFF" d="M284.708,145.987c13.134,0,23.166,11.385,23.166,27.376c0,17.738-12.34,34.428-27.564,37.272   c-1.496,0.279-2.966,0.415-4.397,0.415c-13.135,0-23.167-11.385-23.167-27.382c0-17.735,12.34-34.421,27.564-37.266   C281.807,146.122,283.276,145.987,284.708,145.987 M284.709,144.987L284.709,144.987c-1.507,0-3.048,0.146-4.583,0.432   c-15.649,2.924-28.381,20.083-28.381,38.249c0,7.922,2.45,15.146,6.898,20.34c4.44,5.186,10.573,8.042,17.269,8.042   c1.505,0,3.047-0.146,4.581-0.432c15.649-2.924,28.381-20.085,28.381-38.255c0-7.919-2.45-15.141-6.898-20.334   C297.534,147.843,291.402,144.987,284.709,144.987L284.709,144.987z"></path>	</g>	<path fill-rule="evenodd" clip-rule="evenodd" fill="#B3B3B3" d="M259.931,182.327c0,13.112,9.125,22.037,20.379,19.933  c11.254-2.106,20.377-14.439,20.377-27.551s-9.123-22.035-20.377-19.931S259.931,169.213,259.931,182.327z M281.604,159.264  c0.58,0.044,1.188-0.093,1.752-0.025c0.516,0.066,1.051,0.056,1.549,0.155c0.949,0.186,1.869,0.408,2.695,0.754  c0.541,0.229,1.217,0.474,1.566,0.95c0.248,0.334,0.453,0.717,0.576,1.221c0.193,0.761-0.039,1.794-0.303,2.343  c-0.344,0.711-0.85,1.259-1.369,1.797c-0.328,0.34-0.641,0.705-0.973,1.051c-0.928,0.966-1.811,1.988-2.738,2.957  c-0.379,0.395-0.738,0.812-1.127,1.205c-0.252,0.253-0.506,0.545-0.805,0.751c-0.264,0.186-0.543,0.25-0.869,0.396  c-0.057,0.021-0.119,0.009-0.152,0.009c-0.102,0.013-0.205,0.025-0.305,0.042c-0.285-0.029-0.529-0.084-0.744-0.203  c-0.576-0.303-0.896-0.826-1.279-1.388c-0.318-0.476-0.633-0.958-0.959-1.435c-0.641-0.946-1.254-1.923-1.898-2.871  c-0.475-0.697-1.01-1.35-1.34-2.23c-0.438-1.157,0.15-2.725,0.76-3.371c0.367-0.386,0.77-0.668,1.279-0.931  c0.33-0.17,0.67-0.206,1.018-0.364c0.842-0.387,1.916-0.551,2.938-0.726C280.966,159.401,281.458,159.254,281.604,159.264z   M296.224,171.109c0.057,0.674,0.264,1.305,0.295,1.976c0.029,0.619,0.119,1.222,0.117,1.837c-0.004,1.162-0.041,2.31-0.195,3.407  c-0.1,0.724-0.193,1.602-0.527,2.22c-0.234,0.432-0.518,0.844-0.908,1.221c-0.59,0.565-1.469,0.782-1.961,0.732  c-0.633-0.059-1.158-0.385-1.68-0.723c-0.33-0.218-0.676-0.407-1.01-0.623c-0.934-0.608-1.906-1.142-2.844-1.75  c-0.381-0.247-0.777-0.459-1.156-0.723c-0.25-0.17-0.525-0.325-0.742-0.569c-0.189-0.213-0.291-0.498-0.457-0.804  c-0.029-0.05-0.027-0.129-0.031-0.167c-0.027-0.107-0.053-0.22-0.08-0.328c-0.023-0.34-0.018-0.643,0.047-0.94  c0.156-0.794,0.533-1.4,0.934-2.097c0.336-0.58,0.682-1.159,1.02-1.746c0.672-1.168,1.373-2.318,2.045-3.488  c0.496-0.862,0.945-1.768,1.613-2.55c0.873-1.03,2.244-1.086,2.869-0.693c0.373,0.238,0.668,0.569,0.957,1.024  c0.193,0.299,0.277,0.667,0.461,0.988c0.447,0.777,0.748,1.92,1.053,3.002C296.015,170.441,296.208,170.933,296.224,171.109z   M288.843,193.188c-0.541,0.381-1.021,0.903-1.566,1.249c-0.5,0.318-0.979,0.698-1.479,0.979c-0.951,0.532-1.893,1.021-2.814,1.352  c-0.604,0.219-1.338,0.52-1.891,0.423c-0.396-0.068-0.773-0.195-1.143-0.466c-0.553-0.412-0.867-1.309-0.904-1.886  c-0.051-0.748,0.135-1.5,0.328-2.248c0.125-0.473,0.225-0.956,0.348-1.435c0.35-1.338,0.633-2.692,0.984-4.037  c0.143-0.547,0.256-1.098,0.41-1.651c0.098-0.358,0.184-0.745,0.348-1.104c0.146-0.314,0.361-0.556,0.584-0.89  c0.039-0.057,0.105-0.093,0.133-0.115c0.086-0.081,0.17-0.16,0.258-0.241c0.27-0.182,0.52-0.316,0.77-0.384  c0.674-0.185,1.229-0.037,1.857,0.099c0.529,0.111,1.055,0.238,1.588,0.351c1.059,0.226,2.105,0.49,3.166,0.717  c0.781,0.164,1.592,0.255,2.338,0.651c0.973,0.523,1.234,2.053,1.01,2.944c-0.133,0.531-0.357,1.017-0.684,1.562  c-0.215,0.354-0.502,0.621-0.734,0.978c-0.566,0.868-1.451,1.737-2.287,2.581C289.356,192.643,288.983,193.091,288.843,193.188z   M269.667,194.994c-0.395-0.442-0.896-0.746-1.266-1.206c-0.338-0.42-0.723-0.785-1.031-1.228  c-0.584-0.835-1.129-1.682-1.545-2.573c-0.273-0.586-0.631-1.283-0.641-1.958c-0.006-0.474,0.039-0.967,0.205-1.508  c0.246-0.822,0.93-1.593,1.396-1.904c0.605-0.402,1.244-0.539,1.887-0.662c0.404-0.081,0.814-0.186,1.227-0.267  c1.146-0.22,2.295-0.525,3.451-0.749c0.467-0.089,0.934-0.213,1.41-0.292c0.309-0.057,0.637-0.14,0.955-0.115  c0.279,0.019,0.512,0.155,0.816,0.254c0.053,0.014,0.092,0.073,0.115,0.096c0.078,0.058,0.158,0.12,0.236,0.179  c0.191,0.226,0.34,0.448,0.434,0.702c0.258,0.677,0.223,1.38,0.211,2.155c-0.008,0.653-0.027,1.312-0.037,1.967  c-0.018,1.305-0.07,2.622-0.09,3.932c-0.012,0.961,0.039,1.923-0.168,2.953c-0.271,1.35-1.48,2.353-2.244,2.507  c-0.457,0.096-0.887,0.065-1.381-0.054c-0.326-0.083-0.586-0.286-0.914-0.385c-0.797-0.241-1.646-0.851-2.465-1.406  C270.19,195.324,269.767,195.108,269.667,194.994z M265.19,174.027c0.301-0.649,0.471-1.36,0.787-1.991  c0.293-0.579,0.531-1.187,0.842-1.738c0.59-1.051,1.195-2.059,1.859-2.944c0.436-0.584,0.947-1.311,1.498-1.635  c0.385-0.226,0.793-0.402,1.264-0.463c0.707-0.096,1.443,0.324,1.771,0.711c0.42,0.501,0.633,1.164,0.838,1.835  c0.123,0.428,0.275,0.842,0.404,1.274c0.363,1.202,0.789,2.367,1.15,3.575c0.148,0.491,0.324,0.961,0.463,1.468  c0.094,0.324,0.213,0.658,0.244,1.033c0.027,0.327-0.047,0.655-0.08,1.045c-0.006,0.067-0.049,0.139-0.062,0.175  c-0.035,0.117-0.072,0.235-0.107,0.354c-0.156,0.321-0.312,0.589-0.506,0.815c-0.514,0.606-1.09,0.891-1.727,1.237  c-0.533,0.29-1.072,0.568-1.613,0.863c-1.066,0.582-2.148,1.128-3.223,1.712c-0.785,0.431-1.561,0.935-2.436,1.172  c-1.145,0.312-2.152-0.597-2.396-1.392c-0.15-0.474-0.193-0.979-0.172-1.595c0.014-0.408,0.143-0.798,0.172-1.217  c0.07-1.019,0.434-2.261,0.762-3.451C265.005,174.779,265.114,174.199,265.19,174.027z"></path>	<g>		<path d="M260.909,182.144c0-12.464,8.703-24.23,19.402-26.229c10.697-2,19.4,6.512,19.4,18.975c0,12.462-8.703,24.23-19.4,26.231   C269.612,203.121,260.909,194.607,260.909,182.144z M262.06,181.928c0,11.723,8.188,19.735,18.252,17.851   c10.061-1.879,18.25-12.947,18.25-24.675c0-11.725-8.189-19.732-18.25-17.85C270.247,159.135,262.06,170.204,262.06,181.928z"></path>	</g>	<path fill-rule="evenodd" clip-rule="evenodd" d="M278.218,178.906c0,1.349,0.936,2.264,2.092,2.048  c1.156-0.217,2.094-1.48,2.094-2.83c0-1.345-0.938-2.263-2.094-2.046S278.218,177.562,278.218,178.906z"></path>	<g>		<path fill-rule="evenodd" clip-rule="evenodd" d="M277.896,175.118c0,0.49,0.34,0.824,0.764,0.746   c0.42-0.08,0.762-0.541,0.762-1.032c0-0.493-0.342-0.826-0.762-0.746C278.235,174.164,277.896,174.627,277.896,175.118z"></path>		<path fill-rule="evenodd" clip-rule="evenodd" d="M283.614,175.085c-0.42,0.08-0.764,0.541-0.764,1.032s0.344,0.823,0.764,0.745   c0.422-0.08,0.764-0.542,0.764-1.032C284.378,175.339,284.036,175.007,283.614,175.085z"></path>		<path fill-rule="evenodd" clip-rule="evenodd" d="M282.726,181.915c0-0.487-0.342-0.822-0.762-0.745   c-0.424,0.081-0.764,0.541-0.764,1.032c0,0.489,0.34,0.826,0.764,0.746C282.384,182.87,282.726,182.406,282.726,181.915z"></path>		<path fill-rule="evenodd" clip-rule="evenodd" d="M277.005,181.949c0.42-0.079,0.764-0.542,0.764-1.033s-0.344-0.823-0.764-0.745   c-0.42,0.08-0.764,0.542-0.764,1.033C276.241,181.693,276.585,182.029,277.005,181.949z"></path>	</g></g><g>	<g>		<path fill-rule="evenodd" clip-rule="evenodd" d="M209.109,239.236c-13.712,0-23.665-11.726-23.665-27.882   c0-17.938,12.548-34.875,27.972-37.757c1.505-0.281,3.016-0.424,4.492-0.424c13.713,0,23.666,11.724,23.666,27.875   c0,17.94-12.549,34.881-27.974,37.764C212.095,239.093,210.584,239.236,209.109,239.236z"></path>		<path fill="#FFFFFF" d="M217.907,173.673c13.134-0.001,23.166,11.385,23.166,27.375c0,17.738-12.342,34.427-27.566,37.272   c-1.497,0.28-2.966,0.415-4.398,0.415c-13.133,0-23.165-11.386-23.165-27.382c0-17.734,12.34-34.421,27.563-37.265   C215.004,173.809,216.475,173.674,217.907,173.673 M217.909,172.673v1V172.673c0,0-0.001,0-0.001,0   c-1.507,0-3.049,0.146-4.583,0.433c-15.649,2.923-28.38,20.082-28.38,38.248c0,7.921,2.45,15.145,6.898,20.34   c4.441,5.186,10.573,8.042,17.267,8.042c1.506,0,3.047-0.146,4.582-0.432c15.65-2.924,28.382-20.085,28.382-38.255   c0-7.919-2.45-15.14-6.898-20.334C230.734,175.529,224.603,172.673,217.909,172.673L217.909,172.673z"></path>	</g>	<path fill-rule="evenodd" clip-rule="evenodd" fill="#B3B3B3" d="M193.13,210.012c0,13.112,9.124,22.039,20.377,19.933  c11.255-2.105,20.378-14.438,20.378-27.551c0-13.112-9.124-22.036-20.378-19.933C202.254,184.566,193.13,196.901,193.13,210.012z   M214.803,186.951c0.579,0.043,1.187-0.094,1.751-0.025c0.516,0.065,1.051,0.056,1.55,0.155c0.95,0.186,1.869,0.407,2.694,0.754  c0.541,0.229,1.217,0.474,1.566,0.949c0.248,0.334,0.453,0.717,0.576,1.221c0.193,0.762-0.038,1.794-0.302,2.344  c-0.344,0.712-0.851,1.259-1.368,1.797c-0.33,0.34-0.643,0.705-0.975,1.051c-0.927,0.965-1.811,1.988-2.737,2.957  c-0.379,0.395-0.739,0.812-1.128,1.205c-0.252,0.253-0.505,0.545-0.805,0.751c-0.264,0.186-0.541,0.25-0.869,0.396  c-0.056,0.021-0.119,0.009-0.151,0.009c-0.103,0.012-0.204,0.025-0.304,0.041c-0.287-0.029-0.531-0.083-0.746-0.202  c-0.576-0.303-0.896-0.825-1.279-1.388c-0.317-0.475-0.632-0.958-0.957-1.435c-0.641-0.945-1.256-1.923-1.9-2.871  c-0.474-0.696-1.008-1.349-1.34-2.229c-0.436-1.157,0.15-2.723,0.76-3.369c0.368-0.387,0.77-0.668,1.279-0.932  c0.332-0.17,0.671-0.207,1.018-0.365c0.842-0.387,1.916-0.551,2.938-0.727C214.164,187.086,214.656,186.941,214.803,186.951z   M229.421,198.794c0.059,0.674,0.264,1.306,0.297,1.977c0.027,0.619,0.119,1.223,0.117,1.836c-0.006,1.163-0.043,2.309-0.195,3.408  c-0.1,0.725-0.195,1.602-0.529,2.219c-0.234,0.433-0.516,0.845-0.906,1.222c-0.592,0.565-1.469,0.783-1.96,0.732  c-0.635-0.059-1.16-0.385-1.682-0.723c-0.328-0.217-0.674-0.405-1.01-0.622c-0.933-0.609-1.906-1.142-2.844-1.75  c-0.379-0.248-0.776-0.46-1.155-0.723c-0.249-0.17-0.525-0.325-0.743-0.57c-0.189-0.213-0.289-0.497-0.457-0.802  c-0.028-0.051-0.026-0.13-0.031-0.167c-0.025-0.108-0.053-0.22-0.08-0.328c-0.023-0.34-0.016-0.644,0.047-0.939  c0.157-0.795,0.534-1.4,0.936-2.097c0.336-0.581,0.68-1.158,1.02-1.746c0.672-1.169,1.371-2.319,2.044-3.488  c0.496-0.863,0.944-1.768,1.612-2.551c0.875-1.03,2.244-1.086,2.869-0.694c0.373,0.24,0.668,0.57,0.959,1.024  c0.191,0.3,0.275,0.668,0.461,0.989c0.447,0.777,0.748,1.92,1.051,3.002C229.212,198.127,229.407,198.619,229.421,198.794z   M222.042,220.873c-0.541,0.38-1.023,0.904-1.568,1.25c-0.498,0.318-0.977,0.698-1.478,0.98c-0.95,0.532-1.893,1.021-2.814,1.352  c-0.604,0.219-1.338,0.52-1.892,0.423c-0.396-0.067-0.773-0.194-1.141-0.467c-0.553-0.412-0.869-1.308-0.906-1.886  c-0.049-0.748,0.135-1.5,0.329-2.248c0.124-0.474,0.226-0.956,0.349-1.434c0.35-1.34,0.632-2.694,0.982-4.038  c0.143-0.548,0.257-1.099,0.41-1.653c0.099-0.358,0.184-0.743,0.348-1.104c0.146-0.315,0.361-0.556,0.584-0.89  c0.039-0.057,0.105-0.094,0.133-0.115c0.087-0.08,0.171-0.16,0.258-0.241c0.271-0.181,0.521-0.315,0.771-0.383  c0.673-0.186,1.228-0.038,1.857,0.099c0.528,0.112,1.054,0.238,1.589,0.351c1.057,0.225,2.105,0.491,3.165,0.716  c0.781,0.164,1.591,0.258,2.337,0.652c0.973,0.523,1.235,2.053,1.011,2.944c-0.134,0.531-0.357,1.017-0.685,1.562  c-0.215,0.354-0.501,0.62-0.734,0.977c-0.565,0.869-1.451,1.737-2.286,2.581C222.554,220.329,222.182,220.777,222.042,220.873z   M202.865,222.678c-0.394-0.441-0.895-0.744-1.265-1.204c-0.338-0.421-0.724-0.786-1.032-1.229  c-0.584-0.833-1.127-1.681-1.544-2.572c-0.272-0.587-0.632-1.282-0.642-1.957c-0.005-0.475,0.04-0.968,0.205-1.509  c0.247-0.821,0.931-1.592,1.396-1.904c0.605-0.402,1.245-0.539,1.887-0.661c0.405-0.081,0.814-0.186,1.227-0.267  c1.148-0.219,2.295-0.525,3.453-0.748c0.465-0.09,0.932-0.213,1.408-0.294c0.31-0.055,0.637-0.139,0.955-0.114  c0.279,0.02,0.512,0.154,0.818,0.254c0.051,0.014,0.091,0.073,0.113,0.096c0.079,0.058,0.159,0.12,0.237,0.179  c0.191,0.226,0.339,0.448,0.434,0.701c0.257,0.677,0.222,1.379,0.211,2.156c-0.007,0.653-0.026,1.311-0.038,1.967  c-0.018,1.304-0.07,2.622-0.09,3.932c-0.012,0.962,0.039,1.924-0.167,2.953c-0.271,1.351-1.481,2.354-2.243,2.508  c-0.457,0.095-0.889,0.064-1.383-0.055c-0.326-0.082-0.585-0.286-0.912-0.385c-0.799-0.239-1.647-0.85-2.467-1.406  C203.388,223.009,202.965,222.793,202.865,222.678z M198.39,201.713c0.299-0.649,0.47-1.36,0.786-1.99  c0.292-0.58,0.53-1.188,0.841-1.739c0.592-1.051,1.196-2.06,1.86-2.944c0.436-0.584,0.947-1.311,1.497-1.634  c0.387-0.227,0.795-0.403,1.264-0.465c0.708-0.095,1.445,0.326,1.771,0.712c0.422,0.501,0.633,1.165,0.838,1.836  c0.125,0.426,0.276,0.841,0.406,1.274c0.361,1.203,0.787,2.365,1.149,3.575c0.147,0.491,0.324,0.961,0.462,1.468  c0.094,0.324,0.213,0.658,0.244,1.034c0.027,0.326-0.046,0.654-0.078,1.045c-0.008,0.067-0.05,0.138-0.062,0.175  c-0.037,0.117-0.072,0.235-0.109,0.353c-0.156,0.321-0.311,0.59-0.504,0.816c-0.516,0.606-1.09,0.891-1.729,1.236  c-0.532,0.292-1.072,0.568-1.613,0.863c-1.065,0.581-2.146,1.128-3.221,1.712c-0.786,0.43-1.562,0.935-2.438,1.172  c-1.143,0.312-2.15-0.597-2.396-1.391c-0.148-0.474-0.193-0.979-0.17-1.595c0.013-0.409,0.141-0.797,0.17-1.217  c0.07-1.019,0.434-2.261,0.762-3.451C198.203,202.465,198.312,201.884,198.39,201.713z"></path>	<g>		<path d="M194.107,209.83c0-12.464,8.703-24.23,19.402-26.228c10.697-2,19.4,6.512,19.4,18.976c0,12.462-8.703,24.23-19.4,26.23   C202.81,230.808,194.107,222.292,194.107,209.83z M195.257,209.614c0,11.724,8.188,19.735,18.252,17.852   c10.061-1.88,18.25-12.948,18.25-24.675c0-11.725-8.189-19.732-18.25-17.85C203.446,186.82,195.257,197.89,195.257,209.614z"></path>	</g>	<path fill-rule="evenodd" clip-rule="evenodd" d="M211.417,206.592c0,1.348,0.935,2.264,2.091,2.047  c1.158-0.217,2.095-1.481,2.095-2.83c0-1.345-0.937-2.263-2.095-2.046C212.351,203.98,211.417,205.248,211.417,206.592z"></path>	<g>		<path fill-rule="evenodd" clip-rule="evenodd" d="M211.093,202.803c0,0.49,0.34,0.825,0.764,0.747   c0.42-0.08,0.762-0.542,0.762-1.032c0-0.492-0.342-0.825-0.762-0.746C211.433,201.85,211.093,202.313,211.093,202.803z"></path>		<path fill-rule="evenodd" clip-rule="evenodd" d="M216.814,202.771c-0.422,0.081-0.765,0.541-0.765,1.032   c0,0.492,0.343,0.823,0.765,0.746c0.422-0.08,0.764-0.542,0.764-1.033C217.578,203.024,217.236,202.694,216.814,202.771z"></path>		<path fill-rule="evenodd" clip-rule="evenodd" d="M215.925,209.601c0-0.489-0.342-0.823-0.763-0.745   c-0.424,0.08-0.764,0.541-0.764,1.032c0,0.489,0.34,0.825,0.764,0.745C215.583,210.556,215.925,210.092,215.925,209.601z"></path>		<path fill-rule="evenodd" clip-rule="evenodd" d="M210.204,209.635c0.42-0.078,0.763-0.542,0.763-1.033s-0.343-0.823-0.763-0.745   c-0.421,0.08-0.765,0.542-0.765,1.033C209.439,209.378,209.783,209.715,210.204,209.635z"></path>	</g></g><g>	<polygon fill="#D4A686" points="0.75,86.14 60.754,75.745 181.806,100.173 130.649,114.268  "></polygon>	<path fill="#2A2829" d="M130.649,115.018c-0.053,0-0.106-0.006-0.159-0.017L0.591,86.873C0.241,86.797-0.007,86.483,0,86.125  c0.008-0.359,0.269-0.662,0.622-0.723l60.004-10.396c0.092-0.016,0.185-0.015,0.276,0.003l121.052,24.428  c0.34,0.069,0.589,0.362,0.601,0.709c0.012,0.347-0.215,0.657-0.55,0.75l-51.157,14.095  C130.783,115.009,130.716,115.018,130.649,115.018z M4.671,86.222l125.956,27.274l47.946-13.21L60.743,76.508L4.671,86.222z"></path></g><g>	<path fill-rule="evenodd" clip-rule="evenodd" fill="#FF0000" d="M79.036,127.318c-0.656,0-1.328-0.067-1.996-0.2  c-5.532-1.102-9.886-6.53-9.708-12.101c0.158-4.969,3.813-8.575,8.69-8.575c0.656,0,1.328,0.067,1.997,0.2  c5.53,1.102,9.886,6.531,9.708,12.103C87.57,123.712,83.915,127.318,79.036,127.318z"></path>	<path fill="#FFFFFF" d="M76.022,107.442c0.584,0,1.187,0.059,1.801,0.181c5.082,1.012,9.067,5.977,8.904,11.09  c-0.142,4.496-3.444,7.605-7.692,7.605c-0.584,0-1.187-0.059-1.801-0.181c-5.081-1.012-9.067-5.978-8.903-11.088  C68.475,110.555,71.775,107.442,76.022,107.442 M76.022,105.442L76.022,105.442c-5.439,0-9.514,4.014-9.69,9.544  c-0.193,6.037,4.522,11.92,10.512,13.113c0.733,0.146,1.47,0.219,2.191,0.219c5.441,0,9.517-4.013,9.691-9.542  c0.195-6.141-4.422-11.901-10.513-13.114C77.482,105.516,76.745,105.442,76.022,105.442L76.022,105.442z"></path></g><g>	<path fill-rule="evenodd" clip-rule="evenodd" fill="#FF0000" d="M102.302,131.956c-0.656,0-1.328-0.067-1.997-0.2  c-5.532-1.104-9.887-6.535-9.708-12.106c0.158-4.966,3.812-8.57,8.688-8.57c0.658,0,1.332,0.068,2.001,0.202  c5.53,1.1,9.885,6.527,9.708,12.099C110.836,128.349,107.181,131.956,102.302,131.956z"></path>	<path fill="#FFFFFF" d="M99.284,112.079c0.586,0,1.189,0.059,1.806,0.182c5.083,1.011,9.066,5.976,8.904,11.087  c-0.142,4.495-3.444,7.607-7.692,7.607c-0.584,0-1.187-0.059-1.801-0.181c-5.081-1.014-9.068-5.977-8.904-11.093  C91.739,115.19,95.039,112.079,99.284,112.079 M99.284,110.079L99.284,110.079c-5.437,0-9.511,4.012-9.687,9.539  c-0.197,6.14,4.42,11.902,10.512,13.118c0.734,0.146,1.471,0.22,2.193,0.22c5.44,0,9.516-4.014,9.691-9.544  c0.195-6.141-4.422-11.9-10.513-13.111C100.747,110.153,100.008,110.079,99.284,110.079L99.284,110.079z"></path></g><g>	<path fill-rule="evenodd" clip-rule="evenodd" fill="#FF0000" d="M143.965,141.905c-0.656,0-1.328-0.067-1.996-0.2  c-5.53-1.105-9.885-6.534-9.709-12.103c0.159-4.968,3.813-8.573,8.688-8.573c0.658,0,1.332,0.068,2.002,0.202  c5.53,1.101,9.884,6.528,9.705,12.1C152.498,138.298,148.843,141.905,143.965,141.905z"></path>	<path fill="#FFFFFF" d="M140.948,122.028c0.586,0,1.19,0.059,1.806,0.182c5.08,1.011,9.065,5.976,8.901,11.087  c-0.142,4.495-3.444,7.607-7.69,7.607c-0.584,0-1.186-0.059-1.801-0.181c-5.08-1.015-9.066-5.977-8.905-11.09  C133.403,125.14,136.702,122.028,140.948,122.028 M140.948,120.028L140.948,120.028c-5.436,0-9.511,4.013-9.688,9.541  c-0.193,6.139,4.424,11.899,10.513,13.116c0.733,0.146,1.471,0.22,2.192,0.22c5.439,0,9.515-4.014,9.689-9.544  c0.194-6.037-4.521-11.919-10.51-13.111C142.412,120.103,141.672,120.028,140.948,120.028L140.948,120.028z"></path></g><g>	<path fill-rule="evenodd" clip-rule="evenodd" fill="#FF0000" d="M167.236,146.54c-0.658,0-1.331-0.068-2.001-0.202  c-5.532-1.1-9.888-6.529-9.709-12.102c0.158-4.968,3.814-8.573,8.694-8.573c0.656,0,1.328,0.067,1.996,0.2  c5.53,1.101,9.885,6.529,9.708,12.1C175.766,142.933,172.111,146.54,167.236,146.54z"></path>	<path fill="#FFFFFF" d="M164.22,126.663c0.584,0,1.186,0.059,1.801,0.181c5.079,1.011,9.066,5.977,8.904,11.087  c-0.144,4.497-3.444,7.608-7.689,7.608c-0.586,0-1.189-0.059-1.805-0.182c-5.081-1.01-9.069-5.976-8.906-11.09  C156.668,129.775,159.972,126.664,164.22,126.663 M164.221,124.663L164.221,124.663c-5.441,0-9.519,4.013-9.694,9.542  c-0.193,6.04,4.524,11.924,10.515,13.115c0.732,0.146,1.472,0.221,2.195,0.221c5.436,0,9.511-4.014,9.688-9.544  c0.191-6.039-4.524-11.921-10.513-13.113C165.679,124.737,164.942,124.663,164.221,124.663L164.221,124.663z"></path></g><g>	<g>		<g>			<path fill-rule="evenodd" clip-rule="evenodd" fill="#FF0000" d="M143.965,141.419c-0.625,0-1.264-0.064-1.901-0.191    c-5.307-1.06-9.487-6.269-9.319-11.611c0.151-4.695,3.601-8.104,8.203-8.104c0.626,0,1.268,0.065,1.907,0.192    c5.308,1.057,9.486,6.264,9.315,11.608C152.021,138.01,148.571,141.419,143.965,141.419z"></path>			<path d="M140.948,122.028c0.586,0,1.19,0.059,1.806,0.182c5.08,1.011,9.065,5.976,8.901,11.087    c-0.142,4.495-3.444,7.607-7.69,7.607c-0.584,0-1.186-0.059-1.801-0.181c-5.08-1.015-9.066-5.977-8.905-11.09    C133.403,125.14,136.702,122.028,140.948,122.028 M140.948,121L140.948,121c-4.891,0-8.557,3.617-8.717,8.601    c-0.176,5.583,4.189,11.025,9.731,12.132c0.671,0.133,1.344,0.201,2.002,0.201c4.894,0,8.561-3.618,8.718-8.603    c0.179-5.584-4.185-11.025-9.729-12.128C142.284,121.068,141.608,121,140.948,121L140.948,121z"></path>		</g>		<path fill-rule="evenodd" clip-rule="evenodd" fill="#E6E6E6" d="M146.416,132.252c-0.072,2.198-1.897,3.629-4.083,3.193   c-2.185-0.436-3.9-2.569-3.83-4.771c0.07-2.198,1.897-3.626,4.084-3.19C144.772,127.92,146.484,130.057,146.416,132.252z"></path>	</g>	<g>		<g>			<path fill-rule="evenodd" clip-rule="evenodd" fill="#FF0000" d="M167.236,146.055c-0.626,0-1.268-0.065-1.906-0.192    c-5.31-1.056-9.49-6.264-9.319-11.611c0.149-4.695,3.602-8.103,8.209-8.103c0.625,0,1.264,0.064,1.901,0.191    c5.307,1.056,9.487,6.264,9.318,11.608C175.289,142.645,171.839,146.055,167.236,146.055z"></path>			<path d="M164.22,126.663c0.584,0,1.186,0.059,1.801,0.181c5.079,1.011,9.066,5.977,8.904,11.087    c-0.144,4.497-3.444,7.608-7.689,7.608c-0.586,0-1.189-0.059-1.805-0.182c-5.081-1.01-9.069-5.976-8.906-11.09    C156.668,129.775,159.972,126.664,164.22,126.663 M164.221,125.635L164.221,125.635c-4.896,0-8.565,3.617-8.723,8.601    c-0.179,5.586,4.188,11.029,9.733,12.131c0.671,0.134,1.346,0.202,2.006,0.202c4.891,0,8.557-3.619,8.717-8.604    c0.177-5.585-4.188-11.026-9.731-12.129C165.552,125.702,164.878,125.635,164.221,125.635L164.221,125.635z"></path>		</g>		<path fill-rule="evenodd" clip-rule="evenodd" fill="#E6E6E6" d="M169.681,136.89c-0.071,2.199-1.898,3.629-4.084,3.193   c-2.185-0.436-3.897-2.572-3.828-4.77c0.072-2.198,1.898-3.629,4.083-3.194C168.037,132.555,169.751,134.688,169.681,136.89z"></path>	</g></g><g>	<path fill="#FFFFFF" d="M139.503,228.686c-0.299,0-0.607-0.05-0.916-0.147l-38.725-12.227c-1.666-0.526-3.021-2.375-3.021-4.121  v-14.496c0-1.496,1.012-2.581,2.406-2.581c0.299,0,0.607,0.049,0.916,0.147l38.725,12.224c1.666,0.526,3.021,2.375,3.021,4.121  v14.498c0,0.741-0.233,1.383-0.676,1.855C140.796,228.428,140.181,228.686,139.503,228.686L139.503,228.686z"></path>	<path fill="#FFFFFF" d="M99.248,195.615c0.243,0,0.5,0.04,0.765,0.124l38.725,12.225c1.469,0.464,2.671,2.104,2.671,3.644v14.498  c0,1.262-0.807,2.082-1.906,2.082c-0.243,0-0.5-0.04-0.765-0.124l-38.725-12.227c-1.469-0.464-2.671-2.104-2.671-3.644v-14.496  C97.342,196.434,98.149,195.615,99.248,195.615 M99.248,194.615c-1.684,0-2.906,1.295-2.906,3.081v14.496  c0,1.981,1.48,4.001,3.37,4.598l38.725,12.227c0.358,0.113,0.716,0.17,1.066,0.17c1.684,0,2.906-1.296,2.906-3.082v-14.498  c0-1.981-1.48-4.001-3.37-4.598l-38.725-12.225C99.957,194.672,99.598,194.615,99.248,194.615L99.248,194.615z"></path></g><g>	<g>		<g>			<path fill-rule="evenodd" clip-rule="evenodd" fill="#FF0000" d="M79.036,126.833c-0.625,0-1.264-0.064-1.901-0.191    c-5.309-1.058-9.488-6.265-9.317-11.609c0.149-4.696,3.6-8.105,8.205-8.105c0.625,0,1.265,0.064,1.902,0.191    c5.308,1.057,9.488,6.266,9.318,11.61C87.094,123.424,83.642,126.833,79.036,126.833z"></path>			<path d="M76.022,107.442c0.584,0,1.187,0.059,1.801,0.181c5.082,1.012,9.067,5.977,8.904,11.09    c-0.142,4.496-3.444,7.605-7.692,7.605c-0.584,0-1.187-0.059-1.801-0.181c-5.081-1.012-9.067-5.978-8.903-11.088    C68.475,110.555,71.775,107.442,76.022,107.442 M76.022,106.413L76.022,106.413c-4.894,0-8.561,3.619-8.719,8.604    c-0.179,5.583,4.186,11.025,9.73,12.129c0.67,0.133,1.344,0.201,2.002,0.201c4.896,0,8.563-3.617,8.72-8.601    c0.178-5.585-4.188-11.027-9.731-12.131C77.354,106.481,76.681,106.413,76.022,106.413L76.022,106.413z"></path>		</g>		<path fill-rule="evenodd" clip-rule="evenodd" fill="#E6E6E6" d="M81.486,117.671c-0.07,2.195-1.897,3.626-4.083,3.192   c-2.185-0.436-3.897-2.573-3.828-4.772c0.071-2.198,1.897-3.626,4.083-3.19C79.84,113.333,81.556,115.47,81.486,117.671z"></path>	</g>	<g>		<g>			<path fill-rule="evenodd" clip-rule="evenodd" fill="#FF0000" d="M102.302,131.47c-0.625,0-1.265-0.064-1.902-0.191    c-5.309-1.06-9.489-6.27-9.318-11.614c0.149-4.693,3.599-8.101,8.202-8.101c0.626,0,1.268,0.065,1.906,0.192    c5.308,1.056,9.487,6.263,9.317,11.607C110.359,128.061,106.908,131.47,102.302,131.47z"></path>			<path d="M99.284,112.079c0.586,0,1.189,0.059,1.806,0.182c5.083,1.011,9.066,5.976,8.904,11.087    c-0.142,4.495-3.444,7.607-7.692,7.607c-0.584,0-1.187-0.059-1.801-0.181c-5.081-1.014-9.068-5.977-8.904-11.093    C91.739,115.19,95.039,112.079,99.284,112.079 M99.284,111.05L99.284,111.05c-4.892,0-8.558,3.616-8.716,8.599    c-0.179,5.584,4.186,11.027,9.731,12.134c0.67,0.133,1.344,0.201,2.002,0.201c4.895,0,8.562-3.618,8.72-8.603    c0.178-5.585-4.188-11.026-9.731-12.128C100.62,111.119,99.944,111.05,99.284,111.05L99.284,111.05z"></path>		</g>		<path fill-rule="evenodd" clip-rule="evenodd" fill="#E6E6E6" d="M104.754,122.303c-0.072,2.202-1.9,3.63-4.086,3.194   c-2.185-0.433-3.898-2.569-3.828-4.769c0.069-2.197,1.898-3.628,4.082-3.192C103.107,117.972,104.823,120.107,104.754,122.303z"></path>	</g></g><g>	<path fill="#FFFFFF" d="M139.503,227.665c-0.194,0-0.399-0.033-0.608-0.1l-38.725-12.227c-1.25-0.395-2.307-1.836-2.307-3.147  v-14.496c0-0.948,0.543-1.56,1.385-1.56c0.194,0,0.399,0.033,0.608,0.1l38.725,12.225c1.25,0.395,2.307,1.836,2.307,3.147v14.498  c0,0.478-0.139,0.878-0.4,1.158C140.242,227.526,139.901,227.665,139.503,227.665L139.503,227.665z"></path>	<path d="M99.248,196.657c0.141,0,0.293,0.025,0.452,0.075l38.725,12.225c1.035,0.327,1.943,1.565,1.943,2.65v14.498  c0,0.651-0.323,1.039-0.864,1.039c-0.141,0-0.293-0.025-0.451-0.075l-38.725-12.227c-1.035-0.327-1.943-1.565-1.943-2.65v-14.496  C98.384,197.045,98.708,196.657,99.248,196.657 M99.248,195.615c-1.099,0-1.906,0.819-1.906,2.081v14.496  c0,1.541,1.202,3.18,2.671,3.644l38.725,12.227c0.266,0.084,0.522,0.124,0.765,0.124c1.099,0,1.906-0.819,1.906-2.082v-14.498  c0-1.541-1.202-3.18-2.671-3.644l-38.725-12.225C99.748,195.654,99.491,195.615,99.248,195.615L99.248,195.615z"></path></g><g>	<g>		<path d="M298.09,48.326c-0.534,0-1.066-0.048-1.582-0.141l-54.267-9.877c-2.267-0.411-4.113-1.674-5.198-3.555   c-1.08-1.883-1.265-4.143-0.52-6.363c0.002-0.006,0.033-0.089,0.036-0.096c3.159-9.238,12.581-15.956,22.396-15.956   c1.254,0,2.504,0.111,3.717,0.332l31.691,5.771c5.192,0.943,9.443,3.804,11.97,8.053c2.596,4.367,3.073,9.661,1.345,14.907   c-0.767,2.276-2.33,4.184-4.432,5.448C301.644,47.815,299.859,48.326,298.09,48.326L298.09,48.326z"></path>		<path fill="#FFFFFF" d="M258.956,12.838c1.211,0,2.425,0.105,3.627,0.324l4.555,0.831l22.58,4.11l4.557,0.83   c10.59,1.925,16.359,11.903,12.93,22.312l-0.027,0.075c-0.725,2.156-2.273,3.949-4.188,5.101   c-1.485,0.895-3.188,1.405-4.899,1.405c-0.499,0-0.998-0.043-1.493-0.133l-54.266-9.876c-2.193-0.398-3.889-1.638-4.855-3.313   c-0.963-1.679-1.201-3.799-0.479-5.954l0.029-0.077C240.176,19.264,249.501,12.838,258.956,12.838 M258.956,11.838   c-10.022,0-19.644,6.859-22.876,16.311l-0.017,0.043c-0.806,2.396-0.606,4.801,0.545,6.809c1.161,2.013,3.13,3.362,5.544,3.8   l54.266,9.876c0.546,0.099,1.108,0.149,1.672,0.149c1.86,0,3.733-0.536,5.415-1.549c2.203-1.326,3.844-3.329,4.62-5.639   l0.019-0.052c1.785-5.415,1.291-10.855-1.38-15.348c-2.602-4.376-6.974-7.32-12.311-8.29l-4.556-0.83l-22.581-4.11l-4.554-0.831   C261.521,11.952,260.239,11.838,258.956,11.838L258.956,11.838z"></path>	</g>	<g>		<path d="M296.597,47.693c2.193,0.398,4.475-0.117,6.393-1.272c1.914-1.152,3.463-2.945,4.188-5.101l0.027-0.075   c3.43-10.41-2.34-20.388-12.93-22.312l-4.557-0.83l0,0l0,0l0,0l0,0l-22.58-4.11l0,0l0,0l0,0l0,0l-4.555-0.831   c-10.592-1.924-22.004,4.923-25.557,15.311l-0.029,0.077c-0.723,2.155-0.484,4.275,0.479,5.954   c0.967,1.676,2.662,2.916,4.855,3.313L296.597,47.693z"></path>		<path fill="#FFFFFF" d="M286.804,21.632L286.804,21.632c0.613,0,1.226,0.055,1.818,0.164c2.498,0.454,4.532,1.82,5.729,3.848   c1.234,2.092,1.444,4.64,0.592,7.176c-1.547,4.61-6.216,7.957-11.104,7.957c-0.613,0-1.226-0.055-1.818-0.163   c-2.495-0.454-4.528-1.82-5.725-3.845c-1.235-2.091-1.446-4.641-0.595-7.179C277.25,24.979,281.919,21.633,286.804,21.632    M286.803,20.694c-5.181,0-10.293,3.539-11.991,8.597c-1.916,5.709,1.236,11.19,7.041,12.246c0.659,0.12,1.323,0.178,1.986,0.178   c5.185,0,10.297-3.537,11.994-8.597c1.92-5.706-1.236-11.19-7.043-12.246C288.131,20.751,287.467,20.694,286.803,20.694   L286.803,20.694z"></path>		<path fill="#FFFFFF" d="M292.403,38.04c-0.071,0-0.143-0.026-0.199-0.078l-1.721-1.594c-0.119-0.11-0.126-0.296-0.016-0.415   c0.109-0.119,0.295-0.126,0.414-0.016l1.721,1.594c0.119,0.11,0.126,0.296,0.016,0.415   C292.561,38.008,292.482,38.04,292.403,38.04z"></path>		<path fill="#FFFFFF" d="M294.22,35.84c-0.043,0-0.087-0.01-0.129-0.03l-2.16-1.056c-0.146-0.071-0.206-0.247-0.135-0.393   s0.243-0.206,0.393-0.135l2.16,1.056c0.146,0.071,0.206,0.247,0.135,0.393C294.433,35.78,294.328,35.84,294.22,35.84z"></path>		<path fill="#FFFFFF" d="M295.433,33.343c-0.018,0-0.035-0.001-0.053-0.005l-2.455-0.447c-0.159-0.029-0.265-0.182-0.236-0.341   c0.03-0.159,0.185-0.265,0.342-0.236l2.455,0.447c0.159,0.029,0.265,0.182,0.236,0.341   C295.695,33.244,295.572,33.343,295.433,33.343z"></path>		<path fill="#FFFFFF" d="M293.382,30.912c-0.152,0-0.281-0.118-0.293-0.271c-0.012-0.162,0.109-0.302,0.271-0.314l2.58-0.193   c0.158-0.01,0.302,0.11,0.314,0.271c0.012,0.162-0.109,0.302-0.271,0.314l-2.58,0.193   C293.396,30.912,293.389,30.912,293.382,30.912z"></path>		<path fill="#FFFFFF" d="M293.235,28.965c-0.124,0-0.239-0.079-0.279-0.203c-0.05-0.154,0.035-0.32,0.189-0.37l2.535-0.819   c0.147-0.051,0.319,0.034,0.369,0.189c0.05,0.154-0.035,0.32-0.189,0.37l-2.535,0.819   C293.296,28.96,293.266,28.965,293.235,28.965z"></path>		<path fill="#FFFFFF" d="M292.556,27.189c-0.1,0-0.196-0.051-0.251-0.142c-0.084-0.139-0.039-0.319,0.1-0.403l2.312-1.391   c0.14-0.084,0.319-0.039,0.402,0.1c0.084,0.139,0.039,0.319-0.1,0.403l-2.312,1.391C292.659,27.176,292.607,27.189,292.556,27.189   z"></path>		<path fill="#FFFFFF" d="M291.392,25.704c-0.077,0-0.153-0.03-0.211-0.089c-0.112-0.117-0.109-0.302,0.007-0.415l1.926-1.863   c0.116-0.113,0.303-0.109,0.415,0.007c0.112,0.117,0.109,0.302-0.007,0.415l-1.926,1.863   C291.539,25.677,291.465,25.704,291.392,25.704z"></path>		<path fill="#FFFFFF" d="M289.81,24.613c-0.055,0-0.109-0.015-0.158-0.046c-0.137-0.087-0.176-0.269-0.089-0.405l1.418-2.215   c0.087-0.136,0.27-0.175,0.405-0.089c0.137,0.087,0.176,0.269,0.089,0.405l-1.418,2.215   C290.001,24.565,289.906,24.613,289.81,24.613z"></path>		<path fill="#FFFFFF" d="M287.931,23.991c-0.031,0-0.062-0.005-0.093-0.015c-0.154-0.052-0.237-0.218-0.186-0.372l0.809-2.417   c0.052-0.154,0.221-0.236,0.371-0.185c0.154,0.052,0.237,0.218,0.186,0.372l-0.809,2.417   C288.168,23.913,288.054,23.991,287.931,23.991z"></path>		<path fill="#FFFFFF" d="M285.87,23.875c-0.006,0-0.012,0-0.019,0c-0.161-0.01-0.284-0.149-0.274-0.311l0.152-2.447   c0.01-0.162,0.125-0.268,0.312-0.275c0.161,0.01,0.284,0.149,0.274,0.311l-0.152,2.447   C286.153,23.756,286.024,23.875,285.87,23.875z"></path>		<path fill="#FFFFFF" d="M283.784,24.28c-0.134,0-0.255-0.092-0.286-0.229l-0.525-2.317c-0.036-0.158,0.063-0.315,0.222-0.351   c0.156-0.035,0.314,0.063,0.351,0.221l0.525,2.317c0.036,0.158-0.063,0.315-0.222,0.351   C283.827,24.278,283.806,24.28,283.784,24.28z"></path>		<path fill="#FFFFFF" d="M281.804,25.171c-0.102,0-0.2-0.053-0.254-0.147L280.386,23c-0.081-0.141-0.033-0.32,0.107-0.401   c0.139-0.08,0.32-0.032,0.4,0.108l1.164,2.024c0.081,0.141,0.033,0.32-0.107,0.401C281.904,25.159,281.854,25.171,281.804,25.171z   "></path>		<path fill="#FFFFFF" d="M280.067,26.496c-0.071,0-0.144-0.026-0.199-0.079l-1.719-1.596c-0.119-0.11-0.126-0.296-0.016-0.415   c0.109-0.118,0.297-0.127,0.414-0.015l1.719,1.596c0.119,0.11,0.126,0.296,0.016,0.415   C280.225,26.464,280.146,26.496,280.067,26.496z"></path>		<path fill="#FFFFFF" d="M278.69,28.155c-0.043,0-0.087-0.01-0.129-0.03l-2.16-1.056c-0.146-0.071-0.206-0.247-0.135-0.393   s0.243-0.206,0.393-0.135l2.16,1.056c0.146,0.071,0.206,0.247,0.135,0.393C278.903,28.094,278.799,28.155,278.69,28.155z"></path>		<path fill="#FFFFFF" d="M277.771,30.044c-0.018,0-0.035-0.001-0.053-0.005l-2.453-0.448c-0.159-0.029-0.265-0.182-0.236-0.341   c0.03-0.159,0.188-0.263,0.342-0.236l2.453,0.448c0.159,0.029,0.265,0.182,0.236,0.341   C278.033,29.945,277.91,30.044,277.771,30.044z"></path>		<path fill="#FFFFFF" d="M274.788,32.219c-0.152,0-0.281-0.118-0.293-0.272c-0.012-0.162,0.11-0.302,0.271-0.314l2.582-0.189   c0.16-0.013,0.302,0.11,0.314,0.271c0.012,0.162-0.11,0.302-0.271,0.314l-2.582,0.189   C274.803,32.219,274.795,32.219,274.788,32.219z"></path>		<path fill="#FFFFFF" d="M274.981,34.796c-0.124,0-0.239-0.079-0.279-0.203c-0.05-0.154,0.034-0.319,0.188-0.369l2.531-0.821   c0.154-0.051,0.32,0.034,0.37,0.188c0.05,0.154-0.034,0.319-0.188,0.369l-2.531,0.821   C275.042,34.792,275.012,34.796,274.981,34.796z"></path>		<path fill="#FFFFFF" d="M286.442,31.406c-0.207,0.614-0.881,1.021-1.504,0.906c-0.627-0.114-0.965-0.705-0.76-1.318   c0.207-0.615,0.883-1.02,1.508-0.907C286.31,30.202,286.649,30.791,286.442,31.406z"></path>		<path fill="#FFFFFF" d="M285.31,31.495c-0.102,0-0.2-0.053-0.254-0.147l-3.035-5.276c-0.081-0.141-0.033-0.32,0.107-0.401   c0.14-0.081,0.32-0.033,0.4,0.108l3.035,5.276c0.081,0.141,0.033,0.32-0.107,0.401C285.41,31.482,285.359,31.495,285.31,31.495z"></path>		<path fill="#FFFFFF" d="M287.204,37.039c-0.074,0.22-0.322,0.366-0.551,0.325l-6.408-1.168c-0.229-0.042-0.355-0.256-0.281-0.476   l0.416-1.231c0.074-0.22,0.322-0.366,0.551-0.325l6.406,1.168c0.229,0.042,0.355,0.256,0.281,0.476L287.204,37.039z"></path>		<g>			<path d="M281.588,35.663c-0.037,0.11-0.161,0.183-0.275,0.162l-0.24-0.044c-0.114-0.021-0.178-0.128-0.142-0.239l0.189-0.566    c0.036-0.11,0.16-0.184,0.274-0.163l0.242,0.044c0.114,0.021,0.178,0.128,0.141,0.238L281.588,35.663z"></path>			<path d="M282.562,35.838c-0.037,0.11-0.161,0.184-0.275,0.163l-0.242-0.043c-0.114-0.021-0.178-0.127-0.141-0.237l0.191-0.567    c0.037-0.11,0.161-0.183,0.275-0.162l0.24,0.043c0.114,0.021,0.178,0.128,0.141,0.238L282.562,35.838z"></path>			<path d="M283.535,36.017c-0.037,0.11-0.161,0.184-0.275,0.163l-0.238-0.043c-0.114-0.021-0.178-0.127-0.141-0.237l0.189-0.57    c0.037-0.11,0.161-0.183,0.275-0.162l0.24,0.044c0.114,0.021,0.178,0.128,0.141,0.238L283.535,36.017z"></path>			<path d="M284.515,36.194c-0.036,0.11-0.16,0.184-0.274,0.163l-0.244-0.045c-0.114-0.021-0.178-0.128-0.141-0.238l0.189-0.567    c0.037-0.11,0.161-0.183,0.275-0.163l0.242,0.044c0.114,0.021,0.178,0.128,0.142,0.238L284.515,36.194z"></path>			<path d="M285.486,36.373c-0.037,0.11-0.161,0.183-0.275,0.162l-0.24-0.044c-0.114-0.021-0.178-0.128-0.141-0.238l0.191-0.567    c0.037-0.11,0.161-0.184,0.275-0.163l0.24,0.043c0.114,0.021,0.178,0.127,0.141,0.237L285.486,36.373z"></path>			<path d="M286.463,36.549c-0.037,0.11-0.161,0.184-0.275,0.163l-0.238-0.043c-0.114-0.021-0.178-0.127-0.142-0.238l0.189-0.569    c0.036-0.11,0.16-0.184,0.274-0.163l0.24,0.044c0.114,0.021,0.178,0.128,0.141,0.238L286.463,36.549z"></path>		</g>		<path fill="#FF0000" d="M267.862,31.868c0.986-0.951,1.764-2.12,2.205-3.436s0.494-2.612,0.227-3.785l3.291-1.036   c0.377,1.676,0.293,3.522-0.338,5.396c-0.627,1.875-1.727,3.542-3.121,4.896L267.862,31.868z"></path>		<path fill="#FFFFFF" d="M264.225,17.521L264.225,17.521c0.612,0,1.224,0.054,1.814,0.162c2.498,0.456,4.532,1.824,5.729,3.852   c1.233,2.091,1.442,4.639,0.59,7.174c-1.546,4.611-6.216,7.958-11.103,7.958c-0.614,0-1.226-0.055-1.818-0.163   c-2.497-0.454-4.53-1.819-5.727-3.845c-1.234-2.091-1.445-4.64-0.593-7.178C254.664,20.869,259.335,17.521,264.225,17.521    M264.225,16.582c-5.188,0-10.3,3.538-11.997,8.601c-1.918,5.708,1.234,11.189,7.041,12.245c0.658,0.12,1.322,0.178,1.986,0.178   c5.183,0,10.295-3.537,11.992-8.598c1.92-5.706-1.234-11.188-7.039-12.248C265.55,16.64,264.887,16.582,264.225,16.582   L264.225,16.582z"></path>		<path fill="#FFFFFF" d="M269.819,33.927c-0.071,0-0.143-0.026-0.199-0.078l-1.721-1.591c-0.119-0.11-0.126-0.295-0.017-0.415   c0.111-0.119,0.296-0.127,0.415-0.016l1.721,1.591c0.119,0.11,0.126,0.295,0.017,0.415   C269.977,33.896,269.898,33.927,269.819,33.927z"></path>		<path fill="#FFFFFF" d="M271.638,31.729c-0.043,0-0.087-0.01-0.129-0.03l-2.164-1.057c-0.146-0.071-0.206-0.247-0.135-0.393   c0.07-0.146,0.244-0.207,0.393-0.135l2.164,1.057c0.146,0.071,0.206,0.247,0.135,0.393   C271.851,31.669,271.746,31.729,271.638,31.729z"></path>		<path fill="#FFFFFF" d="M272.853,29.234c-0.017,0-0.035-0.001-0.053-0.005l-2.459-0.447c-0.159-0.029-0.265-0.182-0.236-0.341   c0.029-0.159,0.177-0.268,0.342-0.236l2.459,0.447c0.159,0.029,0.265,0.182,0.236,0.341   C273.115,29.135,272.992,29.234,272.853,29.234z"></path>		<path fill="#FFFFFF" d="M270.798,26.803c-0.152,0-0.281-0.118-0.293-0.271c-0.012-0.162,0.109-0.302,0.271-0.314l2.578-0.193   c0.163-0.006,0.303,0.11,0.314,0.271c0.012,0.162-0.109,0.302-0.271,0.314l-2.578,0.193   C270.812,26.803,270.805,26.803,270.798,26.803z"></path>		<path fill="#FFFFFF" d="M270.655,24.854c-0.124,0-0.239-0.079-0.279-0.203c-0.05-0.154,0.034-0.319,0.188-0.369l2.529-0.821   c0.152-0.051,0.319,0.034,0.37,0.188c0.05,0.154-0.034,0.319-0.188,0.369l-2.529,0.821   C270.716,24.85,270.686,24.854,270.655,24.854z"></path>		<path fill="#FFFFFF" d="M269.976,23.08c-0.099,0-0.196-0.05-0.251-0.142c-0.084-0.139-0.039-0.319,0.1-0.403l2.309-1.395   c0.137-0.084,0.319-0.04,0.402,0.099c0.084,0.139,0.039,0.319-0.1,0.403l-2.309,1.395C270.08,23.066,270.027,23.08,269.976,23.08z   "></path>		<path fill="#FFFFFF" d="M268.804,21.591c-0.077,0-0.153-0.03-0.211-0.09c-0.112-0.117-0.109-0.302,0.007-0.415l1.93-1.862   c0.118-0.113,0.304-0.108,0.415,0.007c0.112,0.117,0.109,0.302-0.007,0.415l-1.93,1.862   C268.95,21.564,268.877,21.591,268.804,21.591z"></path>		<path fill="#FFFFFF" d="M267.228,20.5c-0.055,0-0.109-0.015-0.158-0.046c-0.137-0.087-0.176-0.269-0.089-0.405l1.416-2.213   c0.087-0.136,0.271-0.175,0.405-0.089c0.137,0.087,0.176,0.269,0.089,0.405l-1.416,2.213   C267.419,20.453,267.324,20.5,267.228,20.5z"></path>		<path fill="#FFFFFF" d="M265.345,19.875c-0.031,0-0.062-0.005-0.094-0.016c-0.153-0.052-0.236-0.218-0.185-0.372l0.812-2.407   c0.053-0.154,0.22-0.237,0.372-0.184c0.153,0.052,0.236,0.218,0.185,0.372l-0.812,2.407   C265.581,19.798,265.467,19.875,265.345,19.875z"></path>		<path fill="#FFFFFF" d="M263.29,19.763c-0.006,0-0.012,0-0.018,0c-0.162-0.01-0.285-0.149-0.275-0.311l0.146-2.444   c0.011-0.162,0.156-0.269,0.311-0.275c0.162,0.01,0.285,0.149,0.275,0.311l-0.146,2.444   C263.573,19.643,263.444,19.763,263.29,19.763z"></path>		<path fill="#FFFFFF" d="M261.2,20.167c-0.134,0-0.255-0.092-0.286-0.229l-0.525-2.313c-0.036-0.158,0.063-0.315,0.221-0.351   c0.163-0.035,0.315,0.063,0.352,0.221l0.525,2.313c0.036,0.158-0.063,0.315-0.221,0.351   C261.243,20.165,261.222,20.167,261.2,20.167z"></path>		<path fill="#FFFFFF" d="M259.218,21.06c-0.102,0-0.2-0.053-0.255-0.147l-1.158-2.021c-0.08-0.141-0.031-0.32,0.109-0.4   c0.14-0.081,0.319-0.032,0.4,0.108l1.158,2.021c0.08,0.141,0.031,0.32-0.109,0.4C259.317,21.047,259.268,21.06,259.218,21.06z"></path>		<path fill="#FFFFFF" d="M257.483,22.382c-0.071,0-0.143-0.026-0.199-0.078l-1.723-1.592c-0.119-0.11-0.126-0.295-0.017-0.415   c0.111-0.12,0.295-0.126,0.415-0.016l1.723,1.592c0.119,0.11,0.126,0.295,0.017,0.415   C257.641,22.351,257.562,22.382,257.483,22.382z"></path>		<path fill="#FFFFFF" d="M256.104,24.046c-0.044,0-0.088-0.01-0.129-0.03l-2.158-1.056c-0.146-0.071-0.206-0.247-0.135-0.393   c0.072-0.146,0.252-0.204,0.393-0.135l2.158,1.056c0.146,0.071,0.206,0.247,0.135,0.393   C256.317,23.985,256.213,24.046,256.104,24.046z"></path>		<path fill="#FFFFFF" d="M255.187,25.935c-0.018,0-0.035-0.001-0.053-0.005l-2.451-0.448c-0.159-0.029-0.265-0.182-0.235-0.341   c0.028-0.159,0.185-0.263,0.341-0.236l2.451,0.448c0.159,0.029,0.265,0.182,0.235,0.341   C255.449,25.836,255.326,25.935,255.187,25.935z"></path>		<path fill="#FFFFFF" d="M252.206,28.111c-0.152,0-0.281-0.117-0.293-0.271c-0.012-0.162,0.109-0.302,0.271-0.314l2.578-0.193   c0.165-0.005,0.303,0.109,0.314,0.271c0.012,0.162-0.109,0.302-0.271,0.314l-2.578,0.193   C252.221,28.11,252.213,28.111,252.206,28.111z"></path>		<path fill="#FFFFFF" d="M252.399,30.684c-0.124,0-0.239-0.079-0.279-0.203c-0.05-0.154,0.034-0.319,0.188-0.369l2.531-0.821   c0.154-0.05,0.32,0.034,0.37,0.188c0.05,0.154-0.034,0.319-0.188,0.369l-2.531,0.821C252.46,30.679,252.43,30.684,252.399,30.684z   "></path>		<path fill="#FFFFFF" d="M261.665,27.747c-0.297-0.512-0.062-1.219,0.529-1.57c0.588-0.356,1.303-0.222,1.602,0.291   c0.293,0.514,0.061,1.219-0.529,1.573C262.679,28.396,261.962,28.265,261.665,27.747z"></path>		<path fill="#FFFFFF" d="M269.136,28.567c-0.017,0-0.035-0.001-0.053-0.005l-6.404-1.164c-0.159-0.029-0.265-0.182-0.236-0.341   c0.029-0.159,0.178-0.267,0.342-0.236l6.404,1.164c0.159,0.029,0.265,0.182,0.236,0.341   C269.398,28.468,269.275,28.567,269.136,28.567z"></path>		<path fill="#FFFFFF" d="M246.046,27.131c-0.031,0-0.062-0.005-0.094-0.015c-0.153-0.052-0.236-0.218-0.185-0.372l0.334-0.995   c0.052-0.154,0.216-0.237,0.372-0.185c0.153,0.052,0.236,0.218,0.185,0.372l-0.334,0.995   C246.283,27.054,246.169,27.131,246.046,27.131z"></path>		<path fill="#FFFFFF" d="M244.337,27.239c-0.134,0-0.255-0.092-0.286-0.229l-0.217-0.956c-0.036-0.158,0.063-0.315,0.222-0.351   c0.155-0.036,0.314,0.063,0.351,0.221l0.217,0.956c0.036,0.158-0.063,0.315-0.222,0.351   C244.38,27.237,244.358,27.239,244.337,27.239z"></path>		<path fill="#FFFFFF" d="M242.794,28.146c-0.071,0-0.143-0.026-0.199-0.078l-0.709-0.657c-0.119-0.11-0.126-0.296-0.016-0.415   c0.109-0.118,0.295-0.126,0.414-0.016l0.709,0.657c0.119,0.11,0.126,0.296,0.016,0.415   C242.951,28.114,242.873,28.146,242.794,28.146z"></path>		<path fill="#FFFFFF" d="M248.222,29.205c-0.124,0-0.238-0.079-0.279-0.203c-0.05-0.154,0.034-0.32,0.188-0.37l1.047-0.34   c0.152-0.05,0.318,0.034,0.37,0.188c0.05,0.154-0.034,0.32-0.188,0.37l-1.047,0.34C248.282,29.2,248.252,29.205,248.222,29.205z"></path>		<path fill="#FFFFFF" d="M247.47,27.851c-0.076,0-0.153-0.03-0.211-0.089c-0.112-0.116-0.109-0.302,0.007-0.415l0.797-0.772   c0.115-0.113,0.302-0.11,0.415,0.007c0.112,0.116,0.109,0.302-0.007,0.415l-0.797,0.772   C247.617,27.824,247.543,27.851,247.47,27.851z"></path>		<path fill="#FFFFFF" d="M245.087,30.456c-0.316,0.093-0.615-0.062-0.678-0.345c-0.057-0.29,0.15-0.6,0.463-0.694   c0.312-0.097,0.611,0.059,0.672,0.345C245.603,30.049,245.397,30.359,245.087,30.456z"></path>		<path fill="#FFFFFF" d="M244.978,30.228c-0.058,0-0.115-0.017-0.166-0.052c-0.134-0.091-0.168-0.274-0.076-0.408l1.178-1.717   c0.094-0.134,0.276-0.167,0.408-0.076c0.134,0.091,0.168,0.274,0.076,0.408l-1.178,1.717   C245.162,30.184,245.07,30.228,244.978,30.228z"></path>		<g>			<path fill="#FFFFFF" d="M245.691,25.798L245.691,25.798c0.268,0,0.534,0.023,0.793,0.071c1.065,0.193,1.931,0.771,2.437,1.626    c0.525,0.889,0.613,1.981,0.247,3.075c-0.684,2.037-2.749,3.516-4.911,3.516c-0.268,0-0.534-0.024-0.794-0.071    c-1.066-0.193-1.933-0.771-2.438-1.626c-0.524-0.889-0.611-1.98-0.242-3.075C241.463,27.277,243.527,25.798,245.691,25.798     M245.691,24.859c-2.508,0-4.982,1.71-5.8,4.157c-0.93,2.761,0.594,5.414,3.404,5.922c0.318,0.058,0.641,0.086,0.961,0.086    c2.507,0,4.98-1.71,5.801-4.157c0.926-2.761-0.598-5.414-3.406-5.923C246.333,24.887,246.012,24.859,245.691,24.859    L245.691,24.859z"></path>		</g>		<path fill="#FFFFFF" d="M300.255,36.996c-0.031,0-0.062-0.005-0.093-0.015c-0.154-0.052-0.237-0.218-0.186-0.372l0.334-0.998   c0.051-0.154,0.221-0.236,0.371-0.185c0.154,0.052,0.237,0.218,0.186,0.372l-0.334,0.998   C300.492,36.918,300.378,36.996,300.255,36.996z"></path>		<path fill="#FFFFFF" d="M301.702,37.677c-0.076,0-0.153-0.03-0.211-0.089c-0.112-0.116-0.109-0.302,0.007-0.415l0.797-0.772   c0.115-0.113,0.301-0.11,0.415,0.007c0.112,0.116,0.109,0.302-0.007,0.415l-0.797,0.772   C301.85,37.649,301.775,37.677,301.702,37.677z"></path>		<path fill="#FFFFFF" d="M302.493,39.008c-0.124,0-0.238-0.079-0.279-0.203c-0.05-0.154,0.034-0.319,0.188-0.37l1.043-0.34   c0.152-0.05,0.319,0.033,0.37,0.188c0.05,0.154-0.034,0.319-0.188,0.37l-1.043,0.34C302.554,39.003,302.523,39.008,302.493,39.008   z"></path>		<path fill="#FFFFFF" d="M297.019,38.083c-0.071,0-0.143-0.026-0.199-0.078l-0.711-0.658c-0.119-0.11-0.126-0.295-0.017-0.415   c0.112-0.119,0.296-0.126,0.415-0.016l0.711,0.658c0.119,0.11,0.126,0.295,0.017,0.415   C297.176,38.052,297.098,38.083,297.019,38.083z"></path>		<path fill="#FFFFFF" d="M298.538,37.142c-0.135,0-0.256-0.093-0.286-0.229l-0.215-0.955c-0.035-0.158,0.063-0.315,0.222-0.351   c0.156-0.036,0.315,0.063,0.351,0.222l0.215,0.955c0.035,0.158-0.063,0.315-0.222,0.351   C298.581,37.14,298.56,37.142,298.538,37.142z"></path>		<path fill="#FFFFFF" d="M298.817,40.232c0.217,0.193,0.582,0.158,0.814-0.073c0.232-0.238,0.246-0.582,0.031-0.772   c-0.215-0.193-0.582-0.158-0.814,0.076C298.614,39.695,298.601,40.04,298.817,40.232z"></path>		<path fill="#FFFFFF" d="M299.241,40.102c-0.002,0-0.005,0-0.007,0c-0.162-0.004-0.29-0.139-0.286-0.301l0.047-1.921   c0.004-0.161,0.12-0.299,0.3-0.286c0.162,0.004,0.29,0.139,0.286,0.301l-0.047,1.921C299.53,39.975,299.4,40.102,299.241,40.102z"></path>		<g>			<path fill="#FFFFFF" d="M299.96,35.672c0.267,0,0.532,0.023,0.789,0.07c1.068,0.195,1.936,0.774,2.442,1.632    c0.524,0.888,0.611,1.978,0.246,3.066c-0.688,2.041-2.756,3.521-4.916,3.521c-0.268,0-0.534-0.024-0.792-0.071    c-1.066-0.195-1.932-0.773-2.438-1.63c-0.525-0.889-0.613-1.98-0.247-3.073C295.729,37.151,297.797,35.672,299.96,35.672     M299.96,34.733c-2.508,0-4.981,1.708-5.805,4.157c-0.926,2.764,0.6,5.413,3.406,5.925c0.318,0.058,0.64,0.086,0.96,0.086    c2.507,0,4.979-1.711,5.806-4.16c0.926-2.761-0.602-5.411-3.41-5.922C300.6,34.761,300.279,34.733,299.96,34.733L299.96,34.733z"></path>		</g>		<g>			<g>				<g>					<path fill="#FFFFFF" d="M244.37,32.801c0.004,0.011,0.008,0.026,0.002,0.044l-0.039,0.113c-0.004,0.018-0.014,0.03-0.031,0.039      c-0.012,0.012-0.027,0.015-0.045,0.009l-1.174-0.214c-0.016-0.002-0.029-0.012-0.037-0.021      c-0.008-0.017-0.006-0.032-0.004-0.046l0.041-0.117c0.004-0.014,0.01-0.025,0.029-0.035c0.016-0.011,0.029-0.015,0.045-0.009      l1.178,0.214C244.351,32.777,244.364,32.786,244.37,32.801z M245.333,31.83l-0.266,0.805c-0.029,0.078-0.08,0.136-0.15,0.174      c-0.078,0.044-0.152,0.054-0.229,0.034c-0.066-0.022-0.111-0.063-0.141-0.124c-0.025-0.062-0.027-0.126-0.004-0.196      l0.033-0.103c0.014-0.041,0.012-0.079-0.01-0.108c-0.02-0.034-0.049-0.053-0.088-0.061l-0.029-0.006l-0.137,0.404l-1.059-0.191      l0.426-1.269c0.023-0.064,0.064-0.113,0.127-0.152c0.061-0.035,0.127-0.049,0.188-0.038l0.588,0.109      c0.062,0.011,0.109,0.043,0.145,0.096c0.029,0.056,0.035,0.114,0.016,0.179l-0.234,0.689l0.027,0.006      c0.09,0.018,0.156,0.062,0.195,0.135c0.047,0.073,0.053,0.155,0.021,0.239l-0.037,0.119c-0.01,0.022-0.01,0.047,0,0.066      c0.014,0.02,0.033,0.032,0.059,0.036c0.023,0.005,0.045,0,0.068-0.016c0.023-0.013,0.037-0.029,0.047-0.055l0.193-0.579      c-0.045-0.021-0.078-0.047-0.102-0.091c-0.021-0.043-0.02-0.09-0.008-0.14l0.078-0.226l-0.094-0.161      c-0.008-0.012-0.008-0.025-0.004-0.044c0.008-0.017,0.014-0.028,0.031-0.034l0.057-0.039c0.012-0.008,0.029-0.008,0.047-0.006      c0.014,0.003,0.027,0.012,0.035,0.021l0.199,0.348C245.354,31.707,245.356,31.766,245.333,31.83L245.333,31.83z       M244.507,31.339l-0.59-0.108l-0.156,0.462l0.59,0.105L244.507,31.339z"></path>				</g>			</g>		</g>		<g>			<g>				<g>					<path fill="#FFFFFF" d="M297.231,42.139c-0.008-0.01-0.006-0.025,0-0.043l0.037-0.114c0.006-0.018,0.016-0.032,0.029-0.039      c0.016-0.011,0.029-0.011,0.047-0.008l0.061,0.008c0.045,0.009,0.086,0.009,0.125,0.003c0.043-0.003,0.076-0.014,0.102-0.03      c0.049-0.025,0.092-0.037,0.137-0.028l0.057,0.008c0.039,0.009,0.074,0.033,0.1,0.073c0.023,0.036,0.066,0.067,0.131,0.088      c-0.018,0.094-0.004,0.178,0.035,0.251l-0.059-0.006c-0.066-0.012-0.131-0.035-0.186-0.067      c-0.053-0.032-0.096-0.07-0.129-0.113c-0.055,0.029-0.119,0.046-0.188,0.06c-0.066,0.007-0.135,0.004-0.203-0.007l-0.061-0.01      C297.251,42.162,297.239,42.154,297.231,42.139z M299.456,42.823c0.012,0.016,0.01,0.03,0.004,0.047l-0.039,0.114      c-0.004,0.016-0.014,0.029-0.027,0.038s-0.033,0.012-0.049,0.009l-0.059-0.012c-0.068-0.011-0.133-0.032-0.186-0.067      c-0.051-0.029-0.094-0.067-0.129-0.111c-0.057,0.026-0.117,0.047-0.188,0.055c-0.068,0.012-0.137,0.01-0.203-0.005      c-0.068-0.011-0.129-0.032-0.184-0.064c-0.057-0.032-0.098-0.069-0.129-0.114c-0.057,0.027-0.119,0.047-0.188,0.056      c-0.068,0.012-0.137,0.009-0.205-0.003c-0.066-0.012-0.129-0.035-0.184-0.067c-0.055-0.029-0.1-0.071-0.133-0.111      c-0.051,0.026-0.115,0.044-0.182,0.053c-0.068,0.012-0.139,0.009-0.207-0.006l-0.059-0.009      c-0.018-0.003-0.027-0.009-0.037-0.024c-0.008-0.011-0.006-0.028,0-0.043l0.039-0.117c0.006-0.018,0.014-0.029,0.029-0.038      s0.029-0.012,0.049-0.009l0.057,0.011c0.047,0.009,0.09,0.009,0.127,0.002c0.043-0.005,0.074-0.014,0.102-0.029      c0.047-0.026,0.09-0.038,0.131-0.029l0.061,0.009c0.041,0.009,0.076,0.032,0.104,0.073c0.01,0.021,0.035,0.044,0.066,0.062      c0.033,0.018,0.07,0.031,0.115,0.04c0.045,0.009,0.088,0.009,0.125,0.004c0.043-0.004,0.074-0.015,0.104-0.03      c0.047-0.029,0.09-0.038,0.133-0.029l0.057,0.009c0.043,0.008,0.078,0.032,0.105,0.073c0.01,0.02,0.031,0.04,0.066,0.062      c0.033,0.018,0.07,0.031,0.115,0.041c0.045,0.006,0.084,0.009,0.125,0.002c0.043-0.005,0.074-0.017,0.1-0.031      c0.049-0.024,0.096-0.035,0.135-0.027l0.061,0.009c0.041,0.006,0.074,0.033,0.104,0.073c0.012,0.021,0.035,0.042,0.064,0.062      c0.031,0.018,0.072,0.032,0.117,0.041l0.057,0.009C299.438,42.803,299.45,42.809,299.456,42.823z M298.204,42.244      c-0.039-0.067-0.043-0.137-0.018-0.223c0.02-0.054,0.053-0.105,0.102-0.146c0.047-0.043,0.104-0.069,0.162-0.081l0.262-0.775      c0.004-0.018,0.018-0.029,0.027-0.038c0.018-0.009,0.033-0.012,0.051-0.009l0.352,0.062c0.02,0.007,0.031,0.016,0.037,0.027      c0.008,0.011,0.008,0.026,0.002,0.044l-0.018,0.056c-0.004,0.018-0.018,0.031-0.033,0.041      c-0.012,0.009-0.027,0.012-0.043,0.009l-0.176-0.032l-0.041,0.114l0.174,0.032c0.016,0.006,0.031,0.012,0.039,0.023      c0.006,0.015,0.008,0.03,0,0.048l-0.018,0.055c-0.006,0.018-0.016,0.029-0.031,0.038c-0.01,0.009-0.027,0.014-0.049,0.011      l-0.172-0.033l-0.043,0.116l0.178,0.032c0.02,0.004,0.029,0.01,0.037,0.024c0.004,0.012,0.01,0.026,0,0.043l-0.018,0.06      c-0.004,0.018-0.016,0.029-0.031,0.038c-0.012,0.009-0.029,0.012-0.045,0.009l-0.176-0.033l-0.029,0.085      c0.045,0.03,0.076,0.073,0.094,0.125c0.016,0.053,0.014,0.108-0.008,0.167c-0.025,0.082-0.076,0.143-0.152,0.19      c-0.076,0.043-0.158,0.061-0.236,0.047C298.302,42.353,298.241,42.311,298.204,42.244z M299.608,42.364      c0.014,0.009,0.014,0.026,0.008,0.043l-0.039,0.115c-0.006,0.018-0.014,0.029-0.029,0.038      c-0.016,0.008-0.029,0.012-0.047,0.008l-0.061-0.008c-0.072-0.015-0.135-0.036-0.186-0.067      c-0.055-0.033-0.094-0.071-0.129-0.115c-0.055,0.029-0.117,0.047-0.186,0.058c-0.066,0.01-0.139,0.006-0.205-0.005      l-0.057-0.015c0.08-0.053,0.143-0.123,0.188-0.21c0.07,0.002,0.131-0.009,0.178-0.035s0.088-0.035,0.129-0.026l0.062,0.009      c0.039,0.006,0.072,0.032,0.1,0.074c0.014,0.02,0.035,0.042,0.066,0.06c0.033,0.018,0.074,0.033,0.117,0.041l0.057,0.009      C299.593,42.341,299.606,42.35,299.608,42.364z"></path>				</g>			</g>		</g>	</g></g><g>	<path d="M239.409,84.522c-0.125,4.52,2.996,8.743,6.973,9.436c3.977,0.693,7.301-2.409,7.428-6.925  c0.125-4.52-2.998-8.743-6.975-9.436C242.86,76.904,239.536,80.002,239.409,84.522L239.409,84.522z"></path>	<g>		<path d="M247.484,94.555c-0.392,0-0.792-0.035-1.188-0.104c-4.204-0.732-7.518-5.192-7.387-9.942   c0.12-4.281,3.053-7.509,6.822-7.509c0.392,0,0.792,0.035,1.189,0.104c4.205,0.733,7.52,5.193,7.389,9.942   C254.189,91.327,251.255,94.555,247.484,94.555C247.484,94.555,247.485,94.555,247.484,94.555z"></path>		<path fill="#FFFFFF" d="M245.731,77.5c0.36,0,0.729,0.032,1.104,0.097c3.977,0.693,7.1,4.916,6.975,9.436   c-0.115,4.091-2.854,7.021-6.325,7.021c-0.36,0-0.729-0.032-1.103-0.097c-3.977-0.692-7.098-4.916-6.973-9.436   C239.524,80.428,242.263,77.5,245.731,77.5 M245.731,76.5c-4.046,0-7.194,3.437-7.322,7.995   c-0.138,4.988,3.361,9.676,7.801,10.449c0.426,0.074,0.854,0.111,1.274,0.111c4.048,0,7.196-3.437,7.325-7.993   c0.138-4.988-3.362-9.676-7.803-10.45C246.581,76.538,246.152,76.5,245.731,76.5L245.731,76.5z"></path>	</g>	<g>		<path d="M253.099,115.53c-1.044,0-1.859-0.292-2.423-0.867c-0.568-0.58-0.847-1.417-0.825-2.486   c0.176-6.194,2.077-11.021,5.653-14.352c3.618-3.378,7.373-5.474,10.302-5.75c0.235-0.021,0.46-0.03,0.68-0.03   c3.481,0,5.453,2.414,5.486,4.083c0.005,5.3-3.923,10.023-6.265,12.367C261.569,112.637,256.385,115.53,253.099,115.53   L253.099,115.53z"></path>		<path fill="#FFFFFF" d="M266.485,92.545c3.191,0,4.959,2.186,4.986,3.593c0.009,9.175-12.651,18.892-18.373,18.892   c-1.7,0-2.787-0.858-2.748-2.843c0.205-7.244,2.732-11.423,5.494-13.996c3.746-3.497,7.381-5.37,10.008-5.618   C266.069,92.554,266.28,92.545,266.485,92.545 M266.485,91.545c-0.233,0-0.473,0.01-0.72,0.032   c-3.043,0.287-6.905,2.431-10.604,5.883c-3.677,3.425-5.632,8.371-5.812,14.699c-0.023,1.217,0.302,2.175,0.968,2.854   c0.661,0.674,1.597,1.017,2.78,1.017c3.118,0,7.945-2.52,12.014-6.27c4.682-4.315,7.363-9.281,7.359-13.623   C272.435,94.25,270.282,91.545,266.485,91.545L266.485,91.545z"></path>	</g>	<g>		<path d="M250.403,121.057c-1.593,0-3.22-0.143-4.836-0.424c-17.25-3.006-30.84-21.374-30.293-40.944   c0.494-17.727,12.092-30.594,27.58-30.594c1.592,0,3.218,0.143,4.833,0.424c17.25,3.008,30.843,21.377,30.299,40.948   C277.492,108.191,265.893,121.057,250.403,121.057z"></path>		<path fill="#FFFFFF" d="M242.854,49.595c1.551,0,3.136,0.136,4.747,0.417c17.078,2.978,30.424,21.037,29.885,40.441   c-0.488,17.568-12.194,30.104-27.082,30.104c-1.553,0-3.138-0.136-4.75-0.417c-17.07-2.975-30.421-21.037-29.879-40.437   C216.263,62.132,227.967,49.595,242.854,49.595 M242.854,48.595L242.854,48.595c-7.534,0-14.523,3.123-19.68,8.792   c-5.175,5.691-8.159,13.606-8.4,22.288c-0.554,19.809,13.222,38.403,30.707,41.45c1.645,0.286,3.301,0.432,4.922,0.432   c7.534,0,14.523-3.122,19.681-8.791c5.176-5.69,8.16-13.604,8.401-22.285c0.55-19.809-13.228-38.405-30.713-41.455   C246.128,48.74,244.474,48.595,242.854,48.595L242.854,48.595z"></path>	</g>	<g>		<path d="M247.201,92.03c-0.277,0-0.56-0.024-0.839-0.073c-3.044-0.529-5.354-3.632-5.26-7.064c0.087-3.061,2.199-5.37,4.915-5.37   c0.276,0,0.558,0.025,0.837,0.073c2.994,0.523,5.353,3.694,5.258,7.067C252.025,89.723,249.914,92.03,247.201,92.03z"></path>		<path fill="#FFFFFF" d="M246.018,80.023c0.245,0,0.496,0.021,0.751,0.066c2.74,0.479,4.932,3.444,4.844,6.56   c-0.08,2.827-2.006,4.881-4.411,4.881c-0.247,0-0.498-0.021-0.753-0.066c-2.74-0.477-4.934-3.365-4.846-6.558   C241.683,82.079,243.609,80.024,246.018,80.023 M246.018,79.023L246.018,79.023c-2.993,0-5.32,2.518-5.415,5.855   c-0.101,3.675,2.392,7,5.675,7.571c0.307,0.053,0.618,0.081,0.924,0.081c2.99,0,5.316-2.516,5.411-5.853   c0.102-3.612-2.442-7.009-5.672-7.573C246.633,79.051,246.322,79.023,246.018,79.023L246.018,79.023z"></path>	</g>	<path fill="#B3B3B3" d="M239.409,84.522c-0.125,4.52,2.996,8.743,6.973,9.436c3.977,0.693,7.301-2.409,7.428-6.925  c0.125-4.52-2.998-8.743-6.975-9.436C242.86,76.904,239.536,80.002,239.409,84.522L239.409,84.522z"></path>	<path fill="#B3B3B3" d="M221.695,74.938c-0.177,1.381,2.365,1.666,3.947,1.706c4.964-0.151,13.398-3.54,21.691-2.092  c5.83,1.014,11.984,5.218,16.131,7.349c1.424,0.72,3.455,1.935,6.4,2.603c1.092,0.269,2.203,0.149,2.16-0.952  c-0.191-7.788-8.543-24.667-24.592-27.458C235.229,53.966,222.977,63.495,221.695,74.938L221.695,74.938z"></path>	<path fill="#B3B3B3" d="M221.55,87.441c-0.67,11.786,19.789,31.87,20.029,23.22c0.199-7.248-2.074-12.263-4.662-15.766  c-3.52-4.688-6.947-7.864-9.607-8.957C223.773,84.383,221.66,85.976,221.55,87.441L221.55,87.441z"></path></g><g>	<polygon fill="#D4A686" points="310.933,56.051 181.822,100.173 241.388,134.41 362.417,86.264  "></polygon>	<path fill="#2A2829" d="M241.388,135.16c-0.13,0-0.259-0.034-0.374-0.1l-59.565-34.237c-0.255-0.147-0.401-0.429-0.373-0.723  c0.028-0.293,0.226-0.542,0.504-0.637L310.69,55.342c0.204-0.07,0.434-0.048,0.622,0.062l51.484,30.212  c0.247,0.145,0.39,0.418,0.368,0.704s-0.204,0.534-0.471,0.64l-121.029,48.146C241.575,135.142,241.481,135.16,241.388,135.16z   M183.63,100.347l57.817,33.231l119.267-47.445L310.85,56.872L183.63,100.347z"></path></g><g opacity="0.5">	<path fill="#EFDAB9" d="M105.346,243.587v-9.454l3.19,1.023c0.615,0.197,1.128,0.47,1.54,0.817c0.411,0.347,0.719,0.74,0.926,1.179  c0.206,0.438,0.309,0.895,0.309,1.369c0,0.394-0.066,0.709-0.198,0.947c-0.133,0.237-0.312,0.406-0.541,0.505  c-0.228,0.1-0.481,0.143-0.761,0.13v0.073c0.304,0.12,0.6,0.321,0.886,0.605c0.287,0.284,0.522,0.628,0.707,1.032  c0.185,0.404,0.277,0.846,0.277,1.326c0,0.477-0.106,0.869-0.318,1.174s-0.538,0.496-0.977,0.568  c-0.438,0.073-0.996,0.001-1.673-0.216L105.346,243.587z M106.209,238.68l2.405,0.772c0.372,0.12,0.699,0.147,0.979,0.083  c0.28-0.064,0.499-0.207,0.655-0.427c0.157-0.221,0.235-0.505,0.235-0.853c0-0.502-0.163-0.962-0.489-1.383  c-0.327-0.42-0.813-0.734-1.459-0.941l-2.327-0.747V238.68z M106.209,243.089l2.502,0.803c0.729,0.234,1.269,0.246,1.618,0.035  c0.349-0.211,0.524-0.561,0.524-1.051c0-0.36-0.087-0.715-0.261-1.065c-0.174-0.35-0.419-0.661-0.734-0.935  c-0.316-0.274-0.686-0.479-1.11-0.615l-2.539-0.814V243.089z"></path>	<path fill="#EFDAB9" d="M115.571,247.031c-0.428-0.137-0.819-0.347-1.173-0.628c-0.354-0.281-0.635-0.615-0.845-1  c-0.209-0.386-0.313-0.806-0.313-1.262c0-0.351,0.066-0.625,0.198-0.823s0.32-0.334,0.563-0.41  c0.243-0.076,0.531-0.105,0.863-0.088c0.333,0.018,0.699,0.066,1.099,0.145c0.397,0.079,0.733,0.143,1.009,0.195  c0.275,0.051,0.485,0.061,0.63,0.026c0.145-0.033,0.217-0.14,0.217-0.318v-0.167c0-0.483-0.144-0.91-0.432-1.281  c-0.288-0.371-0.701-0.643-1.24-0.815c-0.511-0.164-0.927-0.185-1.249-0.063c-0.321,0.122-0.547,0.313-0.676,0.577l-0.78-0.532  c0.16-0.336,0.381-0.575,0.665-0.717c0.283-0.142,0.6-0.208,0.951-0.198c0.351,0.01,0.707,0.072,1.067,0.188  c0.271,0.086,0.553,0.213,0.847,0.378c0.293,0.165,0.566,0.375,0.819,0.63s0.457,0.562,0.614,0.922s0.235,0.777,0.235,1.25v4.815  l-0.822-0.264v-1.122l-0.05-0.017c-0.099,0.178-0.245,0.334-0.439,0.469s-0.437,0.218-0.729,0.25  C116.308,247.205,115.964,247.157,115.571,247.031z M115.682,246.314c0.437,0.14,0.815,0.165,1.135,0.073  c0.321-0.091,0.567-0.27,0.741-0.535s0.261-0.593,0.261-0.98v-1.024c-0.062,0.038-0.164,0.058-0.307,0.058  c-0.143,0-0.308-0.012-0.494-0.036c-0.186-0.024-0.372-0.054-0.556-0.088c-0.185-0.035-0.351-0.066-0.499-0.096  c-0.4-0.079-0.741-0.111-1.024-0.098s-0.5,0.088-0.651,0.223c-0.151,0.135-0.227,0.345-0.227,0.631  c0,0.431,0.154,0.813,0.462,1.148C114.831,245.923,115.217,246.165,115.682,246.314z"></path>	<path fill="#EFDAB9" d="M123.594,249.592c-0.634-0.204-1.186-0.539-1.655-1.006c-0.469-0.468-0.833-1.019-1.091-1.652  c-0.259-0.634-0.388-1.303-0.388-2.008c0-0.711,0.131-1.301,0.395-1.771c0.263-0.469,0.628-0.787,1.096-0.952  s1.011-0.149,1.63,0.05c0.474,0.152,0.903,0.381,1.288,0.688c0.384,0.307,0.703,0.666,0.953,1.077  c0.251,0.411,0.409,0.847,0.473,1.308l-0.831-0.267c-0.086-0.428-0.293-0.836-0.621-1.227c-0.328-0.39-0.744-0.666-1.249-0.828  c-0.452-0.146-0.853-0.151-1.2-0.019c-0.348,0.133-0.62,0.386-0.815,0.759s-0.293,0.846-0.293,1.418  c0,0.575,0.096,1.115,0.286,1.618c0.191,0.502,0.459,0.934,0.806,1.295c0.346,0.36,0.752,0.615,1.216,0.764  c0.314,0.101,0.601,0.134,0.861,0.099c0.26-0.035,0.478-0.133,0.655-0.295s0.296-0.384,0.358-0.666l0.831,0.267  c-0.062,0.408-0.213,0.74-0.455,0.996c-0.242,0.257-0.554,0.419-0.938,0.486C124.524,249.795,124.086,249.75,123.594,249.592z"></path>	<path fill="#EFDAB9" d="M128.058,250.877v-9.455l0.822,0.264v9.455L128.058,250.877z M128.806,248.439l-0.009-1.078l0.185,0.059  l3.324-2.271l1.039,0.333l-3.282,2.233l-0.074-0.01L128.806,248.439z M132.476,252.295l-2.88-4.567l0.591-0.378l3.342,5.283  L132.476,252.295z"></path></g></svg>