<svg xmlns="http://www.w3.org/2000/svg" xmlns:xlink="http://www.w3.org/1999/xlink" id="Layer_1" x="0px" y="0px" width="363px" height="255px" viewBox="0 0 363 255" xml:space="preserve"><g>	<g>		<g>			<polygon fill="#D4A686" points="160.969,36.543 52.184,56.056 52.184,204.693 181.27,254.249 181.27,42.174    "></polygon>			<path fill="#2A2829" d="M181.27,254.999c-0.091,0-0.182-0.017-0.269-0.05L51.916,205.393c-0.29-0.111-0.481-0.39-0.481-0.7    V56.056c0-0.363,0.26-0.674,0.618-0.738l108.785-19.513c0.111-0.019,0.224-0.014,0.333,0.016l20.301,5.631    c0.325,0.09,0.549,0.386,0.549,0.723v212.075c0,0.247-0.122,0.479-0.325,0.618C181.568,254.954,181.419,254.999,181.27,254.999z     M52.934,204.177l127.587,48.981V42.744l-19.587-5.433l-108,19.372V204.177z"></path>		</g>		<g>			<polygon fill="#D4A686" points="181.27,42.174 181.27,254.249 181.272,254.25 302.277,216.194 302.277,75.737    "></polygon>			<path fill="#2A2829" d="M181.272,255c-0.118,0-0.236-0.028-0.343-0.083l-0.002-0.001c-0.25-0.129-0.407-0.386-0.407-0.667V42.174    c0-0.234,0.109-0.455,0.295-0.597c0.187-0.141,0.429-0.188,0.654-0.125l121.007,33.563c0.325,0.09,0.55,0.386,0.55,0.723v140.457    c0,0.327-0.213,0.617-0.525,0.716l-121.005,38.056C181.423,254.988,181.348,255,181.272,255z M182.02,43.16v210.069    l119.509-37.586V76.308L182.02,43.16z"></path>		</g>		<g>			<polygon fill="#D4A686" points="302.271,75.738 345.07,37.516 203.858,1.827 160.866,36.514    "></polygon>			<path fill="#2A2829" d="M302.271,76.488c-0.067,0-0.135-0.009-0.2-0.027L160.666,37.237c-0.271-0.075-0.477-0.295-0.534-0.571    c-0.057-0.275,0.045-0.559,0.264-0.736l42.992-34.688c0.184-0.147,0.427-0.202,0.654-0.143l141.212,35.689    c0.27,0.068,0.479,0.279,0.545,0.548s-0.022,0.553-0.229,0.738l-42.799,38.223C302.632,76.422,302.453,76.488,302.271,76.488z     M162.473,36.182l139.604,38.725l41.441-37.009L204.038,2.646L162.473,36.182z"></path>		</g>		<g>			<polygon fill="#D4A686" points="52.209,56.047 22.849,21.77 126.292,0.75 160.866,36.514    "></polygon>			<path fill="#2A2829" d="M52.209,56.796c-0.217,0-0.426-0.094-0.569-0.262L22.28,22.258c-0.173-0.202-0.227-0.48-0.14-0.731    s0.3-0.438,0.56-0.491l103.443-21.02c0.252-0.052,0.51,0.029,0.688,0.213l34.575,35.764c0.192,0.199,0.259,0.488,0.174,0.752    c-0.084,0.264-0.308,0.458-0.581,0.508L52.342,56.785C52.297,56.792,52.253,56.796,52.209,56.796z M24.248,22.251l28.25,32.982    l106.852-19.208L126.039,1.567L24.248,22.251z"></path>		</g>		<g>			<polygon fill="#D4A686" points="52.209,56.047 181.261,100.165 121.723,134.398 0.75,86.257    "></polygon>			<path fill="#2A2829" d="M121.723,135.148c-0.094,0-0.188-0.018-0.277-0.053L0.473,86.953c-0.266-0.106-0.449-0.354-0.471-0.639    c-0.021-0.286,0.122-0.559,0.369-0.704L51.83,55.4c0.188-0.111,0.414-0.134,0.622-0.062l129.053,44.118    c0.278,0.095,0.475,0.344,0.503,0.637c0.028,0.293-0.118,0.576-0.373,0.723l-59.539,34.234    C121.981,135.115,121.852,135.148,121.723,135.148z M2.452,86.127l119.211,47.441l57.791-33.229L52.292,56.867L2.452,86.127z"></path>		</g>		<g>			<g>				<polygon fill="#B58B6A" points="160.938,36.543 160.897,36.55 160.897,93.214 181.229,100.165 302.246,75.746 302.246,75.737          "></polygon>				<path fill="#2A2829" d="M181.229,100.902c-0.081,0-0.162-0.013-0.239-0.04l-20.333-6.951c-0.298-0.102-0.499-0.383-0.499-0.698     V36.55c0-0.357,0.255-0.663,0.606-0.726c0.11-0.02,0.262-0.021,0.369,0.008l141.309,39.194c0.319,0.088,0.541,0.379,0.541,0.711     c0,0.351-0.248,0.663-0.593,0.732l-121.016,24.418C181.327,100.897,181.278,100.902,181.229,100.902z M161.634,92.686     l19.645,6.716l117.816-23.773L161.634,37.502V92.686z"></path>			</g>			<g>				<polygon fill="#B58B6A" points="52.184,56.049 160.897,93.214 160.897,36.55     "></polygon>				<path fill="#2A2829" d="M160.897,93.952c-0.08,0-0.161-0.013-0.239-0.04L51.945,56.747c-0.318-0.108-0.522-0.418-0.497-0.754     c0.025-0.335,0.274-0.611,0.605-0.67l108.713-19.499c0.215-0.035,0.436,0.021,0.604,0.161c0.167,0.14,0.264,0.348,0.264,0.566     v56.664c0,0.238-0.114,0.462-0.308,0.6C161.199,93.905,161.049,93.952,160.897,93.952z M55.118,56.272l105.042,35.91v-54.75     L55.118,56.272z"></path>			</g>		</g>		<g>			<g>				<path fill-rule="evenodd" clip-rule="evenodd" d="M87.214,211.533c-1.474,0-2.984-0.143-4.487-0.424     c-15.417-2.882-27.96-19.821-27.96-37.761c0-16.151,9.949-27.874,23.655-27.874c1.475,0,2.984,0.143,4.489,0.424     c15.417,2.881,27.959,19.818,27.959,37.754C110.87,199.808,100.921,211.533,87.214,211.533z"></path>				<path fill="#FFFFFF" d="M78.422,145.975c1.433,0,2.899,0.135,4.397,0.415c15.217,2.845,27.551,19.53,27.551,37.264     c0,15.995-10.029,27.38-23.156,27.38c-1.432,0-2.899-0.136-4.396-0.415c-15.218-2.845-27.552-19.533-27.552-37.27     C55.267,157.361,65.295,145.976,78.422,145.975 M78.424,144.975h-0.002c-6.69,0.001-12.82,2.856-17.259,8.041     c-4.447,5.194-6.896,12.414-6.896,20.333c0,18.168,12.726,35.328,28.368,38.253c1.534,0.286,3.074,0.432,4.579,0.432     c6.691,0,12.821-2.856,17.26-8.042c4.446-5.195,6.896-12.417,6.896-20.338c0-18.166-12.726-35.322-28.367-38.247     C81.468,145.121,79.928,144.975,78.424,144.975L78.424,144.975z"></path>			</g>			<path fill-rule="evenodd" clip-rule="evenodd" fill="#B3B3B3" d="M82.819,154.764c-11.25-2.104-20.369,6.819-20.369,19.929    c0,13.111,9.119,25.443,20.369,27.549c11.248,2.104,20.369-6.821,20.369-19.931C103.188,169.2,94.067,156.869,82.819,154.764z     M82.253,159.339c1.021,0.175,2.095,0.339,2.937,0.726c0.346,0.159,0.685,0.194,1.017,0.364c0.509,0.264,0.911,0.545,1.279,0.932    c0.609,0.646,1.195,2.213,0.759,3.37c-0.331,0.88-0.865,1.533-1.339,2.229c-0.644,0.948-1.258,1.926-1.898,2.871    c-0.326,0.476-0.64,0.958-0.958,1.434c-0.383,0.562-0.703,1.085-1.278,1.388c-0.215,0.119-0.459,0.174-0.745,0.203    c-0.1-0.017-0.202-0.029-0.304-0.042c-0.032,0-0.096,0.013-0.151-0.009c-0.328-0.146-0.605-0.211-0.869-0.396    c-0.3-0.206-0.553-0.498-0.805-0.751c-0.389-0.393-0.749-0.81-1.127-1.204c-0.927-0.968-1.81-1.991-2.737-2.957    c-0.332-0.346-0.644-0.711-0.973-1.051c-0.518-0.539-1.024-1.086-1.368-1.798c-0.263-0.548-0.495-1.581-0.302-2.342    c0.124-0.504,0.328-0.887,0.576-1.221c0.35-0.477,1.024-0.721,1.565-0.949c0.825-0.348,1.744-0.568,2.693-0.755    c0.499-0.099,1.034-0.089,1.549-0.155c0.564-0.067,1.171,0.069,1.75,0.025C81.671,159.241,82.163,159.388,82.253,159.339z     M67.094,170.303c0.303-1.082,0.604-2.224,1.051-3.001c0.185-0.32,0.269-0.689,0.46-0.988c0.291-0.455,0.585-0.786,0.958-1.023    c0.625-0.394,1.994-0.338,2.869,0.692c0.667,0.782,1.116,1.688,1.611,2.55c0.672,1.17,1.372,2.32,2.043,3.488    c0.339,0.588,0.684,1.166,1.019,1.746c0.401,0.696,0.777,1.303,0.935,2.097c0.063,0.297,0.07,0.6,0.046,0.94    c-0.027,0.107-0.054,0.22-0.08,0.327c-0.004,0.038-0.002,0.117-0.031,0.167c-0.167,0.307-0.267,0.591-0.457,0.805    c-0.217,0.243-0.493,0.398-0.742,0.568c-0.379,0.264-0.776,0.476-1.155,0.723c-0.937,0.609-1.91,1.143-2.842,1.75    c-0.335,0.217-0.681,0.405-1.009,0.623c-0.521,0.337-1.047,0.664-1.68,0.722c-0.492,0.05-1.37-0.167-1.96-0.732    c-0.39-0.377-0.672-0.789-0.907-1.221c-0.333-0.619-0.428-1.497-0.528-2.221c-0.153-1.098-0.191-2.246-0.195-3.407    c-0.002-0.615,0.088-1.218,0.117-1.837c0.032-0.67,0.238-1.302,0.296-1.976C66.927,170.919,67.122,170.427,67.094,170.303z     M73.67,192.6c-0.834-0.844-1.72-1.713-2.285-2.581c-0.233-0.356-0.52-0.623-0.734-0.978c-0.327-0.545-0.551-1.03-0.684-1.561    c-0.225-0.891,0.038-2.421,1.01-2.944c0.746-0.396,1.555-0.486,2.336-0.65c1.06-0.227,2.107-0.491,3.164-0.717    c0.534-0.113,1.06-0.24,1.587-0.352c0.63-0.135,1.184-0.283,1.857-0.099c0.25,0.067,0.499,0.202,0.77,0.384    c0.087,0.081,0.171,0.16,0.257,0.241c0.028,0.022,0.094,0.058,0.132,0.114c0.223,0.334,0.438,0.576,0.584,0.891    c0.164,0.359,0.25,0.745,0.348,1.104c0.153,0.554,0.267,1.104,0.409,1.651c0.351,1.344,0.634,2.698,0.983,4.037    c0.123,0.479,0.224,0.962,0.348,1.435c0.194,0.748,0.378,1.5,0.329,2.248c-0.037,0.578-0.353,1.475-0.906,1.887    c-0.368,0.271-0.745,0.398-1.141,0.467c-0.553,0.096-1.287-0.205-1.891-0.424c-0.921-0.331-1.863-0.82-2.813-1.352    c-0.5-0.281-0.979-0.661-1.478-0.979c-0.544-0.347-1.026-0.868-1.566-1.249C74.148,193.076,73.776,192.627,73.67,192.6z     M92.895,195.416c-0.819,0.557-1.667,1.166-2.465,1.406c-0.328,0.1-0.587,0.303-0.913,0.385c-0.494,0.12-0.924,0.15-1.381,0.055    c-0.762-0.154-1.971-1.156-2.243-2.507c-0.206-1.03-0.156-1.991-0.167-2.953c-0.02-1.31-0.073-2.628-0.09-3.932    c-0.011-0.654-0.03-1.313-0.038-1.967c-0.011-0.774-0.046-1.478,0.211-2.154c0.095-0.254,0.242-0.477,0.434-0.702    c0.078-0.059,0.158-0.121,0.236-0.179c0.023-0.022,0.062-0.082,0.114-0.096c0.306-0.1,0.539-0.235,0.817-0.254    c0.319-0.025,0.646,0.058,0.955,0.115c0.476,0.079,0.943,0.203,1.408,0.292c1.157,0.224,2.304,0.528,3.451,0.749    c0.412,0.08,0.821,0.186,1.226,0.266c0.642,0.123,1.281,0.26,1.886,0.662c0.466,0.312,1.149,1.082,1.396,1.904    c0.166,0.541,0.21,1.033,0.205,1.508c-0.01,0.674-0.368,1.371-0.641,1.957c-0.416,0.892-0.96,1.738-1.543,2.573    c-0.309,0.442-0.694,0.808-1.032,1.228c-0.37,0.46-0.871,0.763-1.264,1.206C93.356,195.092,92.933,195.308,92.895,195.416z     M98.199,174.857c0.328,1.19,0.691,2.432,0.762,3.451c0.029,0.42,0.157,0.81,0.17,1.218c0.023,0.616-0.021,1.121-0.17,1.595    c-0.246,0.795-1.253,1.704-2.396,1.391c-0.875-0.237-1.65-0.741-2.436-1.171c-1.074-0.584-2.155-1.131-3.22-1.712    c-0.541-0.295-1.08-0.573-1.612-0.863c-0.638-0.346-1.212-0.631-1.727-1.236c-0.193-0.227-0.348-0.494-0.504-0.815    c-0.036-0.119-0.072-0.237-0.108-0.354c-0.013-0.036-0.056-0.107-0.062-0.174c-0.033-0.39-0.106-0.718-0.079-1.045    c0.031-0.375,0.15-0.709,0.244-1.033c0.138-0.507,0.314-0.977,0.461-1.468c0.362-1.209,0.788-2.373,1.149-3.575    c0.129-0.433,0.281-0.847,0.405-1.274c0.205-0.671,0.417-1.334,0.838-1.835c0.327-0.388,1.063-0.808,1.771-0.712    c0.469,0.062,0.877,0.238,1.263,0.464c0.55,0.324,1.061,1.051,1.497,1.635c0.664,0.885,1.269,1.894,1.859,2.944    c0.311,0.551,0.549,1.158,0.84,1.737c0.316,0.63,0.487,1.342,0.787,1.991C98.007,174.185,98.117,174.765,98.199,174.857z"></path>			<g>				<path d="M82.817,201.105c-10.692-2-19.391-13.767-19.391-26.228c0-12.463,8.699-20.974,19.391-18.974     c10.694,1.999,19.394,13.764,19.394,26.226C102.21,194.591,93.511,203.104,82.817,201.105z M82.817,157.242     c-10.056-1.883-18.241,6.125-18.241,17.848c0,11.728,8.186,22.793,18.241,24.673c10.059,1.883,18.244-6.127,18.244-17.849     C101.061,170.189,92.876,159.122,82.817,157.242z"></path>			</g>			<path fill-rule="evenodd" clip-rule="evenodd" d="M84.909,178.891c0,1.349-0.935,2.264-2.09,2.048    c-1.157-0.217-2.093-1.48-2.093-2.83c0-1.345,0.937-2.262,2.093-2.045C83.975,176.28,84.909,177.547,84.909,178.891z"></path>			<g>				<path fill-rule="evenodd" clip-rule="evenodd" d="M85.232,175.104c0,0.49-0.34,0.824-0.764,0.746     c-0.419-0.08-0.761-0.541-0.761-1.031c0-0.493,0.342-0.826,0.761-0.746C84.892,174.15,85.232,174.613,85.232,175.104z"></path>				<path fill-rule="evenodd" clip-rule="evenodd" d="M79.515,175.071c0.421,0.079,0.764,0.541,0.764,1.032     c0,0.491-0.343,0.822-0.764,0.745c-0.422-0.08-0.763-0.542-0.763-1.032C78.751,175.324,79.093,174.993,79.515,175.071z"></path>				<path fill-rule="evenodd" clip-rule="evenodd" d="M80.403,181.9c0-0.487,0.342-0.822,0.762-0.745     c0.424,0.081,0.764,0.541,0.764,1.032c0,0.489-0.34,0.826-0.764,0.746C80.745,182.854,80.403,182.391,80.403,181.9z"></path>				<path fill-rule="evenodd" clip-rule="evenodd" d="M86.122,181.935c-0.42-0.079-0.763-0.542-0.763-1.033     c0-0.492,0.343-0.823,0.763-0.746c0.419,0.08,0.764,0.542,0.764,1.033C86.885,181.678,86.541,182.014,86.122,181.935z"></path>			</g>		</g>		<g>			<g>				<path fill-rule="evenodd" clip-rule="evenodd" d="M153.986,239.216c-1.474,0-2.985-0.143-4.488-0.424     c-15.417-2.881-27.96-19.821-27.96-37.76c0-16.151,9.949-27.874,23.655-27.874c1.475,0,2.984,0.143,4.489,0.424     c15.417,2.881,27.959,19.818,27.959,37.754C177.641,227.492,167.693,239.216,153.986,239.216z"></path>				<path fill="#FFFFFF" d="M145.193,173.659c1.433,0,2.899,0.136,4.397,0.415c15.217,2.844,27.551,19.53,27.551,37.263     c0,15.994-10.029,27.379-23.155,27.379c-1.433,0-2.899-0.136-4.396-0.415c-15.218-2.844-27.552-19.533-27.552-37.269     C122.038,185.045,132.066,173.66,145.193,173.659 M145.195,172.659h-0.002c-6.69,0.001-12.82,2.856-17.259,8.042     c-4.447,5.194-6.896,12.414-6.896,20.332c0,18.168,12.726,35.327,28.368,38.252c1.534,0.286,3.075,0.432,4.58,0.432     c6.69,0,12.82-2.856,17.259-8.042c4.446-5.195,6.896-12.418,6.896-20.338c0-18.165-12.726-35.321-28.367-38.246     C148.239,172.805,146.699,172.659,145.195,172.659L145.195,172.659z"></path>			</g>			<path fill-rule="evenodd" clip-rule="evenodd" fill="#B3B3B3" d="M149.59,182.446c-11.25-2.103-20.369,6.82-20.369,19.931    s9.119,25.443,20.369,27.548c11.248,2.106,20.369-6.82,20.369-19.931S160.838,184.551,149.59,182.446z M149.024,187.021    c1.021,0.176,2.095,0.34,2.937,0.728c0.346,0.158,0.686,0.193,1.017,0.364c0.509,0.262,0.911,0.544,1.279,0.931    c0.609,0.646,1.195,2.212,0.759,3.369c-0.331,0.881-0.866,1.533-1.339,2.229c-0.644,0.948-1.258,1.926-1.898,2.871    c-0.326,0.477-0.64,0.96-0.958,1.436c-0.383,0.562-0.703,1.084-1.278,1.387c-0.215,0.118-0.459,0.173-0.745,0.202    c-0.1-0.017-0.202-0.029-0.304-0.041c-0.032,0-0.096,0.012-0.151-0.01c-0.328-0.146-0.605-0.21-0.869-0.395    c-0.3-0.206-0.553-0.498-0.805-0.751c-0.389-0.393-0.749-0.811-1.127-1.205c-0.927-0.969-1.81-1.992-2.737-2.957    c-0.332-0.346-0.644-0.711-0.973-1.051c-0.518-0.538-1.024-1.084-1.368-1.796c-0.263-0.549-0.495-1.582-0.302-2.344    c0.124-0.504,0.328-0.887,0.576-1.221c0.35-0.476,1.024-0.72,1.565-0.949c0.825-0.347,1.744-0.568,2.693-0.754    c0.499-0.1,1.034-0.09,1.549-0.155c0.564-0.068,1.171,0.068,1.75,0.025C148.442,186.926,148.934,187.071,149.024,187.021z     M133.865,197.987c0.303-1.082,0.604-2.226,1.051-3.003c0.185-0.32,0.269-0.688,0.46-0.988c0.291-0.455,0.585-0.784,0.958-1.024    c0.625-0.393,1.994-0.337,2.869,0.694c0.667,0.783,1.116,1.687,1.611,2.55c0.672,1.168,1.372,2.318,2.043,3.487    c0.339,0.586,0.684,1.165,1.019,1.745c0.401,0.697,0.777,1.303,0.935,2.098c0.063,0.296,0.07,0.6,0.046,0.939    c-0.027,0.108-0.054,0.22-0.08,0.328c-0.004,0.037-0.002,0.117-0.031,0.168c-0.167,0.305-0.267,0.589-0.457,0.802    c-0.217,0.245-0.493,0.399-0.743,0.569c-0.378,0.264-0.775,0.476-1.155,0.724c-0.937,0.608-1.91,1.141-2.842,1.75    c-0.335,0.217-0.681,0.405-1.009,0.622c-0.521,0.338-1.047,0.664-1.68,0.723c-0.492,0.051-1.37-0.167-1.96-0.732    c-0.39-0.377-0.672-0.789-0.907-1.222c-0.333-0.618-0.428-1.495-0.528-2.22c-0.153-1.097-0.191-2.244-0.195-3.407    c-0.002-0.613,0.088-1.218,0.117-1.836c0.032-0.67,0.238-1.302,0.296-1.976C133.698,198.603,133.893,198.111,133.865,197.987z     M140.441,220.283c-0.834-0.844-1.72-1.713-2.285-2.581c-0.233-0.356-0.52-0.622-0.734-0.977    c-0.327-0.545-0.551-1.03-0.684-1.562c-0.225-0.891,0.038-2.421,1.01-2.944c0.746-0.394,1.555-0.489,2.336-0.652    c1.06-0.225,2.107-0.491,3.164-0.716c0.534-0.113,1.06-0.238,1.587-0.351c0.63-0.136,1.184-0.284,1.857-0.099    c0.25,0.067,0.499,0.201,0.77,0.383c0.087,0.081,0.171,0.162,0.257,0.241c0.028,0.021,0.094,0.059,0.132,0.115    c0.223,0.334,0.438,0.574,0.584,0.89c0.164,0.36,0.25,0.745,0.348,1.103c0.153,0.555,0.267,1.105,0.409,1.652    c0.351,1.344,0.634,2.698,0.983,4.038c0.123,0.478,0.224,0.96,0.348,1.434c0.194,0.748,0.378,1.5,0.329,2.247    c-0.037,0.579-0.353,1.475-0.906,1.886c-0.368,0.273-0.745,0.399-1.141,0.467c-0.553,0.097-1.287-0.204-1.891-0.423    c-0.921-0.331-1.863-0.819-2.813-1.351c-0.5-0.282-0.979-0.662-1.478-0.98c-0.544-0.346-1.026-0.869-1.566-1.249    C140.919,220.76,140.547,220.311,140.441,220.283z M159.666,223.101c-0.819,0.556-1.667,1.167-2.465,1.406    c-0.328,0.099-0.587,0.303-0.913,0.385c-0.494,0.119-0.924,0.15-1.381,0.056c-0.762-0.155-1.971-1.158-2.243-2.508    c-0.206-1.029-0.156-1.991-0.167-2.953c-0.02-1.31-0.073-2.627-0.09-3.931c-0.011-0.656-0.03-1.313-0.038-1.967    c-0.011-0.776-0.046-1.479,0.211-2.155c0.095-0.254,0.242-0.476,0.434-0.701c0.078-0.06,0.158-0.121,0.236-0.18    c0.023-0.021,0.062-0.081,0.114-0.096c0.306-0.1,0.539-0.234,0.817-0.254c0.319-0.025,0.646,0.059,0.955,0.113    c0.477,0.082,0.943,0.205,1.409,0.295c1.157,0.223,2.304,0.528,3.451,0.748c0.412,0.08,0.821,0.186,1.226,0.267    c0.642,0.122,1.281,0.259,1.886,0.661c0.466,0.312,1.149,1.082,1.396,1.904c0.166,0.541,0.21,1.033,0.205,1.509    c-0.01,0.675-0.369,1.37-0.641,1.957c-0.416,0.891-0.96,1.738-1.543,2.571c-0.309,0.443-0.694,0.809-1.032,1.229    c-0.37,0.46-0.871,0.763-1.264,1.204C160.127,222.775,159.704,222.991,159.666,223.101z M164.97,202.542    c0.328,1.19,0.691,2.433,0.762,3.451c0.029,0.42,0.157,0.809,0.17,1.218c0.023,0.616-0.022,1.121-0.17,1.595    c-0.246,0.794-1.253,1.703-2.396,1.392c-0.875-0.237-1.65-0.742-2.436-1.172c-1.074-0.584-2.155-1.132-3.22-1.713    c-0.541-0.295-1.08-0.572-1.612-0.863c-0.638-0.346-1.212-0.63-1.727-1.236c-0.193-0.226-0.348-0.495-0.504-0.816    c-0.036-0.117-0.072-0.235-0.108-0.352c-0.013-0.038-0.056-0.108-0.062-0.176c-0.033-0.391-0.106-0.719-0.079-1.045    c0.031-0.375,0.15-0.709,0.244-1.033c0.138-0.507,0.314-0.977,0.461-1.469c0.362-1.208,0.788-2.371,1.149-3.574    c0.129-0.434,0.281-0.848,0.405-1.274c0.205-0.671,0.417-1.335,0.838-1.835c0.327-0.386,1.063-0.808,1.771-0.712    c0.469,0.062,0.877,0.238,1.263,0.465c0.55,0.324,1.061,1.05,1.497,1.634c0.664,0.884,1.269,1.893,1.859,2.943    c0.311,0.551,0.549,1.159,0.84,1.738c0.316,0.629,0.487,1.341,0.787,1.99C164.778,201.868,164.888,202.449,164.97,202.542z"></path>			<g>				<path d="M149.588,228.789c-10.692-2-19.391-13.767-19.391-26.228c0-12.463,8.699-20.974,19.391-18.974     c10.694,1.998,19.394,13.763,19.394,26.227C168.981,222.273,160.282,230.788,149.588,228.789z M149.588,184.925     c-10.056-1.882-18.241,6.125-18.241,17.848c0,11.727,8.186,22.794,18.241,24.674c10.059,1.883,18.244-6.127,18.244-17.85     C167.832,197.873,159.647,186.805,149.588,184.925z"></path>			</g>			<path fill-rule="evenodd" clip-rule="evenodd" d="M151.68,206.575c0,1.348-0.935,2.264-2.09,2.047    c-1.157-0.217-2.093-1.48-2.093-2.829c0-1.345,0.937-2.263,2.093-2.046C150.746,203.964,151.68,205.232,151.68,206.575z"></path>			<g>				<path fill-rule="evenodd" clip-rule="evenodd" d="M152.003,202.787c0,0.49-0.34,0.824-0.764,0.746     c-0.419-0.079-0.761-0.541-0.761-1.031c0-0.492,0.342-0.825,0.761-0.746C151.663,201.833,152.003,202.296,152.003,202.787z"></path>				<path fill-rule="evenodd" clip-rule="evenodd" d="M146.286,202.754c0.421,0.081,0.764,0.541,0.764,1.032     c0,0.492-0.343,0.822-0.764,0.746c-0.422-0.08-0.763-0.542-0.763-1.033C145.522,203.007,145.864,202.677,146.286,202.754z"></path>				<path fill-rule="evenodd" clip-rule="evenodd" d="M147.174,209.584c0-0.489,0.342-0.823,0.762-0.745     c0.424,0.08,0.764,0.541,0.764,1.032c0,0.489-0.34,0.825-0.764,0.745C147.516,210.538,147.174,210.075,147.174,209.584z"></path>				<path fill-rule="evenodd" clip-rule="evenodd" d="M152.893,209.618c-0.42-0.078-0.763-0.542-0.763-1.033     s0.343-0.822,0.763-0.745c0.42,0.08,0.764,0.542,0.764,1.032C153.656,209.361,153.312,209.698,152.893,209.618z"></path>			</g>		</g>		<g>			<path fill="#CCCCCC" d="M207.736,139.045c-1.986,0-3.585-0.263-4.752-0.781c-3.422-1.524-6.878-4.446-8.971-6.673    c-0.331-0.335-8.515-8.706-8.387-15.872c0.04-2.226,0.865-4.112,2.452-5.608c0.705-0.665,2.832-2.212,7.332-2.212    c5.112,0,11.499,1.971,18.982,5.858c9.365,4.867,16.515,12.127,16.581,12.197l0.199,0.208c1.423,1.476,2.736,3.057,2.699,4.613    c-0.016,0.647-0.273,1.225-0.746,1.67C231.423,134.052,216.354,139.045,207.736,139.045z"></path>			<path fill="#FFFFFF" d="M195.41,108.898c4.005,0,9.967,1.302,18.521,5.746c8.632,4.486,15.555,11.191,16.315,11.996    c0.757,0.806,3.725,3.634,2.194,5.078c-1.273,1.201-16.018,6.327-24.705,6.327c-1.746,0-3.248-0.207-4.346-0.695    c-3.398-1.513-6.755-4.428-8.649-6.444c0,0-13.146-13.311-5.978-20.067C189.585,110.064,191.623,108.898,195.41,108.898     M195.411,106.898L195.411,106.898c-4.86,0-7.227,1.738-8.019,2.485c-1.789,1.686-2.72,3.812-2.765,6.317    c-0.136,7.583,8.332,16.245,8.692,16.61c2.125,2.262,5.7,5.282,9.258,6.866c1.315,0.584,3.001,0.868,5.159,0.868    c9.022,0,24.252-5.151,26.076-6.872c0.671-0.632,1.037-1.454,1.059-2.374c0.045-1.924-1.405-3.699-2.979-5.332l-0.189-0.197    c-0.07-0.074-7.343-7.46-16.85-12.401C207.226,108.908,200.684,106.898,195.411,106.898L195.411,106.898z"></path>		</g>		<g>			<g>				<path fill="#CCCCCC" d="M207.736,138.56c-1.918,0-3.451-0.249-4.555-0.74c-3.357-1.494-6.754-4.369-8.815-6.562     c-0.334-0.338-8.379-8.566-8.255-15.53c0.038-2.09,0.812-3.861,2.3-5.264c0.663-0.625,2.673-2.08,6.999-2.08     c5.034,0,11.344,1.953,18.759,5.804c9.296,4.831,16.386,12.03,16.451,12.1l0.203,0.211c0.844,0.875,2.601,2.696,2.563,4.265     c-0.013,0.522-0.212,0.969-0.594,1.329C231.384,133.422,216.459,138.56,207.736,138.56z"></path>				<path d="M195.41,108.898c4.005,0,9.967,1.302,18.521,5.746c8.632,4.486,15.555,11.191,16.315,11.996     c0.757,0.806,3.725,3.634,2.194,5.078c-1.273,1.201-16.018,6.327-24.705,6.327c-1.746,0-3.248-0.207-4.346-0.695     c-3.398-1.513-6.755-4.428-8.649-6.444c0,0-13.146-13.311-5.978-20.067C189.585,110.064,191.623,108.898,195.41,108.898      M195.411,107.87L195.411,107.87c-4.512,0-6.646,1.553-7.354,2.221c-1.592,1.5-2.419,3.394-2.459,5.628     c-0.129,7.178,8.062,15.557,8.411,15.91c2.077,2.211,5.537,5.136,8.963,6.662c1.17,0.521,2.773,0.784,4.764,0.784     c8.624,0,23.705-4.999,25.41-6.607c0.477-0.451,0.739-1.035,0.754-1.69c0.037-1.567-1.28-3.153-2.708-4.634l-0.197-0.207     c-0.068-0.072-7.221-7.335-16.59-12.204C206.917,109.842,200.527,107.87,195.411,107.87L195.411,107.87z"></path>			</g>			<g>				<path fill="#FFFFFF" d="M201.432,128.628c-2.033,0-3.921-0.814-5.315-2.294c-2.758-2.933-2.62-7.564,0.309-10.325     c1.359-1.281,3.137-1.987,5.003-1.987c2.034,0,3.921,0.815,5.314,2.297c1.338,1.418,2.043,3.273,1.984,5.224     c-0.058,1.95-0.871,3.76-2.289,5.097C205.077,127.922,203.3,128.628,201.432,128.628L201.432,128.628z"></path>				<path d="M201.429,114.537c1.891,0,3.645,0.758,4.941,2.135c1.243,1.318,1.897,3.042,1.844,4.855     c-0.054,1.812-0.81,3.495-2.128,4.737c-1.265,1.192-2.917,1.849-4.654,1.849c-1.89,0-3.645-0.757-4.94-2.132     c-2.564-2.727-2.437-7.032,0.286-9.598C198.042,115.193,199.693,114.537,201.429,114.537 M201.429,113.508     c-1.922,0-3.847,0.705-5.356,2.127c-3.141,2.96-3.289,7.907-0.33,11.052c1.538,1.631,3.611,2.455,5.689,2.455     c1.922,0,3.849-0.705,5.359-2.128c3.139-2.958,3.288-7.909,0.327-11.047C205.58,114.333,203.507,113.508,201.429,113.508     L201.429,113.508z"></path>			</g>			<g>				<path fill="#FFFFFF" d="M211.839,135.479c-2.496-0.001-4.812-1.001-6.523-2.816c-3.386-3.596-3.216-9.28,0.378-12.669     c1.669-1.573,3.851-2.439,6.142-2.439c2.495,0,4.812,1,6.523,2.816c3.387,3.597,3.218,9.28-0.377,12.668     C216.312,134.611,214.131,135.479,211.839,135.479C211.839,135.479,211.839,135.479,211.839,135.479z"></path>				<path d="M211.835,118.068c2.352,0,4.535,0.943,6.148,2.655c3.193,3.39,3.034,8.747-0.354,11.941     c-1.574,1.482-3.63,2.299-5.791,2.299c-2.353,0-4.536-0.943-6.148-2.654c-3.192-3.39-3.033-8.747,0.355-11.942     C207.619,118.885,209.675,118.068,211.835,118.068 M211.835,117.04c-2.33,0-4.664,0.854-6.494,2.579     c-3.808,3.59-3.986,9.587-0.399,13.396c1.863,1.978,4.377,2.977,6.897,2.977c2.33,0,4.665-0.854,6.495-2.579     c3.808-3.589,3.985-9.587,0.398-13.396C216.868,118.039,214.354,117.04,211.835,117.04L211.835,117.04z"></path>			</g>		</g>		<g>			<path fill="#CCCCCC" d="M260.728,127.477c-2.652,0-4.32-0.14-4.957-0.417c-0.595-0.256-1.034-0.711-1.268-1.314    c-0.566-1.455,0.134-3.392,0.973-5.269l0.112-0.251c0.036-0.085,4.238-9.301,11.435-17.119    c9.819-10.667,16.64-12.907,20.632-12.907c1.388,0,2.325,0.28,2.867,0.515c2,0.865,3.418,2.357,4.214,4.437    c2.562,6.694-2.281,17.353-2.489,17.803c-1.211,2.796-3.471,6.726-6.155,9.308C281.803,126.387,267.627,127.477,260.728,127.477    L260.728,127.477z"></path>			<path fill="#FFFFFF" d="M287.655,91.2c1.134,0,1.958,0.21,2.47,0.432c9.039,3.909,1.215,20.904,1.215,20.904    c-1.1,2.538-3.261,6.428-5.941,9.006c-3.896,3.747-17.413,4.935-24.671,4.935c-2.377,0-4.083-0.127-4.56-0.334    c-1.928-0.832-0.104-4.504,0.337-5.519c0.437-1.017,4.663-9.68,11.254-16.839C277.409,93.3,284.075,91.2,287.655,91.2     M287.655,89.2c-4.192,0-11.302,2.295-21.368,13.229c-7.305,7.936-11.58,17.314-11.618,17.404l-0.104,0.234    c-0.929,2.075-1.693,4.243-0.993,6.041c0.333,0.858,0.958,1.505,1.805,1.871c0.311,0.135,1.147,0.497,5.351,0.497    c0.831,0,20.409-0.062,26.057-5.493c3.513-3.378,5.778-8.242,6.39-9.652c0.196-0.425,5.205-11.455,2.495-18.538    c-0.895-2.339-2.493-4.021-4.75-4.998C290.29,89.524,289.215,89.2,287.655,89.2L287.655,89.2z"></path>		</g>		<g>			<g>				<path fill="#FFDD00" d="M254.16,142.284c-3.819-0.353-8.609,0.479-8.856,0.541c-0.275,0.067-5.037,1.629-8.857,3.891     c0,0,0.028,4.078,0.028,8.132c-0.003,5.643,4.341,10.528,8.829,10.528c4.486-2.245,8.826-9.302,8.826-14.948     C254.126,146.376,254.16,142.284,254.16,142.284z"></path>				<path fill="#FFFFFF" d="M245.304,166.876c-2.605,0-5.244-1.339-7.238-3.673c-1.966-2.3-3.092-5.345-3.09-8.356     c0-4.047-0.028-8.12-0.028-8.121c-0.004-0.534,0.276-1.029,0.736-1.301c3.961-2.347,8.864-3.96,9.264-4.058     c0.248-0.062,3.691-0.671,7.162-0.671c0.783,0,1.519,0.031,2.188,0.093c0.776,0.072,1.369,0.727,1.362,1.507     c0,0.002-0.034,4.086-0.03,8.131c0,6.105-4.512,13.717-9.655,16.291C245.767,166.822,245.537,166.876,245.304,166.876z      M237.952,147.583c0.008,1.418,0.022,4.348,0.022,7.265c-0.001,2.308,0.863,4.641,2.371,6.406     c1.329,1.556,2.992,2.492,4.611,2.61c3.988-2.232,7.674-8.628,7.674-13.436c-0.003-2.58,0.011-5.176,0.021-6.726     c-0.178-0.004-0.358-0.006-0.542-0.006c-3.019,0-6.106,0.512-6.468,0.589C245.177,144.418,241.32,145.723,237.952,147.583z"></path>			</g>		</g>		<g>			<path fill="#FFFFFF" d="M225.183,223.579c-1.394,0-2.405-1.086-2.405-2.581v-14.497c0-1.747,1.354-3.595,3.019-4.12    l38.708-12.225c0.309-0.098,0.616-0.146,0.914-0.146c1.394,0,2.406,1.085,2.406,2.581v14.494c0,1.746-1.354,3.596-3.02,4.121    l-38.708,12.226C225.79,223.529,225.481,223.579,225.183,223.579z"></path>			<path fill="#FFFFFF" d="M265.419,190.51c1.1,0,1.906,0.819,1.906,2.081v14.494c0,1.54-1.202,3.181-2.67,3.645l-38.708,12.226    c-0.266,0.084-0.522,0.124-0.765,0.124c-1.099,0-1.905-0.819-1.905-2.081v-14.497c0-1.54,1.202-3.18,2.67-3.643l38.708-12.225    C264.92,190.549,265.177,190.51,265.419,190.51 M265.42,189.51L265.42,189.51c-0.35,0-0.708,0.057-1.065,0.169l-38.708,12.225    c-1.889,0.596-3.369,2.615-3.369,4.597v14.497c0,1.785,1.221,3.081,2.905,3.081c0.35,0,0.708-0.058,1.065-0.17l38.708-12.226    c1.889-0.597,3.368-2.616,3.368-4.598v-14.494C268.324,190.806,267.103,189.51,265.42,189.51L265.42,189.51z"></path>		</g>		<g>			<g>				<path fill="#FFDD00" d="M254.16,142.284c-3.819-0.353-8.609,0.479-8.856,0.541c-0.275,0.067-5.037,1.629-8.857,3.891     c0,0,0.028,4.078,0.028,8.132c-0.003,5.643,4.341,10.528,8.829,10.528c4.486-2.245,8.826-9.302,8.826-14.948     C254.126,146.376,254.16,142.284,254.16,142.284z"></path>				<path d="M245.304,165.904c-2.32,0-4.689-1.215-6.499-3.333c-1.818-2.126-2.858-4.941-2.857-7.723     c0-4.052-0.028-8.128-0.028-8.128c-0.001-0.188,0.098-0.362,0.259-0.458c3.821-2.262,8.664-3.867,9.001-3.949     c0.21-0.054,3.593-0.644,6.93-0.644c0.752,0,1.459,0.03,2.1,0.089c0.272,0.025,0.48,0.256,0.479,0.53     c0,0-0.034,4.089-0.03,8.139c0,5.683-4.346,13.033-9.117,15.42C245.467,165.884,245.386,165.904,245.304,165.904z      M236.976,147.018c0.007,1.019,0.026,4.434,0.026,7.831c-0.001,2.535,0.948,5.1,2.604,7.038     c1.577,1.845,3.602,2.918,5.575,2.962c4.422-2.293,8.423-9.123,8.423-14.419c-0.003-3.214,0.018-6.453,0.026-7.658     c-0.476-0.031-0.985-0.047-1.52-0.047c-3.187,0-6.413,0.55-6.679,0.612C245.035,143.439,240.629,144.907,236.976,147.018z"></path>			</g>			<g>				<path d="M240.95,151.616c0,0,0.167,0.057,0.735-0.464c0.445-0.407,1.839-1.033,2.037-1.066c0.989-0.161,1.23-0.35,1.469-0.52     c0.048-0.037,0.876-0.68,0.843-1.453c0.254,0.658-0.837,1.927-1.098,1.964c0,0,0.198,0.448-0.38,0.59     c0,0,0.111,0.533-0.736,0.901c0,0,0.133,0.666-0.593,0.947c0,0,0.157,0.767-0.565,1.463c0.123,0.375,0.039,0.969-0.184,1.277     c0,0,0.17,0.865-0.016,1.116c0,0,0.884,1.978,2.327,2.218c2.142,0.763,1.812,3.183,0.186,3.284     c-1.039,0.062-1.115-0.832-0.868-1.336c0.194-0.401,0.843-0.835,1.079-0.354c0.043,0.095,0,0.4-0.301,0.391     c0,0,0.217-0.3,0.037-0.414c-0.133-0.086-0.407-0.056-0.648,0.319c-0.185,0.288,0.047,0.683,0.49,0.673     c0.387-0.009,1.283-0.633,0.693-1.388c-0.201-0.259-0.878-0.253-1.384,0.214c-0.619,0.568-0.851,2.133,0.716,2.33     c1.849,0.235,2.504-1.74,2.538-2.541c0.054-1.271-1.097-2.08-1.251-3.004c-0.004-0.021-0.007-0.046-0.01-0.071     c0.792-0.191,0.652-0.59,0.748-0.938c0.307-1.072,0.742-1.409,0.044-1.542c-0.146-0.027-0.362,0.038-0.586-0.033     c0.367-0.221-0.004-0.889,0.703-1.114c0,0-0.283-0.514,0.297-0.936c0,0-0.37-0.522,0.287-0.968c0,0-0.197-0.562,0.395-1.018     c0,0-0.254-0.581,0.185-1.088c0,0-0.337-0.365,0.028-0.939c0,0-0.43-0.134-0.121-0.767c0,0-0.597-0.065-0.43-0.706     c0,0-0.529-0.01-0.435-0.535c0,0-0.746,0.193-0.346-0.617c0,0-0.148-0.25-0.326-0.047c0,0-0.045-0.287-0.314-0.284     c0,0-0.485,0.968-1.562,1.199l-0.363,0.016c-0.083,0.322-0.593,1.392-0.927,1.726c-1.217,1.23-0.299,1.215-1.891,2.154     c-0.218,0.127-0.668,0.103-0.932,0.381C240.26,150.915,240.455,151.582,240.95,151.616z M243.662,148.256     c0-0.105,0.085-0.207,0.187-0.234c0.104-0.025,0.187,0.037,0.187,0.142c0,0.102-0.082,0.206-0.187,0.231     C243.747,148.422,243.662,148.357,243.662,148.256z"></path>			</g>		</g>		<g>			<g>				<path fill="#CCCCCC" d="M260.728,126.991c-1.455,0-4.009-0.049-4.765-0.376c-0.479-0.207-0.819-0.559-1.008-1.045     c-0.57-1.466,0.467-3.781,0.964-4.895l0.114-0.256c0.037-0.086,4.203-9.223,11.347-16.983     c10.212-11.093,17.087-12.75,20.275-12.75c1.305,0,2.174,0.258,2.674,0.475c1.876,0.812,3.206,2.212,3.953,4.165     c2.489,6.505-2.272,16.984-2.476,17.427c-1.197,2.763-3.419,6.629-6.052,9.162C281.577,125.93,267.56,126.991,260.728,126.991     L260.728,126.991z"></path>				<path d="M287.655,91.2c1.134,0,1.958,0.21,2.47,0.432c9.039,3.909,1.215,20.904,1.215,20.904     c-1.1,2.538-3.261,6.428-5.941,9.006c-3.896,3.747-17.413,4.935-24.671,4.935c-2.377,0-4.083-0.127-4.56-0.334     c-1.928-0.832-0.104-4.504,0.337-5.519c0.437-1.017,4.663-9.68,11.254-16.839C277.409,93.3,284.075,91.2,287.655,91.2      M287.655,90.171c-3.998,0-10.827,2.241-20.653,12.916c-7.2,7.821-11.404,17.042-11.442,17.129l-0.11,0.248     c-0.842,1.883-1.544,3.827-0.974,5.292c0.238,0.61,0.682,1.071,1.286,1.331c0.638,0.277,2.31,0.418,4.966,0.418     c6.901,0,21.089-1.091,25.384-5.222c2.688-2.585,4.951-6.519,6.172-9.338c0.198-0.43,5.046-11.099,2.479-17.804     c-0.798-2.086-2.221-3.584-4.229-4.453C289.989,90.452,289.048,90.171,287.655,90.171L287.655,90.171z"></path>			</g>			<g>				<path fill="#FFFFFF" d="M281.782,113.11c-0.997,0-1.971-0.202-2.895-0.601c-1.789-0.774-3.17-2.198-3.889-4.011     c-0.717-1.813-0.687-3.798,0.088-5.588c1.157-2.678,3.787-4.407,6.703-4.407c0.997,0,1.97,0.202,2.894,0.602     c1.789,0.774,3.171,2.2,3.889,4.013c0.718,1.814,0.688,3.799-0.086,5.589C287.329,111.381,284.698,113.11,281.782,113.11z"></path>				<path d="M281.791,99.016L281.791,99.016c0.926,0,1.829,0.188,2.688,0.56c1.663,0.72,2.947,2.044,3.615,3.731     c0.668,1.686,0.639,3.531-0.081,5.195c-1.074,2.486-3.521,4.094-6.231,4.094c-0.927,0-1.831-0.188-2.69-0.559     c-1.663-0.719-2.946-2.043-3.614-3.729s-0.639-3.53,0.081-5.195C276.634,100.625,279.08,99.016,281.791,99.016 M281.79,97.987     c-3.022,0-5.9,1.766-7.176,4.718c-1.714,3.963,0.109,8.563,4.069,10.276c1.012,0.437,2.062,0.644,3.099,0.644     c3.023,0,5.9-1.765,7.176-4.714c1.714-3.963-0.109-8.565-4.07-10.279C283.877,98.194,282.825,97.987,281.79,97.987     L281.79,97.987z"></path>			</g>			<g>				<path fill="#FFFFFF" d="M273.766,123.199c-1.224,0-2.419-0.249-3.553-0.738c-4.531-1.961-6.626-7.247-4.667-11.783     c1.421-3.287,4.651-5.411,8.23-5.411c1.223,0,2.417,0.249,3.549,0.738c2.196,0.95,3.892,2.7,4.774,4.926     c0.881,2.227,0.844,4.663-0.105,6.86C280.576,121.077,277.346,123.199,273.766,123.199z"></path>				<path d="M273.777,105.782L273.777,105.782c1.15,0,2.276,0.234,3.344,0.696c2.07,0.896,3.668,2.545,4.5,4.643     c0.832,2.099,0.797,4.396-0.099,6.466c-1.337,3.097-4.382,5.097-7.757,5.097c-1.153,0-2.279-0.234-3.349-0.695     c-4.271-1.85-6.246-6.832-4.4-11.106C267.357,107.785,270.402,105.782,273.777,105.782 M273.776,104.753     c-3.665,0-7.155,2.142-8.703,5.721c-2.074,4.804,0.136,10.381,4.937,12.458c1.226,0.53,2.5,0.781,3.756,0.781     c3.665,0,7.154-2.139,8.701-5.718c2.076-4.803-0.135-10.385-4.938-12.462C276.305,105.004,275.03,104.753,273.776,104.753     L273.776,104.753z"></path>			</g>		</g>		<g>			<polygon fill="#D4A686" points="362.25,86.133 302.273,75.738 181.277,100.165 232.411,114.259    "></polygon>			<path fill="#2A2829" d="M232.411,115.009c-0.067,0-0.134-0.009-0.199-0.027l-51.134-14.094c-0.335-0.092-0.562-0.402-0.55-0.75    c0.012-0.347,0.26-0.64,0.601-0.709l120.997-24.426c0.091-0.018,0.186-0.019,0.276-0.003l59.977,10.395    c0.354,0.061,0.614,0.364,0.622,0.723c0.007,0.359-0.24,0.672-0.591,0.748l-129.84,28.126    C232.517,115.003,232.463,115.009,232.411,115.009z M184.508,100.277l47.924,13.209L358.33,86.215l-56.046-9.713L184.508,100.277    z"></path>		</g>		<g>			<g>				<path d="M256.397,104.803c-9.549,0-19.803-2.528-26.124-6.44c-2.604-1.631-2.64-3.109-2.435-3.848     c0.338-1.236,1.779-2.175,4.06-2.641l53.354-10.9c1.049-0.214,2.226-0.322,3.498-0.322c1.319,0,2.686,0.115,4.061,0.343     c2.735,0.455,5.199,1.302,6.936,2.385c4.057,2.562,5.993,5.4,5.513,8.034c-0.53,2.908-3.86,5.131-9.377,6.26l-31.164,6.363     C262.228,104.544,259.429,104.803,256.397,104.803L256.397,104.803z"></path>				<path fill="#FFFFFF" d="M288.751,81.151c1.298,0,2.652,0.117,3.979,0.336c2.556,0.425,5.014,1.231,6.753,2.316l0.057,0.038     c8.321,5.25,6.654,11.211-3.757,13.341l-4.479,0.913l-22.202,4.536l-4.482,0.915c-2.515,0.514-5.309,0.757-8.222,0.757     c-9.148,0-19.456-2.401-25.861-6.366l-0.058-0.038c-1.736-1.087-2.435-2.25-2.158-3.252c0.274-1.003,1.522-1.844,3.679-2.285     l53.353-10.9C286.392,81.251,287.547,81.151,288.751,81.151 M288.751,80.151c-1.307,0-2.517,0.112-3.598,0.332l-53.354,10.9     c-3.171,0.649-4.166,1.99-4.443,3.001c-0.241,0.871-0.225,2.6,2.593,4.363l0.042,0.027c6.414,3.971,16.771,6.528,26.407,6.528     c3.064,0,5.897-0.262,8.422-0.777l4.482-0.914l22.201-4.537l4.479-0.912c5.731-1.172,9.2-3.538,9.771-6.66     c0.519-2.848-1.499-5.868-5.681-8.507l-0.032-0.022c-1.818-1.136-4.347-2.008-7.146-2.473     C291.491,80.269,290.098,80.151,288.751,80.151L288.751,80.151z"></path>			</g>			<path fill="#FFFFFF" d="M254.702,91.154L254.702,91.154c5.068,0,10.478,1.333,13.779,3.394c1.812,1.133,2.749,2.356,2.569,3.354    c-0.203,1.123-1.822,2.099-4.332,2.611c-1.294,0.265-2.756,0.398-4.343,0.398c-4.996,0-10.534-1.364-13.78-3.394    c-1.813-1.132-2.75-2.354-2.57-3.353c0.203-1.123,1.822-2.1,4.333-2.612C251.653,91.289,253.115,91.154,254.702,91.154     M254.701,90.416c-1.59,0-3.116,0.133-4.489,0.414c-5.708,1.166-6.608,4.442-2.007,7.316c3.489,2.182,9.15,3.506,14.171,3.506    c1.59,0,3.117-0.133,4.49-0.414c5.71-1.166,6.604-4.442,2.007-7.316C265.379,91.74,259.721,90.416,254.701,90.416L254.701,90.416    z"></path>			<path fill="#FFFFFF" d="M249.016,95.708c-0.004,0-0.009,0-0.014,0l-3.064-0.181c-0.127-0.007-0.225-0.117-0.217-0.244    c0.007-0.127,0.092-0.227,0.244-0.217l3.064,0.181c0.127,0.007,0.225,0.117,0.217,0.244    C249.24,95.613,249.137,95.708,249.016,95.708z"></path>			<path fill="#FFFFFF" d="M246.876,96.93c-0.122,0-0.224-0.095-0.23-0.218c-0.007-0.127,0.09-0.236,0.218-0.244l2.832-0.16    c0.129-0.008,0.236,0.091,0.243,0.217c0.007,0.127-0.09,0.236-0.218,0.244l-2.832,0.16C246.885,96.93,246.88,96.93,246.876,96.93    z"></path>			<path fill="#FFFFFF" d="M248.593,98.294c-0.107,0-0.204-0.075-0.226-0.185c-0.025-0.125,0.056-0.247,0.18-0.272l2.415-0.495    c0.132-0.029,0.247,0.056,0.272,0.18c0.025,0.125-0.056,0.247-0.181,0.272l-2.415,0.495    C248.624,98.292,248.608,98.294,248.593,98.294z"></path>			<path fill="#FFFFFF" d="M250.985,99.517c-0.089,0-0.174-0.052-0.212-0.139c-0.051-0.117,0.003-0.253,0.12-0.304l1.826-0.79    c0.119-0.05,0.253,0.003,0.304,0.12s-0.003,0.252-0.12,0.303l-1.826,0.79C251.046,99.511,251.015,99.517,250.985,99.517z"></path>			<path fill="#FFFFFF" d="M253.892,100.522c-0.062,0-0.124-0.025-0.17-0.074c-0.085-0.093-0.08-0.24,0.013-0.326l1.119-1.036    c0.094-0.086,0.239-0.082,0.327,0.013c0.086,0.094,0.08,0.24-0.013,0.326l-1.119,1.036    C254.004,100.502,253.948,100.522,253.892,100.522z"></path>			<path fill="#FFFFFF" d="M257.115,101.239c-0.021,0-0.041-0.003-0.062-0.008c-0.123-0.034-0.195-0.161-0.161-0.284l0.334-1.21    c0.034-0.123,0.162-0.194,0.283-0.161c0.123,0.034,0.195,0.161,0.161,0.284l-0.333,1.21    C257.31,101.171,257.217,101.239,257.115,101.239z"></path>			<path fill="#FFFFFF" d="M260.434,101.617c-0.094,0-0.183-0.058-0.217-0.151l-0.477-1.296c-0.044-0.12,0.018-0.252,0.137-0.296    c0.122-0.042,0.253,0.018,0.297,0.137l0.477,1.296c0.044,0.12-0.018,0.252-0.137,0.296    C260.487,101.612,260.46,101.617,260.434,101.617z"></path>			<path fill="#FFFFFF" d="M263.624,101.633c-0.061,0-0.121-0.024-0.166-0.071l-1.253-1.302c-0.089-0.092-0.086-0.238,0.006-0.327    s0.238-0.085,0.326,0.006l1.252,1.302c0.089,0.092,0.086,0.238-0.006,0.327C263.739,101.612,263.682,101.633,263.624,101.633z"></path>			<path fill="#FFFFFF" d="M266.47,101.285c-0.042,0-0.084-0.011-0.122-0.035l-1.95-1.214c-0.108-0.067-0.142-0.209-0.074-0.318    c0.068-0.109,0.211-0.141,0.318-0.074l1.95,1.215c0.108,0.067,0.142,0.209,0.074,0.318    C266.622,101.246,266.547,101.285,266.47,101.285z"></path>			<path fill="#FFFFFF" d="M268.769,100.596c-0.03,0-0.06-0.006-0.089-0.018l-2.502-1.048c-0.118-0.049-0.174-0.185-0.124-0.302    c0.05-0.118,0.187-0.172,0.302-0.124l2.502,1.048c0.118,0.049,0.174,0.185,0.124,0.302    C268.944,100.542,268.858,100.596,268.769,100.596z"></path>			<path fill="#FFFFFF" d="M270.374,99.614c-0.021,0-0.041-0.003-0.062-0.009l-2.893-0.809c-0.122-0.034-0.194-0.162-0.16-0.284    c0.034-0.122,0.158-0.194,0.285-0.16l2.893,0.808c0.122,0.034,0.194,0.162,0.16,0.284    C270.568,99.547,270.476,99.614,270.374,99.614z"></path>			<path fill="#FFFFFF" d="M271.17,98.407c-0.013,0-0.025-0.001-0.038-0.003l-3.083-0.512c-0.126-0.021-0.211-0.14-0.189-0.266    c0.021-0.125,0.143-0.212,0.265-0.189l3.084,0.512c0.126,0.021,0.211,0.14,0.189,0.266    C271.379,98.327,271.281,98.407,271.17,98.407z"></path>			<path fill="#FFFFFF" d="M271.101,97.054c-0.004,0-0.009,0-0.014,0l-3.063-0.182c-0.126-0.007-0.224-0.117-0.216-0.244    c0.007-0.127,0.09-0.228,0.243-0.217l3.063,0.182c0.127,0.007,0.225,0.117,0.217,0.244    C271.324,96.959,271.222,97.054,271.101,97.054z"></path>			<path fill="#FFFFFF" d="M267.346,95.81c-0.122,0-0.224-0.095-0.23-0.218c-0.008-0.127,0.09-0.236,0.218-0.244l2.833-0.162    c0.136-0.004,0.236,0.09,0.243,0.217c0.008,0.127-0.09,0.236-0.218,0.244l-2.833,0.162C267.354,95.81,267.35,95.81,267.346,95.81    z"></path>			<path fill="#FFFFFF" d="M266.049,94.78c-0.107,0-0.203-0.075-0.226-0.185c-0.025-0.125,0.056-0.247,0.18-0.272l2.413-0.493    c0.131-0.028,0.247,0.056,0.272,0.18c0.025,0.125-0.056,0.247-0.181,0.272l-2.413,0.493    C266.079,94.779,266.063,94.78,266.049,94.78z"></path>			<path fill="#FFFFFF" d="M264.239,93.852c-0.09,0-0.175-0.052-0.212-0.14c-0.051-0.117,0.004-0.253,0.121-0.303l1.832-0.788    c0.116-0.052,0.253,0.004,0.303,0.121c0.051,0.117-0.004,0.253-0.121,0.303l-1.832,0.788    C264.301,93.846,264.27,93.852,264.239,93.852z"></path>			<path fill="#FFFFFF" d="M262.045,93.093c-0.062,0-0.124-0.025-0.169-0.074c-0.087-0.093-0.082-0.24,0.012-0.326l1.114-1.035    c0.093-0.087,0.239-0.083,0.326,0.012c0.087,0.093,0.082,0.24-0.012,0.326l-1.114,1.035    C262.157,93.072,262.102,93.093,262.045,93.093z"></path>			<path fill="#FFFFFF" d="M257.441,96.258c-0.496-0.308-0.4-0.661,0.214-0.786c0.616-0.127,1.516,0.022,2.011,0.332    c0.494,0.311,0.397,0.665-0.216,0.789C258.835,96.719,257.935,96.57,257.441,96.258z"></path>			<path fill="#FFFFFF" d="M266.595,97.594c-0.013,0-0.025-0.001-0.038-0.003l-8.043-1.332c-0.125-0.021-0.211-0.14-0.189-0.266    c0.021-0.126,0.141-0.211,0.266-0.19l8.043,1.332c0.125,0.021,0.211,0.14,0.189,0.266    C266.804,97.514,266.706,97.594,266.595,97.594z"></path>			<path fill="#FFFFFF" d="M250.769,94.128c-0.155-0.096-0.136-0.206,0.044-0.242l6.468-1.321c0.178-0.037,0.451,0.013,0.606,0.109    l1.074,0.671c0.155,0.097,0.136,0.207-0.043,0.243l-6.47,1.321c-0.179,0.038-0.452-0.012-0.607-0.109L250.769,94.128z"></path>			<g>				<path d="M256.69,93.157c-0.077-0.047-0.067-0.103,0.022-0.122l0.318-0.064c0.09-0.019,0.227,0.007,0.305,0.055l0.5,0.312     c0.077,0.049,0.067,0.104-0.022,0.122l-0.32,0.065c-0.089,0.018-0.226-0.007-0.304-0.056L256.69,93.157z"></path>				<path d="M255.733,93.355c-0.078-0.049-0.068-0.104,0.021-0.122l0.322-0.066c0.09-0.019,0.227,0.005,0.304,0.054l0.495,0.311     c0.078,0.049,0.068,0.104-0.021,0.122l-0.32,0.066c-0.09,0.017-0.227-0.008-0.304-0.055L255.733,93.355z"></path>				<path d="M254.776,93.549c-0.078-0.049-0.068-0.104,0.021-0.121l0.316-0.066c0.09-0.018,0.227,0.005,0.305,0.055l0.5,0.312     c0.077,0.049,0.067,0.104-0.021,0.122l-0.321,0.065c-0.09,0.018-0.227-0.007-0.304-0.055L254.776,93.549z"></path>				<path d="M253.812,93.746c-0.077-0.049-0.067-0.104,0.022-0.121l0.322-0.065c0.089-0.018,0.227,0.006,0.304,0.055l0.499,0.311     c0.078,0.048,0.068,0.103-0.021,0.121l-0.322,0.066c-0.09,0.019-0.227-0.007-0.304-0.055L253.812,93.746z"></path>				<path d="M252.856,93.94c-0.077-0.047-0.067-0.104,0.022-0.121l0.318-0.064c0.09-0.019,0.227,0.006,0.305,0.055l0.495,0.312     c0.077,0.049,0.067,0.104-0.021,0.122l-0.313,0.066c-0.09,0.018-0.227-0.006-0.304-0.055L252.856,93.94z"></path>				<path d="M251.897,94.137c-0.077-0.047-0.067-0.103,0.021-0.121l0.316-0.066c0.09-0.018,0.227,0.007,0.305,0.056l0.503,0.312     c0.078,0.047,0.068,0.103-0.021,0.122l-0.32,0.065c-0.089,0.019-0.226-0.005-0.303-0.054L251.897,94.137z"></path>			</g>			<path fill="#FF0000" d="M271.595,90.947c0.24,0.662,0.878,1.359,1.94,2.021c1.06,0.662,2.406,1.209,3.873,1.617l-1.487,1.334    c-2.091-0.584-4-1.367-5.51-2.312c-1.513-0.944-2.433-1.931-2.78-2.874L271.595,90.947z"></path>			<path fill="#FFFFFF" d="M276.91,85.878v0.738c5.069,0,10.477,1.333,13.778,3.395c1.813,1.134,2.749,2.356,2.57,3.354    c-0.202,1.123-1.823,2.1-4.334,2.613c-1.294,0.264-2.754,0.397-4.339,0.397c-4.998,0-10.537-1.364-13.784-3.396    c-1.813-1.131-2.751-2.353-2.571-3.352c0.202-1.123,1.823-2.1,4.333-2.613c1.296-0.265,2.758-0.399,4.346-0.399L276.91,85.878     M276.909,85.878c-1.591,0-3.119,0.133-4.493,0.414c-5.707,1.166-6.609,4.441-2.005,7.315c3.491,2.184,9.151,3.507,14.175,3.507    c1.589,0,3.114-0.132,4.486-0.412c5.711-1.168,6.607-4.442,2.008-7.318C287.585,87.202,281.929,85.878,276.909,85.878    L276.909,85.878z"></path>			<path fill="#FFFFFF" d="M271.222,91.171c-0.004,0-0.009,0-0.014,0l-3.062-0.179c-0.127-0.007-0.224-0.117-0.216-0.244    c0.007-0.126,0.091-0.239,0.243-0.217l3.062,0.179c0.127,0.007,0.225,0.117,0.217,0.244    C271.445,91.076,271.343,91.171,271.222,91.171z"></path>			<path fill="#FFFFFF" d="M269.082,92.397c-0.122,0-0.224-0.095-0.23-0.218c-0.008-0.127,0.09-0.236,0.218-0.244l2.837-0.162    c0.128-0.008,0.236,0.091,0.243,0.217c0.008,0.127-0.09,0.236-0.218,0.244l-2.837,0.162    C269.091,92.397,269.086,92.397,269.082,92.397z"></path>			<path fill="#FFFFFF" d="M270.794,93.756c-0.107,0-0.204-0.075-0.227-0.185c-0.025-0.125,0.056-0.247,0.181-0.272l2.417-0.493    c0.132-0.03,0.247,0.055,0.272,0.18c0.025,0.125-0.056,0.247-0.181,0.272l-2.417,0.493    C270.824,93.755,270.809,93.756,270.794,93.756z"></path>			<path fill="#FFFFFF" d="M273.191,94.98c-0.089,0-0.174-0.052-0.212-0.139c-0.051-0.117,0.003-0.253,0.12-0.304l1.825-0.79    c0.119-0.051,0.253,0.004,0.304,0.12c0.051,0.117-0.003,0.253-0.12,0.304l-1.825,0.79    C273.253,94.974,273.222,94.98,273.191,94.98z"></path>			<path fill="#FFFFFF" d="M276.099,95.987c-0.062,0-0.124-0.025-0.169-0.074c-0.087-0.093-0.082-0.24,0.012-0.326l1.113-1.036    c0.094-0.087,0.239-0.083,0.326,0.012c0.087,0.093,0.082,0.24-0.012,0.326l-1.113,1.036    C276.211,95.966,276.155,95.987,276.099,95.987z"></path>			<path fill="#FFFFFF" d="M279.323,96.704c-0.02,0-0.04-0.002-0.06-0.008c-0.124-0.033-0.196-0.16-0.163-0.283l0.326-1.211    c0.033-0.123,0.162-0.196,0.282-0.163c0.124,0.033,0.196,0.16,0.163,0.283l-0.326,1.211    C279.519,96.636,279.425,96.704,279.323,96.704z"></path>			<path fill="#FFFFFF" d="M282.64,97.08c-0.095,0-0.183-0.058-0.217-0.152l-0.472-1.296c-0.044-0.12,0.018-0.252,0.138-0.296    c0.121-0.045,0.252,0.018,0.296,0.138l0.471,1.296c0.044,0.12-0.018,0.252-0.137,0.296    C282.692,97.075,282.666,97.08,282.64,97.08z"></path>			<path fill="#FFFFFF" d="M285.832,97.097c-0.061,0-0.121-0.024-0.166-0.071l-1.253-1.301c-0.089-0.092-0.086-0.238,0.006-0.326    c0.092-0.089,0.238-0.086,0.326,0.006l1.253,1.301c0.089,0.092,0.086,0.238-0.006,0.326    C285.947,97.076,285.89,97.097,285.832,97.097z"></path>			<path fill="#FFFFFF" d="M288.669,96.748c-0.042,0-0.084-0.011-0.123-0.035L286.61,95.5c-0.107-0.068-0.141-0.21-0.072-0.318    c0.066-0.107,0.207-0.142,0.318-0.073l1.936,1.213c0.107,0.068,0.141,0.21,0.072,0.318    C288.821,96.709,288.746,96.748,288.669,96.748z"></path>			<path fill="#FFFFFF" d="M290.973,96.06c-0.03,0-0.06-0.006-0.089-0.018l-2.501-1.046c-0.118-0.049-0.174-0.185-0.124-0.302    c0.049-0.119,0.186-0.173,0.302-0.124l2.501,1.046c0.118,0.049,0.174,0.185,0.124,0.302    C291.148,96.006,291.062,96.06,290.973,96.06z"></path>			<path fill="#FFFFFF" d="M292.577,95.077c-0.021,0-0.041-0.003-0.062-0.008l-2.89-0.805c-0.123-0.035-0.195-0.162-0.161-0.285    c0.034-0.123,0.161-0.194,0.284-0.161l2.89,0.805c0.123,0.035,0.195,0.162,0.161,0.285    C292.771,95.01,292.679,95.077,292.577,95.077z"></path>			<path fill="#FFFFFF" d="M293.373,93.87c-0.013,0-0.025-0.001-0.038-0.003l-3.077-0.512c-0.126-0.021-0.211-0.14-0.189-0.266    c0.021-0.126,0.142-0.212,0.266-0.189l3.077,0.512c0.125,0.021,0.21,0.14,0.188,0.266C293.581,93.79,293.484,93.87,293.373,93.87    z"></path>			<path fill="#FFFFFF" d="M293.309,92.516c-0.004,0-0.009,0-0.014,0l-3.062-0.179c-0.127-0.007-0.225-0.117-0.217-0.244    c0.007-0.126,0.09-0.24,0.244-0.217l3.062,0.179c0.127,0.007,0.224,0.117,0.216,0.244    C293.531,92.421,293.43,92.516,293.309,92.516z"></path>			<path fill="#FFFFFF" d="M289.551,91.273c-0.122,0-0.224-0.095-0.23-0.218c-0.007-0.127,0.09-0.236,0.218-0.244l2.835-0.161    c0.122-0.019,0.236,0.091,0.243,0.217c0.007,0.127-0.09,0.236-0.218,0.244l-2.835,0.161    C289.56,91.273,289.555,91.273,289.551,91.273z"></path>			<path fill="#FFFFFF" d="M288.254,90.243c-0.107,0-0.204-0.075-0.227-0.185c-0.025-0.125,0.056-0.247,0.181-0.272l2.412-0.493    c0.129-0.028,0.247,0.056,0.272,0.18c0.025,0.125-0.056,0.247-0.181,0.272l-2.412,0.493    C288.284,90.242,288.269,90.243,288.254,90.243z"></path>			<path fill="#FFFFFF" d="M286.447,89.318c-0.089,0-0.174-0.052-0.212-0.139c-0.051-0.117,0.003-0.253,0.12-0.304l1.827-0.791    c0.118-0.049,0.252,0.003,0.304,0.12c0.051,0.117-0.003,0.253-0.12,0.304l-1.827,0.791    C286.509,89.312,286.478,89.318,286.447,89.318z"></path>			<path fill="#FFFFFF" d="M284.251,88.559c-0.062,0-0.124-0.025-0.169-0.074c-0.087-0.094-0.082-0.24,0.012-0.327l1.114-1.036    c0.093-0.086,0.239-0.082,0.326,0.012s0.082,0.24-0.012,0.327l-1.114,1.036C284.363,88.538,284.308,88.559,284.251,88.559z"></path>			<path fill="#FFFFFF" d="M280.891,90.933c0.785,0.128,1.355,0.483,1.265,0.792c-0.081,0.307-0.788,0.449-1.573,0.322    c-0.78-0.13-1.351-0.485-1.267-0.793C279.397,90.945,280.103,90.803,280.891,90.933z"></path>			<path fill="#FFFFFF" d="M274.438,93.006c-0.106,0-0.203-0.075-0.226-0.185c-0.025-0.125,0.056-0.247,0.18-0.272l6.295-1.286    c0.129-0.028,0.246,0.056,0.271,0.18c0.025,0.125-0.056,0.247-0.181,0.272l-6.294,1.286    C274.469,93.004,274.453,93.006,274.438,93.006z"></path>			<path fill="#FFFFFF" d="M294.98,87.732c-0.042,0-0.084-0.011-0.122-0.035l-0.802-0.501c-0.108-0.067-0.142-0.21-0.074-0.318    c0.067-0.108,0.211-0.141,0.318-0.073l0.802,0.501c0.108,0.067,0.142,0.21,0.074,0.318    C295.133,87.693,295.058,87.732,294.98,87.732z"></path>			<path fill="#FFFFFF" d="M296.604,87.049c-0.021,0-0.041-0.003-0.062-0.009l-1.192-0.334c-0.122-0.034-0.194-0.162-0.16-0.284    c0.035-0.122,0.157-0.194,0.285-0.16l1.192,0.334c0.122,0.034,0.194,0.161,0.16,0.284    C296.798,86.982,296.706,87.049,296.604,87.049z"></path>			<path fill="#FFFFFF" d="M296.921,85.993c-0.005,0-0.009,0-0.014,0l-1.266-0.075c-0.126-0.007-0.224-0.117-0.216-0.244    c0.007-0.127,0.125-0.227,0.243-0.217l1.266,0.075c0.127,0.007,0.225,0.117,0.217,0.244    C297.145,85.898,297.042,85.993,296.921,85.993z"></path>			<path fill="#FFFFFF" d="M289.78,87.408c-0.062,0-0.124-0.025-0.169-0.074c-0.087-0.094-0.082-0.24,0.012-0.327l0.463-0.429    c0.094-0.086,0.24-0.083,0.326,0.012c0.087,0.094,0.082,0.24-0.012,0.327l-0.463,0.43    C289.893,87.387,289.837,87.408,289.78,87.408z"></path>			<path fill="#FFFFFF" d="M292.486,87.866c-0.094,0-0.182-0.058-0.217-0.15l-0.2-0.538c-0.044-0.12,0.017-0.252,0.137-0.297    c0.121-0.044,0.252,0.017,0.297,0.136l0.2,0.538c0.044,0.12-0.017,0.252-0.137,0.297    C292.54,87.861,292.513,87.866,292.486,87.866z"></path>			<path fill="#FFFFFF" d="M291.063,85.25c0.149-0.127,0.548-0.146,0.9-0.046c0.357,0.104,0.525,0.288,0.379,0.414    c-0.143,0.125-0.545,0.144-0.899,0.043C291.09,85.559,290.922,85.375,291.063,85.25z"></path>			<path fill="#FFFFFF" d="M292.616,86.694c-0.063,0-0.127-0.026-0.173-0.078l-0.91-1.029c-0.085-0.095-0.075-0.241,0.02-0.326    c0.096-0.084,0.241-0.076,0.326,0.02l0.91,1.029c0.085,0.095,0.075,0.241-0.02,0.325    C292.726,86.675,292.671,86.694,292.616,86.694z"></path>			<g>				<path fill="#FFFFFF" d="M289.85,83.45c2.349,0,4.944,0.637,6.46,1.585c0.856,0.535,1.111,0.996,1.069,1.229     c-0.041,0.228-0.466,0.685-1.799,0.957c-0.602,0.123-1.283,0.186-2.027,0.186c-2.347,0-4.944-0.637-6.463-1.583     c-0.854-0.535-1.109-0.996-1.067-1.229c0.041-0.228,0.467-0.687,1.801-0.959C288.425,83.512,289.106,83.45,289.85,83.45      M289.85,82.711c-0.771,0-1.51,0.064-2.175,0.201c-2.763,0.564-3.199,2.148-0.976,3.538c1.692,1.055,4.428,1.695,6.854,1.695     c0.771,0,1.511-0.064,2.175-0.201c2.763-0.562,3.199-2.147,0.973-3.537C295.013,83.352,292.276,82.711,289.85,82.711     L289.85,82.711z"></path>			</g>			<path fill="#FFFFFF" d="M241.685,98.622c-0.042,0-0.084-0.011-0.122-0.035l-0.805-0.502c-0.108-0.067-0.142-0.21-0.074-0.318    c0.067-0.108,0.21-0.142,0.318-0.074l0.806,0.502c0.108,0.067,0.142,0.21,0.074,0.318    C241.837,98.583,241.762,98.622,241.685,98.622z"></path>			<path fill="#FFFFFF" d="M239.209,98.776c-0.094,0-0.182-0.058-0.217-0.15l-0.199-0.536c-0.044-0.12,0.017-0.252,0.136-0.297    c0.121-0.044,0.252,0.017,0.297,0.136l0.199,0.536c0.044,0.119-0.017,0.252-0.137,0.296    C239.263,98.771,239.235,98.776,239.209,98.776z"></path>			<path fill="#FFFFFF" d="M236.503,98.338c-0.062,0-0.123-0.025-0.169-0.073c-0.087-0.093-0.082-0.24,0.012-0.327l0.458-0.428    c0.091-0.087,0.237-0.083,0.326,0.011c0.087,0.093,0.082,0.24-0.012,0.327l-0.458,0.428    C236.617,98.318,236.56,98.338,236.503,98.338z"></path>			<path fill="#FFFFFF" d="M243.531,96.855c-0.005,0-0.009,0-0.014,0l-1.263-0.075c-0.127-0.007-0.224-0.117-0.216-0.244    s0.123-0.231,0.244-0.217l1.263,0.075c0.127,0.007,0.225,0.117,0.217,0.244C243.755,96.761,243.652,96.855,243.531,96.855z"></path>			<path fill="#FFFFFF" d="M243.269,97.92c-0.021,0-0.041-0.003-0.062-0.009l-1.191-0.333c-0.122-0.034-0.194-0.162-0.16-0.284    c0.035-0.123,0.157-0.196,0.285-0.16l1.192,0.333c0.122,0.034,0.194,0.162,0.16,0.284C243.463,97.854,243.37,97.92,243.269,97.92    z"></path>			<path fill="#FFFFFF" d="M238.235,96.043c-0.379-0.02-0.628,0.095-0.564,0.253c0.069,0.162,0.43,0.308,0.801,0.327    c0.376,0.019,0.629-0.096,0.563-0.256C238.971,96.208,238.614,96.061,238.235,96.043z"></path>			<path fill="#FFFFFF" d="M240.375,97.367c-0.028,0-0.058-0.005-0.085-0.016l-2.021-0.803c-0.119-0.047-0.177-0.182-0.13-0.3    c0.047-0.119,0.183-0.175,0.3-0.13l2.021,0.803c0.119,0.047,0.177,0.182,0.13,0.3C240.553,97.312,240.466,97.367,240.375,97.367z    "></path>			<g>				<path fill="#FFFFFF" d="M236.493,94.351c2.349,0,4.945,0.637,6.462,1.585c0.856,0.534,1.111,0.996,1.069,1.229     c-0.041,0.228-0.465,0.687-1.795,0.958c-0.601,0.123-1.282,0.185-2.024,0.185c-2.352,0-4.95-0.636-6.463-1.581     c-0.858-0.537-1.113-1-1.071-1.234c0.041-0.228,0.466-0.685,1.796-0.956C235.068,94.413,235.75,94.351,236.493,94.351      M236.493,93.612c-0.77,0-1.509,0.064-2.174,0.2c-2.762,0.563-3.195,2.147-0.97,3.541c1.688,1.055,4.426,1.693,6.855,1.693     c0.77,0,1.507-0.064,2.172-0.199c2.758-0.564,3.197-2.148,0.97-3.538C241.655,94.252,238.92,93.612,236.493,93.612     L236.493,93.612z"></path>			</g>			<g>				<g>					<g>						<path fill="#FFFFFF" d="M289.118,84.089c-0.019-0.005-0.035-0.012-0.05-0.02l-0.091-0.058       c-0.017-0.007-0.021-0.016-0.016-0.023c-0.004-0.008,0.007-0.014,0.023-0.017l1.156-0.235       c0.015-0.003,0.034-0.003,0.051-0.001c0.024,0.004,0.038,0.011,0.052,0.018l0.094,0.06c0.013,0.008,0.018,0.013,0.014,0.022       c0,0.009-0.006,0.015-0.025,0.016l-1.156,0.237C289.158,84.091,289.137,84.091,289.118,84.089z M289.396,84.752l-0.651-0.404       c-0.062-0.04-0.084-0.078-0.068-0.113c0.016-0.039,0.062-0.065,0.144-0.077c0.075-0.009,0.155-0.005,0.245,0.013       c0.084,0.018,0.155,0.044,0.21,0.08l0.085,0.051c0.032,0.021,0.075,0.036,0.122,0.042c0.053,0.007,0.097,0.007,0.135,0       l0.031-0.006l-0.324-0.204l1.038-0.212l1.021,0.64c0.051,0.033,0.072,0.064,0.062,0.097c-0.01,0.032-0.045,0.056-0.104,0.067       l-0.581,0.118c-0.062,0.013-0.132,0.012-0.216,0c-0.083-0.015-0.15-0.038-0.205-0.069l-0.555-0.348l-0.027,0.005       c-0.089,0.018-0.188,0.017-0.298-0.001c-0.114-0.018-0.206-0.051-0.272-0.093l-0.097-0.058       c-0.016-0.014-0.043-0.023-0.07-0.028c-0.034-0.004-0.062-0.005-0.084,0.002c-0.025,0.004-0.037,0.012-0.039,0.026       c-0.002,0.011,0.001,0.02,0.021,0.033l0.468,0.292c0.055-0.004,0.11-0.002,0.178,0.009c0.063,0.013,0.113,0.031,0.154,0.056       l0.182,0.113l0.246,0.042c0.02,0.002,0.033,0.007,0.05,0.017c0.013,0.01,0.02,0.017,0.013,0.021l-0.004,0.033       c0,0.008-0.014,0.011-0.029,0.014c-0.017,0.003-0.035,0.003-0.051,0.001l-0.53-0.088       C289.512,84.81,289.444,84.786,289.396,84.752L289.396,84.752z M290.574,84.726l0.581-0.119l-0.373-0.232l-0.577,0.119       L290.574,84.726z"></path>					</g>				</g>			</g>			<g>				<g>					<g>						<path fill="#FFFFFF" d="M237.443,94.82c0.019,0.004,0.033,0.01,0.048,0.021l0.092,0.057c0.016,0.008,0.023,0.018,0.019,0.022       c-0.002,0.01-0.012,0.013-0.028,0.018l-0.056,0.011c-0.046,0.01-0.078,0.021-0.103,0.034       c-0.031,0.013-0.044,0.026-0.049,0.041c-0.01,0.024-0.031,0.04-0.074,0.05l-0.057,0.012c-0.04,0.007-0.094,0.006-0.154-0.002       c-0.059-0.01-0.127-0.009-0.199,0c-0.088-0.044-0.187-0.075-0.296-0.094l0.052-0.015c0.065-0.013,0.139-0.021,0.217-0.023       c0.077-0.002,0.152,0.002,0.225,0.011c0.01-0.026,0.043-0.051,0.084-0.076c0.045-0.021,0.101-0.04,0.168-0.054l0.057-0.013       C237.403,94.817,237.421,94.817,237.443,94.82z M234.958,95.153c-0.026-0.002-0.042-0.008-0.054-0.017l-0.092-0.058       c-0.018-0.009-0.021-0.018-0.019-0.025c0-0.007,0.012-0.014,0.028-0.018l0.059-0.01c0.068-0.015,0.141-0.022,0.219-0.023       c0.071-0.003,0.146,0.001,0.221,0.011c0.017-0.026,0.043-0.053,0.09-0.075c0.039-0.023,0.097-0.042,0.164-0.053       c0.065-0.015,0.136-0.023,0.214-0.023c0.079-0.004,0.152,0,0.223,0.011c0.017-0.029,0.045-0.054,0.09-0.075       c0.041-0.024,0.097-0.042,0.164-0.057c0.066-0.014,0.139-0.021,0.217-0.023c0.075-0.002,0.155,0.002,0.224,0.009       c0.011-0.024,0.044-0.048,0.087-0.072c0.041-0.022,0.1-0.04,0.169-0.054l0.055-0.013c0.019-0.003,0.032-0.004,0.055,0       c0.018,0.003,0.035,0.009,0.047,0.019l0.096,0.058c0.015,0.009,0.02,0.016,0.019,0.024c-0.003,0.007-0.011,0.013-0.03,0.018       l-0.057,0.009c-0.047,0.01-0.081,0.021-0.105,0.035c-0.025,0.013-0.041,0.025-0.047,0.04c-0.01,0.023-0.029,0.04-0.07,0.046       l-0.059,0.014c-0.043,0.006-0.095,0.008-0.16-0.002c-0.03-0.005-0.074-0.008-0.119-0.005c-0.044,0-0.09,0.005-0.132,0.013       c-0.046,0.009-0.081,0.021-0.104,0.034c-0.031,0.014-0.042,0.027-0.052,0.042c-0.005,0.024-0.03,0.04-0.072,0.047l-0.055,0.01       c-0.043,0.01-0.096,0.01-0.162,0.001c-0.028-0.005-0.066-0.009-0.117-0.005c-0.044,0-0.09,0.004-0.136,0.015       c-0.04,0.008-0.075,0.018-0.1,0.032c-0.027,0.015-0.039,0.028-0.043,0.041c-0.014,0.024-0.037,0.041-0.078,0.05l-0.059,0.011       c-0.039,0.011-0.094,0.008-0.158,0c-0.033-0.007-0.072-0.009-0.117-0.009c-0.045,0.002-0.092,0.007-0.137,0.015l-0.054,0.013       C234.994,95.156,234.977,95.157,234.958,95.153z M236.563,95.046c0.104,0.017,0.182,0.044,0.253,0.087       c0.042,0.027,0.07,0.058,0.077,0.088c0.009,0.031-0.008,0.057-0.041,0.079l0.623,0.389c0.016,0.01,0.018,0.019,0.019,0.025       c-0.002,0.007-0.014,0.013-0.029,0.018l-0.343,0.071c-0.023,0.003-0.041,0.003-0.06,0c-0.018-0.004-0.034-0.009-0.047-0.019       l-0.046-0.027c-0.016-0.008-0.021-0.018-0.018-0.026c0-0.007,0.01-0.01,0.025-0.014l0.17-0.036l-0.088-0.06l-0.172,0.036       c-0.018,0.001-0.037,0.003-0.055,0.001c-0.02-0.005-0.039-0.01-0.051-0.019l-0.044-0.027c-0.016-0.009-0.02-0.017-0.017-0.025       c-0.001-0.006,0.005-0.013,0.024-0.018l0.175-0.033l-0.093-0.06l-0.174,0.036c-0.018,0.003-0.031,0.004-0.053-0.001       c-0.018-0.002-0.037-0.007-0.05-0.017l-0.048-0.029c-0.015-0.008-0.02-0.016-0.016-0.022c0-0.007,0.01-0.013,0.025-0.016       l0.173-0.035l-0.067-0.043c-0.066-0.001-0.139-0.009-0.209-0.026c-0.068-0.017-0.127-0.042-0.172-0.071       c-0.066-0.041-0.092-0.08-0.082-0.12c0.012-0.039,0.057-0.068,0.135-0.085C236.371,95.028,236.462,95.028,236.563,95.046z        M235.328,95.385c-0.02-0.001-0.039-0.009-0.053-0.018l-0.092-0.056c-0.013-0.009-0.021-0.018-0.018-0.026       c0.004-0.006,0.011-0.012,0.029-0.015l0.057-0.013c0.072-0.015,0.145-0.023,0.217-0.023c0.08-0.002,0.15,0.002,0.226,0.009       c0.011-0.026,0.04-0.051,0.082-0.073c0.042-0.022,0.103-0.041,0.167-0.054l0.062-0.01c-0.007,0.043,0.021,0.09,0.077,0.139       c-0.058,0.019-0.092,0.039-0.102,0.063c-0.009,0.025-0.031,0.038-0.074,0.046l-0.058,0.012       c-0.038,0.009-0.093,0.007-0.158-0.002c-0.032-0.004-0.073-0.006-0.117-0.006c-0.044,0-0.092,0.007-0.138,0.016l-0.053,0.013       C235.365,95.388,235.348,95.389,235.328,95.385z"></path>					</g>				</g>			</g>		</g>		<g>			<path fill="#FFFFFF" d="M225.183,222.558c-0.841,0-1.384-0.612-1.384-1.56v-14.497c0-1.311,1.055-2.752,2.305-3.146    l38.708-12.225c0.208-0.066,0.413-0.1,0.606-0.1c0.841,0,1.385,0.612,1.385,1.561v14.494c0,1.312-1.055,2.753-2.306,3.147    l-38.708,12.226C225.582,222.524,225.377,222.558,225.183,222.558z"></path>			<path d="M265.42,191.552L265.42,191.552c0.54,0,0.863,0.389,0.863,1.039v14.494c0,1.085-0.907,2.324-1.941,2.65l-38.708,12.226    c-0.159,0.051-0.311,0.076-0.451,0.076c-0.541,0-0.864-0.389-0.864-1.039v-14.497c0-1.085,0.907-2.323,1.941-2.649l38.708-12.225    C265.127,191.578,265.278,191.552,265.42,191.552 M265.419,190.51c-0.242,0-0.499,0.039-0.764,0.123l-38.708,12.225    c-1.468,0.463-2.67,2.104-2.67,3.643v14.497c0,1.262,0.806,2.081,1.905,2.081c0.242,0,0.499-0.04,0.765-0.124l38.708-12.226    c1.468-0.464,2.67-2.104,2.67-3.645v-14.494C267.325,191.33,266.519,190.51,265.419,190.51L265.419,190.51z"></path>		</g>	</g>	<g opacity="0.5">		<path fill="#EFDAB9" d="M229.325,252.387v-9.454l5.468-1.724v0.775l-4.605,1.452v3.56l4.176-1.316v0.775l-4.176,1.316v4.343   L229.325,252.387z"></path>		<path fill="#EFDAB9" d="M236.699,250.063v-7.09l0.798-0.252v1.09l0.061-0.02c0.141-0.401,0.388-0.768,0.74-1.099   c0.354-0.331,0.751-0.567,1.199-0.708c0.066-0.021,0.143-0.043,0.225-0.066c0.084-0.023,0.152-0.041,0.209-0.056v0.835   c-0.037,0.006-0.102,0.018-0.194,0.033c-0.093,0.018-0.192,0.043-0.3,0.076c-0.369,0.116-0.698,0.298-0.986,0.544   c-0.287,0.246-0.515,0.532-0.68,0.858c-0.167,0.326-0.249,0.665-0.249,1.016v4.58L236.699,250.063z"></path>		<path fill="#EFDAB9" d="M243.865,247.953c-0.613,0.192-1.154,0.207-1.623,0.045c-0.469-0.164-0.835-0.478-1.101-0.944   c-0.264-0.466-0.396-1.059-0.396-1.779c0-0.726,0.132-1.407,0.396-2.043c0.266-0.636,0.632-1.183,1.101-1.639   c0.469-0.457,1.009-0.782,1.623-0.975c0.611-0.193,1.152-0.208,1.619-0.045c0.468,0.164,0.835,0.479,1.1,0.945   c0.266,0.467,0.399,1.064,0.399,1.791c0,0.72-0.132,1.396-0.397,2.029c-0.263,0.633-0.63,1.178-1.099,1.637   C245.017,247.434,244.476,247.76,243.865,247.953z M243.865,247.199c0.492-0.154,0.909-0.418,1.25-0.791   c0.34-0.372,0.6-0.806,0.777-1.302s0.266-1.009,0.266-1.538s-0.089-0.988-0.266-1.375s-0.437-0.661-0.777-0.821   c-0.342-0.16-0.759-0.163-1.25-0.007c-0.49,0.153-0.906,0.417-1.249,0.793s-0.602,0.813-0.78,1.312   c-0.177,0.499-0.266,1.013-0.266,1.542s0.089,0.986,0.266,1.371c0.178,0.385,0.435,0.655,0.777,0.812   S243.373,247.354,243.865,247.199z"></path>		<path fill="#EFDAB9" d="M249.608,241.563v4.431l-0.821,0.259v-7.09l0.798-0.252v1.112l0.073-0.023   c0.167-0.415,0.426-0.788,0.778-1.119c0.352-0.331,0.789-0.579,1.309-0.743c0.477-0.15,0.896-0.183,1.257-0.098   c0.361,0.084,0.643,0.287,0.844,0.607c0.202,0.322,0.302,0.763,0.302,1.322v4.593l-0.821,0.259v-4.542   c0-0.582-0.163-0.991-0.487-1.227c-0.324-0.236-0.759-0.27-1.304-0.098c-0.371,0.117-0.703,0.302-0.992,0.553   c-0.289,0.251-0.518,0.553-0.686,0.906C249.692,240.767,249.608,241.15,249.608,241.563z"></path>		<path fill="#EFDAB9" d="M259.11,235.909v0.714l-3.381,1.066v-0.715L259.11,235.909z M256.785,234.943l0.825-0.261v6.939   c0,0.294,0.051,0.509,0.152,0.646c0.102,0.135,0.234,0.213,0.396,0.23c0.164,0.018,0.338-0.003,0.522-0.061   c0.107-0.034,0.2-0.07,0.276-0.108c0.077-0.038,0.145-0.073,0.203-0.108l0.176,0.688c-0.08,0.056-0.179,0.115-0.295,0.179   c-0.117,0.062-0.262,0.121-0.435,0.176c-0.302,0.095-0.591,0.12-0.87,0.076c-0.278-0.045-0.506-0.17-0.685-0.375   s-0.268-0.502-0.268-0.891V234.943z"></path>	</g></g></svg>