<svg xmlns="http://www.w3.org/2000/svg" xmlns:xlink="http://www.w3.org/1999/xlink" id="Layer_1" x="0px" y="0px" width="363px" height="255px" viewBox="0 0 363 255" xml:space="preserve"><g>	<polygon fill="#D4A686" points="160.969,36.543 52.184,56.056 52.184,204.693 181.27,254.249 181.27,42.174  "></polygon>	<path fill="#2A2829" d="M181.27,254.999c-0.091,0-0.182-0.017-0.269-0.05L51.916,205.393c-0.29-0.11-0.481-0.39-0.481-0.699V56.056  c0-0.363,0.26-0.674,0.618-0.738l108.785-19.513c0.111-0.019,0.224-0.014,0.333,0.016l20.301,5.631  c0.325,0.09,0.549,0.386,0.549,0.723V254.25c0,0.247-0.123,0.479-0.326,0.618C181.568,254.954,181.419,254.999,181.27,254.999z   M52.934,204.177l127.587,48.981V42.744l-19.587-5.433l-108,19.372V204.177z"></path></g><g>	<polygon fill="#D4A686" points="181.27,42.174 181.27,254.249 181.272,254.25 302.277,216.193 302.277,75.737  "></polygon>	<path fill="#2A2829" d="M181.272,255c-0.118,0-0.236-0.027-0.343-0.083l-0.002-0.001c-0.25-0.129-0.407-0.386-0.407-0.667V42.174  c0-0.234,0.109-0.455,0.295-0.597c0.187-0.141,0.429-0.188,0.654-0.125l121.007,33.563c0.324,0.09,0.549,0.386,0.549,0.723v140.458  c0,0.326-0.213,0.617-0.524,0.716l-121.005,38.056C181.423,254.988,181.348,255,181.272,255z M182.02,43.16v210.068l119.51-37.586  V76.308L182.02,43.16z"></path></g><g>	<polygon fill="#D4A686" points="302.271,75.738 345.07,37.516 203.857,1.827 160.866,36.514  "></polygon>	<path fill="#2A2829" d="M302.271,76.488c-0.067,0-0.136-0.009-0.201-0.027L160.666,37.237c-0.271-0.075-0.477-0.295-0.534-0.571  c-0.057-0.275,0.045-0.559,0.264-0.736l42.993-34.688c0.184-0.147,0.426-0.202,0.653-0.143l141.212,35.689  c0.271,0.068,0.479,0.279,0.545,0.548c0.066,0.269-0.021,0.553-0.229,0.738l-42.799,38.223  C302.632,76.422,302.453,76.488,302.271,76.488z M162.473,36.182l139.604,38.725l41.44-37.009L204.038,2.646L162.473,36.182z"></path></g><g>	<polygon fill="#D4A686" points="52.209,56.047 22.849,21.77 126.292,0.75 160.866,36.514  "></polygon>	<path fill="#2A2829" d="M52.209,56.796c-0.217,0-0.426-0.094-0.569-0.262L22.28,22.258c-0.173-0.202-0.227-0.48-0.14-0.731  s0.3-0.438,0.56-0.491l103.443-21.02c0.252-0.052,0.51,0.029,0.688,0.213l34.575,35.764c0.192,0.199,0.259,0.488,0.174,0.752  c-0.084,0.264-0.308,0.458-0.581,0.508L52.342,56.785C52.297,56.792,52.253,56.796,52.209,56.796z M24.248,22.251l28.25,32.982  L159.35,36.025L126.039,1.567L24.248,22.251z"></path></g><g>	<g>		<polygon fill="#B58B6A" points="160.938,36.543 160.897,36.55 160.897,93.214 181.229,100.165 302.246,75.746 302.246,75.737      "></polygon>		<path fill="#2A2829" d="M181.229,100.902c-0.081,0-0.162-0.013-0.239-0.04l-20.333-6.951c-0.298-0.102-0.499-0.383-0.499-0.698   V36.55c0-0.357,0.255-0.663,0.606-0.726c0.11-0.02,0.262-0.021,0.369,0.008l141.309,39.194c0.32,0.088,0.541,0.379,0.541,0.711   c0,0.351-0.248,0.663-0.592,0.732l-121.017,24.418C181.327,100.897,181.278,100.902,181.229,100.902z M161.634,92.686   l19.645,6.716l117.817-23.773L161.634,37.502V92.686z"></path>	</g>	<g>		<polygon fill="#B58B6A" points="52.184,56.049 160.897,93.214 160.897,36.55   "></polygon>		<path fill="#2A2829" d="M160.897,93.952c-0.08,0-0.161-0.013-0.239-0.04L51.945,56.747c-0.318-0.108-0.522-0.418-0.497-0.754   c0.025-0.335,0.274-0.611,0.605-0.67l108.713-19.499c0.215-0.035,0.436,0.021,0.604,0.161c0.167,0.14,0.264,0.348,0.264,0.566   v56.664c0,0.238-0.114,0.462-0.308,0.6C161.199,93.905,161.049,93.952,160.897,93.952z M55.118,56.272l105.042,35.91v-54.75   L55.118,56.272z"></path>	</g></g><g opacity="0.5">	<path fill="#EFDAB9" d="M229.325,252.387v-9.453l5.468-1.725v0.775l-4.605,1.451v3.561l4.176-1.316v0.775l-4.176,1.316v4.343  L229.325,252.387z"></path>	<path fill="#EFDAB9" d="M236.699,250.062v-7.09l0.798-0.252v1.09l0.062-0.02c0.141-0.4,0.387-0.768,0.739-1.1  c0.354-0.33,0.751-0.566,1.199-0.707c0.065-0.021,0.144-0.043,0.226-0.066c0.084-0.023,0.151-0.041,0.209-0.057v0.836  c-0.037,0.006-0.103,0.018-0.195,0.033c-0.092,0.018-0.191,0.043-0.299,0.076c-0.369,0.115-0.698,0.297-0.986,0.543  c-0.287,0.246-0.516,0.532-0.68,0.858c-0.168,0.326-0.25,0.665-0.25,1.017v4.58L236.699,250.062z"></path>	<path fill="#EFDAB9" d="M243.865,247.953c-0.613,0.191-1.154,0.207-1.623,0.045c-0.469-0.164-0.835-0.479-1.102-0.943  c-0.264-0.467-0.396-1.06-0.396-1.779c0-0.727,0.132-1.407,0.396-2.043c0.267-0.637,0.633-1.184,1.102-1.64  c0.469-0.457,1.009-0.782,1.623-0.975c0.611-0.193,1.152-0.208,1.619-0.045c0.468,0.163,0.834,0.479,1.1,0.944  c0.266,0.467,0.398,1.064,0.398,1.791c0,0.721-0.131,1.396-0.396,2.029c-0.263,0.633-0.63,1.178-1.1,1.637  C245.018,247.434,244.477,247.76,243.865,247.953z M243.865,247.199c0.492-0.154,0.908-0.418,1.25-0.791  c0.34-0.372,0.6-0.807,0.777-1.303c0.176-0.496,0.266-1.008,0.266-1.537s-0.09-0.988-0.266-1.375  c-0.178-0.387-0.438-0.661-0.777-0.821c-0.342-0.16-0.76-0.163-1.25-0.007c-0.49,0.152-0.906,0.417-1.249,0.793  s-0.603,0.812-0.78,1.312c-0.177,0.499-0.266,1.013-0.266,1.542s0.089,0.986,0.266,1.371c0.178,0.385,0.436,0.655,0.777,0.812  C242.955,247.352,243.373,247.354,243.865,247.199z"></path>	<path fill="#EFDAB9" d="M249.607,241.562v4.432l-0.82,0.259v-7.09l0.798-0.252v1.112l0.073-0.023  c0.167-0.415,0.426-0.788,0.777-1.119c0.353-0.331,0.789-0.579,1.31-0.742c0.478-0.15,0.896-0.184,1.257-0.099  c0.361,0.084,0.643,0.287,0.844,0.606c0.202,0.322,0.303,0.764,0.303,1.322v4.594l-0.821,0.259v-4.542  c0-0.582-0.163-0.991-0.487-1.228c-0.324-0.235-0.759-0.27-1.304-0.098c-0.371,0.117-0.703,0.302-0.992,0.553  s-0.519,0.554-0.687,0.906C249.691,240.768,249.607,241.15,249.607,241.562z"></path>	<path fill="#EFDAB9" d="M259.109,235.909v0.714l-3.381,1.066v-0.715L259.109,235.909z M256.785,234.943l0.824-0.262v6.939  c0,0.294,0.052,0.509,0.152,0.646c0.103,0.135,0.234,0.213,0.396,0.229c0.164,0.019,0.338-0.003,0.521-0.062  c0.107-0.033,0.2-0.069,0.276-0.107c0.077-0.038,0.146-0.073,0.203-0.108l0.176,0.688c-0.08,0.056-0.179,0.115-0.295,0.179  c-0.117,0.062-0.263,0.121-0.435,0.176c-0.303,0.095-0.592,0.12-0.871,0.076c-0.277-0.045-0.506-0.17-0.685-0.375  s-0.268-0.502-0.268-0.891v-7.13H256.785z"></path></g><path fill="none" stroke="#FFFFFF" stroke-width="2.2" stroke-miterlimit="10" d="M71.349,34.04 c0.554,7.146-4.792,12.942-11.939,12.943c-7.148,0-13.391-5.795-13.943-12.942s4.795-12.942,11.942-12.942 C64.557,21.099,70.797,26.894,71.349,34.04z"></path><path fill="none" stroke="#FFFFFF" stroke-width="2.2" stroke-miterlimit="10" d="M133.713,23.367 c0.554,7.146-4.792,12.942-11.939,12.943c-7.148,0-13.391-5.795-13.943-12.942s4.795-12.942,11.942-12.942 C126.921,10.425,133.161,16.22,133.713,23.367z"></path><g>	<path fill="none" stroke="#FFFFFF" stroke-width="2.2" stroke-linejoin="round" stroke-miterlimit="10" d="M261.9,93.798  c-0.651-0.405-1.109-1.116-1.104-1.804c0.008-0.959,0.955-1.579,1.975-1.253l0.345,0.11l-0.42-13.055  c-0.881-0.799-1.478-1.968-1.469-3.098l0.017-2.039c0.012-1.434,0.959-2.453,2.305-2.477c0.311-0.006,0.629,0.043,0.95,0.146  l2.831,0.907c1.592,0.511,2.877,2.276,2.863,3.938l-0.017,2.037c-0.01,1.134-0.608,2-1.521,2.328l-0.636,12.882l0.696,0.224  c0.909,0.291,1.615,1.189,1.608,2.047c-0.005,0.648-0.43,1.131-1.034,1.279"></path>	<g>		<g>			<path fill="#666666" d="M261.319,91.985c-0.005,0.638,0.562,1.343,1.26,1.567l5.942,1.904c0.698,0.224,1.273-0.115,1.279-0.753    s-0.562-1.343-1.26-1.567l-5.942-1.904C261.9,91.008,261.324,91.347,261.319,91.985z"></path>							<path fill="none" stroke="#000000" stroke-width="1.0372" stroke-linecap="square" stroke-linejoin="round" stroke-miterlimit="3" d="    M261.319,91.985c-0.005,0.638,0.562,1.343,1.26,1.567l5.942,1.904c0.698,0.224,1.273-0.115,1.279-0.753s-0.562-1.343-1.26-1.567    l-5.942-1.904C261.9,91.008,261.324,91.347,261.319,91.985z"></path>		</g>					<polygon fill="#666666" stroke="#000000" stroke-width="1.0372" stroke-linecap="square" stroke-linejoin="round" stroke-miterlimit="3" points="   263.664,91.572 267.479,92.795 268.16,79.009 263.208,77.422   "></polygon>		<g>			<path fill="#666666" d="M261.75,74.669c-0.012,1.467,1.121,3.033,2.519,3.481l2.824,0.905c1.397,0.448,2.55-0.386,2.562-1.853    l0.017-1.996c0.012-1.467-1.121-3.033-2.519-3.481l-2.824-0.905c-1.397-0.448-2.55,0.386-2.562,1.853L261.75,74.669z"></path>							<path fill="none" stroke="#000000" stroke-width="1.0372" stroke-linecap="square" stroke-linejoin="round" stroke-miterlimit="3" d="    M261.75,74.669c-0.012,1.467,1.121,3.033,2.519,3.481l2.824,0.905c1.397,0.448,2.55-0.386,2.562-1.853l0.017-1.996    c0.012-1.467-1.121-3.033-2.519-3.481l-2.824-0.905c-1.397-0.448-2.55,0.386-2.562,1.853L261.75,74.669z"></path>		</g>	</g></g><g>	<polygon fill="none" stroke="#FFFFFF" stroke-width="2.1029" stroke-linejoin="round" stroke-miterlimit="10" points="  251.008,123.078 238.287,127.168 225.471,131.287 212.492,135.46 212.464,151.706 212.452,158.145 220.124,155.678   232.846,151.589 245.661,147.469 258.518,143.336 271.33,139.217 271.356,139.208 271.356,139.176 271.385,123.135   271.396,116.523 263.822,118.958  "></polygon>	<g>		<g>			<polygon fill="#F6C908" points="212.452,158.145 271.356,139.208 271.396,116.523 212.492,135.46    "></polygon>		</g>		<g>			<defs>				<polygon id="SVGID_1_" points="212.452,158.145 271.356,139.208 271.396,116.523 212.492,135.46     "></polygon>			</defs>			<clipPath id="SVGID_2_">				<use xlink:href="#SVGID_1_"></use>			</clipPath>			<g clip-path="url(#SVGID_2_)">				<polygon points="236.363,162.063 270.612,108.299 264.219,102.338 229.969,156.104     "></polygon>			</g>			<g clip-path="url(#SVGID_2_)">				<polygon points="262.032,153.812 296.282,100.047 289.888,94.086 255.639,147.853     "></polygon>			</g>			<g clip-path="url(#SVGID_2_)">				<polygon points="210.825,170.274 245.076,116.51 238.681,110.549 204.431,164.316     "></polygon>			</g>		</g>	</g></g><g>	<path fill="none" stroke="#FFFFFF" stroke-width="2.2" stroke-linejoin="round" stroke-miterlimit="10" d="M122.021,202.411  c0.062,0,0.125,0.006,0.186,0.016c-0.014-1.686,0.084-3.332,0.295-4.928c-0.061-0.017-0.119-0.036-0.18-0.064  c-0.797-0.37-1.25-1.487-1.008-2.485l0.799-3.286c0.189-0.777,0.75-1.262,1.365-1.262c0.172,0,0.354,0.039,0.529,0.12  c0.059,0.028,0.117,0.062,0.172,0.098c0.541-1.466,1.182-2.861,1.92-4.172c-0.053-0.044-0.107-0.092-0.158-0.144  c-0.652-0.683-0.725-1.866-0.158-2.63l1.863-2.514c0.303-0.41,0.73-0.619,1.162-0.619c0.373,0,0.75,0.155,1.053,0.472  c0.051,0.053,0.1,0.109,0.141,0.165c1.002-1.034,2.086-1.968,3.242-2.79c-0.039-0.062-0.074-0.127-0.104-0.193  c-0.412-0.892-0.092-1.961,0.713-2.373l2.641-1.362c0.219-0.109,0.449-0.163,0.678-0.163c0.619,0,1.229,0.383,1.527,1.034  c0.031,0.065,0.055,0.135,0.078,0.202c1.305-0.45,2.668-0.777,4.078-0.973c-0.016-0.071-0.029-0.144-0.039-0.22  c-0.104-0.964,0.561-1.754,1.479-1.754h3.018c0.92,0,1.754,0.79,1.857,1.754c0.008,0.074,0.01,0.147,0.01,0.22  c1.451,0.195,2.887,0.522,4.289,0.972c0.006-0.066,0.018-0.134,0.033-0.201c0.158-0.651,0.684-1.034,1.303-1.034  c0.229,0,0.473,0.052,0.713,0.163l2.938,1.362c0.893,0.412,1.443,1.481,1.227,2.372c-0.014,0.067-0.039,0.132-0.061,0.194  c1.334,0.822,2.619,1.756,3.846,2.79c0.029-0.057,0.064-0.113,0.102-0.165c0.236-0.316,0.578-0.472,0.951-0.472  c0.434,0,0.906,0.209,1.299,0.619l2.406,2.514c0.73,0.764,0.916,1.948,0.408,2.63c-0.039,0.052-0.078,0.1-0.125,0.144  c1.021,1.311,1.965,2.706,2.822,4.173c0.047-0.036,0.1-0.07,0.152-0.099c0.158-0.081,0.328-0.12,0.5-0.12  c0.615,0,1.281,0.484,1.639,1.263l1.512,3.285c0.459,0.998,0.246,2.116-0.471,2.486c-0.053,0.028-0.109,0.047-0.164,0.064  c0.555,1.596,1.01,3.241,1.357,4.926c0.061-0.008,0.121-0.015,0.184-0.015c0.82,0,1.586,0.881,1.703,1.962l0.385,3.555  c0.117,1.081-0.459,1.964-1.279,1.964c-0.062,0-0.123-0.007-0.186-0.016c0.014,1.685-0.084,3.33-0.293,4.925  c0.059,0.018,0.119,0.039,0.178,0.066c0.797,0.368,1.252,1.486,1.01,2.484l-0.801,3.287c-0.189,0.778-0.75,1.262-1.365,1.262  c-0.174,0-0.352-0.038-0.527-0.121c-0.059-0.026-0.119-0.062-0.174-0.097c-0.539,1.467-1.182,2.861-1.918,4.174  c0.053,0.043,0.105,0.089,0.156,0.143c0.654,0.683,0.725,1.865,0.16,2.629l-1.863,2.515c-0.305,0.41-0.732,0.618-1.164,0.618  c-0.373,0-0.75-0.154-1.053-0.47c-0.049-0.053-0.098-0.11-0.139-0.168c-1.002,1.036-2.086,1.97-3.242,2.791  c0.035,0.062,0.074,0.126,0.104,0.192c0.41,0.893,0.09,1.961-0.713,2.373l-2.643,1.36c-0.219,0.111-0.451,0.166-0.68,0.166  c-0.619,0-1.227-0.384-1.525-1.034c-0.029-0.066-0.055-0.134-0.078-0.202c-1.305,0.45-2.668,0.775-4.078,0.974  c0.016,0.07,0.029,0.144,0.037,0.218c0.105,0.965-0.557,1.756-1.477,1.756h-3.018c-0.918,0-1.754-0.791-1.857-1.756  c-0.008-0.074-0.01-0.147-0.01-0.218c-1.453-0.199-2.885-0.523-4.287-0.974c-0.008,0.068-0.018,0.136-0.035,0.202  c-0.158,0.65-0.684,1.034-1.303,1.034c-0.229,0-0.471-0.052-0.713-0.166l-2.938-1.36c-0.893-0.412-1.445-1.48-1.225-2.373  c0.014-0.066,0.035-0.131,0.061-0.192c-1.334-0.821-2.619-1.755-3.846-2.791c-0.029,0.058-0.064,0.114-0.104,0.168  c-0.234,0.315-0.576,0.47-0.949,0.47c-0.434,0-0.906-0.207-1.299-0.618l-2.406-2.515c-0.732-0.764-0.916-1.948-0.41-2.629  c0.039-0.052,0.082-0.1,0.127-0.143c-1.023-1.312-1.965-2.707-2.822-4.174c-0.049,0.035-0.1,0.07-0.152,0.097  c-0.158,0.082-0.33,0.121-0.502,0.121c-0.615,0-1.281-0.483-1.639-1.262l-1.51-3.287c-0.459-0.998-0.248-2.115,0.469-2.484  c0.055-0.027,0.109-0.048,0.166-0.066c-0.557-1.595-1.01-3.24-1.359-4.925c-0.059,0.009-0.121,0.016-0.184,0.016  c-0.82,0-1.586-0.883-1.703-1.964l-0.385-3.555C120.624,203.292,121.2,202.411,122.021,202.411z"></path>	<path fill="none" stroke="#FFFFFF" stroke-width="2.2" stroke-linejoin="round" stroke-miterlimit="10" d="M59.429,175.725  c0.062,0,0.125,0.006,0.186,0.016c-0.014-1.686,0.084-3.332,0.295-4.928c-0.061-0.017-0.119-0.036-0.18-0.064  c-0.797-0.37-1.25-1.487-1.008-2.485l0.799-3.286c0.189-0.777,0.75-1.262,1.365-1.262c0.172,0,0.354,0.039,0.529,0.12  c0.059,0.028,0.117,0.062,0.172,0.098c0.541-1.466,1.182-2.861,1.92-4.172c-0.053-0.044-0.107-0.092-0.158-0.144  c-0.652-0.683-0.725-1.866-0.158-2.63l1.863-2.514c0.303-0.41,0.73-0.619,1.162-0.619c0.373,0,0.75,0.155,1.053,0.472  c0.051,0.053,0.1,0.109,0.141,0.165c1.002-1.034,2.086-1.968,3.242-2.79c-0.039-0.062-0.074-0.127-0.104-0.193  c-0.412-0.892-0.092-1.961,0.713-2.373l2.641-1.362c0.219-0.109,0.449-0.163,0.678-0.163c0.619,0,1.229,0.383,1.527,1.034  c0.031,0.065,0.055,0.135,0.078,0.202c1.305-0.45,2.668-0.777,4.078-0.973c-0.016-0.071-0.029-0.144-0.039-0.22  c-0.104-0.964,0.561-1.754,1.479-1.754h3.018c0.92,0,1.754,0.79,1.857,1.754c0.008,0.074,0.01,0.147,0.01,0.22  c1.451,0.195,2.887,0.522,4.289,0.972c0.006-0.066,0.018-0.134,0.033-0.201c0.158-0.651,0.684-1.034,1.303-1.034  c0.229,0,0.473,0.052,0.713,0.163l2.938,1.362c0.893,0.412,1.443,1.481,1.227,2.372c-0.014,0.067-0.039,0.132-0.061,0.194  c1.334,0.822,2.619,1.756,3.846,2.79c0.029-0.057,0.064-0.113,0.102-0.165c0.236-0.316,0.578-0.472,0.951-0.472  c0.434,0,0.906,0.209,1.299,0.619l2.406,2.514c0.73,0.764,0.916,1.948,0.408,2.63c-0.039,0.052-0.078,0.1-0.125,0.144  c1.021,1.311,1.965,2.706,2.822,4.173c0.047-0.036,0.1-0.07,0.152-0.099c0.158-0.081,0.328-0.12,0.5-0.12  c0.615,0,1.281,0.484,1.639,1.263l1.512,3.285c0.459,0.998,0.246,2.116-0.471,2.486c-0.053,0.028-0.109,0.047-0.164,0.064  c0.555,1.596,1.01,3.241,1.357,4.926c0.061-0.008,0.121-0.015,0.184-0.015c0.82,0,1.586,0.881,1.703,1.962l0.385,3.555  c0.117,1.081-0.459,1.964-1.279,1.964c-0.062,0-0.123-0.007-0.186-0.016c0.014,1.685-0.084,3.33-0.293,4.925  c0.059,0.018,0.119,0.039,0.178,0.066c0.797,0.368,1.252,1.486,1.01,2.484l-0.801,3.287c-0.189,0.778-0.75,1.262-1.365,1.262  c-0.174,0-0.352-0.038-0.527-0.121c-0.059-0.026-0.119-0.062-0.174-0.097c-0.539,1.467-1.182,2.861-1.918,4.174  c0.053,0.043,0.105,0.089,0.156,0.143c0.654,0.683,0.725,1.865,0.16,2.629l-1.863,2.515c-0.305,0.41-0.732,0.618-1.164,0.618  c-0.373,0-0.75-0.154-1.053-0.47c-0.049-0.053-0.098-0.11-0.139-0.168c-1.002,1.036-2.086,1.97-3.242,2.791  c0.035,0.062,0.074,0.126,0.104,0.192c0.41,0.893,0.09,1.961-0.713,2.373l-2.643,1.36c-0.219,0.111-0.451,0.166-0.68,0.166  c-0.619,0-1.227-0.384-1.525-1.034c-0.029-0.066-0.055-0.134-0.078-0.202c-1.305,0.45-2.668,0.775-4.078,0.974  c0.016,0.07,0.029,0.144,0.037,0.218c0.105,0.965-0.557,1.756-1.477,1.756h-3.018c-0.918,0-1.754-0.791-1.857-1.756  c-0.008-0.074-0.01-0.147-0.01-0.218c-1.453-0.199-2.885-0.523-4.287-0.974c-0.008,0.068-0.018,0.136-0.035,0.202  c-0.158,0.65-0.684,1.034-1.303,1.034c-0.229,0-0.471-0.052-0.713-0.166l-2.938-1.36c-0.893-0.412-1.445-1.48-1.225-2.373  c0.014-0.066,0.035-0.131,0.061-0.192c-1.334-0.821-2.619-1.755-3.846-2.791c-0.029,0.058-0.064,0.114-0.104,0.168  c-0.234,0.315-0.576,0.47-0.949,0.47c-0.434,0-0.906-0.207-1.299-0.618l-2.406-2.515c-0.732-0.764-0.916-1.948-0.41-2.629  c0.039-0.052,0.082-0.1,0.127-0.143c-1.023-1.312-1.965-2.707-2.822-4.174c-0.049,0.035-0.1,0.07-0.152,0.097  c-0.158,0.082-0.33,0.121-0.502,0.121c-0.615,0-1.281-0.483-1.639-1.262l-1.51-3.287c-0.459-0.998-0.248-2.115,0.469-2.484  c0.055-0.027,0.109-0.048,0.166-0.066c-0.557-1.595-1.01-3.24-1.359-4.925c-0.059,0.009-0.121,0.016-0.184,0.016  c-0.82,0-1.586-0.883-1.703-1.964l-0.385-3.555C58.032,176.605,58.608,175.725,59.429,175.725z"></path>	<polygon fill="none" stroke="#FFFFFF" stroke-width="2.2" stroke-linejoin="round" stroke-miterlimit="10" points="  109.444,120.074 122.753,125.099 136.161,130.16 149.739,135.286 149.769,152.284 149.78,159.02 141.753,155.989 128.444,150.966   115.038,145.904 101.589,140.827 88.183,135.767 88.155,135.756 88.155,135.722 88.126,118.938 88.114,112.021 96.038,115.013  "></polygon>	<g>		<path d="M122.021,202.411c0.062,0,0.125,0.006,0.186,0.016c-0.014-1.686,0.084-3.332,0.295-4.928   c-0.061-0.017-0.119-0.036-0.18-0.064c-0.797-0.37-1.25-1.487-1.008-2.485l0.799-3.286c0.189-0.777,0.75-1.262,1.365-1.262   c0.172,0,0.354,0.039,0.529,0.12c0.059,0.028,0.117,0.062,0.172,0.098c0.541-1.466,1.182-2.861,1.92-4.172   c-0.053-0.044-0.107-0.092-0.158-0.144c-0.652-0.683-0.725-1.866-0.158-2.63l1.863-2.514c0.303-0.41,0.73-0.619,1.162-0.619   c0.373,0,0.75,0.155,1.053,0.472c0.051,0.053,0.1,0.109,0.141,0.165c1.002-1.034,2.086-1.968,3.242-2.79   c-0.039-0.062-0.074-0.127-0.104-0.193c-0.412-0.892-0.092-1.961,0.713-2.373l2.641-1.362c0.219-0.109,0.449-0.163,0.678-0.163   c0.619,0,1.229,0.383,1.527,1.034c0.031,0.065,0.055,0.135,0.078,0.202c1.305-0.45,2.668-0.777,4.078-0.973   c-0.016-0.071-0.029-0.144-0.039-0.22c-0.104-0.964,0.561-1.754,1.479-1.754h3.018c0.92,0,1.754,0.79,1.857,1.754   c0.008,0.074,0.01,0.147,0.01,0.22c1.451,0.195,2.887,0.522,4.289,0.972c0.006-0.066,0.018-0.134,0.033-0.201   c0.158-0.651,0.684-1.034,1.303-1.034c0.229,0,0.473,0.052,0.713,0.163l2.938,1.362c0.893,0.412,1.443,1.481,1.227,2.372   c-0.014,0.067-0.039,0.132-0.061,0.194c1.334,0.822,2.619,1.756,3.846,2.79c0.029-0.057,0.064-0.113,0.102-0.165   c0.236-0.316,0.578-0.472,0.951-0.472c0.434,0,0.906,0.209,1.299,0.619l2.406,2.514c0.73,0.764,0.916,1.948,0.408,2.63   c-0.039,0.052-0.078,0.1-0.125,0.144c1.021,1.311,1.965,2.706,2.822,4.173c0.047-0.036,0.1-0.07,0.152-0.099   c0.158-0.081,0.328-0.12,0.5-0.12c0.615,0,1.281,0.484,1.639,1.263l1.512,3.285c0.459,0.998,0.246,2.116-0.471,2.486   c-0.053,0.028-0.109,0.047-0.164,0.064c0.555,1.596,1.01,3.241,1.357,4.926c0.061-0.008,0.121-0.015,0.184-0.015   c0.82,0,1.586,0.881,1.703,1.962l0.385,3.555c0.117,1.081-0.459,1.964-1.279,1.964c-0.062,0-0.123-0.007-0.186-0.016   c0.014,1.685-0.084,3.33-0.293,4.925c0.059,0.018,0.119,0.039,0.178,0.066c0.797,0.368,1.252,1.486,1.01,2.484l-0.801,3.287   c-0.189,0.778-0.75,1.262-1.365,1.262c-0.174,0-0.352-0.038-0.527-0.121c-0.059-0.026-0.119-0.062-0.174-0.097   c-0.539,1.467-1.182,2.861-1.918,4.174c0.053,0.043,0.105,0.089,0.156,0.143c0.654,0.683,0.725,1.865,0.16,2.629l-1.863,2.515   c-0.305,0.41-0.732,0.618-1.164,0.618c-0.373,0-0.75-0.154-1.053-0.47c-0.049-0.053-0.098-0.11-0.139-0.168   c-1.002,1.036-2.086,1.97-3.242,2.791c0.035,0.062,0.074,0.126,0.104,0.192c0.41,0.893,0.09,1.961-0.713,2.373l-2.643,1.36   c-0.219,0.111-0.451,0.166-0.68,0.166c-0.619,0-1.227-0.384-1.525-1.034c-0.029-0.066-0.055-0.134-0.078-0.202   c-1.305,0.45-2.668,0.775-4.078,0.974c0.016,0.07,0.029,0.144,0.037,0.218c0.105,0.965-0.557,1.756-1.477,1.756h-3.018   c-0.918,0-1.754-0.791-1.857-1.756c-0.008-0.074-0.01-0.147-0.01-0.218c-1.453-0.199-2.885-0.523-4.287-0.974   c-0.008,0.068-0.018,0.136-0.035,0.202c-0.158,0.65-0.684,1.034-1.303,1.034c-0.229,0-0.471-0.052-0.713-0.166l-2.938-1.36   c-0.893-0.412-1.445-1.48-1.225-2.373c0.014-0.066,0.035-0.131,0.061-0.192c-1.334-0.821-2.619-1.755-3.846-2.791   c-0.029,0.058-0.064,0.114-0.104,0.168c-0.234,0.315-0.576,0.47-0.949,0.47c-0.434,0-0.906-0.207-1.299-0.618l-2.406-2.515   c-0.732-0.764-0.916-1.948-0.41-2.629c0.039-0.052,0.082-0.1,0.127-0.143c-1.023-1.312-1.965-2.707-2.822-4.174   c-0.049,0.035-0.1,0.07-0.152,0.097c-0.158,0.082-0.33,0.121-0.502,0.121c-0.615,0-1.281-0.483-1.639-1.262l-1.51-3.287   c-0.459-0.998-0.248-2.115,0.469-2.484c0.055-0.027,0.109-0.048,0.166-0.066c-0.557-1.595-1.01-3.24-1.359-4.925   c-0.059,0.009-0.121,0.016-0.184,0.016c-0.82,0-1.586-0.883-1.703-1.964l-0.385-3.555   C120.624,203.292,121.2,202.411,122.021,202.411z"></path>		<path fill="#F6C908" d="M151.737,227.442c9.984,0,17.047-9.533,15.775-21.291c-1.271-11.759-10.396-21.29-20.381-21.29   c-9.982,0-17.049,9.531-15.775,21.29C132.628,217.909,141.755,227.442,151.737,227.442z"></path>		<path d="M132.349,206.151c1.201,11.095,9.84,20.121,19.262,20.121s16.109-9.026,14.908-20.121   c-1.199-11.096-9.84-20.12-19.262-20.12S131.149,195.056,132.349,206.151z M134.343,206.151   c-1.061-9.802,4.846-17.775,13.168-17.775s15.955,7.974,17.016,17.775c1.061,9.801-4.848,17.774-13.17,17.774   S135.403,215.952,134.343,206.151z"></path>		<path d="M150.194,213.179c0.701,0,1.342,0.669,1.432,1.496c0.09,0.826-0.406,1.496-1.107,1.496s-1.342-0.67-1.432-1.496   C148.997,213.848,149.493,213.179,150.194,213.179z"></path>		<path d="M155.987,211.122c0.561,0.584,0.664,1.531,0.229,2.113c-0.432,0.585-1.236,0.585-1.795,0   c-0.561-0.583-0.662-1.529-0.229-2.113C154.626,210.536,155.431,210.536,155.987,211.122z"></path>		<path d="M155.401,206.151c-0.09-0.827,0.408-1.496,1.109-1.496s1.342,0.669,1.432,1.496c0.09,0.825-0.406,1.495-1.107,1.495   S155.491,206.977,155.401,206.151z"></path>		<path d="M153.116,201.181c-0.559-0.583-0.662-1.531-0.229-2.113c0.434-0.585,1.238-0.585,1.795,0   c0.562,0.582,0.664,1.53,0.23,2.115C154.481,201.766,153.677,201.766,153.116,201.181z"></path>		<path d="M148.87,200.946c2.443,0,4.674,2.331,4.984,5.205c0.311,2.873-1.414,5.206-3.857,5.206c-2.439,0-4.672-2.333-4.982-5.206   C144.704,203.276,146.431,200.946,148.87,200.946z"></path>		<path d="M142.034,204.655c0.701,0,1.344,0.669,1.434,1.496c0.09,0.825-0.408,1.495-1.109,1.495s-1.344-0.67-1.432-1.495   C140.837,205.324,141.333,204.655,142.034,204.655z"></path>		<path d="M145.751,211.12c0.561,0.586,0.664,1.533,0.23,2.115c-0.434,0.585-1.238,0.585-1.795,0   c-0.561-0.583-0.664-1.529-0.23-2.115C144.39,210.536,145.192,210.536,145.751,211.12z"></path>		<path d="M147.243,197.626c-0.09-0.825,0.406-1.495,1.107-1.495s1.342,0.67,1.432,1.495c0.09,0.826-0.406,1.496-1.109,1.496   C147.974,199.125,147.331,198.452,147.243,197.626z"></path>		<path d="M142.882,201.182c-0.561-0.585-0.662-1.532-0.229-2.114c0.432-0.587,1.234-0.587,1.795,0   c0.561,0.582,0.662,1.529,0.227,2.113C144.243,201.766,143.44,201.766,142.882,201.182z"></path>	</g>	<g>		<path d="M59.429,175.725c0.062,0,0.125,0.006,0.186,0.016c-0.014-1.686,0.084-3.332,0.295-4.928   c-0.061-0.017-0.119-0.036-0.18-0.064c-0.797-0.37-1.25-1.487-1.008-2.485l0.799-3.286c0.189-0.777,0.75-1.262,1.365-1.262   c0.172,0,0.354,0.039,0.529,0.12c0.059,0.028,0.117,0.062,0.172,0.098c0.541-1.466,1.182-2.861,1.92-4.172   c-0.053-0.044-0.107-0.092-0.158-0.144c-0.652-0.683-0.725-1.866-0.158-2.63l1.863-2.514c0.303-0.41,0.73-0.619,1.162-0.619   c0.373,0,0.75,0.155,1.053,0.472c0.051,0.053,0.1,0.109,0.141,0.165c1.002-1.034,2.086-1.968,3.242-2.79   c-0.039-0.062-0.074-0.127-0.104-0.193c-0.412-0.892-0.092-1.961,0.713-2.373l2.641-1.362c0.219-0.109,0.449-0.163,0.678-0.163   c0.619,0,1.229,0.383,1.527,1.034c0.031,0.065,0.055,0.135,0.078,0.202c1.305-0.45,2.668-0.777,4.078-0.973   c-0.016-0.071-0.029-0.144-0.039-0.22c-0.104-0.964,0.561-1.754,1.479-1.754h3.018c0.92,0,1.754,0.79,1.857,1.754   c0.008,0.074,0.01,0.147,0.01,0.22c1.451,0.195,2.887,0.522,4.289,0.972c0.006-0.066,0.018-0.134,0.033-0.201   c0.158-0.651,0.684-1.034,1.303-1.034c0.229,0,0.473,0.052,0.713,0.163l2.938,1.362c0.893,0.412,1.443,1.481,1.227,2.372   c-0.014,0.067-0.039,0.132-0.061,0.194c1.334,0.822,2.619,1.756,3.846,2.79c0.029-0.057,0.064-0.113,0.102-0.165   c0.236-0.316,0.578-0.472,0.951-0.472c0.434,0,0.906,0.209,1.299,0.619l2.406,2.514c0.73,0.764,0.916,1.948,0.408,2.63   c-0.039,0.052-0.078,0.1-0.125,0.144c1.021,1.311,1.965,2.706,2.822,4.173c0.047-0.036,0.1-0.07,0.152-0.099   c0.158-0.081,0.328-0.12,0.5-0.12c0.615,0,1.281,0.484,1.639,1.263l1.512,3.285c0.459,0.998,0.246,2.116-0.471,2.486   c-0.053,0.028-0.109,0.047-0.164,0.064c0.555,1.596,1.01,3.241,1.357,4.926c0.061-0.008,0.121-0.015,0.184-0.015   c0.82,0,1.586,0.881,1.703,1.962l0.385,3.555c0.117,1.081-0.459,1.964-1.279,1.964c-0.062,0-0.123-0.007-0.186-0.016   c0.014,1.685-0.084,3.33-0.293,4.925c0.059,0.018,0.119,0.039,0.178,0.066c0.797,0.368,1.252,1.486,1.01,2.484l-0.801,3.287   c-0.189,0.778-0.75,1.262-1.365,1.262c-0.174,0-0.352-0.038-0.527-0.121c-0.059-0.026-0.119-0.062-0.174-0.097   c-0.539,1.467-1.182,2.861-1.918,4.174c0.053,0.043,0.105,0.089,0.156,0.143c0.654,0.683,0.725,1.865,0.16,2.629l-1.863,2.515   c-0.305,0.41-0.732,0.618-1.164,0.618c-0.373,0-0.75-0.154-1.053-0.47c-0.049-0.053-0.098-0.11-0.139-0.168   c-1.002,1.036-2.086,1.97-3.242,2.791c0.035,0.062,0.074,0.126,0.104,0.192c0.41,0.893,0.09,1.961-0.713,2.373l-2.643,1.36   c-0.219,0.111-0.451,0.166-0.68,0.166c-0.619,0-1.227-0.384-1.525-1.034c-0.029-0.066-0.055-0.134-0.078-0.202   c-1.305,0.45-2.668,0.775-4.078,0.974c0.016,0.07,0.029,0.144,0.037,0.218c0.105,0.965-0.557,1.756-1.477,1.756h-3.018   c-0.918,0-1.754-0.791-1.857-1.756c-0.008-0.074-0.01-0.147-0.01-0.218c-1.453-0.199-2.885-0.523-4.287-0.974   c-0.008,0.068-0.018,0.136-0.035,0.202c-0.158,0.65-0.684,1.034-1.303,1.034c-0.229,0-0.471-0.052-0.713-0.166l-2.938-1.36   c-0.893-0.412-1.445-1.48-1.225-2.373c0.014-0.066,0.035-0.131,0.061-0.192c-1.334-0.821-2.619-1.755-3.846-2.791   c-0.029,0.058-0.064,0.114-0.104,0.168c-0.234,0.315-0.576,0.47-0.949,0.47c-0.434,0-0.906-0.207-1.299-0.618l-2.406-2.515   c-0.732-0.764-0.916-1.948-0.41-2.629c0.039-0.052,0.082-0.1,0.127-0.143c-1.023-1.312-1.965-2.707-2.822-4.174   c-0.049,0.035-0.1,0.07-0.152,0.097c-0.158,0.082-0.33,0.121-0.502,0.121c-0.615,0-1.281-0.483-1.639-1.262l-1.51-3.287   c-0.459-0.998-0.248-2.115,0.469-2.484c0.055-0.027,0.109-0.048,0.166-0.066c-0.557-1.595-1.01-3.24-1.359-4.925   c-0.059,0.009-0.121,0.016-0.184,0.016c-0.82,0-1.586-0.883-1.703-1.964l-0.385-3.555   C58.032,176.605,58.608,175.725,59.429,175.725z"></path>		<path fill="#F6C908" d="M89.146,200.756c9.984,0,17.047-9.533,15.775-21.291c-1.271-11.759-10.396-21.29-20.381-21.29   c-9.982,0-17.049,9.531-15.775,21.29C70.036,191.223,79.163,200.756,89.146,200.756z"></path>		<path d="M69.757,179.465c1.201,11.095,9.84,20.121,19.262,20.121s16.109-9.026,14.908-20.121   c-1.199-11.096-9.84-20.12-19.262-20.12S68.558,168.369,69.757,179.465z M71.751,179.465c-1.061-9.802,4.846-17.775,13.168-17.775   s15.955,7.974,17.016,17.775c1.061,9.801-4.848,17.774-13.17,17.774S72.812,189.266,71.751,179.465z"></path>		<path d="M87.603,186.492c0.701,0,1.342,0.669,1.432,1.496c0.09,0.826-0.406,1.496-1.107,1.496s-1.342-0.67-1.432-1.496   C86.405,187.161,86.901,186.492,87.603,186.492z"></path>		<path d="M93.396,184.436c0.561,0.584,0.664,1.531,0.229,2.113c-0.432,0.585-1.236,0.585-1.795,0   c-0.561-0.583-0.662-1.529-0.229-2.113C92.034,183.85,92.839,183.85,93.396,184.436z"></path>		<path d="M92.81,179.465c-0.09-0.827,0.408-1.496,1.109-1.496s1.342,0.669,1.432,1.496c0.09,0.825-0.406,1.495-1.107,1.495   S92.899,180.29,92.81,179.465z"></path>		<path d="M90.524,174.494c-0.559-0.583-0.662-1.531-0.229-2.113c0.434-0.585,1.238-0.585,1.795,0   c0.562,0.582,0.664,1.53,0.23,2.115C91.89,175.079,91.085,175.079,90.524,174.494z"></path>		<path d="M86.278,174.26c2.443,0,4.674,2.331,4.984,5.205c0.311,2.873-1.414,5.206-3.857,5.206c-2.439,0-4.672-2.333-4.982-5.206   C82.112,176.59,83.839,174.26,86.278,174.26z"></path>		<path d="M79.442,177.969c0.701,0,1.344,0.669,1.434,1.496c0.09,0.825-0.408,1.495-1.109,1.495s-1.344-0.67-1.432-1.495   C78.245,178.638,78.741,177.969,79.442,177.969z"></path>		<path d="M83.159,184.434c0.561,0.586,0.664,1.533,0.23,2.115c-0.434,0.585-1.238,0.585-1.795,0   c-0.561-0.583-0.664-1.529-0.23-2.115C81.798,183.85,82.601,183.85,83.159,184.434z"></path>		<path d="M84.651,170.939c-0.09-0.825,0.406-1.495,1.107-1.495s1.342,0.67,1.432,1.495c0.09,0.826-0.406,1.496-1.109,1.496   C85.382,172.438,84.739,171.766,84.651,170.939z"></path>		<path d="M80.29,174.495c-0.561-0.585-0.662-1.532-0.229-2.114c0.432-0.587,1.234-0.587,1.795,0   c0.561,0.582,0.662,1.529,0.227,2.113C81.651,175.079,80.849,175.079,80.29,174.495z"></path>	</g>	<g>		<g>			<polygon fill="#F6C908" points="149.78,159.02 88.155,135.756 88.114,112.021 149.739,135.286    "></polygon>		</g>		<g>			<defs>				<polygon id="SVGID_3_" points="149.78,159.02 88.155,135.756 88.114,112.021 149.739,135.286     "></polygon>			</defs>			<clipPath id="SVGID_4_">				<use xlink:href="#SVGID_3_"></use>			</clipPath>			<g clip-path="url(#SVGID_4_)">				<polygon points="124.765,161.718 88.935,103.464 95.624,97.603 131.454,155.858     "></polygon>			</g>			<g clip-path="url(#SVGID_4_)">				<polygon points="97.911,151.581 62.079,93.326 68.771,87.465 104.599,145.722     "></polygon>			</g>			<g clip-path="url(#SVGID_4_)">				<polygon points="151.481,171.806 115.649,113.551 122.341,107.689 158.171,165.947     "></polygon>			</g>		</g>	</g></g><g>	<polygon fill="#D4A686" points="52.209,56.047 181.261,100.165 121.723,134.398 0.75,86.257  "></polygon>	<path fill="#2A2829" d="M121.723,135.148c-0.094,0-0.188-0.019-0.277-0.054L0.473,86.953c-0.266-0.106-0.449-0.354-0.471-0.639  c-0.021-0.286,0.122-0.559,0.369-0.704L51.83,55.4c0.188-0.111,0.414-0.134,0.622-0.062l129.053,44.118  c0.278,0.095,0.475,0.344,0.503,0.637c0.028,0.293-0.118,0.576-0.373,0.723l-59.539,34.234  C121.981,135.115,121.852,135.148,121.723,135.148z M2.452,86.127l119.211,47.441l57.791-33.229L52.292,56.867L2.452,86.127z"></path></g><g>	<path fill="#F7931E" d="M59.41,46.338c-6.807,0-12.773-5.539-13.3-12.347c-0.254-3.282,0.785-6.364,2.926-8.676  c2.131-2.303,5.104-3.571,8.373-3.571c6.806,0,12.771,5.538,13.297,12.346c0.254,3.282-0.784,6.364-2.925,8.677  C65.65,45.069,62.677,46.337,59.41,46.338L59.41,46.338z"></path>	<g>		<path fill="#CCCCCC" d="M57.409,22.39c6.477,0,12.153,5.271,12.653,11.75c0.24,3.101-0.738,6.009-2.755,8.188   c-2.007,2.169-4.812,3.364-7.897,3.364c-6.478,0-12.155-5.271-12.656-11.751c-0.24-3.101,0.739-6.009,2.756-8.188   C51.518,23.584,54.323,22.39,57.409,22.39 M57.409,21.099c-7.147,0-12.495,5.795-11.942,12.942s6.795,12.942,13.943,12.942   c7.147-0.001,12.493-5.797,11.939-12.943C70.797,26.894,64.557,21.099,57.409,21.099L57.409,21.099z"></path>	</g></g><g>	<path fill="#F7931E" d="M121.773,35.665c-6.807,0-12.773-5.539-13.3-12.347c-0.254-3.282,0.785-6.364,2.926-8.676  c2.131-2.303,5.104-3.571,8.373-3.571c6.806,0,12.771,5.538,13.297,12.346c0.254,3.282-0.784,6.364-2.925,8.677  C128.014,34.396,125.041,35.664,121.773,35.665L121.773,35.665z"></path>	<g>		<path fill="#CCCCCC" d="M119.772,11.716c6.477,0,12.153,5.271,12.653,11.75c0.24,3.101-0.738,6.009-2.755,8.188   c-2.007,2.169-4.812,3.364-7.897,3.364c-6.478,0-12.155-5.271-12.656-11.751c-0.24-3.101,0.739-6.009,2.756-8.188   C113.881,12.911,116.687,11.716,119.772,11.716 M119.772,10.425c-7.147,0-12.495,5.795-11.942,12.942s6.795,12.942,13.943,12.942   c7.147-0.001,12.493-5.797,11.939-12.943C133.161,16.22,126.921,10.425,119.772,10.425L119.772,10.425z"></path>	</g></g><path fill="none" stroke="#FFFFFF" stroke-width="2.2" stroke-miterlimit="10" d="M293.941,143.19 c-0.112-2.419-1.595-4.174-3.525-4.174c-0.339,0-0.684,0.055-1.022,0.164l-97.347,31.265c-2.099,0.675-3.841,3.37-3.968,6.137 l-3.042,67.104c-0.065,1.438,0.322,2.673,1.092,3.479c0.556,0.581,1.293,0.901,2.076,0.901c0,0,0,0,0.001,0 c0.325,0,0.659-0.055,0.991-0.161l104.207-33.467c2.136-0.686,3.707-3.363,3.578-6.097L293.941,143.19z"></path><g>			<path fill="none" stroke="#000000" stroke-width="1.8976" stroke-linecap="round" stroke-linejoin="round" stroke-miterlimit="3" d="  M289.684,140.084l-97.347,31.265c-1.714,0.551-3.202,2.923-3.31,5.276l-3.042,67.104c-0.107,2.35,1.208,3.823,2.922,3.272  l104.207-33.467c1.713-0.55,3.028-2.868,2.921-5.149l-3.042-65.151C292.888,140.95,291.397,139.533,289.684,140.084  L289.684,140.084z"></path>	<path fill="#666666" d="M289.684,140.084c1.714-0.551,3.204,0.866,3.31,3.15l3.042,65.151c0.107,2.281-1.208,4.6-2.921,5.149  l-104.207,33.467c-1.714,0.551-3.029-0.923-2.922-3.272l3.042-67.104c0.107-2.354,1.596-4.726,3.31-5.276L289.684,140.084z"></path>	<g>					<path fill="none" stroke="#000000" stroke-width="0.9488" stroke-linecap="round" stroke-linejoin="round" stroke-miterlimit="3" d="   M290.87,141.745l-4.195,57.155c-0.138,1.877,0.835,4.504,2.161,5.839l5.688,5.726"></path>	</g>			<line fill="none" stroke="#000000" stroke-width="0.9488" stroke-linecap="round" stroke-linejoin="round" stroke-miterlimit="3" x1="195.13" y1="230.558" x2="286.972" y2="201.062"></line>	<g>		<polygon fill="#CCCCCC" points="199.434,241.653 190.506,244.521 192.688,240.633 197.252,239.166   "></polygon>		<polygon fill="#CCCCCC" points="214.895,236.69 205.967,239.557 208.148,235.666 212.713,234.202   "></polygon>		<polygon fill="#CCCCCC" points="230.355,231.723 221.429,234.591 223.61,230.702 228.172,229.237   "></polygon>		<polygon fill="#CCCCCC" points="245.816,226.757 236.89,229.627 239.071,225.736 243.634,224.27   "></polygon>		<polygon fill="#CCCCCC" points="261.277,221.793 252.351,224.659 254.532,220.771 259.095,219.307   "></polygon>		<polygon fill="#CCCCCC" points="276.737,216.827 267.809,219.694 269.992,215.806 274.556,214.341   "></polygon>		<polygon fill="#CCCCCC" points="292.199,211.861 283.271,214.729 285.453,210.841 290.017,209.373   "></polygon>	</g>	<path fill="#CCCCCC" d="M289.684,142.299c0.858-0.275,1.627,0.455,1.68,1.598l3.042,65.149c0.024,0.496-0.097,1.007-0.338,1.431  c-0.241,0.426-0.58,0.727-0.953,0.847l-104.207,33.466c-0.374,0.119-0.712,0.037-0.954-0.233c-0.24-0.269-0.36-0.701-0.337-1.215  l3.042-67.103c0.052-1.176,0.821-2.4,1.679-2.676L289.684,142.299 M289.684,140.084l-97.347,31.265  c-1.714,0.551-3.202,2.923-3.31,5.276l-3.042,67.104c-0.107,2.35,1.208,3.823,2.922,3.272l104.207-33.467  c1.713-0.55,3.028-2.868,2.921-5.149l-3.042-65.151C292.888,140.95,291.397,139.533,289.684,140.084L289.684,140.084z"></path></g><g>			<path fill="none" stroke="#000000" stroke-width="0.9488" stroke-linecap="round" stroke-linejoin="round" stroke-miterlimit="3" d="  M191.15,173.771l4.183,54.302c0.145,1.876-0.536,4.728-1.512,6.336l-6.324,10.429"></path></g><g>	<path fill="none" stroke="#FFFFFF" stroke-width="2.2" stroke-miterlimit="10" d="M217.888,108.058l-28.96,7.52  c-1.455,0.377-2.64,1.896-2.64,3.387v12.698c0,1.354,0.949,2.301,2.256,2.25c0.189-0.008,0.383-0.036,0.576-0.086l28.96-7.521  c1.455-0.377,2.64-1.896,2.64-3.387v-12.697C220.72,108.671,219.416,107.666,217.888,108.058z"></path>	<g>		<g>			<path fill="#CCCCCC" d="M217.933,108.37c1.247-0.324,2.268,0.466,2.268,1.754v12.696c0,1.289-1.021,2.608-2.268,2.932    l-29.002,7.53c-1.247,0.324-2.268-0.466-2.268-1.754v-12.697c0-1.289,1.021-2.608,2.268-2.932L217.933,108.37z"></path>			<path fill="none" stroke="#000000" stroke-width="0.8938" stroke-miterlimit="10" d="M217.933,108.37    c1.247-0.324,2.268,0.466,2.268,1.754v12.696c0,1.289-1.021,2.608-2.268,2.932l-29.002,7.53    c-1.247,0.324-2.268-0.466-2.268-1.754v-12.697c0-1.289,1.021-2.608,2.268-2.932L217.933,108.37z"></path>		</g>		<path fill="#FFFFFF" stroke="#000000" stroke-width="1.0041" stroke-miterlimit="10" d="M201.993,121.224   c0,3.68-2.98,7.436-6.66,8.391c-3.678,0.955-6.66-1.253-6.66-4.933c0-3.679,2.982-7.434,6.66-8.389   C199.013,115.339,201.993,117.545,201.993,121.224z"></path>		<path fill="#FFFFFF" stroke="#000000" stroke-width="1.0041" stroke-miterlimit="10" d="M218.06,117.052   c0,3.68-2.98,7.436-6.66,8.392c-3.678,0.955-6.658-1.254-6.658-4.934c0-3.679,2.98-7.433,6.658-8.388   C215.079,111.167,218.06,113.374,218.06,117.052z"></path>	</g></g><g>	<path fill="none" stroke="#FFFFFF" stroke-width="2.2" stroke-miterlimit="10" d="M292.888,87.587l-28.96,6.926  c-1.455,0.347-2.64,1.842-2.64,3.333v12.698c0,1.354,0.949,2.32,2.256,2.296c0.189-0.003,0.383-0.028,0.576-0.074l28.96-6.926  c1.455-0.347,2.64-1.843,2.64-3.333V89.81C295.72,88.259,294.416,87.228,292.888,87.587z"></path>	<g>		<g>			<path fill="#CCCCCC" d="M292.921,87.904c1.254-0.3,2.279,0.509,2.279,1.798v12.696c0,1.289-1.025,2.588-2.279,2.888l-28.979,6.93    c-1.254,0.3-2.279-0.509-2.279-1.798V97.722c0-1.289,1.025-2.588,2.279-2.888L292.921,87.904z"></path>			<path fill="none" stroke="#000000" stroke-width="0.8938" stroke-miterlimit="10" d="M292.921,87.904    c1.254-0.3,2.279,0.509,2.279,1.798v12.696c0,1.289-1.025,2.588-2.279,2.888l-28.979,6.93c-1.254,0.3-2.279-0.509-2.279-1.798    V97.722c0-1.289,1.025-2.588,2.279-2.888L292.921,87.904z"></path>		</g>		<path fill="#FFFFFF" stroke="#000000" stroke-width="1.0041" stroke-miterlimit="10" d="M276.993,100.428   c0,3.68-2.98,7.375-6.66,8.254c-3.678,0.88-6.66-1.39-6.66-5.069c0-3.679,2.982-7.372,6.66-8.252   C274.013,94.481,276.993,96.749,276.993,100.428z"></path>		<path fill="#FFFFFF" stroke="#000000" stroke-width="1.0041" stroke-miterlimit="10" d="M293.06,96.586   c0,3.68-2.98,7.375-6.66,8.255c-3.678,0.879-6.658-1.391-6.658-5.07c0-3.679,2.98-7.372,6.658-8.251   C290.079,90.639,293.06,92.907,293.06,96.586z"></path>	</g></g><g>	<polygon fill="#D4A686" points="362.25,86.133 302.273,75.738 181.277,100.165 232.411,114.259  "></polygon>	<path fill="#2A2829" d="M232.411,115.009c-0.067,0-0.134-0.009-0.199-0.027l-51.134-14.094c-0.335-0.092-0.562-0.402-0.55-0.75  c0.012-0.347,0.26-0.64,0.601-0.709l120.997-24.426c0.091-0.018,0.187-0.019,0.276-0.003l59.977,10.395  c0.354,0.061,0.614,0.364,0.622,0.723c0.007,0.359-0.24,0.672-0.591,0.748l-129.84,28.126  C232.518,115.003,232.463,115.009,232.411,115.009z M184.508,100.277l47.924,13.209L358.33,86.215l-56.046-9.713L184.508,100.277z"></path></g><g>	<g>		<path d="M256.396,104.803c-9.549,0-19.803-2.528-26.123-6.44c-2.604-1.631-2.641-3.109-2.436-3.848   c0.338-1.236,1.779-2.175,4.061-2.641l53.354-10.9c1.049-0.214,2.227-0.322,3.498-0.322c1.318,0,2.686,0.115,4.061,0.343   c2.735,0.455,5.199,1.302,6.937,2.385c4.058,2.562,5.993,5.4,5.513,8.034c-0.529,2.908-3.859,5.131-9.377,6.26l-31.164,6.363   C262.229,104.544,259.43,104.803,256.396,104.803L256.396,104.803z"></path>		<path fill="#FFFFFF" d="M288.751,81.151c1.298,0,2.651,0.117,3.979,0.336c2.556,0.425,5.014,1.231,6.752,2.316l0.058,0.038   c8.321,5.25,6.654,11.211-3.757,13.341l-4.479,0.913l-22.203,4.536l-4.481,0.915c-2.515,0.514-5.31,0.757-8.222,0.757   c-9.148,0-19.457-2.401-25.861-6.366l-0.059-0.038c-1.735-1.087-2.435-2.25-2.158-3.252c0.275-1.003,1.522-1.844,3.68-2.285   l53.354-10.9C286.393,81.251,287.547,81.151,288.751,81.151 M288.751,80.151c-1.308,0-2.517,0.112-3.599,0.332l-53.354,10.9   c-3.171,0.649-4.166,1.99-4.443,3.001c-0.24,0.871-0.225,2.6,2.594,4.363l0.042,0.027c6.414,3.971,16.771,6.528,26.407,6.528   c3.063,0,5.896-0.262,8.422-0.777l4.482-0.914l22.2-4.537l4.479-0.912c5.73-1.172,9.199-3.538,9.771-6.66   c0.52-2.848-1.499-5.868-5.681-8.507l-0.032-0.022c-1.817-1.136-4.347-2.008-7.146-2.473   C291.491,80.269,290.098,80.151,288.751,80.151L288.751,80.151z"></path>	</g>	<path fill="#FFFFFF" d="M254.702,91.154L254.702,91.154c5.067,0,10.478,1.333,13.778,3.394c1.812,1.133,2.75,2.356,2.569,3.354  c-0.202,1.123-1.821,2.099-4.332,2.611c-1.294,0.265-2.756,0.398-4.343,0.398c-4.996,0-10.534-1.364-13.779-3.394  c-1.813-1.132-2.75-2.354-2.57-3.353c0.203-1.123,1.822-2.1,4.332-2.612C251.652,91.289,253.115,91.154,254.702,91.154   M254.701,90.416c-1.59,0-3.116,0.133-4.489,0.414c-5.708,1.166-6.608,4.442-2.007,7.316c3.488,2.182,9.15,3.506,14.171,3.506  c1.59,0,3.117-0.133,4.49-0.414c5.71-1.166,6.604-4.442,2.007-7.316C265.379,91.74,259.721,90.416,254.701,90.416L254.701,90.416z"></path>	<path fill="#FFFFFF" d="M249.016,95.708c-0.004,0-0.009,0-0.014,0l-3.064-0.181c-0.127-0.007-0.225-0.117-0.217-0.244  s0.092-0.227,0.244-0.217l3.064,0.181c0.127,0.007,0.225,0.117,0.217,0.244C249.24,95.613,249.137,95.708,249.016,95.708z"></path>	<path fill="#FFFFFF" d="M246.876,96.93c-0.122,0-0.224-0.095-0.229-0.218c-0.008-0.127,0.09-0.236,0.218-0.244l2.831-0.16  c0.13-0.008,0.236,0.091,0.244,0.217c0.006,0.127-0.09,0.236-0.219,0.244l-2.832,0.16C246.885,96.93,246.88,96.93,246.876,96.93z"></path>	<path fill="#FFFFFF" d="M248.593,98.294c-0.106,0-0.204-0.075-0.226-0.185c-0.025-0.125,0.056-0.247,0.18-0.272l2.415-0.495  c0.132-0.029,0.247,0.056,0.272,0.18c0.024,0.125-0.057,0.247-0.182,0.272l-2.414,0.495  C248.624,98.292,248.607,98.294,248.593,98.294z"></path>	<path fill="#FFFFFF" d="M250.984,99.517c-0.088,0-0.174-0.052-0.211-0.139c-0.051-0.117,0.002-0.253,0.119-0.304l1.826-0.79  c0.119-0.05,0.254,0.003,0.305,0.12c0.051,0.117-0.004,0.252-0.121,0.303l-1.825,0.79  C251.046,99.511,251.016,99.517,250.984,99.517z"></path>	<path fill="#FFFFFF" d="M253.893,100.522c-0.062,0-0.125-0.025-0.17-0.074c-0.086-0.093-0.08-0.24,0.012-0.326l1.119-1.036  c0.095-0.086,0.239-0.082,0.328,0.013c0.086,0.094,0.08,0.24-0.014,0.326l-1.119,1.036  C254.004,100.502,253.948,100.522,253.893,100.522z"></path>	<path fill="#FFFFFF" d="M257.115,101.239c-0.021,0-0.041-0.003-0.062-0.008c-0.123-0.034-0.195-0.161-0.16-0.284l0.334-1.21  c0.033-0.123,0.162-0.194,0.282-0.161c0.123,0.034,0.195,0.161,0.161,0.284l-0.333,1.21  C257.311,101.171,257.217,101.239,257.115,101.239z"></path>	<path fill="#FFFFFF" d="M260.434,101.617c-0.094,0-0.183-0.058-0.217-0.151l-0.477-1.296c-0.045-0.12,0.018-0.252,0.137-0.296  c0.122-0.042,0.253,0.018,0.297,0.137l0.477,1.296c0.045,0.12-0.018,0.252-0.137,0.296  C260.486,101.612,260.46,101.617,260.434,101.617z"></path>	<path fill="#FFFFFF" d="M263.624,101.633c-0.062,0-0.121-0.024-0.166-0.071l-1.253-1.302c-0.089-0.092-0.086-0.238,0.006-0.327  c0.092-0.089,0.238-0.085,0.326,0.006l1.252,1.302c0.089,0.092,0.086,0.238-0.006,0.327  C263.739,101.612,263.682,101.633,263.624,101.633z"></path>	<path fill="#FFFFFF" d="M266.471,101.285c-0.043,0-0.085-0.011-0.123-0.035l-1.949-1.214c-0.108-0.067-0.143-0.209-0.074-0.318  c0.068-0.109,0.211-0.141,0.318-0.074l1.949,1.215c0.108,0.067,0.143,0.209,0.074,0.318  C266.622,101.246,266.547,101.285,266.471,101.285z"></path>	<path fill="#FFFFFF" d="M268.77,100.596c-0.03,0-0.061-0.006-0.09-0.018l-2.502-1.048c-0.117-0.049-0.174-0.185-0.123-0.302  c0.049-0.118,0.187-0.172,0.301-0.124l2.502,1.048c0.119,0.049,0.175,0.185,0.125,0.302  C268.943,100.542,268.857,100.596,268.77,100.596z"></path>	<path fill="#FFFFFF" d="M270.374,99.614c-0.021,0-0.041-0.003-0.062-0.009l-2.894-0.809c-0.122-0.034-0.194-0.162-0.16-0.284  c0.034-0.122,0.158-0.194,0.285-0.16l2.894,0.808c0.121,0.034,0.193,0.162,0.16,0.284  C270.568,99.547,270.477,99.614,270.374,99.614z"></path>	<path fill="#FFFFFF" d="M271.17,98.407c-0.013,0-0.025-0.001-0.038-0.003l-3.083-0.512c-0.126-0.021-0.211-0.14-0.189-0.266  c0.021-0.125,0.144-0.212,0.266-0.189l3.084,0.512c0.126,0.021,0.211,0.14,0.189,0.266  C271.379,98.327,271.281,98.407,271.17,98.407z"></path>	<path fill="#FFFFFF" d="M271.102,97.054c-0.004,0-0.01,0-0.015,0l-3.063-0.182c-0.125-0.007-0.224-0.117-0.215-0.244  c0.006-0.127,0.09-0.228,0.242-0.217l3.063,0.182c0.127,0.007,0.225,0.117,0.217,0.244  C271.324,96.959,271.223,97.054,271.102,97.054z"></path>	<path fill="#FFFFFF" d="M267.346,95.81c-0.121,0-0.224-0.095-0.229-0.218c-0.009-0.127,0.09-0.236,0.218-0.244l2.833-0.162  c0.136-0.004,0.235,0.09,0.243,0.217s-0.09,0.236-0.219,0.244l-2.832,0.162C267.354,95.81,267.35,95.81,267.346,95.81z"></path>	<path fill="#FFFFFF" d="M266.049,94.78c-0.107,0-0.203-0.075-0.226-0.186c-0.025-0.125,0.056-0.247,0.18-0.271l2.413-0.493  c0.131-0.028,0.247,0.056,0.271,0.18c0.025,0.125-0.056,0.247-0.181,0.272l-2.413,0.493  C266.079,94.779,266.062,94.78,266.049,94.78z"></path>	<path fill="#FFFFFF" d="M264.239,93.852c-0.091,0-0.175-0.052-0.212-0.14c-0.051-0.117,0.004-0.253,0.121-0.303l1.832-0.788  c0.115-0.052,0.252,0.004,0.303,0.121c0.051,0.117-0.004,0.253-0.121,0.303l-1.832,0.788  C264.301,93.846,264.27,93.852,264.239,93.852z"></path>	<path fill="#FFFFFF" d="M262.045,93.093c-0.062,0-0.124-0.025-0.169-0.074c-0.087-0.093-0.082-0.24,0.013-0.326l1.113-1.035  c0.094-0.087,0.239-0.083,0.326,0.012c0.087,0.093,0.082,0.24-0.012,0.326l-1.114,1.035  C262.157,93.072,262.102,93.093,262.045,93.093z"></path>	<path fill="#FFFFFF" d="M257.441,96.258c-0.496-0.308-0.4-0.661,0.213-0.786c0.617-0.127,1.517,0.022,2.012,0.332  c0.494,0.311,0.396,0.665-0.216,0.789C258.835,96.719,257.936,96.57,257.441,96.258z"></path>	<path fill="#FFFFFF" d="M266.596,97.594c-0.014,0-0.025-0.001-0.039-0.003l-8.043-1.332c-0.125-0.021-0.211-0.14-0.188-0.266  c0.021-0.126,0.141-0.211,0.266-0.19l8.043,1.332c0.125,0.021,0.212,0.14,0.189,0.266  C266.805,97.514,266.706,97.594,266.596,97.594z"></path>	<path fill="#FFFFFF" d="M250.77,94.128c-0.156-0.096-0.137-0.206,0.043-0.242l6.469-1.321c0.178-0.037,0.451,0.013,0.605,0.109  l1.074,0.671c0.155,0.097,0.137,0.207-0.043,0.243l-6.47,1.321c-0.179,0.038-0.452-0.012-0.607-0.109L250.77,94.128z"></path>	<g>		<path d="M256.689,93.157c-0.076-0.047-0.066-0.103,0.022-0.122l0.317-0.064c0.091-0.019,0.228,0.007,0.306,0.055l0.5,0.312   c0.077,0.049,0.067,0.104-0.022,0.122l-0.319,0.065c-0.089,0.018-0.226-0.007-0.304-0.056L256.689,93.157z"></path>		<path d="M255.732,93.355c-0.078-0.049-0.067-0.104,0.021-0.122l0.322-0.066c0.09-0.019,0.227,0.005,0.304,0.054l0.495,0.311   c0.078,0.049,0.068,0.104-0.021,0.122l-0.319,0.066c-0.091,0.017-0.228-0.008-0.304-0.055L255.732,93.355z"></path>		<path d="M254.775,93.549c-0.077-0.049-0.067-0.104,0.021-0.121l0.316-0.066c0.09-0.018,0.227,0.005,0.305,0.055l0.5,0.312   c0.077,0.049,0.066,0.104-0.021,0.122l-0.32,0.065c-0.09,0.018-0.227-0.007-0.305-0.055L254.775,93.549z"></path>		<path d="M253.812,93.746c-0.078-0.049-0.067-0.104,0.021-0.121l0.322-0.065c0.089-0.018,0.227,0.006,0.304,0.055l0.499,0.311   c0.078,0.048,0.068,0.103-0.021,0.121l-0.321,0.066c-0.091,0.019-0.228-0.007-0.304-0.055L253.812,93.746z"></path>		<path d="M252.855,93.94c-0.076-0.047-0.066-0.104,0.022-0.121l0.317-0.064c0.091-0.019,0.228,0.006,0.306,0.055l0.495,0.312   c0.076,0.049,0.066,0.104-0.021,0.122l-0.312,0.066c-0.09,0.018-0.227-0.006-0.305-0.055L252.855,93.94z"></path>		<path d="M251.896,94.137c-0.076-0.047-0.066-0.103,0.021-0.121l0.316-0.066c0.09-0.018,0.227,0.007,0.305,0.056l0.503,0.312   c0.078,0.047,0.067,0.103-0.021,0.122l-0.32,0.065c-0.09,0.019-0.227-0.005-0.303-0.054L251.896,94.137z"></path>	</g>	<path fill="#FF0000" d="M271.596,90.947c0.239,0.662,0.877,1.359,1.939,2.021c1.061,0.662,2.406,1.209,3.873,1.617l-1.487,1.334  c-2.091-0.584-4-1.367-5.51-2.312c-1.513-0.944-2.433-1.931-2.78-2.874L271.596,90.947z"></path>	<path fill="#FFFFFF" d="M276.91,85.878v0.738c5.068,0,10.477,1.333,13.777,3.395c1.813,1.134,2.75,2.356,2.57,3.354  c-0.201,1.123-1.822,2.1-4.334,2.613c-1.294,0.264-2.754,0.397-4.339,0.397c-4.998,0-10.537-1.364-13.784-3.396  c-1.812-1.131-2.751-2.353-2.57-3.352c0.201-1.123,1.822-2.1,4.332-2.613c1.297-0.265,2.758-0.399,4.347-0.399L276.91,85.878   M276.909,85.878c-1.591,0-3.119,0.133-4.493,0.414c-5.707,1.166-6.609,4.441-2.005,7.315c3.491,2.184,9.151,3.507,14.175,3.507  c1.589,0,3.114-0.132,4.486-0.412c5.711-1.168,6.606-4.442,2.008-7.318C287.585,87.202,281.93,85.878,276.909,85.878  L276.909,85.878z"></path>	<path fill="#FFFFFF" d="M271.223,91.171c-0.005,0-0.01,0-0.015,0l-3.062-0.179c-0.127-0.007-0.225-0.117-0.217-0.244  c0.008-0.126,0.092-0.239,0.243-0.217l3.062,0.179c0.127,0.007,0.226,0.117,0.218,0.244  C271.445,91.076,271.343,91.171,271.223,91.171z"></path>	<path fill="#FFFFFF" d="M269.082,92.397c-0.122,0-0.225-0.095-0.23-0.218c-0.008-0.127,0.09-0.236,0.219-0.244l2.837-0.162  c0.128-0.008,0.235,0.091,0.243,0.217c0.008,0.127-0.09,0.236-0.219,0.244l-2.836,0.162  C269.091,92.397,269.086,92.397,269.082,92.397z"></path>	<path fill="#FFFFFF" d="M270.794,93.756c-0.106,0-0.204-0.075-0.228-0.185c-0.024-0.125,0.057-0.247,0.182-0.272l2.417-0.493  c0.132-0.03,0.247,0.055,0.272,0.18c0.024,0.125-0.057,0.247-0.182,0.272l-2.417,0.493  C270.824,93.755,270.809,93.756,270.794,93.756z"></path>	<path fill="#FFFFFF" d="M273.191,94.98c-0.09,0-0.174-0.052-0.213-0.139c-0.051-0.117,0.004-0.253,0.121-0.304l1.824-0.79  c0.119-0.051,0.253,0.004,0.305,0.12c0.051,0.117-0.004,0.253-0.121,0.304l-1.824,0.79C273.253,94.974,273.223,94.98,273.191,94.98  z"></path>	<path fill="#FFFFFF" d="M276.1,95.987c-0.062,0-0.125-0.025-0.17-0.074c-0.087-0.093-0.082-0.24,0.012-0.326l1.113-1.036  c0.094-0.087,0.239-0.083,0.326,0.012c0.087,0.093,0.082,0.24-0.012,0.326l-1.113,1.036  C276.211,95.966,276.154,95.987,276.1,95.987z"></path>	<path fill="#FFFFFF" d="M279.323,96.704c-0.021,0-0.04-0.002-0.06-0.008c-0.125-0.033-0.197-0.16-0.164-0.283l0.326-1.211  c0.033-0.123,0.162-0.196,0.282-0.163c0.124,0.033,0.196,0.16,0.163,0.283l-0.326,1.211  C279.52,96.636,279.425,96.704,279.323,96.704z"></path>	<path fill="#FFFFFF" d="M282.641,97.08c-0.096,0-0.184-0.058-0.218-0.152l-0.472-1.296c-0.044-0.12,0.018-0.252,0.138-0.296  c0.121-0.045,0.252,0.018,0.296,0.138l0.471,1.296c0.045,0.12-0.018,0.252-0.137,0.296C282.691,97.075,282.666,97.08,282.641,97.08  z"></path>	<path fill="#FFFFFF" d="M285.832,97.097c-0.061,0-0.121-0.024-0.166-0.071l-1.253-1.301c-0.089-0.092-0.086-0.238,0.006-0.326  c0.093-0.089,0.238-0.086,0.326,0.006l1.253,1.301c0.089,0.092,0.086,0.238-0.006,0.326  C285.947,97.076,285.891,97.097,285.832,97.097z"></path>	<path fill="#FFFFFF" d="M288.669,96.748c-0.042,0-0.084-0.011-0.123-0.035l-1.937-1.213c-0.106-0.068-0.141-0.21-0.071-0.318  c0.065-0.107,0.207-0.142,0.317-0.073l1.937,1.213c0.106,0.068,0.142,0.21,0.071,0.318  C288.82,96.709,288.746,96.748,288.669,96.748z"></path>	<path fill="#FFFFFF" d="M290.973,96.06c-0.029,0-0.06-0.006-0.089-0.018l-2.501-1.046c-0.117-0.049-0.174-0.185-0.124-0.302  c0.05-0.119,0.187-0.173,0.302-0.124l2.502,1.046c0.117,0.049,0.174,0.185,0.123,0.302C291.148,96.006,291.062,96.06,290.973,96.06  z"></path>	<path fill="#FFFFFF" d="M292.577,95.077c-0.021,0-0.041-0.003-0.062-0.008l-2.891-0.805c-0.123-0.035-0.195-0.162-0.161-0.285  s0.161-0.194,0.284-0.161l2.891,0.805c0.122,0.035,0.194,0.162,0.16,0.285C292.771,95.01,292.68,95.077,292.577,95.077z"></path>	<path fill="#FFFFFF" d="M293.373,93.87c-0.014,0-0.025-0.001-0.038-0.003l-3.077-0.512c-0.126-0.021-0.211-0.14-0.189-0.266  s0.143-0.212,0.267-0.189l3.077,0.512c0.125,0.021,0.21,0.14,0.188,0.266C293.581,93.79,293.484,93.87,293.373,93.87z"></path>	<path fill="#FFFFFF" d="M293.309,92.516c-0.004,0-0.009,0-0.014,0l-3.062-0.179c-0.127-0.007-0.225-0.117-0.217-0.244  c0.008-0.126,0.09-0.24,0.244-0.217l3.062,0.179c0.127,0.007,0.224,0.117,0.216,0.244C293.531,92.421,293.43,92.516,293.309,92.516  z"></path>	<path fill="#FFFFFF" d="M289.551,91.273c-0.121,0-0.224-0.095-0.23-0.218c-0.006-0.127,0.091-0.236,0.219-0.244l2.835-0.161  c0.122-0.019,0.235,0.091,0.243,0.217c0.007,0.127-0.09,0.236-0.219,0.244l-2.834,0.161  C289.561,91.273,289.555,91.273,289.551,91.273z"></path>	<path fill="#FFFFFF" d="M288.254,90.243c-0.107,0-0.204-0.075-0.227-0.185c-0.025-0.125,0.056-0.247,0.181-0.272l2.412-0.493  c0.129-0.028,0.247,0.056,0.272,0.18c0.024,0.125-0.057,0.247-0.182,0.272l-2.412,0.493  C288.284,90.242,288.27,90.243,288.254,90.243z"></path>	<path fill="#FFFFFF" d="M286.447,89.318c-0.09,0-0.174-0.052-0.213-0.139c-0.051-0.117,0.004-0.253,0.121-0.304l1.826-0.791  c0.118-0.049,0.252,0.003,0.305,0.12c0.051,0.117-0.004,0.253-0.12,0.304l-1.827,0.791  C286.509,89.312,286.479,89.318,286.447,89.318z"></path>	<path fill="#FFFFFF" d="M284.251,88.559c-0.062,0-0.124-0.025-0.169-0.074c-0.087-0.094-0.082-0.24,0.012-0.327l1.114-1.036  c0.093-0.086,0.239-0.082,0.326,0.012c0.087,0.094,0.082,0.24-0.013,0.327l-1.113,1.036  C284.363,88.538,284.309,88.559,284.251,88.559z"></path>	<path fill="#FFFFFF" d="M280.891,90.933c0.785,0.128,1.355,0.483,1.266,0.792c-0.081,0.307-0.788,0.449-1.573,0.322  c-0.78-0.13-1.351-0.485-1.267-0.793C279.396,90.945,280.104,90.803,280.891,90.933z"></path>	<path fill="#FFFFFF" d="M274.438,93.006c-0.105,0-0.203-0.075-0.226-0.185c-0.024-0.125,0.056-0.247,0.181-0.272l6.295-1.286  c0.129-0.028,0.246,0.056,0.271,0.18c0.024,0.125-0.056,0.247-0.181,0.272l-6.295,1.286  C274.469,93.004,274.453,93.006,274.438,93.006z"></path>	<path fill="#FFFFFF" d="M294.98,87.732c-0.043,0-0.084-0.011-0.123-0.035l-0.801-0.501c-0.108-0.067-0.143-0.21-0.074-0.318  c0.066-0.108,0.211-0.141,0.317-0.073l0.802,0.501c0.108,0.067,0.143,0.21,0.074,0.318  C295.133,87.693,295.059,87.732,294.98,87.732z"></path>	<path fill="#FFFFFF" d="M296.604,87.049c-0.021,0-0.041-0.003-0.062-0.009l-1.192-0.334c-0.121-0.034-0.193-0.162-0.16-0.284  c0.035-0.122,0.158-0.194,0.285-0.16l1.192,0.334c0.122,0.034,0.194,0.161,0.16,0.284  C296.798,86.982,296.706,87.049,296.604,87.049z"></path>	<path fill="#FFFFFF" d="M296.921,85.993c-0.005,0-0.009,0-0.014,0l-1.267-0.075c-0.125-0.007-0.224-0.117-0.216-0.244  c0.007-0.127,0.125-0.227,0.243-0.217l1.266,0.075c0.127,0.007,0.226,0.117,0.217,0.244  C297.145,85.898,297.042,85.993,296.921,85.993z"></path>	<path fill="#FFFFFF" d="M289.779,87.408c-0.062,0-0.123-0.025-0.168-0.074c-0.088-0.094-0.082-0.24,0.012-0.327l0.463-0.429  c0.094-0.086,0.24-0.083,0.326,0.012c0.087,0.094,0.082,0.24-0.012,0.327l-0.463,0.43  C289.893,87.387,289.837,87.408,289.779,87.408z"></path>	<path fill="#FFFFFF" d="M292.486,87.866c-0.094,0-0.182-0.058-0.217-0.15l-0.201-0.538c-0.043-0.12,0.018-0.252,0.138-0.297  c0.121-0.044,0.252,0.017,0.297,0.136l0.2,0.538c0.044,0.12-0.018,0.252-0.137,0.297C292.54,87.861,292.514,87.866,292.486,87.866z  "></path>	<path fill="#FFFFFF" d="M291.062,85.25c0.149-0.127,0.549-0.146,0.9-0.046c0.357,0.104,0.525,0.288,0.379,0.414  c-0.143,0.125-0.545,0.144-0.898,0.043C291.09,85.559,290.922,85.375,291.062,85.25z"></path>	<path fill="#FFFFFF" d="M292.616,86.694c-0.063,0-0.128-0.026-0.173-0.078l-0.91-1.029c-0.085-0.095-0.075-0.241,0.02-0.326  c0.096-0.084,0.241-0.076,0.326,0.021l0.91,1.029c0.085,0.095,0.074,0.241-0.02,0.325  C292.727,86.675,292.671,86.694,292.616,86.694z"></path>	<g>		<path fill="#FFFFFF" d="M289.85,83.45c2.35,0,4.944,0.637,6.461,1.585c0.855,0.535,1.11,0.996,1.068,1.229   c-0.041,0.228-0.466,0.685-1.799,0.957c-0.602,0.123-1.283,0.186-2.027,0.186c-2.347,0-4.943-0.637-6.463-1.583   c-0.854-0.535-1.109-0.996-1.066-1.229c0.041-0.228,0.467-0.687,1.801-0.959C288.425,83.512,289.105,83.45,289.85,83.45    M289.85,82.711c-0.771,0-1.51,0.064-2.175,0.201c-2.763,0.564-3.198,2.148-0.976,3.538c1.691,1.055,4.428,1.695,6.854,1.695   c0.771,0,1.512-0.064,2.176-0.201c2.763-0.562,3.198-2.147,0.973-3.537C295.014,83.352,292.275,82.711,289.85,82.711   L289.85,82.711z"></path>	</g>	<path fill="#FFFFFF" d="M241.686,98.622c-0.043,0-0.084-0.011-0.123-0.035l-0.805-0.502c-0.107-0.067-0.142-0.21-0.074-0.318  s0.211-0.142,0.318-0.074l0.807,0.502c0.107,0.067,0.142,0.21,0.073,0.318C241.837,98.583,241.762,98.622,241.686,98.622z"></path>	<path fill="#FFFFFF" d="M239.209,98.776c-0.094,0-0.182-0.058-0.217-0.15l-0.199-0.536c-0.044-0.12,0.018-0.252,0.137-0.297  c0.12-0.044,0.252,0.017,0.297,0.136l0.198,0.536c0.044,0.119-0.017,0.252-0.137,0.296  C239.264,98.771,239.234,98.776,239.209,98.776z"></path>	<path fill="#FFFFFF" d="M236.503,98.338c-0.062,0-0.123-0.025-0.169-0.073c-0.087-0.093-0.082-0.24,0.012-0.327l0.459-0.428  c0.09-0.087,0.236-0.083,0.325,0.011c0.087,0.093,0.082,0.24-0.012,0.327l-0.458,0.428  C236.617,98.318,236.561,98.338,236.503,98.338z"></path>	<path fill="#FFFFFF" d="M243.531,96.855c-0.006,0-0.01,0-0.014,0l-1.264-0.075c-0.127-0.007-0.225-0.117-0.216-0.244  c0.008-0.127,0.123-0.231,0.244-0.217l1.263,0.075c0.127,0.007,0.225,0.117,0.217,0.244  C243.755,96.761,243.652,96.855,243.531,96.855z"></path>	<path fill="#FFFFFF" d="M243.27,97.92c-0.021,0-0.041-0.003-0.062-0.009l-1.191-0.333c-0.121-0.034-0.193-0.162-0.16-0.284  c0.035-0.123,0.158-0.196,0.285-0.16l1.192,0.333c0.122,0.034,0.194,0.162,0.16,0.284C243.463,97.854,243.37,97.92,243.27,97.92z"></path>	<path fill="#FFFFFF" d="M238.234,96.043c-0.379-0.02-0.627,0.095-0.563,0.253c0.069,0.162,0.431,0.308,0.802,0.327  c0.375,0.019,0.629-0.096,0.562-0.256C238.971,96.208,238.613,96.061,238.234,96.043z"></path>	<path fill="#FFFFFF" d="M240.375,97.367c-0.027,0-0.059-0.005-0.085-0.016l-2.021-0.803c-0.119-0.047-0.178-0.182-0.131-0.3  c0.047-0.119,0.184-0.175,0.301-0.13l2.021,0.803c0.119,0.047,0.177,0.182,0.13,0.3C240.553,97.312,240.466,97.367,240.375,97.367z  "></path>	<g>		<path fill="#FFFFFF" d="M236.493,94.351c2.349,0,4.944,0.637,6.462,1.585c0.855,0.534,1.111,0.996,1.068,1.229   c-0.041,0.228-0.465,0.687-1.795,0.958c-0.601,0.123-1.281,0.185-2.023,0.185c-2.352,0-4.95-0.636-6.463-1.581   c-0.858-0.537-1.113-1-1.071-1.234c0.041-0.228,0.466-0.685,1.796-0.956C235.068,94.413,235.75,94.351,236.493,94.351    M236.493,93.612c-0.771,0-1.509,0.064-2.175,0.2c-2.762,0.563-3.194,2.147-0.969,3.541c1.688,1.055,4.426,1.693,6.854,1.693   c0.771,0,1.507-0.064,2.172-0.199c2.758-0.564,3.197-2.148,0.97-3.538C241.654,94.252,238.92,93.612,236.493,93.612   L236.493,93.612z"></path>	</g>	<g>		<g>			<g>				<path fill="#FFFFFF" d="M289.118,84.089c-0.019-0.005-0.035-0.012-0.05-0.02l-0.092-0.058c-0.017-0.007-0.021-0.016-0.016-0.023     c-0.004-0.008,0.007-0.014,0.023-0.017l1.156-0.235c0.015-0.003,0.033-0.003,0.051-0.001c0.023,0.004,0.037,0.011,0.052,0.018     l0.094,0.06c0.013,0.008,0.019,0.013,0.015,0.022c0,0.009-0.006,0.015-0.025,0.016l-1.156,0.237     C289.158,84.091,289.137,84.091,289.118,84.089z M289.396,84.752l-0.651-0.404c-0.062-0.04-0.084-0.078-0.068-0.113     c0.017-0.039,0.062-0.065,0.144-0.077c0.076-0.009,0.156-0.005,0.246,0.013c0.084,0.018,0.154,0.044,0.209,0.08l0.086,0.051     c0.031,0.021,0.074,0.036,0.121,0.042c0.054,0.007,0.098,0.007,0.136,0l0.03-0.006l-0.323-0.204l1.038-0.212l1.021,0.64     c0.052,0.033,0.072,0.064,0.062,0.097c-0.01,0.032-0.045,0.056-0.104,0.067l-0.58,0.118c-0.062,0.013-0.133,0.012-0.217,0     c-0.083-0.015-0.15-0.038-0.205-0.069l-0.555-0.348l-0.027,0.005c-0.089,0.018-0.188,0.017-0.298-0.001     c-0.114-0.018-0.206-0.051-0.272-0.093l-0.097-0.058c-0.016-0.014-0.043-0.023-0.069-0.028     c-0.035-0.004-0.062-0.005-0.084,0.002c-0.025,0.004-0.037,0.012-0.039,0.026c-0.002,0.011,0,0.02,0.021,0.033l0.468,0.292     c0.055-0.004,0.11-0.002,0.178,0.009c0.063,0.013,0.113,0.031,0.154,0.056l0.182,0.113l0.246,0.042     c0.021,0.002,0.033,0.007,0.051,0.017c0.013,0.01,0.02,0.017,0.013,0.021l-0.004,0.033c0,0.008-0.015,0.011-0.029,0.014     c-0.017,0.003-0.034,0.003-0.051,0.001l-0.53-0.088C289.512,84.81,289.443,84.786,289.396,84.752L289.396,84.752z      M290.574,84.726l0.58-0.119l-0.372-0.232l-0.577,0.119L290.574,84.726z"></path>			</g>		</g>	</g>	<g>		<g>			<g>				<path fill="#FFFFFF" d="M237.443,94.82c0.019,0.004,0.033,0.01,0.048,0.021l0.092,0.057c0.017,0.008,0.022,0.018,0.019,0.022     c-0.002,0.01-0.012,0.013-0.027,0.018l-0.057,0.011c-0.045,0.01-0.078,0.021-0.103,0.034c-0.031,0.013-0.044,0.026-0.049,0.041     c-0.011,0.024-0.031,0.04-0.074,0.05l-0.058,0.012c-0.039,0.007-0.094,0.006-0.153-0.002c-0.06-0.01-0.127-0.009-0.199,0     c-0.088-0.044-0.187-0.075-0.296-0.094l0.053-0.015c0.064-0.013,0.139-0.021,0.217-0.023c0.076-0.002,0.151,0.002,0.225,0.011     c0.01-0.026,0.043-0.051,0.084-0.076c0.045-0.021,0.102-0.04,0.168-0.054l0.057-0.013     C237.402,94.817,237.421,94.817,237.443,94.82z M234.958,95.153c-0.026-0.002-0.042-0.008-0.054-0.017l-0.092-0.058     c-0.019-0.009-0.021-0.018-0.02-0.025c0-0.007,0.012-0.014,0.027-0.018l0.06-0.01c0.068-0.015,0.142-0.022,0.22-0.023     c0.07-0.003,0.146,0.001,0.221,0.011c0.017-0.026,0.043-0.053,0.09-0.075c0.039-0.023,0.097-0.042,0.164-0.053     c0.064-0.015,0.136-0.023,0.214-0.023c0.079-0.004,0.151,0,0.224,0.011c0.016-0.029,0.045-0.054,0.09-0.075     c0.041-0.024,0.097-0.042,0.164-0.057c0.065-0.014,0.139-0.021,0.217-0.023c0.074-0.002,0.154,0.002,0.224,0.009     c0.011-0.024,0.044-0.048,0.087-0.072c0.041-0.022,0.1-0.04,0.169-0.054l0.056-0.013c0.019-0.003,0.031-0.004,0.055,0     c0.018,0.003,0.035,0.009,0.047,0.019l0.096,0.058c0.016,0.009,0.02,0.016,0.02,0.024c-0.004,0.007-0.012,0.013-0.03,0.018     l-0.058,0.009c-0.047,0.01-0.08,0.021-0.104,0.035c-0.024,0.013-0.041,0.025-0.047,0.04c-0.011,0.023-0.029,0.04-0.07,0.046     l-0.059,0.014c-0.044,0.006-0.095,0.008-0.16-0.002c-0.03-0.005-0.074-0.008-0.119-0.005c-0.044,0-0.09,0.005-0.132,0.013     c-0.046,0.009-0.081,0.021-0.104,0.034c-0.031,0.014-0.043,0.027-0.053,0.042c-0.005,0.024-0.029,0.04-0.072,0.047l-0.055,0.01     c-0.043,0.01-0.096,0.01-0.162,0.001c-0.027-0.005-0.066-0.009-0.117-0.005c-0.043,0-0.09,0.004-0.136,0.015     c-0.04,0.008-0.075,0.018-0.101,0.032c-0.026,0.015-0.038,0.028-0.043,0.041c-0.014,0.024-0.036,0.041-0.077,0.05l-0.06,0.011     c-0.039,0.011-0.094,0.008-0.158,0c-0.032-0.007-0.071-0.009-0.116-0.009c-0.046,0.002-0.093,0.007-0.138,0.015l-0.054,0.013     C234.994,95.156,234.977,95.157,234.958,95.153z M236.562,95.046c0.104,0.017,0.183,0.044,0.254,0.087     c0.041,0.027,0.07,0.058,0.076,0.088c0.01,0.031-0.008,0.057-0.041,0.079l0.623,0.389c0.017,0.01,0.019,0.019,0.02,0.025     c-0.002,0.007-0.014,0.013-0.029,0.018l-0.343,0.071c-0.022,0.003-0.041,0.003-0.06,0c-0.019-0.004-0.035-0.009-0.047-0.019     l-0.047-0.027c-0.016-0.008-0.021-0.018-0.018-0.026c0-0.007,0.01-0.01,0.025-0.014l0.17-0.036l-0.088-0.06l-0.173,0.036     c-0.018,0.001-0.036,0.003-0.055,0.001c-0.021-0.005-0.039-0.01-0.052-0.019l-0.043-0.027c-0.016-0.009-0.021-0.017-0.018-0.025     c-0.001-0.006,0.006-0.013,0.024-0.018l0.175-0.033l-0.093-0.06l-0.175,0.036c-0.018,0.003-0.03,0.004-0.053-0.001     c-0.018-0.002-0.037-0.007-0.05-0.017l-0.048-0.029c-0.016-0.008-0.02-0.016-0.016-0.022c0-0.007,0.01-0.013,0.024-0.016     l0.173-0.035l-0.066-0.043c-0.066-0.001-0.139-0.009-0.209-0.026c-0.068-0.017-0.127-0.042-0.172-0.071     c-0.066-0.041-0.092-0.08-0.082-0.12c0.012-0.039,0.057-0.068,0.135-0.085C236.371,95.028,236.462,95.028,236.562,95.046z      M235.328,95.385c-0.02-0.001-0.039-0.009-0.053-0.018l-0.092-0.056c-0.014-0.009-0.021-0.018-0.019-0.026     c0.004-0.006,0.011-0.012,0.028-0.015l0.058-0.013c0.072-0.015,0.146-0.023,0.217-0.023c0.08-0.002,0.15,0.002,0.226,0.009     c0.012-0.026,0.041-0.051,0.082-0.073c0.043-0.022,0.104-0.041,0.168-0.054l0.062-0.01c-0.007,0.043,0.021,0.09,0.077,0.139     c-0.059,0.019-0.092,0.039-0.102,0.063c-0.01,0.025-0.031,0.038-0.074,0.046l-0.059,0.012c-0.037,0.009-0.093,0.007-0.158-0.002     c-0.031-0.004-0.072-0.006-0.116-0.006s-0.093,0.007-0.138,0.016l-0.054,0.013C235.365,95.388,235.348,95.389,235.328,95.385z"></path>			</g>		</g>	</g></g></svg>