<?xml version="1.0" encoding="utf-8"?>
<!-- Generator: Adobe Illustrator 26.0.2, SVG Export Plug-In . SVG Version: 6.00 Build 0)  -->
<svg version="1.1" id="Sports_Car" xmlns="http://www.w3.org/2000/svg" xmlns:xlink="http://www.w3.org/1999/xlink" x="0px" y="0px"
	 viewBox="0 0 705.6 1008" style="enable-background:new 0 0 705.6 1008;" xml:space="preserve">
<style type="text/css">
	.st0{fill:#FFDD00;stroke:#000000;stroke-width:7;stroke-linejoin:round;stroke-miterlimit:10;}
	.st1{fill-rule:evenodd;clip-rule:evenodd;fill:#FF0000;}
	.st2{fill-rule:evenodd;clip-rule:evenodd;fill:#E6E6E6;}
	.st3{fill-rule:evenodd;clip-rule:evenodd;}
	.st4{fill-rule:evenodd;clip-rule:evenodd;fill:#B3B3B3;}
	.st5{fill:#CCCCCC;}
	.st6{fill:#FFFFFF;}
</style>
<g>
	<path class="st0" d="M523.86,27c-8.69,25.37-11.14,57.18-11.14,58.82c0,1.83,2.45,33.45,11.14,58.82c0,0,27.11-0.18,54.02-0.17
		c37.49,0,77.14-28.85,84.59-58.65c-7.46-29.79-47.1-58.61-84.59-58.61C550.97,27.22,523.86,27,523.86,27z"/>
	<g>
		<path d="M563.87,113.75c0,0,0.65-1.12-1.85-4.88c-1.97-2.96-3.82-12.23-3.71-13.52c0.57-6.58-0.27-8.17-1.01-9.75
			c-0.16-0.33-3.06-5.84-8.24-5.61c4.79-1.68,11.39,5.56,11.21,7.28c0,0,3.29-1.31,3.29,2.53c0,0,3.71-0.74,4.76,4.88
			c0,0,4.63-0.87,5.31,3.95c0,0,5.34-1.05,8.77,3.76c2.69-0.83,6.48-0.28,8.15,1.21c0,0,6.05-1.14,7.41,0.09
			c0,0,14.61-5.87,18.59-15.44c8.62-14.23,24.14-12.03,22.11-1.24c-1.3,6.89-7.38,7.4-10.31,5.77c-2.35-1.3-4.13-5.61-0.56-7.16
			c0.71-0.31,2.66,0,2.1,1.98c0,0-1.62-1.43-2.69-0.25c-0.8,0.9-1.05,2.71,1.05,4.32c1.6,1.23,4.6-0.31,5.28-3.27
			c0.59-2.56-2.07-8.52-8.06-4.6c-2.06,1.34-3.15,5.84-0.9,9.2c2.75,4.11,12.75,5.65,16.68-4.75c4.63-12.29-7.4-16.62-12.66-16.86
			c-8.34-0.37-15.62,7.29-22.02,8.31c-0.17,0.03-0.33,0.05-0.5,0.08c0.03-5.26-2.84-4.34-4.97-4.99c-6.64-2.02-8.15-4.91-10.19-0.28
			c-0.43,0.96-0.36,2.4-1.2,3.9c-0.84-2.45-5.9,0.02-6.21-4.67c0,0-3.89,1.88-5.75-1.98c0,0-4.07,2.47-5.93-1.91
			c0,0-4.07,1.33-6.12-2.59c0,0-4.26,1.67-6.91-1.24c0,0-2.96,2.22-6.18-0.18c0,0-1.61,2.84-5.31,0.8c0,0-1.42,3.95-5.38,2.84
			c0,0-0.96,3.52-4.29,2.9c0,0,0.03,4.94-4.66,2.29c0,0-1.91,0.99-0.86,2.16c0,0-1.98,0.31-2.41,2.1c0,0,5.62,3.21,5.37,10.38
			l-0.49,2.41c1.97,0.55,8.24,3.94,9.91,6.14c6.14,8.09,7.56,2.01,11.14,12.57c0.49,1.45-0.43,4.44,0.99,6.17
			C558.07,118.32,562.82,117.02,563.87,113.75z M546.06,95.73c-0.69,0-1.24-0.56-1.24-1.24c0-0.69,0.56-1.24,1.24-1.24
			s1.24,0.56,1.24,1.24C547.31,95.18,546.75,95.73,546.06,95.73z"/>
	</g>
</g>
<g>
	<g>
		<path class="st1" d="M114.58,961.37c-36.67,0-66.5-29.83-66.5-66.5c0-36.67,29.83-66.5,66.5-66.5s66.5,29.83,66.5,66.5
			C181.08,931.54,151.25,961.37,114.58,961.37z"/>
		<path d="M114.58,831.87c34.8,0,63,28.2,63,63c0,34.79-28.2,63-63,63c-34.79,0-63-28.21-63-63
			C51.58,860.07,79.79,831.87,114.58,831.87 M114.58,824.87c-38.6,0-70,31.4-70,70c0,38.6,31.4,70,70,70s70-31.4,70-70
			C184.58,856.27,153.18,824.87,114.58,824.87L114.58,824.87z"/>
	</g>
	<path class="st2" d="M114.58,867.78c14.96,0,27.09,12.13,27.09,27.09c0,14.96-12.13,27.09-27.09,27.09
		c-14.96,0-27.09-12.13-27.09-27.09C87.49,879.9,99.62,867.78,114.58,867.78z"/>
</g>
<g>
	<g>
		<path class="st3" d="M490,261c0,129.24-104.76,234-234,234C126.77,495,22,390.24,22,261C22,131.76,126.77,27,256,27
			C385.24,27,490,131.76,490,261z"/>
	</g>
	<path class="st4" d="M256,88.01c-95.54,0-172.98,77.45-172.98,172.99c0,95.54,77.45,172.99,172.98,172.99
		c95.54,0,172.98-77.45,172.98-172.99C428.99,165.46,351.54,88.01,256,88.01z M251.2,122.12c8.67-0.11,17.78-0.38,24.93,1.29
		c2.95,0.69,5.82,0.5,8.65,1.29c4.31,1.21,7.75,2.71,10.85,5.04c5.17,3.88,10.15,14.5,6.46,23.5c-2.82,6.88-7.34,12.36-11.37,18.08
		c-5.47,7.79-10.7,15.75-16.14,23.51c-2.76,3.92-5.42,7.87-8.14,11.75c-3.24,4.62-5.97,8.87-10.85,11.88
		c-1.82,1.12-3.9,1.87-6.33,2.45c-0.86,0.05-1.72,0.09-2.58,0.13c-0.28,0.04-0.83,0.23-1.29,0.13c-2.78-0.6-5.13-0.71-7.36-1.68
		c-2.54-1.11-4.7-2.88-6.85-4.39c-3.3-2.33-6.35-4.87-9.55-7.23c-7.89-5.8-15.38-12.05-23.25-17.82c-2.81-2.07-5.49-4.29-8.26-6.33
		c-4.4-3.22-8.72-6.52-11.62-11.23c-2.25-3.65-4.19-10.86-2.58-16.66c1.06-3.83,2.81-6.9,4.91-9.68c2.96-3.95,8.7-6.65,13.3-9.04
		c7.01-3.64,14.81-6.51,22.86-9.17c4.24-1.4,8.77-2.06,13.17-3.23c4.79-1.27,9.94-1.11,14.85-2.2
		C246.27,122.22,250.44,122.6,251.2,122.12z M122.46,222.68c2.58-8.28,5.13-17.03,8.93-23.3c1.57-2.6,2.28-5.38,3.9-7.83
		c2.48-3.73,4.97-6.53,8.14-8.76c5.29-3.71,16.93-5.17,24.35,1.12c5.68,4.81,9.48,10.8,13.69,16.39
		c5.72,7.62,11.67,15.04,17.37,22.62c2.88,3.83,5.81,7.58,8.66,11.37c3.39,4.51,6.6,8.42,7.95,13.99c0.51,2.08,0.58,4.29,0.38,6.78
		c-0.23,0.83-0.45,1.67-0.67,2.5c-0.05,0.27-0.04,0.86-0.28,1.27c-1.43,2.46-2.26,4.66-3.87,6.48c-1.84,2.08-4.19,3.58-6.29,5.15
		c-3.23,2.42-6.6,4.53-9.83,6.86c-7.96,5.71-16.22,10.91-24.13,16.6c-2.84,2.04-5.78,3.89-8.57,5.91c-4.43,3.18-8.9,6.28-14.28,7.58
		c-4.17,1.01-11.62,0.63-16.64-2.69c-3.31-2.2-5.69-4.81-7.69-7.66c-2.83-4.04-3.63-10.33-4.48-15.45
		c-1.3-7.79-1.62-16.1-1.66-24.57c-0.02-4.47,0.76-8.99,1-13.53c0.27-4.94,2.02-9.8,2.5-14.8
		C121.04,227.41,122.68,223.55,122.46,222.68z M178.31,376.2c-7.08-5.02-14.61-10.15-19.41-15.7c-1.98-2.29-4.41-3.83-6.24-6.13
		c-2.78-3.51-4.68-6.75-5.82-10.45c-1.89-6.18,0.31-17.7,8.59-22.81c6.32-3.91,13.2-5.68,19.82-7.95
		c9.01-3.08,17.91-6.45,26.87-9.52c4.54-1.55,9.01-3.19,13.49-4.73c5.34-1.84,10.05-3.67,15.76-3.23c2.14,0.16,4.25,0.78,6.57,1.74
		c0.72,0.47,1.44,0.94,2.16,1.41c0.24,0.13,0.8,0.3,1.12,0.65c1.9,2.11,3.74,3.59,4.97,5.69c1.4,2.39,2.11,5.09,2.95,7.58
		c1.3,3.82,2.28,7.68,3.48,11.47c2.97,9.33,5.37,18.79,8.33,28.08c1.06,3.33,1.92,6.69,2.97,9.98c1.66,5.2,3.22,10.4,2.8,15.92
		c-0.33,4.28-2.99,11.25-7.7,15c-3.11,2.48-6.33,3.93-9.66,4.96c-4.71,1.45-10.95,0.26-16.08-0.51c-7.81-1.17-15.81-3.43-23.88-6.02
		c-4.26-1.36-8.31-3.49-12.56-5.13c-4.62-1.79-8.7-4.94-13.3-6.95C182.37,379.01,179.21,376.26,178.31,376.2z M341.58,370.52
		c-6.96,5.18-14.16,10.76-20.93,13.61c-2.79,1.17-5,3.02-7.76,4.04c-4.2,1.56-7.86,2.36-11.74,2.3c-6.46-0.1-16.73-5.76-19.04-15.22
		c-1.76-7.22-1.33-14.31-1.44-21.3c-0.15-9.52-0.6-19.03-0.75-28.51c-0.08-4.79-0.25-9.55-0.32-14.29
		c-0.1-5.65-0.39-10.69,1.79-15.99c0.81-1.98,2.05-3.8,3.68-5.71c0.67-0.54,1.34-1.08,2.01-1.62c0.2-0.19,0.53-0.67,0.97-0.86
		c2.6-1.15,4.57-2.44,6.95-2.97c2.7-0.6,5.49-0.43,8.12-0.47c4.04-0.06,8.01,0.21,11.98,0.23c9.8,0.06,19.54,0.7,29.29,0.76
		c3.49,0.02,6.96,0.24,10.41,0.26c5.45,0.03,10.88,0.15,16.01,2.26c3.96,1.63,9.77,6.31,11.88,11.96c1.39,3.72,1.77,7.23,1.72,10.72
		c-0.08,4.93-3.12,10.49-5.45,15.13c-3.53,7.06-8.15,13.98-13.1,20.85c-2.62,3.63-5.89,6.83-8.76,10.36
		c-3.13,3.84-7.39,6.74-10.72,10.5C345.51,367.53,341.91,369.68,341.58,370.52z M386.63,213.49c2.78,8.22,5.86,16.79,6.47,24.11
		c0.25,3.02,1.32,5.69,1.45,8.63c0.19,4.47-0.18,8.21-1.44,11.88c-2.09,6.11-10.65,14.13-20.36,13.4
		c-7.42-0.55-14.02-3.16-20.7-5.22c-9.11-2.8-18.29-5.31-27.35-8.09c-4.58-1.41-9.16-2.71-13.69-4.11
		c-5.4-1.65-10.29-2.94-14.65-6.65c-1.63-1.38-2.97-3.13-4.29-5.26c-0.3-0.81-0.61-1.61-0.92-2.42c-0.12-0.25-0.47-0.72-0.52-1.19
		c-0.29-2.83-0.91-5.1-0.68-7.52c0.26-2.76,1.28-5.35,2.07-7.86c1.19-3.86,2.67-7.55,3.92-11.32c3.08-9.3,6.7-18.36,9.77-27.62
		c1.1-3.32,2.38-6.54,3.46-9.82c1.72-5.18,3.51-10.31,7.1-14.52c2.78-3.27,9.02-7.34,15.04-7.6c3.97-0.18,7.43,0.55,10.72,1.67
		c4.67,1.6,9.02,6.22,12.72,9.86c5.62,5.54,10.77,12.07,15.78,18.91c2.64,3.6,4.67,7.71,7.14,11.53c2.69,4.16,4.13,9.11,6.67,13.44
		C385,208.83,385.94,212.91,386.63,213.49z"/>
	<g>
		<path d="M256,425.69c-90.81,0-164.69-73.88-164.69-164.69c0-90.81,73.88-164.69,164.69-164.69c90.81,0,164.69,73.88,164.69,164.69
			C420.69,351.81,346.81,425.69,256,425.69z M256,106.07c-85.43,0-154.93,69.5-154.93,154.93c0,85.43,69.5,154.93,154.93,154.93
			c85.43,0,154.93-69.5,154.93-154.93C410.93,175.57,341.43,106.07,256,106.07z"/>
	</g>
	<path class="st3" d="M273.76,261c0,9.81-7.95,17.76-17.76,17.76c-9.81,0-17.76-7.95-17.76-17.76c0-9.81,7.95-17.77,17.76-17.77
		C265.81,243.24,273.76,251.19,273.76,261z"/>
	<g>
		<path class="st3" d="M276.5,232.94c0,3.58-2.9,6.47-6.48,6.47c-3.58,0-6.47-2.9-6.47-6.47c0-3.58,2.9-6.48,6.47-6.48
			C273.61,226.46,276.5,229.36,276.5,232.94z"/>
		<path class="st3" d="M227.94,240.5c3.58,0,6.47,2.9,6.47,6.48c0,3.58-2.9,6.47-6.47,6.47c-3.58,0-6.48-2.89-6.48-6.47
			C221.47,243.39,224.36,240.5,227.94,240.5z"/>
		<path class="st3" d="M235.5,289.06c0-3.58,2.89-6.48,6.47-6.48c3.58,0,6.47,2.9,6.47,6.48c0,3.58-2.89,6.48-6.47,6.48
			C238.39,295.54,235.5,292.64,235.5,289.06z"/>
		<path class="st3" d="M284.06,281.51c-3.58,0-6.48-2.9-6.48-6.48c0-3.58,2.9-6.47,6.48-6.47c3.58,0,6.48,2.9,6.48,6.47
			C290.54,278.61,287.64,281.51,284.06,281.51z"/>
	</g>
</g>
<g>
	<g>
		<path class="st3" d="M680,747c0,129.24-104.76,234-234,234c-129.23,0-234-104.76-234-234c0-129.24,104.77-234,234-234
			C575.24,513,680,617.76,680,747z"/>
	</g>
	<path class="st4" d="M446,574.01c-95.54,0-172.98,77.45-172.98,172.99c0,95.54,77.45,172.99,172.98,172.99
		c95.54,0,172.99-77.45,172.99-172.99C618.98,651.46,541.54,574.01,446,574.01z M441.2,608.12c8.67-0.1,17.78-0.38,24.93,1.29
		c2.95,0.69,5.82,0.5,8.65,1.29c4.31,1.21,7.75,2.71,10.85,5.04c5.17,3.88,10.15,14.5,6.46,23.5c-2.82,6.88-7.34,12.36-11.37,18.08
		c-5.47,7.79-10.7,15.75-16.14,23.51c-2.76,3.92-5.42,7.87-8.14,11.75c-3.24,4.62-5.97,8.87-10.85,11.88
		c-1.82,1.12-3.9,1.87-6.33,2.45c-0.86,0.05-1.72,0.09-2.58,0.13c-0.28,0.04-0.83,0.23-1.29,0.13c-2.78-0.6-5.13-0.71-7.36-1.68
		c-2.54-1.11-4.7-2.88-6.85-4.39c-3.3-2.33-6.35-4.87-9.56-7.23c-7.89-5.8-15.38-12.05-23.25-17.82c-2.81-2.07-5.49-4.29-8.26-6.33
		c-4.4-3.22-8.72-6.52-11.62-11.23c-2.25-3.65-4.19-10.85-2.58-16.66c1.06-3.83,2.81-6.9,4.91-9.68c2.96-3.95,8.7-6.65,13.3-9.04
		c7.01-3.64,14.81-6.51,22.86-9.17c4.24-1.4,8.77-2.06,13.17-3.23c4.79-1.27,9.94-1.11,14.85-2.2
		C436.27,608.22,440.44,608.6,441.2,608.12z M312.45,708.68c2.58-8.28,5.13-17.03,8.93-23.3c1.57-2.6,2.28-5.38,3.9-7.83
		c2.48-3.73,4.97-6.53,8.14-8.76c5.29-3.71,16.92-5.17,24.35,1.12c5.67,4.81,9.48,10.8,13.69,16.39
		c5.72,7.62,11.67,15.04,17.37,22.62c2.88,3.83,5.81,7.58,8.66,11.37c3.39,4.51,6.59,8.42,7.95,13.99c0.51,2.08,0.58,4.29,0.38,6.78
		c-0.23,0.83-0.45,1.67-0.67,2.5c-0.05,0.27-0.04,0.86-0.28,1.27c-1.43,2.46-2.26,4.66-3.87,6.48c-1.84,2.08-4.19,3.58-6.29,5.15
		c-3.23,2.42-6.6,4.53-9.83,6.86c-7.96,5.71-16.22,10.91-24.13,16.6c-2.84,2.04-5.78,3.89-8.57,5.91c-4.43,3.18-8.9,6.28-14.28,7.58
		c-4.17,1.01-11.62,0.63-16.64-2.69c-3.31-2.2-5.69-4.81-7.69-7.66c-2.83-4.04-3.63-10.33-4.48-15.45
		c-1.3-7.79-1.62-16.1-1.66-24.57c-0.02-4.47,0.76-8.99,1-13.53c0.27-4.94,2.02-9.8,2.5-14.8
		C311.03,713.41,312.68,709.55,312.45,708.68z M368.31,862.2c-7.08-5.02-14.61-10.15-19.41-15.7c-1.98-2.29-4.41-3.83-6.24-6.13
		c-2.78-3.51-4.68-6.75-5.82-10.45c-1.89-6.18,0.31-17.7,8.59-22.81c6.32-3.91,13.2-5.68,19.82-7.95
		c9.01-3.09,17.91-6.45,26.87-9.53c4.53-1.55,9.01-3.19,13.49-4.73c5.34-1.84,10.05-3.67,15.76-3.23c2.14,0.16,4.25,0.78,6.57,1.74
		c0.72,0.47,1.44,0.94,2.16,1.41c0.24,0.13,0.8,0.3,1.12,0.65c1.9,2.12,3.74,3.59,4.97,5.69c1.4,2.39,2.11,5.09,2.95,7.58
		c1.3,3.82,2.28,7.68,3.48,11.47c2.97,9.33,5.37,18.79,8.33,28.08c1.06,3.33,1.92,6.69,2.97,9.98c1.66,5.2,3.22,10.4,2.8,15.92
		c-0.33,4.28-2.99,11.25-7.7,15c-3.11,2.48-6.33,3.93-9.66,4.96c-4.71,1.45-10.95,0.26-16.08-0.51c-7.81-1.17-15.81-3.44-23.88-6.02
		c-4.26-1.36-8.32-3.49-12.56-5.13c-4.62-1.79-8.69-4.94-13.3-6.95C372.37,865.01,369.21,862.25,368.31,862.2z M531.58,856.52
		c-6.96,5.18-14.16,10.76-20.93,13.61c-2.79,1.17-5,3.02-7.76,4.04c-4.2,1.56-7.86,2.37-11.74,2.3c-6.46-0.1-16.73-5.76-19.04-15.22
		c-1.76-7.22-1.33-14.31-1.44-21.3c-0.15-9.52-0.6-19.03-0.75-28.51c-0.08-4.79-0.25-9.55-0.32-14.29
		c-0.1-5.65-0.39-10.69,1.79-15.99c0.81-1.98,2.05-3.8,3.68-5.71c0.67-0.54,1.34-1.08,2.01-1.62c0.2-0.19,0.53-0.67,0.97-0.86
		c2.6-1.14,4.57-2.44,6.95-2.97c2.7-0.6,5.49-0.43,8.12-0.47c4.04-0.06,8.01,0.21,11.98,0.23c9.8,0.06,19.54,0.7,29.29,0.76
		c3.49,0.02,6.96,0.24,10.41,0.26c5.45,0.03,10.88,0.15,16,2.26c3.96,1.63,9.77,6.32,11.88,11.96c1.39,3.72,1.77,7.23,1.72,10.72
		c-0.08,4.93-3.12,10.49-5.45,15.13c-3.53,7.06-8.15,13.98-13.1,20.85c-2.61,3.63-5.89,6.83-8.76,10.36
		c-3.13,3.84-7.39,6.74-10.72,10.5C535.5,853.53,531.91,855.68,531.58,856.52z M576.63,699.49c2.78,8.22,5.86,16.79,6.47,24.11
		c0.25,3.02,1.32,5.69,1.44,8.63c0.19,4.47-0.18,8.21-1.43,11.88c-2.09,6.11-10.65,14.13-20.36,13.4
		c-7.42-0.55-14.02-3.16-20.7-5.22c-9.11-2.8-18.29-5.31-27.35-8.09c-4.58-1.41-9.16-2.71-13.69-4.11
		c-5.4-1.65-10.29-2.94-14.65-6.65c-1.63-1.38-2.98-3.13-4.29-5.26c-0.3-0.81-0.61-1.61-0.92-2.42c-0.12-0.25-0.47-0.72-0.52-1.19
		c-0.29-2.83-0.91-5.1-0.68-7.52c0.26-2.76,1.28-5.36,2.07-7.86c1.19-3.86,2.67-7.55,3.92-11.32c3.08-9.3,6.7-18.36,9.77-27.62
		c1.1-3.32,2.38-6.54,3.46-9.82c1.72-5.18,3.51-10.31,7.1-14.52c2.78-3.27,9.02-7.34,15.04-7.6c3.97-0.18,7.43,0.55,10.72,1.67
		c4.67,1.6,9.02,6.22,12.72,9.86c5.63,5.54,10.77,12.07,15.78,18.91c2.64,3.6,4.67,7.71,7.14,11.53c2.69,4.16,4.13,9.11,6.67,13.44
		C575,694.83,575.93,698.91,576.63,699.49z"/>
	<g>
		<path d="M446,911.69c-90.81,0-164.69-73.88-164.69-164.69c0-90.81,73.88-164.69,164.69-164.69c90.81,0,164.69,73.88,164.69,164.69
			C610.69,837.81,536.81,911.69,446,911.69z M446,592.07c-85.43,0-154.93,69.5-154.93,154.93c0,85.43,69.5,154.93,154.93,154.93
			c85.43,0,154.93-69.5,154.93-154.93C600.93,661.57,531.43,592.07,446,592.07z"/>
	</g>
	<path class="st3" d="M463.76,747c0,9.81-7.95,17.76-17.76,17.76c-9.81,0-17.76-7.95-17.76-17.76c0-9.81,7.95-17.77,17.76-17.77
		C455.81,729.24,463.76,737.19,463.76,747z"/>
	<g>
		<path class="st3" d="M466.5,718.94c0,3.58-2.9,6.47-6.48,6.47c-3.58,0-6.48-2.9-6.48-6.47c0-3.58,2.9-6.48,6.48-6.48
			C463.6,712.46,466.5,715.36,466.5,718.94z"/>
		<path class="st3" d="M417.94,726.5c3.58,0,6.48,2.89,6.48,6.47s-2.9,6.47-6.48,6.47c-3.58,0-6.48-2.89-6.48-6.47
			S414.36,726.5,417.94,726.5z"/>
		<path class="st3" d="M425.49,775.06c0-3.58,2.9-6.48,6.48-6.48c3.58,0,6.47,2.9,6.47,6.48c0,3.58-2.89,6.48-6.47,6.48
			C428.39,781.54,425.49,778.64,425.49,775.06z"/>
		<path class="st3" d="M474.05,767.5c-3.58,0-6.48-2.9-6.48-6.48c0-3.58,2.9-6.47,6.48-6.47c3.58,0,6.48,2.9,6.48,6.47
			C480.54,764.61,477.63,767.5,474.05,767.5z"/>
	</g>
</g>
<g>
	<g>
		<path class="st5" d="M95.46,794.46c-6.23,0-12.5-1.26-18.65-3.76c-9.56-3.88-56.91-30.31-50.03-169.92
			c3.52-71.42,27.94-135.49,28.18-136.1c0.21-0.51,0.45-1.13,0.72-1.83c3.69-9.43,11.37-29.05,24.16-29.05
			c1.62,0,3.25,0.33,4.85,0.97c9.21,3.73,42.38,38.89,64.78,66.64c24.75,30.66,54.31,72.95,54.63,100.33
			c0.29,24.92-7.85,54.13-15.57,73.16C187.02,698.9,150.23,794.46,95.46,794.46z"/>
		<path d="M79.85,457.3c1.14,0,2.32,0.23,3.53,0.72c13.26,5.38,116.65,114.94,117.22,163.77c0.3,25.31-8.24,54.36-15.31,71.8
			c0,0-36.85,97.37-89.82,97.37c-5.61,0-11.39-1.09-17.33-3.5c-14.66-5.95-54.13-39.02-47.85-166.5
			c3.26-66.13,25.1-127.97,27.93-134.95C60.78,479.66,68.51,457.3,79.85,457.3 M79.85,450.3L79.85,450.3
			c-15.18,0-23.45,21.13-27.42,31.28c-0.27,0.69-0.51,1.29-0.71,1.79c-0.25,0.61-24.88,65.27-28.43,137.24
			c-2.76,56.01,2.84,100.42,16.65,131.98c12.93,29.55,29.17,38.76,35.56,41.35c6.57,2.66,13.28,4.01,19.97,4.01
			c13.77,0,27.52-5.67,40.88-16.85c10.18-8.52,20.2-20.31,29.77-35.02c15.76-24.23,24.99-48.1,25.69-49.94
			c7.84-19.35,16.09-49.04,15.8-74.44c-0.33-28.39-30.31-71.4-55.4-102.49c-26.1-32.34-57.03-63.97-66.19-67.68
			C83.99,450.72,81.92,450.3,79.85,450.3L79.85,450.3z"/>
	</g>
	<g>
		<path class="st6" d="M107.03,729.06c-6.4,0-12.68-1.23-18.66-3.66c-25.38-10.3-37.66-39.33-27.36-64.72
			c7.65-18.84,25.73-31.02,46.06-31.02c6.4,0,12.67,1.23,18.66,3.66c25.39,10.3,37.67,39.33,27.37,64.72
			C145.45,716.88,127.37,729.06,107.03,729.06C107.03,729.06,107.03,729.06,107.03,729.06z"/>
		<path d="M107.07,633.16c5.94,0,11.78,1.14,17.34,3.4c23.6,9.58,35.01,36.56,25.44,60.16c-7.11,17.52-23.91,28.84-42.82,28.84
			c-5.95,0-11.78-1.14-17.35-3.4c-23.6-9.57-35-36.56-25.43-60.16C71.36,644.48,88.17,633.16,107.07,633.16 M107.07,626.16
			c-21.01,0-40.92,12.54-49.3,33.21c-11.04,27.22,2.07,58.24,29.29,69.28c6.55,2.66,13.32,3.92,19.98,3.92
			c21.01,0,40.92-12.53,49.3-33.2c11.04-27.22-2.07-58.24-29.29-69.28C120.5,627.42,113.73,626.16,107.07,626.16L107.07,626.16z"/>
	</g>
	<g>
		<path class="st6" d="M109.62,661.24c-7.85,0-15.56-1.51-22.9-4.49c-31.16-12.64-46.22-48.27-33.58-79.42
			c9.38-23.13,31.57-38.07,56.53-38.07c7.85,0,15.56,1.51,22.9,4.49c31.16,12.64,46.22,48.27,33.58,79.43
			C156.77,646.3,134.58,661.24,109.62,661.24C109.62,661.24,109.62,661.24,109.62,661.24z"/>
		<path d="M109.67,542.76c7.4,0,14.66,1.42,21.59,4.23c29.37,11.91,43.57,45.5,31.65,74.87c-8.84,21.8-29.76,35.88-53.28,35.88
			c-7.4,0-14.66-1.42-21.58-4.23c-29.37-11.92-43.57-45.5-31.66-74.87C65.23,556.84,86.14,542.76,109.67,542.76 M109.67,535.76
			c-25.48,0-49.6,15.2-59.77,40.26c-13.39,33,2.51,70.59,35.51,83.98c7.94,3.22,16.15,4.75,24.22,4.75
			c25.47,0,49.6-15.2,59.77-40.25c13.39-33-2.51-70.6-35.51-83.99C125.95,537.28,117.74,535.76,109.67,535.76L109.67,535.76z"/>
	</g>
</g>
<g>
	<g>
		<path class="st5" d="M609.14,530.15c-23.23,0-46.01-16.92-67.71-50.28c-15.86-24.38-25-48.34-25.39-49.35
			c-7.69-18.95-15.83-48.16-15.54-73.08c0.18-15.11,9.8-44.79,54.63-100.34c22.4-27.75,55.57-62.9,64.78-66.64
			c1.59-0.65,3.22-0.97,4.85-0.97c12.79,0,20.47,19.62,24.16,29.05c0.28,0.7,0.52,1.32,0.72,1.83c0.24,0.6,24.66,64.68,28.18,136.1
			c6.88,139.62-40.47,166.04-50.03,169.92C621.64,528.89,615.37,530.15,609.14,530.15C609.14,530.15,609.14,530.15,609.14,530.15z"
			/>
		<path d="M624.75,192.99c11.34,0,19.07,22.36,21.64,28.7c2.83,6.98,24.67,68.82,27.93,134.95c6.29,127.49-33.19,160.56-47.85,166.5
			c-5.94,2.41-11.73,3.5-17.33,3.5c-52.98,0-89.82-97.37-89.82-97.37c-7.08-17.44-15.61-46.49-15.31-71.8
			c0.57-48.83,103.96-158.39,117.22-163.77C622.44,193.22,623.61,192.99,624.75,192.99 M624.75,185.99c-2.07,0-4.15,0.41-6.16,1.23
			c-9.15,3.71-40.08,35.34-66.19,67.68c-25.09,31.09-55.07,74.11-55.4,102.49c-0.3,25.41,7.96,55.1,15.8,74.44
			c0.71,1.86,9.94,25.72,25.69,49.94c9.57,14.72,19.59,26.5,29.77,35.02c13.35,11.18,27.11,16.85,40.88,16.85
			c6.68,0,13.4-1.35,19.97-4.01c6.38-2.59,22.63-11.8,35.56-41.35c13.81-31.56,19.41-75.97,16.65-131.98
			c-3.55-71.97-28.19-136.63-28.43-137.24c-0.2-0.5-0.44-1.1-0.71-1.79C648.2,207.12,639.93,185.99,624.75,185.99L624.75,185.99z"/>
	</g>
	<g>
		<path class="st6" d="M597.57,464.75c-20.34,0-38.42-12.18-46.06-31.02c-10.3-25.39,1.98-54.42,27.37-64.72
			c5.98-2.43,12.26-3.66,18.66-3.66c20.33,0,38.42,12.18,46.06,31.02c10.3,25.39-1.97,54.42-27.36,64.72
			C610.25,463.52,603.97,464.75,597.57,464.75z"/>
		<path d="M597.53,368.85c18.9,0,35.71,11.32,42.81,28.84c9.57,23.6-1.83,50.59-25.43,60.16c-5.57,2.26-11.4,3.4-17.35,3.4
			c-18.9,0-35.71-11.32-42.82-28.84c-9.57-23.6,1.84-50.59,25.44-60.16C585.75,369.99,591.58,368.85,597.53,368.85L597.53,368.85
			 M597.53,361.85c-6.66,0-13.42,1.26-19.97,3.91c-27.22,11.04-40.34,42.06-29.29,69.28c8.39,20.67,28.29,33.2,49.3,33.2
			c6.66,0,13.43-1.26,19.98-3.92c27.21-11.04,40.33-42.06,29.29-69.28C638.45,374.38,618.54,361.85,597.53,361.85L597.53,361.85z"/>
	</g>
	<g>
		<path class="st6" d="M594.98,396.93c-24.95,0-47.14-14.94-56.52-38.07c-12.64-31.16,2.42-66.79,33.58-79.43
			c7.34-2.98,15.05-4.49,22.9-4.49c24.96,0,47.14,14.94,56.53,38.07c12.64,31.15-2.43,66.78-33.58,79.42
			C610.53,395.42,602.83,396.93,594.98,396.93z"/>
		<path d="M594.94,278.45c23.52,0,44.43,14.09,53.28,35.89c11.91,29.37-2.29,62.95-31.66,74.87c-6.92,2.81-14.19,4.23-21.58,4.23
			c-23.52,0-44.44-14.09-53.28-35.88c-11.91-29.37,2.28-62.95,31.65-74.87C580.27,279.87,587.53,278.45,594.94,278.45L594.94,278.45
			 M594.93,271.45c-8.07,0-16.28,1.53-24.22,4.75c-33,13.39-48.89,50.99-35.51,83.99c10.17,25.06,34.3,40.25,59.77,40.25
			c8.07,0,16.28-1.53,24.22-4.75c33-13.39,48.9-50.99,35.51-83.98C644.54,286.64,620.41,271.44,594.93,271.45L594.93,271.45z"/>
	</g>
</g>
</svg>
