<?xml version="1.0" encoding="utf-8"?>
<!-- Generator: Adobe Illustrator 26.0.2, SVG Export Plug-In . SVG Version: 6.00 Build 0)  -->
<svg version="1.1" id="Sports_Car" xmlns="http://www.w3.org/2000/svg" xmlns:xlink="http://www.w3.org/1999/xlink" x="0px" y="0px"
	 viewBox="0 0 705.6 1008" style="enable-background:new 0 0 705.6 1008;" xml:space="preserve">
<style type="text/css">
	.st0{fill-rule:evenodd;clip-rule:evenodd;fill:#FF0000;}
	.st1{fill-rule:evenodd;clip-rule:evenodd;fill:#E6E6E6;}
	.st2{fill:#FFFFFF;}
	.st3{fill:none;stroke:#FFFFFF;stroke-width:5.0098;stroke-linecap:round;stroke-miterlimit:10;}
	.st4{fill:#FF0000;}
	.st5{fill:#B3B3B3;}
	.st6{fill:#333333;stroke:#B3B3B3;stroke-width:6.8814;stroke-miterlimit:10;}
</style>
<g>
	<g>
		<circle class="st0" cx="108.27" cy="905.56" r="66.5"/>
		<path d="M108.27,842.56c34.8,0,63,28.2,63,63s-28.2,63-63,63c-34.79,0-63-28.2-63-63S73.48,842.56,108.27,842.56 M108.27,835.56
			c-38.6,0-70,31.4-70,70c0,38.6,31.4,70,70,70s70-31.4,70-70C178.27,866.96,146.87,835.56,108.27,835.56L108.27,835.56z"/>
	</g>
	<path class="st1" d="M108.27,878.46c14.96,0,27.09,12.13,27.09,27.09c0,14.96-12.13,27.09-27.09,27.09
		c-14.96,0-27.09-12.13-27.09-27.09C81.18,890.59,93.31,878.46,108.27,878.46z"/>
</g>
<g>
	<g>
		<circle class="st0" cx="108.27" cy="746.21" r="66.5"/>
		<path d="M108.27,683.21c34.8,0,63,28.2,63,63c0,34.79-28.2,63-63,63c-34.79,0-63-28.21-63-63
			C45.27,711.41,73.48,683.21,108.27,683.21 M108.27,676.21c-38.6,0-70,31.4-70,70c0,38.6,31.4,70,70,70s70-31.4,70-70
			C178.27,707.61,146.87,676.21,108.27,676.21L108.27,676.21z"/>
	</g>
	<path class="st1" d="M108.27,719.12c14.96,0,27.09,12.13,27.09,27.09c0,14.96-12.13,27.09-27.09,27.09
		c-14.96,0-27.09-12.13-27.09-27.09C81.18,731.24,93.31,719.12,108.27,719.12z"/>
</g>
<g>
	<g>
		<circle class="st0" cx="108.27" cy="586.86" r="66.5"/>
		<path d="M108.27,523.86c34.8,0,63,28.21,63,63c0,34.8-28.2,63-63,63c-34.79,0-63-28.21-63-63
			C45.27,552.07,73.48,523.86,108.27,523.86 M108.27,516.86c-38.6,0-70,31.4-70,70c0,38.6,31.4,70,70,70s70-31.4,70-70
			C178.27,548.27,146.87,516.86,108.27,516.86L108.27,516.86z"/>
	</g>
	<path class="st1" d="M108.27,559.77c14.96,0,27.09,12.13,27.09,27.09c0,14.96-12.13,27.09-27.09,27.09
		c-14.96,0-27.09-12.13-27.09-27.09C81.18,571.9,93.31,559.77,108.27,559.77z"/>
</g>
<g>
	<path d="M587.62,263.93c19.13,0,36.48-7.78,49.04-20.35c12.56-12.56,20.34-29.91,20.34-49.04l0-0.69
		C656.48,101.62,581.54,27,489.17,27h-39.7h0h0l0,0h0H252.53h0l0,0h0h0h-39.69C120.46,27,45.52,101.62,45,193.87l0,0.69
		c0,19.13,7.78,36.48,20.34,49.04c12.57,12.56,29.91,20.35,49.04,20.35H587.62z"/>
	<g>
		<path class="st2" d="M449.47,59.57c46.13,0,83.66,37.53,83.66,83.66c0,46.13-37.53,83.66-83.66,83.66
			c-46.13,0-83.66-37.53-83.66-83.66C365.81,97.1,403.34,59.57,449.47,59.57 M449.47,51.56c-50.63,0-91.67,41.05-91.67,91.68
			c0,50.63,41.04,91.68,91.67,91.68c50.63,0,91.67-41.05,91.67-91.68C541.15,92.61,500.1,51.56,449.47,51.56L449.47,51.56z"/>
	</g>
	<line class="st3" x1="525.72" y1="187.14" x2="507.18" y2="176.44"/>
	<line class="st3" x1="534.58" y1="165.99" x2="513.9" y2="160.45"/>
	<line class="st3" x1="537.66" y1="143.27" x2="516.26" y2="143.27"/>
	<line class="st3" x1="534.76" y1="120.53" x2="514.09" y2="126.07"/>
	<line class="st3" x1="526.08" y1="99.31" x2="507.54" y2="110.01"/>
	<line class="st3" x1="512.19" y1="81.06" x2="497.05" y2="96.19"/>
	<line class="st3" x1="494.06" y1="67.03" x2="483.35" y2="85.56"/>
	<line class="st3" x1="472.91" y1="58.17" x2="467.37" y2="78.84"/>
	<line class="st3" x1="450.19" y1="55.08" x2="450.19" y2="76.48"/>
	<line class="st3" x1="427.44" y1="57.98" x2="432.98" y2="78.65"/>
	<line class="st3" x1="406.22" y1="66.67" x2="416.92" y2="85.21"/>
	<line class="st3" x1="387.98" y1="80.55" x2="403.1" y2="95.69"/>
	<line class="st3" x1="373.94" y1="98.69" x2="392.48" y2="109.39"/>
	<line class="st3" x1="365.08" y1="119.83" x2="385.75" y2="125.38"/>
	<line class="st3" x1="362" y1="142.55" x2="383.4" y2="142.56"/>
	<line class="st3" x1="364.9" y1="165.3" x2="385.57" y2="159.77"/>
	<line class="st3" x1="373.58" y1="186.52" x2="392.12" y2="175.82"/>
	<path class="st2" d="M459.26,143.22c0,5.45-4.42,9.87-9.87,9.87c-5.45,0-9.87-4.42-9.87-9.87c0-5.45,4.42-9.87,9.87-9.87
		C454.84,133.35,459.26,137.77,459.26,143.22z"/>
	<line class="st3" x1="449.38" y1="143.22" x2="409.89" y2="103.73"/>
	<g>
		<path class="st2" d="M481.03,189.08c0,1.98-1.62,3.61-3.61,3.61h-55.91c-1.98,0-3.61-1.62-3.61-3.61v-10.82
			c0-1.98,1.62-3.61,3.61-3.61h55.91c1.98,0,3.61,1.62,3.61,3.61V189.08z"/>
	</g>
	<g>
		<g>
			<path d="M431.08,186.16c0,0.99-0.81,1.8-1.8,1.8h-2.12c-0.99,0-1.8-0.81-1.8-1.8v-4.98c0-0.99,0.81-1.8,1.8-1.8h2.12
				c0.99,0,1.8,0.81,1.8,1.8V186.16z"/>
		</g>
		<g>
			<path d="M439.58,186.16c0,0.99-0.81,1.8-1.8,1.8h-2.11c-0.99,0-1.8-0.81-1.8-1.8v-4.98c0-0.99,0.81-1.8,1.8-1.8h2.11
				c0.99,0,1.8,0.81,1.8,1.8V186.16z"/>
		</g>
		<g>
			<path d="M448.08,186.16c0,0.99-0.81,1.8-1.8,1.8h-2.11c-0.99,0-1.8-0.81-1.8-1.8v-4.98c0-0.99,0.81-1.8,1.8-1.8h2.11
				c0.99,0,1.8,0.81,1.8,1.8V186.16z"/>
		</g>
		<g>
			<path d="M456.59,186.16c0,0.99-0.81,1.8-1.8,1.8h-2.12c-0.99,0-1.8-0.81-1.8-1.8v-4.98c0-0.99,0.81-1.8,1.8-1.8h2.12
				c0.99,0,1.8,0.81,1.8,1.8V186.16z"/>
		</g>
		<g>
			<path d="M465.09,186.16c0,0.99-0.81,1.8-1.8,1.8h-2.11c-0.99,0-1.8-0.81-1.8-1.8v-4.98c0-0.99,0.81-1.8,1.8-1.8h2.11
				c0.99,0,1.8,0.81,1.8,1.8V186.16z"/>
		</g>
		<g>
			<path d="M473.59,186.16c0,0.99-0.81,1.8-1.8,1.8h-2.12c-0.99,0-1.8-0.81-1.8-1.8v-4.98c0-0.99,0.81-1.8,1.8-1.8h2.12
				c0.99,0,1.8,0.81,1.8,1.8V186.16z"/>
		</g>
	</g>
	<path class="st4" d="M307.81,175.33c5.48-9.43,8.63-20.39,8.63-32.09c0-11.64-3.11-22.56-8.56-31.96l24.18-13.67
		c7.73,13.44,12.15,29.02,12.15,45.63c0,16.64-4.43,32.24-12.18,45.69L307.81,175.33z"/>
	<g>
		<path class="st2" d="M252.53,59.57c46.13,0,83.66,37.53,83.66,83.66c0,46.13-37.53,83.66-83.66,83.66
			c-46.13,0-83.66-37.53-83.66-83.66c0-22.35,8.7-43.36,24.5-59.16C209.17,68.28,230.18,59.58,252.53,59.57L252.53,59.57
			 M252.53,51.56c-50.63,0-91.67,41.05-91.67,91.68c0,50.63,41.05,91.67,91.68,91.67c50.63,0,91.67-41.05,91.67-91.68
			C344.2,92.6,303.16,51.56,252.53,51.56L252.53,51.56z"/>
	</g>
	<line class="st3" x1="328.77" y1="187.14" x2="310.24" y2="176.44"/>
	<line class="st3" x1="337.63" y1="165.99" x2="316.96" y2="160.45"/>
	<line class="st3" x1="340.72" y1="143.27" x2="319.32" y2="143.27"/>
	<line class="st3" x1="337.82" y1="120.53" x2="317.14" y2="126.07"/>
	<line class="st3" x1="329.13" y1="99.31" x2="310.59" y2="110.01"/>
	<line class="st3" x1="315.25" y1="81.06" x2="300.11" y2="96.19"/>
	<line class="st3" x1="297.11" y1="67.03" x2="286.41" y2="85.56"/>
	<line class="st3" x1="275.96" y1="58.17" x2="270.42" y2="78.84"/>
	<line class="st3" x1="253.24" y1="55.08" x2="253.24" y2="76.48"/>
	<line class="st3" x1="230.5" y1="57.98" x2="236.03" y2="78.65"/>
	<line class="st3" x1="209.28" y1="66.67" x2="219.98" y2="85.21"/>
	<line class="st3" x1="191.03" y1="80.55" x2="206.16" y2="95.69"/>
	<line class="st3" x1="177" y1="98.69" x2="195.53" y2="109.39"/>
	<line class="st3" x1="168.14" y1="119.83" x2="188.81" y2="125.38"/>
	<line class="st3" x1="165.05" y1="142.55" x2="186.45" y2="142.56"/>
	<line class="st3" x1="167.95" y1="165.3" x2="188.62" y2="159.77"/>
	<line class="st3" x1="176.64" y1="186.52" x2="195.17" y2="175.82"/>
	<path class="st2" d="M245.52,150.34c-3.86-3.86-3.86-10.11,0-13.96c3.86-3.86,10.11-3.86,13.96,0c3.86,3.85,3.86,10.11,0,13.96
		C255.62,154.19,249.37,154.19,245.52,150.34z"/>
	<line class="st3" x1="252.5" y1="143.36" x2="308.34" y2="143.36"/>
	<line class="st3" x1="114.64" y1="157.64" x2="114.64" y2="166.48"/>
	<line class="st3" x1="96.46" y1="162.33" x2="100.87" y2="169.98"/>
	<line class="st3" x1="83.05" y1="175.48" x2="90.7" y2="179.9"/>
	<line class="st3" x1="145.88" y1="176.07" x2="138.23" y2="180.49"/>
	<line class="st3" x1="132.73" y1="162.67" x2="128.31" y2="170.33"/>
	<path class="st2" d="M116.71,198.18c-2.31,1.27-5.21,0.44-6.49-1.87c-1.27-2.31-0.43-5.21,1.88-6.49c2.31-1.27,5.21-0.44,6.49,1.87
		C119.86,194,119.02,196.91,116.71,198.18z"/>
	<line class="st3" x1="114.4" y1="194" x2="119.33" y2="177.84"/>
	<g>
		<g>
			<path class="st2" d="M114.38,157.74L114.38,157.74c20.02,0,36.32,16.29,36.32,36.32c0,9.7-3.78,18.82-10.64,25.68
				c-6.86,6.86-15.98,10.64-25.68,10.64c-20.03,0-36.32-16.29-36.32-36.32C78.06,174.04,94.36,157.74,114.38,157.74 M114.38,149.73
				c-24.48,0-44.34,19.85-44.33,44.34c0,24.49,19.85,44.34,44.34,44.33c24.49,0,44.33-19.85,44.33-44.34
				C158.72,169.57,138.87,149.73,114.38,149.73L114.38,149.73z"/>
		</g>
	</g>
	<line class="st3" x1="587.36" y1="157.64" x2="587.36" y2="166.48"/>
	<line class="st3" x1="605.55" y1="162.33" x2="601.13" y2="169.98"/>
	<line class="st3" x1="618.95" y1="175.48" x2="611.3" y2="179.9"/>
	<line class="st3" x1="556.12" y1="176.07" x2="563.77" y2="180.49"/>
	<line class="st3" x1="569.27" y1="162.67" x2="573.69" y2="170.33"/>
	<path class="st2" d="M585.29,198.18c2.31,1.27,5.21,0.44,6.49-1.87c1.27-2.31,0.43-5.21-1.87-6.49c-2.31-1.27-5.21-0.44-6.49,1.87
		C582.14,194,582.98,196.91,585.29,198.18z"/>
	<line class="st3" x1="587.6" y1="194" x2="582.68" y2="177.84"/>
	<g>
		<g>
			<path class="st2" d="M587.62,157.74L587.62,157.74c20.03,0,36.32,16.3,36.32,36.32c0,20.03-16.3,36.32-36.32,36.32
				c-20.03,0-36.32-16.29-36.32-36.32C551.3,174.03,567.59,157.74,587.62,157.74 M587.62,149.73c-24.49,0-44.33,19.85-44.33,44.33
				c0,24.49,19.85,44.34,44.33,44.34c24.49,0,44.34-19.85,44.34-44.33C631.95,169.58,612.1,149.73,587.62,149.73L587.62,149.73z"/>
		</g>
	</g>
	<g>
		<g>
			<g>
				<path class="st2" d="M117.31,218.88c0.1,0.09,0.15,0.22,0.15,0.37v1.03c0,0.15-0.05,0.27-0.15,0.37
					c-0.09,0.1-0.22,0.14-0.37,0.14h-10.24c-0.15,0-0.27-0.05-0.37-0.14c-0.1-0.09-0.14-0.22-0.14-0.37v-1.03
					c0-0.15,0.05-0.27,0.14-0.37c0.1-0.1,0.22-0.15,0.37-0.15h10.24C117.09,218.73,117.22,218.78,117.31,218.88z M122.57,209.29
					v7.13c0,0.68-0.25,1.25-0.75,1.71c-0.5,0.46-1.1,0.66-1.78,0.59c-0.6-0.06-1.09-0.33-1.49-0.8c-0.39-0.47-0.59-1.01-0.59-1.63
					v-0.9c0-0.36-0.13-0.67-0.37-0.91c-0.25-0.24-0.55-0.37-0.91-0.37h-0.25v3.58h-9.21v-11.26c0-0.55,0.2-1.03,0.61-1.44
					c0.4-0.41,0.88-0.61,1.44-0.61h5.12c0.55,0,1.03,0.2,1.44,0.61c0.41,0.41,0.61,0.89,0.61,1.44v6.14h0.25
					c0.77,0,1.43,0.28,1.98,0.83c0.56,0.56,0.83,1.21,0.83,1.98v1.02c0,0.22,0.07,0.39,0.22,0.54c0.15,0.15,0.33,0.22,0.55,0.22
					c0.21,0,0.39-0.07,0.54-0.22c0.15-0.15,0.23-0.33,0.23-0.54v-5.15c-0.43-0.06-0.79-0.26-1.09-0.59
					c-0.3-0.33-0.45-0.72-0.45-1.17v-1.98l-1.22-1.22c-0.08-0.08-0.13-0.2-0.13-0.35c0-0.15,0.04-0.26,0.13-0.35l0.38-0.38
					c0.09-0.08,0.2-0.13,0.35-0.13c0.15,0,0.27,0.04,0.35,0.13l2.59,2.59C122.37,208.23,122.57,208.72,122.57,209.29L122.57,209.29z
					 M114.38,206.45h-5.12v4.1h5.12V206.45z"/>
			</g>
		</g>
	</g>
	<g>
		<g>
			<g>
				<path class="st2" d="M577.52,216.54c-0.1-0.1-0.14-0.22-0.14-0.37v-1.02c0-0.15,0.05-0.27,0.14-0.37
					c0.1-0.1,0.22-0.14,0.37-0.14h0.51c0.39,0,0.74-0.05,1.06-0.16c0.32-0.11,0.57-0.24,0.74-0.42c0.32-0.3,0.66-0.45,1.02-0.45
					h0.51c0.36,0,0.7,0.14,1.01,0.43c0.31,0.29,0.75,0.48,1.33,0.56c0.13,0.81,0.46,1.49,1,2.05l-0.51,0.03
					c-0.6,0-1.16-0.09-1.7-0.27c-0.54-0.18-0.99-0.43-1.38-0.75c-0.38,0.32-0.85,0.57-1.38,0.75c-0.53,0.18-1.1,0.27-1.7,0.27h-0.51
					C577.74,216.69,577.62,216.64,577.52,216.54z M597.71,218.88c0.1,0.1,0.15,0.22,0.15,0.37v1.02c0,0.15-0.05,0.27-0.15,0.37
					c-0.09,0.1-0.22,0.14-0.37,0.14h-0.51c-0.6,0-1.16-0.09-1.7-0.27c-0.53-0.18-0.99-0.43-1.38-0.75
					c-0.38,0.32-0.84,0.57-1.38,0.75c-0.53,0.18-1.1,0.27-1.7,0.27c-0.6,0-1.16-0.09-1.69-0.27c-0.54-0.18-0.99-0.43-1.38-0.75
					c-0.38,0.32-0.84,0.57-1.38,0.75c-0.53,0.18-1.1,0.27-1.69,0.27c-0.6,0-1.16-0.09-1.7-0.27c-0.54-0.18-0.99-0.43-1.38-0.75
					c-0.38,0.32-0.85,0.57-1.38,0.75c-0.53,0.18-1.1,0.27-1.7,0.27h-0.51c-0.15,0-0.27-0.05-0.37-0.14c-0.1-0.1-0.14-0.22-0.14-0.37
					v-1.02c0-0.15,0.05-0.27,0.14-0.37c0.1-0.1,0.22-0.14,0.37-0.14h0.51c0.39,0,0.74-0.05,1.06-0.16c0.32-0.11,0.57-0.25,0.74-0.42
					c0.32-0.3,0.66-0.45,1.02-0.45h0.51c0.36,0,0.71,0.15,1.02,0.45c0.17,0.17,0.41,0.31,0.73,0.42c0.32,0.11,0.67,0.16,1.06,0.16
					c0.38,0,0.74-0.05,1.06-0.16c0.32-0.11,0.56-0.25,0.73-0.42c0.32-0.3,0.66-0.45,1.02-0.45h0.51c0.36,0,0.71,0.15,1.02,0.45
					c0.17,0.17,0.41,0.31,0.74,0.42c0.32,0.11,0.67,0.16,1.06,0.16c0.38,0,0.74-0.05,1.06-0.16c0.32-0.11,0.56-0.25,0.73-0.42
					c0.32-0.3,0.66-0.45,1.03-0.45h0.51c0.36,0,0.7,0.15,1.02,0.45c0.17,0.17,0.42,0.31,0.74,0.42c0.32,0.11,0.67,0.16,1.06,0.16
					h0.51C597.49,218.73,597.61,218.78,597.71,218.88z M585.81,215.93c-0.5-0.5-0.75-1.1-0.75-1.81c0-0.51,0.13-0.98,0.41-1.41
					c0.28-0.43,0.65-0.74,1.12-0.93v-6.88c0-0.15,0.05-0.27,0.14-0.37c0.1-0.1,0.22-0.14,0.37-0.14h3.07c0.15,0,0.27,0.05,0.37,0.14
					c0.1,0.1,0.14,0.22,0.14,0.37v0.51c0,0.15-0.05,0.27-0.14,0.37c-0.1,0.1-0.22,0.14-0.37,0.14h-1.54v1.02h1.54
					c0.15,0,0.27,0.05,0.37,0.14c0.1,0.1,0.14,0.22,0.14,0.37v0.51c0,0.15-0.05,0.27-0.14,0.37c-0.1,0.1-0.22,0.14-0.37,0.14h-1.54
					v1.02h1.54c0.15,0,0.27,0.05,0.37,0.14c0.1,0.1,0.14,0.22,0.14,0.37v0.51c0,0.15-0.05,0.27-0.14,0.37
					c-0.1,0.1-0.22,0.15-0.37,0.15h-1.54v0.74c0.47,0.19,0.84,0.5,1.12,0.93c0.28,0.43,0.42,0.9,0.42,1.41
					c0,0.71-0.25,1.31-0.75,1.81c-0.5,0.5-1.1,0.75-1.81,0.75C586.91,216.69,586.31,216.43,585.81,215.93z M597.71,214.78
					c0.1,0.09,0.15,0.22,0.15,0.37v1.02c0,0.15-0.05,0.27-0.15,0.37c-0.09,0.1-0.22,0.15-0.37,0.15h-0.51
					c-0.62,0-1.19-0.09-1.71-0.27c-0.52-0.18-0.98-0.43-1.36-0.75c-0.38,0.32-0.84,0.57-1.38,0.75c-0.53,0.18-1.1,0.27-1.7,0.27
					l-0.51-0.03c0.53-0.56,0.85-1.24,0.96-2.05c0.6-0.08,1.05-0.27,1.36-0.56c0.31-0.29,0.64-0.43,1.01-0.43h0.51
					c0.36,0,0.7,0.15,1.02,0.45c0.17,0.17,0.42,0.31,0.74,0.42c0.32,0.11,0.67,0.16,1.06,0.16h0.51
					C597.49,214.64,597.61,214.69,597.71,214.78z"/>
			</g>
		</g>
	</g>
</g>
<path d="M207,747c0-129.48,104.52-234,234-234c129.48,0,234,104.52,234,234S570.48,981,441,981C311.52,981,207,876.48,207,747
	L207,747z"/>
<path d="M630.8,791.72c-0.52-9.88-16.12-23.4-43.16-17.16c-19.76,4.68-46.8,21.32-74.36,48.88C493,843.72,474.8,874.4,474.8,922.76
	C475.32,980.48,633.4,870.76,630.8,791.72L630.8,791.72z"/>
<path d="M250.68,708.52c-1.04,9.36,18.2,8.32,30.16,6.76c37.44-6.76,100.36-39,163.28-39c44.2,0,91.52,20.8,123.24,30.16
	c10.92,3.12,26.52,8.84,48.88,9.88c8.32,0.52,16.64-1.56,16.12-8.84C629.24,656,562.68,553.56,441,553.56
	C348.44,553.56,257.96,631.04,250.68,708.52L250.68,708.52z"/>
<path d="M252.24,791.72c-2.6,79.04,156,188.76,156,131.04c0-48.36-18.2-79.04-38.48-99.32c-27.56-27.04-54.08-44.2-74.36-48.36
	C268.36,768.84,252.76,781.84,252.24,791.72L252.24,791.72z"/>
<path d="M207,747c0-129.48,104.52-234,234-234c129.48,0,234,104.52,234,234S570.48,981,441,981C311.52,981,207,876.48,207,747
	L207,747z"/>
<path class="st5" d="M630.8,791.72c-0.52-9.88-16.12-23.4-43.16-17.16c-19.76,4.68-46.8,21.32-74.36,48.88
	C493,843.72,474.8,874.4,474.8,922.76C475.32,980.48,633.4,870.76,630.8,791.72L630.8,791.72z"/>
<path class="st5" d="M250.68,708.52c-1.04,9.36,18.2,8.32,30.16,6.76c37.44-6.76,100.36-39,163.28-39
	c44.2,0,91.52,20.8,123.24,30.16c10.92,3.12,26.52,8.84,48.88,9.88c8.32,0.52,16.64-1.56,16.12-8.84
	C629.24,656,562.68,553.56,441,553.56C348.44,553.56,257.96,631.04,250.68,708.52L250.68,708.52z"/>
<path class="st5" d="M252.24,791.72c-2.6,79.04,156,188.76,156,131.04c0-48.36-18.2-79.04-38.48-99.32
	c-27.56-27.04-54.08-44.2-74.36-48.36C268.36,768.84,252.76,781.84,252.24,791.72L252.24,791.72z"/>
<path class="st2" d="M386.4,751.68c0-30.16,24.44-54.6,54.6-54.6c30.16,0,54.6,24.44,54.6,54.6c0,30.16-24.44,54.6-54.6,54.6
	C410.84,806.28,386.4,781.84,386.4,751.68L386.4,751.68z M386.4,751.68c0,30.16,24.44,54.6,54.6,54.6c30.16,0,54.6-24.44,54.6-54.6
	c0-30.16-24.44-54.6-54.6-54.6C410.84,697.08,386.4,721.52,386.4,751.68L386.4,751.68z M386.4,751.68c0-30.16,24.44-54.6,54.6-54.6
	c30.16,0,54.6,24.44,54.6,54.6c0,30.16-24.44,54.6-54.6,54.6C410.84,806.28,386.4,781.84,386.4,751.68L386.4,751.68z M403.04,751.68
	c0,21.32,17.16,37.96,37.96,37.96c20.8,0,37.96-17.16,37.96-37.96c0-20.8-17.16-37.96-37.96-37.96
	C420.2,713.72,403.04,730.88,403.04,751.68L403.04,751.68z M386.4,751.68c0-30.16,24.44-54.6,54.6-54.6
	c30.16,0,54.6,24.44,54.6,54.6c0,30.16-24.44,54.6-54.6,54.6C410.84,806.28,386.4,781.84,386.4,751.68L386.4,751.68z M403.04,751.68
	c0,21.32,17.16,37.96,37.96,37.96c20.8,0,37.96-17.16,37.96-37.96c0-20.8-17.16-37.96-37.96-37.96
	C420.2,713.72,403.04,730.88,403.04,751.68L403.04,751.68z"/>
<g>
	<g>
		<path d="M403.96,409.34c16.48,29.39,57.53,53.43,91.22,53.43h89.84c33.69,0,61.26-27.57,61.26-61.26v-23.14
			c0-33.69-27.57-61.26-61.26-61.26H413.51c-33.69,0-47.77,24.04-31.3,53.43L403.96,409.34z"/>
	</g>
	<circle class="st6" cx="577.15" cy="387.22" r="41.29"/>
	<path class="st6" d="M434.91,387.22c0,22.8,18.49,41.29,41.29,41.29c22.81,0,41.29-18.49,41.29-41.29
		c0-22.8-18.49-41.29-41.29-41.29C453.4,345.92,434.91,364.41,434.91,387.22z"/>
</g>
<g>
	<g>
		<path d="M298.04,409.34c-16.48,29.39-57.53,53.43-91.22,53.43h-89.84c-33.69,0-61.26-27.57-61.26-61.26v-23.14
			c0-33.69,27.57-61.26,61.26-61.26h171.52c33.69,0,47.77,24.04,31.3,53.43L298.04,409.34z"/>
	</g>
	<circle class="st6" cx="124.85" cy="387.22" r="41.29"/>
	<path class="st6" d="M267.09,387.22c0,22.8-18.49,41.29-41.29,41.29c-22.81,0-41.29-18.49-41.29-41.29
		c0-22.8,18.49-41.29,41.29-41.29C248.6,345.92,267.09,364.41,267.09,387.22z"/>
</g>
</svg>
