<?xml version="1.0" encoding="utf-8"?>
<!-- Generator: Adobe Illustrator 26.0.2, SVG Export Plug-In . SVG Version: 6.00 Build 0)  -->
<svg version="1.1" id="Sports_Car" xmlns="http://www.w3.org/2000/svg" xmlns:xlink="http://www.w3.org/1999/xlink" x="0px" y="0px"
	 viewBox="0 0 705.6 1008" style="enable-background:new 0 0 705.6 1008;" xml:space="preserve">
<style type="text/css">
	.st0{fill:#FFFFFF;}
	.st1{fill-rule:evenodd;clip-rule:evenodd;}
	.st2{fill-rule:evenodd;clip-rule:evenodd;fill:#B3B3B3;}
	.st3{fill:#B3B3B3;}
</style>
<g>
	<path class="st0" d="M546.74,389.88c-8.45,0-15.32-6.87-15.32-15.32V52.19c0-8.44,6.87-15.32,15.32-15.32h97.37
		c8.45,0,15.32,6.87,15.32,15.32v322.37c0,8.44-6.87,15.32-15.32,15.32H546.74z"/>
	<path d="M644.11,40.38c6.51,0,11.82,5.3,11.82,11.82v322.37c0,6.52-5.3,11.82-11.82,11.82h-97.37c-6.51,0-11.82-5.3-11.82-11.82
		V52.19c0-6.52,5.3-11.82,11.82-11.82H644.11 M644.11,33.38h-97.37c-10.35,0-18.82,8.47-18.82,18.82v322.37
		c0,10.35,8.47,18.82,18.82,18.82h97.37c10.35,0,18.82-8.47,18.82-18.82V52.19C662.93,41.84,654.46,33.38,644.11,33.38L644.11,33.38
		z"/>
</g>
<g>
	<g>
		<path class="st1" d="M495,261c0,129.24-104.76,234-234,234C131.77,495,27,390.24,27,261C27,131.76,131.77,27,261,27
			C390.24,27,495,131.76,495,261z"/>
	</g>
	<path class="st2" d="M261,88.01c-95.54,0-172.98,77.45-172.98,172.99c0,95.54,77.45,172.99,172.98,172.99
		c95.54,0,172.98-77.45,172.98-172.99C433.99,165.46,356.54,88.01,261,88.01z M256.2,122.12c8.67-0.11,17.78-0.38,24.93,1.29
		c2.95,0.69,5.82,0.5,8.65,1.29c4.31,1.21,7.75,2.71,10.85,5.04c5.17,3.88,10.15,14.5,6.46,23.5c-2.82,6.88-7.34,12.36-11.37,18.08
		c-5.47,7.79-10.7,15.75-16.14,23.51c-2.76,3.92-5.42,7.87-8.14,11.75c-3.24,4.62-5.97,8.87-10.85,11.88
		c-1.82,1.12-3.9,1.87-6.33,2.45c-0.86,0.05-1.72,0.09-2.58,0.13c-0.28,0.04-0.83,0.23-1.29,0.13c-2.78-0.6-5.13-0.71-7.36-1.68
		c-2.54-1.11-4.7-2.88-6.85-4.39c-3.3-2.33-6.35-4.87-9.55-7.23c-7.89-5.8-15.38-12.05-23.25-17.82c-2.81-2.07-5.49-4.29-8.26-6.33
		c-4.4-3.22-8.72-6.52-11.62-11.23c-2.25-3.65-4.19-10.86-2.58-16.66c1.06-3.83,2.81-6.9,4.91-9.68c2.96-3.95,8.7-6.65,13.3-9.04
		c7.01-3.64,14.81-6.51,22.86-9.17c4.24-1.4,8.77-2.06,13.17-3.23c4.79-1.27,9.94-1.11,14.85-2.2
		C251.27,122.22,255.44,122.6,256.2,122.12z M127.46,222.68c2.58-8.28,5.13-17.03,8.93-23.3c1.57-2.6,2.28-5.38,3.9-7.83
		c2.48-3.73,4.97-6.53,8.14-8.76c5.29-3.71,16.93-5.17,24.35,1.12c5.68,4.81,9.48,10.8,13.69,16.39
		c5.72,7.62,11.67,15.04,17.37,22.62c2.88,3.83,5.81,7.58,8.66,11.37c3.39,4.51,6.6,8.42,7.95,13.99c0.51,2.08,0.58,4.29,0.38,6.78
		c-0.23,0.83-0.45,1.67-0.67,2.5c-0.05,0.27-0.04,0.86-0.28,1.27c-1.43,2.46-2.26,4.66-3.87,6.48c-1.84,2.08-4.19,3.58-6.29,5.15
		c-3.23,2.42-6.6,4.53-9.83,6.86c-7.96,5.71-16.22,10.91-24.13,16.6c-2.84,2.04-5.78,3.89-8.57,5.91c-4.43,3.18-8.9,6.28-14.28,7.58
		c-4.17,1.01-11.62,0.63-16.64-2.69c-3.31-2.2-5.69-4.81-7.69-7.66c-2.83-4.04-3.63-10.33-4.48-15.45
		c-1.3-7.79-1.62-16.1-1.66-24.57c-0.02-4.47,0.76-8.99,1-13.53c0.27-4.94,2.02-9.8,2.5-14.8
		C126.04,227.41,127.68,223.55,127.46,222.68z M183.31,376.2c-7.08-5.02-14.61-10.15-19.41-15.7c-1.98-2.29-4.41-3.83-6.24-6.13
		c-2.78-3.51-4.68-6.75-5.82-10.45c-1.89-6.18,0.31-17.7,8.59-22.81c6.32-3.91,13.2-5.68,19.82-7.95
		c9.01-3.08,17.91-6.45,26.87-9.52c4.54-1.55,9.01-3.19,13.49-4.73c5.34-1.84,10.05-3.67,15.76-3.23c2.14,0.16,4.25,0.78,6.57,1.74
		c0.72,0.47,1.44,0.94,2.16,1.41c0.24,0.13,0.8,0.3,1.12,0.65c1.9,2.11,3.74,3.59,4.97,5.69c1.4,2.39,2.11,5.09,2.95,7.58
		c1.3,3.82,2.28,7.68,3.48,11.47c2.97,9.33,5.37,18.79,8.33,28.08c1.06,3.33,1.92,6.69,2.97,9.98c1.66,5.2,3.22,10.4,2.8,15.92
		c-0.33,4.28-2.99,11.25-7.7,15c-3.11,2.48-6.33,3.93-9.66,4.96c-4.71,1.45-10.95,0.26-16.08-0.51c-7.81-1.17-15.81-3.43-23.88-6.02
		c-4.26-1.36-8.31-3.49-12.56-5.13c-4.62-1.79-8.7-4.94-13.3-6.95C187.37,379.01,184.21,376.26,183.31,376.2z M346.58,370.52
		c-6.96,5.18-14.16,10.76-20.93,13.61c-2.79,1.17-5,3.02-7.76,4.04c-4.2,1.56-7.86,2.36-11.74,2.3c-6.46-0.1-16.73-5.76-19.04-15.22
		c-1.76-7.22-1.33-14.31-1.44-21.3c-0.15-9.52-0.6-19.03-0.75-28.51c-0.08-4.79-0.25-9.55-0.32-14.29
		c-0.1-5.65-0.39-10.69,1.79-15.99c0.81-1.98,2.05-3.8,3.68-5.71c0.67-0.54,1.34-1.08,2.01-1.62c0.2-0.19,0.53-0.67,0.97-0.86
		c2.6-1.15,4.57-2.44,6.95-2.97c2.7-0.6,5.49-0.43,8.12-0.47c4.04-0.06,8.01,0.21,11.98,0.23c9.8,0.06,19.54,0.7,29.29,0.76
		c3.49,0.02,6.96,0.24,10.41,0.26c5.45,0.03,10.88,0.15,16.01,2.26c3.96,1.63,9.77,6.31,11.88,11.96c1.39,3.72,1.77,7.23,1.72,10.72
		c-0.08,4.93-3.12,10.49-5.45,15.13c-3.53,7.06-8.15,13.98-13.1,20.85c-2.62,3.63-5.89,6.83-8.76,10.36
		c-3.13,3.84-7.39,6.74-10.72,10.5C350.51,367.53,346.91,369.68,346.58,370.52z M391.63,213.49c2.78,8.22,5.86,16.79,6.47,24.11
		c0.25,3.02,1.32,5.69,1.45,8.63c0.19,4.47-0.18,8.21-1.44,11.88c-2.09,6.11-10.65,14.13-20.36,13.4
		c-7.42-0.55-14.02-3.16-20.7-5.22c-9.11-2.8-18.29-5.31-27.35-8.09c-4.58-1.41-9.16-2.71-13.69-4.11
		c-5.4-1.65-10.29-2.94-14.65-6.65c-1.63-1.38-2.97-3.13-4.29-5.26c-0.3-0.81-0.61-1.61-0.92-2.42c-0.12-0.25-0.47-0.72-0.52-1.19
		c-0.29-2.83-0.91-5.1-0.68-7.52c0.26-2.76,1.28-5.35,2.07-7.86c1.19-3.86,2.67-7.55,3.92-11.32c3.08-9.3,6.7-18.36,9.77-27.62
		c1.1-3.32,2.38-6.54,3.46-9.82c1.72-5.18,3.51-10.31,7.1-14.52c2.78-3.27,9.02-7.34,15.04-7.6c3.97-0.18,7.43,0.55,10.72,1.67
		c4.67,1.6,9.02,6.22,12.72,9.86c5.62,5.54,10.77,12.07,15.78,18.91c2.64,3.6,4.67,7.71,7.14,11.53c2.69,4.16,4.13,9.11,6.67,13.44
		C390,208.83,390.94,212.91,391.63,213.49z"/>
	<g>
		<path d="M261,425.69c-90.81,0-164.69-73.88-164.69-164.69c0-90.81,73.88-164.69,164.69-164.69c90.81,0,164.69,73.88,164.69,164.69
			C425.69,351.81,351.81,425.69,261,425.69z M261,106.07c-85.43,0-154.93,69.5-154.93,154.93c0,85.43,69.5,154.93,154.93,154.93
			c85.43,0,154.93-69.5,154.93-154.93C415.93,175.57,346.43,106.07,261,106.07z"/>
	</g>
	<path class="st1" d="M278.76,261c0,9.81-7.95,17.76-17.76,17.76c-9.81,0-17.76-7.95-17.76-17.76c0-9.81,7.95-17.77,17.76-17.77
		C270.81,243.24,278.76,251.19,278.76,261z"/>
	<g>
		<path class="st1" d="M281.5,232.94c0,3.58-2.9,6.47-6.48,6.47c-3.58,0-6.47-2.9-6.47-6.47c0-3.58,2.9-6.48,6.47-6.48
			C278.61,226.46,281.5,229.36,281.5,232.94z"/>
		<path class="st1" d="M232.94,240.5c3.58,0,6.47,2.9,6.47,6.48c0,3.58-2.9,6.47-6.47,6.47c-3.58,0-6.48-2.89-6.48-6.47
			C226.47,243.39,229.36,240.5,232.94,240.5z"/>
		<path class="st1" d="M240.5,289.06c0-3.58,2.89-6.48,6.47-6.48c3.58,0,6.47,2.9,6.47,6.48c0,3.58-2.89,6.48-6.47,6.48
			C243.39,295.54,240.5,292.64,240.5,289.06z"/>
		<path class="st1" d="M289.06,281.51c-3.58,0-6.48-2.9-6.48-6.48c0-3.58,2.9-6.47,6.48-6.47c3.58,0,6.48,2.9,6.48,6.47
			C295.54,278.61,292.64,281.51,289.06,281.51z"/>
	</g>
</g>
<g>
	<g>
		<path class="st1" d="M675,747c0,129.24-104.76,234-234,234c-129.23,0-234-104.76-234-234c0-129.24,104.77-234,234-234
			C570.24,513,675,617.76,675,747z"/>
	</g>
	<path class="st2" d="M441,574.01c-95.54,0-172.98,77.45-172.98,172.99c0,95.54,77.45,172.99,172.98,172.99
		c95.54,0,172.99-77.45,172.99-172.99C613.98,651.46,536.54,574.01,441,574.01z M436.2,608.12c8.67-0.1,17.78-0.38,24.93,1.29
		c2.95,0.69,5.82,0.5,8.65,1.29c4.31,1.21,7.75,2.71,10.85,5.04c5.17,3.88,10.15,14.5,6.46,23.5c-2.82,6.88-7.34,12.36-11.37,18.08
		c-5.47,7.79-10.7,15.75-16.14,23.51c-2.76,3.92-5.42,7.87-8.14,11.75c-3.24,4.62-5.97,8.87-10.85,11.88
		c-1.82,1.12-3.9,1.87-6.33,2.45c-0.86,0.05-1.72,0.09-2.58,0.13c-0.28,0.04-0.83,0.23-1.29,0.13c-2.78-0.6-5.13-0.71-7.36-1.68
		c-2.54-1.11-4.7-2.88-6.85-4.39c-3.3-2.33-6.35-4.87-9.56-7.23c-7.89-5.8-15.38-12.05-23.25-17.82c-2.81-2.07-5.49-4.29-8.26-6.33
		c-4.4-3.22-8.72-6.52-11.62-11.23c-2.25-3.65-4.19-10.85-2.58-16.66c1.06-3.83,2.81-6.9,4.91-9.68c2.96-3.95,8.7-6.65,13.3-9.04
		c7.01-3.64,14.81-6.51,22.86-9.17c4.24-1.4,8.77-2.06,13.17-3.23c4.79-1.27,9.94-1.11,14.85-2.2
		C431.27,608.22,435.44,608.6,436.2,608.12z M307.46,708.68c2.58-8.28,5.13-17.03,8.93-23.3c1.57-2.6,2.28-5.38,3.9-7.83
		c2.48-3.73,4.97-6.53,8.14-8.76c5.29-3.71,16.92-5.17,24.35,1.12c5.67,4.81,9.48,10.8,13.69,16.39
		c5.72,7.62,11.67,15.04,17.37,22.62c2.88,3.83,5.81,7.58,8.66,11.37c3.39,4.51,6.59,8.42,7.95,13.99c0.51,2.08,0.58,4.29,0.38,6.78
		c-0.23,0.83-0.45,1.67-0.67,2.5c-0.05,0.27-0.04,0.86-0.28,1.27c-1.43,2.46-2.26,4.66-3.87,6.48c-1.84,2.08-4.19,3.58-6.29,5.15
		c-3.23,2.42-6.6,4.53-9.83,6.86c-7.96,5.71-16.22,10.91-24.13,16.6c-2.84,2.04-5.78,3.89-8.57,5.91c-4.43,3.18-8.9,6.28-14.28,7.58
		c-4.17,1.01-11.62,0.63-16.64-2.69c-3.31-2.2-5.69-4.81-7.69-7.66c-2.83-4.04-3.63-10.33-4.48-15.45
		c-1.3-7.79-1.62-16.1-1.66-24.57c-0.02-4.47,0.76-8.99,1-13.53c0.27-4.94,2.02-9.8,2.5-14.8
		C306.03,713.41,307.68,709.55,307.46,708.68z M363.31,862.2c-7.08-5.02-14.61-10.15-19.41-15.7c-1.98-2.29-4.41-3.83-6.24-6.13
		c-2.78-3.51-4.68-6.75-5.82-10.45c-1.89-6.18,0.31-17.7,8.59-22.81c6.32-3.91,13.2-5.68,19.82-7.95
		c9.01-3.09,17.91-6.45,26.87-9.53c4.53-1.55,9.01-3.19,13.49-4.73c5.34-1.84,10.05-3.67,15.76-3.23c2.14,0.16,4.25,0.78,6.57,1.74
		c0.72,0.47,1.44,0.94,2.16,1.41c0.24,0.13,0.8,0.3,1.12,0.65c1.9,2.12,3.74,3.59,4.97,5.69c1.4,2.39,2.11,5.09,2.95,7.58
		c1.3,3.82,2.28,7.68,3.48,11.47c2.97,9.33,5.37,18.79,8.33,28.08c1.06,3.33,1.92,6.69,2.97,9.98c1.66,5.2,3.22,10.4,2.8,15.92
		c-0.33,4.28-2.99,11.25-7.7,15c-3.11,2.48-6.33,3.93-9.66,4.96c-4.71,1.45-10.95,0.26-16.08-0.51c-7.81-1.17-15.81-3.44-23.88-6.02
		c-4.26-1.36-8.32-3.49-12.56-5.13c-4.62-1.79-8.69-4.94-13.3-6.95C367.37,865.01,364.21,862.25,363.31,862.2z M526.58,856.52
		c-6.96,5.18-14.16,10.76-20.93,13.61c-2.79,1.17-5,3.02-7.76,4.04c-4.2,1.56-7.86,2.37-11.74,2.3c-6.46-0.1-16.73-5.76-19.04-15.22
		c-1.76-7.22-1.33-14.31-1.44-21.3c-0.15-9.52-0.6-19.03-0.75-28.51c-0.08-4.79-0.25-9.55-0.32-14.29
		c-0.1-5.65-0.39-10.69,1.79-15.99c0.81-1.98,2.05-3.8,3.68-5.71c0.67-0.54,1.34-1.08,2.01-1.62c0.2-0.19,0.53-0.67,0.97-0.86
		c2.6-1.14,4.57-2.44,6.95-2.97c2.7-0.6,5.49-0.43,8.12-0.47c4.04-0.06,8.01,0.21,11.98,0.23c9.8,0.06,19.54,0.7,29.29,0.76
		c3.49,0.02,6.96,0.24,10.41,0.26c5.45,0.03,10.88,0.15,16,2.26c3.96,1.63,9.77,6.32,11.88,11.96c1.39,3.72,1.77,7.23,1.72,10.72
		c-0.08,4.93-3.12,10.49-5.45,15.13c-3.53,7.06-8.15,13.98-13.1,20.85c-2.61,3.63-5.89,6.83-8.76,10.36
		c-3.13,3.84-7.39,6.74-10.72,10.5C530.5,853.53,526.91,855.68,526.58,856.52z M571.63,699.49c2.78,8.22,5.86,16.79,6.47,24.11
		c0.25,3.02,1.32,5.69,1.44,8.63c0.19,4.47-0.18,8.21-1.43,11.88c-2.09,6.11-10.65,14.13-20.36,13.4
		c-7.42-0.55-14.02-3.16-20.7-5.22c-9.11-2.8-18.29-5.31-27.35-8.09c-4.58-1.41-9.16-2.71-13.69-4.11
		c-5.4-1.65-10.29-2.94-14.65-6.65c-1.63-1.38-2.98-3.13-4.29-5.26c-0.3-0.81-0.61-1.61-0.92-2.42c-0.12-0.25-0.47-0.72-0.52-1.19
		c-0.29-2.83-0.91-5.1-0.68-7.52c0.26-2.76,1.28-5.36,2.07-7.86c1.19-3.86,2.67-7.55,3.92-11.32c3.08-9.3,6.7-18.36,9.77-27.62
		c1.1-3.32,2.38-6.54,3.46-9.82c1.72-5.18,3.51-10.31,7.1-14.52c2.78-3.27,9.02-7.34,15.04-7.6c3.97-0.18,7.43,0.55,10.72,1.67
		c4.67,1.6,9.02,6.22,12.72,9.86c5.63,5.54,10.77,12.07,15.78,18.91c2.64,3.6,4.67,7.71,7.14,11.53c2.69,4.16,4.13,9.11,6.67,13.44
		C570,694.83,570.93,698.91,571.63,699.49z"/>
	<g>
		<path d="M441,911.69c-90.81,0-164.69-73.88-164.69-164.69c0-90.81,73.88-164.69,164.69-164.69c90.81,0,164.69,73.88,164.69,164.69
			C605.69,837.81,531.81,911.69,441,911.69z M441,592.07c-85.43,0-154.93,69.5-154.93,154.93c0,85.43,69.5,154.93,154.93,154.93
			c85.43,0,154.93-69.5,154.93-154.93C595.93,661.57,526.43,592.07,441,592.07z"/>
	</g>
	<path class="st1" d="M458.76,747c0,9.81-7.95,17.76-17.76,17.76c-9.81,0-17.76-7.95-17.76-17.76c0-9.81,7.95-17.77,17.76-17.77
		C450.81,729.24,458.76,737.19,458.76,747z"/>
	<g>
		<path class="st1" d="M461.5,718.94c0,3.58-2.9,6.47-6.48,6.47c-3.58,0-6.48-2.9-6.48-6.47c0-3.58,2.9-6.48,6.48-6.48
			C458.6,712.46,461.5,715.36,461.5,718.94z"/>
		<path class="st1" d="M412.94,726.5c3.58,0,6.48,2.89,6.48,6.47s-2.9,6.47-6.48,6.47c-3.58,0-6.48-2.89-6.48-6.47
			S409.36,726.5,412.94,726.5z"/>
		<path class="st1" d="M420.49,775.06c0-3.58,2.9-6.48,6.48-6.48c3.58,0,6.47,2.9,6.47,6.48c0,3.58-2.89,6.48-6.47,6.48
			C423.39,781.54,420.49,778.64,420.49,775.06z"/>
		<path class="st1" d="M469.05,767.5c-3.58,0-6.48-2.9-6.48-6.48c0-3.58,2.9-6.47,6.48-6.47c3.58,0,6.48,2.9,6.48,6.47
			C475.54,764.61,472.63,767.5,469.05,767.5z"/>
	</g>
</g>
<g>
	<path class="st0" d="M57.69,926.93c-8.45,0-15.32-6.87-15.32-15.32V589.25c0-8.45,6.87-15.32,15.32-15.32h97.37
		c8.45,0,15.32,6.87,15.32,15.32v322.37c0,8.45-6.87,15.32-15.32,15.32H57.69z"/>
	<path d="M155.06,577.43c6.51,0,11.82,5.3,11.82,11.82v322.37c0,6.51-5.3,11.82-11.82,11.82H57.69c-6.51,0-11.82-5.3-11.82-11.82
		V589.25c0-6.51,5.3-11.82,11.82-11.82H155.06 M155.06,570.43H57.69c-10.35,0-18.82,8.47-18.82,18.82v322.37
		c0,10.35,8.47,18.82,18.82,18.82h97.37c10.35,0,18.82-8.47,18.82-18.82V589.25C173.88,578.9,165.41,570.43,155.06,570.43
		L155.06,570.43z"/>
</g>
<path class="st3" d="M676.69,459.72v-4.34H575.8h-8.74h-64.69h-6.63h-21.53h-18.07h-9.41v4.34h3.95c-0.02,0.24-0.05,0.47-0.05,0.73
	v5.79c0,2.38,0.89,3.94,2.68,4.7l9.99,4.31c1.04,0.44,1.57,1.23,1.57,2.38v2.75c0,0.83-0.43,1.25-1.29,1.25h-5.02
	c-0.79,0-1.18-0.44-1.18-1.32l0.02-4.52h-6.77v5.45c0,1.47,0.51,2.62,1.52,3.46c1.01,0.84,2.43,1.26,4.25,1.26h9.7
	c1.8,0,3.19-0.47,4.15-1.41c0.89-0.89,1.34-2.11,1.34-3.66v-5.79c0-2.42-0.82-3.99-2.45-4.7l-9.99-4.29
	c-1.18-0.51-1.77-1.32-1.77-2.41v-2.75c0-0.83,0.43-1.25,1.29-1.25h15.55h21.53v3.22h-2.11v3.86h2.18v14.1
	c0,3.38,1.82,5.06,5.45,5.06h4.65c1.77,0,3.17-0.42,4.2-1.26c1.03-0.84,1.55-1.99,1.55-3.44v-3.2h-6.56v2.29
	c0,0.86-0.37,1.29-1.11,1.29h-0.34c-0.85,0-1.27-0.41-1.27-1.23l-0.02-13.62h9.31v-3.86h-9.29v-3.22h36.45v3.22h-4.14v3.86h2.18
	v14.83h-2.18v4.34h10.85l-0.02-4.34h-2.11V466.8h2.11v-3.86h-4.36v-3.22h25.91h2.18v21.91h-2.18v4.34h10.85v-4.34h-2.13l0.02-3.06
	l2.59-2.59l4.47,5.65h-3.02v4.34h10.24v-4.34h-2.5l-6.61-8.2l6.68-6.63l2.43-0.02v-3.84H579v3.86h3.54l-6.74,6.7v-13.78h39.35v3.22
	h-3.49v3.86h2.18v14.1c0,1.54,0.45,2.76,1.34,3.63c0.97,0.96,2.35,1.43,4.15,1.43h6.95v4.34c0,0.82-0.43,1.23-1.29,1.23h-3.47
	c-0.74,0-1.11-0.43-1.11-1.29v-2.29h-6.56v3.2c0,1.45,0.52,2.6,1.56,3.44c1.04,0.84,2.43,1.26,4.19,1.26h7.83
	c3.62,0,5.43-1.69,5.43-5.06v-27.84h-8.74v3.86h2.18v14.78c0,0.82-0.4,1.23-1.2,1.23h-3.38c-0.86,0-1.29-0.42-1.29-1.25v-18.62
	h-2.92v-3.22h45.74v3.22h-2.59c-1.8,0-3.19,0.47-4.16,1.41c-0.91,0.89-1.36,2.11-1.36,3.65v3.2c0,2.48,1.16,3.99,3.5,4.52l7.36,1.68
	c1.04,0.24,1.57,1.04,1.57,2.41v1.7c0,0.83-0.42,1.25-1.27,1.25h-3.41c-0.77,0-1.16-0.45-1.16-1.34v-2.86h-6.58v2.66
	c0,1.47,0.51,2.63,1.53,3.47c1.02,0.85,2.44,1.27,4.26,1.27h7.45c3.83,0,5.74-1.69,5.74-5.06v-3.22c0-2.51-1.29-4.06-3.86-4.63
	l-6.9-1.57c-1.09-0.24-1.63-0.91-1.63-2v-2.13c0-0.83,0.42-1.25,1.27-1.25h3.43c0.77,0,1.16,0.44,1.16,1.32v2.95h6.54v-2.72
	c0-1.47-0.51-2.62-1.54-3.45c-1.03-0.83-2.43-1.25-4.2-1.25h-2.8v-3.22H676.69z"/>
</svg>
