<?xml version="1.0" encoding="utf-8"?>
<!-- Generator: Adobe Illustrator 26.0.2, SVG Export Plug-In . SVG Version: 6.00 Build 0)  -->
<svg version="1.1" id="Layer_1" xmlns="http://www.w3.org/2000/svg" xmlns:xlink="http://www.w3.org/1999/xlink" x="0px" y="0px"
	 viewBox="0 0 132 51" style="enable-background:new 0 0 132 51;" xml:space="preserve">
<style type="text/css">
	.st0{fill:#B5BDC6;enable-background:new    ;}
	.st1{fill:#FFFFFF;enable-background:new    ;}
	.st2{fill:#222222;}
</style>
<path class="st0" d="M88.06,51c-1.09,0-2.14-0.09-3.13-0.26c-1.04-0.19-1.91-0.42-2.67-0.72c-2.31-0.9-3.56-3.47-2.84-5.85
	l0.56-1.85h-6.51c-1.59,0-3.08-0.79-3.97-2.11l-0.07-0.1c-0.87,1.35-2.4,2.21-4.04,2.21h-6.44c-0.78,0-1.55-0.2-2.25-0.57
	c-0.7,0.38-1.47,0.57-2.25,0.57h-6.45c-0.64,0-1.26-0.13-1.87-0.39c-0.35,0.1-0.79,0.21-1.32,0.34c-0.9,0.21-1.9,0.33-3.05,0.37
	c-0.23,0.01-0.46,0.01-0.69,0.01c-1.95,0-3.76-0.33-5.37-0.98c-2.09-0.85-3.75-2.21-4.94-4.05c0-0.01-0.01-0.01-0.01-0.01
	c-1.38,1.55-3.1,2.77-5.13,3.63c-2.38,1.01-5.18,1.52-8.34,1.52c-3.12,0-5.94-0.51-8.36-1.51c-2.71-1.12-4.88-2.85-6.45-5.13
	C0.9,33.85,0.07,31.08,0,27.92c-0.03-1.28,0.47-2.54,1.36-3.46c0.57-0.58,1.27-1,2.04-1.24c-1.71-2.1-2.6-4.76-2.59-7.73
	c-0.02-2.87,0.8-5.47,2.41-7.7C4.74,5.7,6.8,4.07,9.36,2.93c2.38-1.05,5.07-1.59,7.99-1.59c2.98,0,5.68,0.54,8.02,1.62
	c1.72,0.79,3.22,1.84,4.48,3.13c0.88-1.32,2.37-2.14,3.98-2.14h6.44c1.19,0,2.33,0.46,3.21,1.25c0.43-1.1,1.1-2.09,2.02-2.94
	C47.08,0.78,49.06,0,51.23,0c2.17,0,4.15,0.77,5.72,2.22c0.64-0.3,1.31-0.45,2-0.45h6.45c2.64,0,4.79,2.15,4.79,4.79v4.01
	c0.84-0.68,1.9-1.05,3-1.05h7.4c0.26,0,0.52,0.03,0.82,0.08c0.3-0.05,0.57-0.08,0.84-0.08h6.78c2.14,0,4.03,1.44,4.61,3.49
	l0.34,1.21l0.35-1.22c0.59-2.08,2.45-3.48,4.62-3.48l6.84,0.03c1.19,0.01,2.34,0.46,3.21,1.26c0.29-0.14,0.56-0.27,0.83-0.38
	c2.04-0.81,4.38-1.21,6.96-1.21c3.96,0,7.25,0.94,9.77,2.79c2.74,2.01,4.42,4.88,4.87,8.3c0.18,1.31-0.21,2.65-1.05,3.67
	c-0.08,0.1-0.17,0.19-0.26,0.29c1.23,1.71,1.88,3.8,1.88,6.08c0,2.6-0.79,4.94-2.35,6.95c-1.4,1.81-3.29,3.21-5.61,4.17
	c-2.12,0.88-4.54,1.33-7.18,1.33c-4.07,0-7.47-0.94-10.11-2.81c-1.49-1.05-2.69-2.34-3.57-3.85l-1.94,5.51
	c-0.61,1.75-1.47,3.32-2.55,4.66c-1.21,1.51-2.75,2.69-4.57,3.51C92.37,50.6,90.33,51,88.06,51z"/>
<path class="st1" d="M69.23,37.93l1.14,1.69c0.69,1.03,1.85,1.64,3.09,1.64h7.94l-0.97,3.22c-0.56,1.85,0.42,3.84,2.21,4.55
	c0.69,0.27,1.5,0.49,2.47,0.66c0.93,0.16,1.92,0.24,2.94,0.24c2.12,0,4.01-0.37,5.62-1.09c1.67-0.75,3.07-1.83,4.18-3.21
	c1-1.25,1.8-2.71,2.37-4.34l2.78-7.92l0.55,1.2c0.83,1.82,2.11,3.35,3.8,4.54c2.46,1.73,5.65,2.61,9.5,2.61
	c2.5,0,4.78-0.42,6.77-1.24c2.15-0.89,3.89-2.18,5.18-3.84c1.41-1.81,2.12-3.93,2.12-6.29c0-2.21-0.67-4.22-1.94-5.81l-0.32-0.41
	l0.4-0.33c0.18-0.15,0.34-0.31,0.49-0.49c0.65-0.79,0.95-1.84,0.81-2.86c-0.41-3.13-1.95-5.75-4.45-7.58
	c-2.33-1.72-5.41-2.58-9.14-2.58c-2.45,0-4.66,0.38-6.57,1.14c-0.35,0.14-0.68,0.31-1.01,0.47l-0.36,0.18l-0.35-0.26
	c-0.7-0.76-1.69-1.2-2.72-1.2l-6.82-0.03c-1.7,0-3.14,1.09-3.6,2.71l-1.38,4.84L92.6,13.3c-0.45-1.6-1.93-2.72-3.59-2.72h-6.78
	c-0.23,0-0.47,0.03-0.74,0.08l-0.1,0.02l-0.1-0.02c-0.28-0.06-0.51-0.08-0.72-0.08h-7.4c-1.1,0-2.14,0.48-2.85,1.32l-1.21,1.44V6.56
	c0-2.05-1.67-3.73-3.73-3.73h-6.44c-0.63,0-1.25,0.17-1.84,0.5l-0.35,0.2l-0.49-0.5c-1.37-1.29-3.11-1.97-5.03-1.97
	c-1.89,0-3.62,0.68-4.99,1.96c-1.01,0.94-1.68,2.07-2,3.34l-0.28,1.1l-0.67-0.92c-0.72-0.98-1.81-1.54-3.01-1.54h-6.44
	c-1.46,0-2.79,0.86-3.39,2.2L30.1,7.96l-0.55-0.62c-1.25-1.43-2.81-2.58-4.63-3.41c-2.2-1.01-4.75-1.52-7.58-1.52
	c-2.77,0-5.32,0.5-7.56,1.5C7.41,4.96,5.5,6.48,4.09,8.42c-1.48,2.05-2.23,4.43-2.21,7.08c-0.01,3.05,1,5.71,2.92,7.71L5.58,24
	l-1.11,0.1c-0.89,0.08-1.72,0.47-2.34,1.11c-0.7,0.71-1.08,1.69-1.06,2.69c0.07,2.95,0.83,5.52,2.28,7.63
	c1.45,2.11,3.46,3.7,5.97,4.75c2.3,0.95,4.97,1.43,7.96,1.43c3.01,0,5.68-0.48,7.93-1.44c2.13-0.9,3.89-2.22,5.23-3.92l0.5-0.63
	l0.51,0.96c0.07,0.13,0.13,0.27,0.21,0.39c1.06,1.65,2.56,2.87,4.44,3.64c1.65,0.67,3.59,0.98,5.61,0.89
	c1.08-0.04,2.01-0.15,2.85-0.34c0.6-0.14,1.08-0.27,1.45-0.38l0.2-0.06l0.19,0.09c0.52,0.25,1.06,0.37,1.6,0.37h6.44
	c0.69,0,1.37-0.2,1.97-0.58l0.28-0.18l0.28,0.18c0.6,0.38,1.28,0.58,1.97,0.58h6.44c1.55,0,2.92-0.94,3.48-2.38L69.23,37.93z"/>
<g>
	<g>
		<path class="st2" d="M26.67,22.66c-0.83-0.74-1.81-1.36-2.94-1.86c-1.13-0.5-2.37-0.91-3.72-1.21l-2.78-0.67
			c-0.68-0.15-1.31-0.34-1.91-0.55c-0.6-0.22-1.12-0.47-1.57-0.77c-0.45-0.3-0.81-0.65-1.07-1.07c-0.26-0.41-0.38-0.9-0.36-1.45
			c0-0.67,0.19-1.26,0.58-1.78c0.39-0.52,0.95-0.94,1.69-1.23c0.74-0.3,1.64-0.45,2.71-0.45c1.57,0,2.82,0.34,3.74,1.01
			c0.92,0.68,1.44,1.62,1.56,2.84h6.28c-0.03-1.85-0.52-3.47-1.48-4.87c-0.96-1.4-2.3-2.5-4.02-3.28c-1.72-0.79-3.73-1.18-6.03-1.18
			c-2.26,0-4.28,0.39-6.05,1.18C9.52,8.11,8.13,9.2,7.12,10.6C6.1,12,5.6,13.64,5.61,15.52c-0.01,2.29,0.74,4.11,2.26,5.46
			c1.51,1.35,3.58,2.35,6.19,2.98l3.37,0.85c1.13,0.27,2.08,0.58,2.87,0.91c0.78,0.33,1.38,0.74,1.78,1.21
			c0.41,0.47,0.61,1.06,0.61,1.75c0,0.75-0.23,1.41-0.68,1.98c-0.45,0.58-1.09,1.02-1.91,1.34c-0.82,0.32-1.79,0.49-2.9,0.49
			c-1.13,0-2.14-0.17-3.03-0.52c-0.89-0.35-1.6-0.87-2.13-1.56c-0.53-0.69-0.83-1.56-0.9-2.59H4.79c0.05,2.23,0.59,4.1,1.63,5.6
			c1.03,1.51,2.48,2.64,4.33,3.41s4.03,1.15,6.53,1.15c2.52,0,4.68-0.38,6.47-1.14c1.79-0.76,3.16-1.83,4.11-3.22
			c0.95-1.39,1.43-3.03,1.44-4.92c-0.01-1.29-0.24-2.43-0.7-3.43C28.14,24.26,27.5,23.39,26.67,22.66z"/>
		<path class="st2" d="M43.37,32.59c-0.3,0.06-0.61,0.08-0.91,0.08c-0.44,0-0.81-0.06-1.14-0.19c-0.33-0.13-0.58-0.36-0.76-0.69
			c-0.18-0.33-0.27-0.79-0.27-1.38V19.15h4.37v-4.84h-4.37V8.74h-6.44v5.57h-3.18v4.84h3.18v12.1c-0.01,1.52,0.31,2.78,0.95,3.78
			c0.65,1,1.55,1.74,2.72,2.21c1.17,0.48,2.52,0.68,4.08,0.62c0.84-0.03,1.55-0.12,2.13-0.25c0.58-0.14,1.04-0.26,1.36-0.36
			l-1.01-4.8C43.9,32.49,43.67,32.53,43.37,32.59z"/>
		<path class="st2" d="M51.23,4.79c-0.95,0-1.76,0.32-2.45,0.96c-0.69,0.64-1.03,1.4-1.03,2.29c0,0.9,0.34,1.67,1.03,2.31
			s1.51,0.96,2.47,0.96c0.96,0,1.78-0.32,2.46-0.96c0.68-0.64,1.02-1.41,1.02-2.31c0-0.89-0.34-1.65-1.02-2.29
			C53.02,5.11,52.19,4.79,51.23,4.79z"/>
		<rect x="47.99" y="14.31" class="st2" width="6.44" height="23.23"/>
		<polygon class="st2" points="80.57,14.31 73.18,14.31 65.73,23.12 65.38,23.12 65.38,6.56 58.94,6.56 58.94,37.54 65.38,37.54 
			65.38,30.16 67.13,28.17 73.46,37.54 81.01,37.54 71.96,24.37 		"/>
		<path class="st2" d="M94.07,31.37h-0.24l-4.81-17.06h-6.78l8.34,23.9l-0.38,0.98c-0.45,1.05-1.07,1.66-1.85,1.82
			c-0.78,0.17-1.74,0.07-2.88-0.28l-1.45,4.83c0.46,0.18,1.05,0.33,1.76,0.46c0.71,0.12,1.47,0.19,2.29,0.19
			c1.59,0,2.96-0.25,4.08-0.76c1.13-0.51,2.07-1.22,2.81-2.15c0.74-0.92,1.33-2,1.76-3.24l9.03-25.72l-6.82-0.03L94.07,31.37z"/>
		<path class="st2" d="M125.54,26.29c-1.11-1.03-2.79-1.77-5.05-2.24l-4.21-0.85c-1.08-0.23-1.84-0.54-2.29-0.92
			c-0.44-0.38-0.67-0.85-0.67-1.41c0-0.7,0.34-1.25,1.03-1.67c0.69-0.42,1.53-0.63,2.53-0.63c0.75,0,1.39,0.12,1.93,0.37
			c0.54,0.25,0.97,0.58,1.31,0.98c0.33,0.41,0.55,0.86,0.65,1.37l5.9-0.36c-0.28-2.14-1.27-3.83-2.96-5.07
			c-1.69-1.24-4-1.86-6.94-1.86c-1.99,0-3.72,0.29-5.2,0.88c-1.48,0.59-2.62,1.42-3.43,2.5c-0.81,1.08-1.22,2.36-1.22,3.86
			c0,1.74,0.55,3.16,1.66,4.28c1.1,1.12,2.79,1.91,5.06,2.36l4.02,0.8c1.01,0.2,1.75,0.49,2.24,0.87c0.48,0.38,0.73,0.86,0.74,1.44
			c-0.01,0.7-0.36,1.26-1.05,1.7c-0.69,0.44-1.6,0.66-2.73,0.66c-1.15,0-2.09-0.25-2.83-0.73c-0.74-0.49-1.2-1.2-1.39-2.14
			l-6.34,0.33c0.31,2.22,1.38,3.97,3.2,5.26c1.82,1.29,4.27,1.93,7.35,1.93c2.02,0,3.8-0.32,5.35-0.96
			c1.55-0.64,2.77-1.53,3.66-2.69c0.89-1.15,1.34-2.49,1.34-4.01C127.21,28.67,126.65,27.32,125.54,26.29z"/>
	</g>
</g>
</svg>
